<svg xmlns="http://www.w3.org/2000/svg" xmlns:xlink="http://www.w3.org/1999/xlink" width="829.117" height="425.727" viewBox="0 0 829.117 425.727">
  <defs>
    <linearGradient id="linear-gradient" x1="14.998" y1="-473.858" x2="-13.367" y2="453.704" gradientUnits="objectBoundingBox">
      <stop offset="0" stop-color="#2f336a" stop-opacity="0"/>
      <stop offset="0.991" stop-color="#2b1757" stop-opacity="0.8"/>
    </linearGradient>
    <linearGradient id="linear-gradient-2" x1="2.118" y1="-23.186" x2="-0.822" y2="19.849" xlink:href="#linear-gradient"/>
    <linearGradient id="linear-gradient-3" x1="477.265" y1="-1388.416" x2="-268.451" y2="784.07" xlink:href="#linear-gradient"/>
    <linearGradient id="linear-gradient-4" x1="53.672" y1="-213.302" x2="-29.827" y2="121.998" xlink:href="#linear-gradient"/>
    <linearGradient id="linear-gradient-5" x1="45.619" y1="-169.386" x2="-15.082" y2="59.172" xlink:href="#linear-gradient"/>
    <linearGradient id="linear-gradient-6" x1="15.753" y1="-118.68" x2="-9.605" y2="79.454" xlink:href="#linear-gradient"/>
    <linearGradient id="linear-gradient-7" x1="75.042" y1="-842.394" x2="-26.006" y2="300.063" xlink:href="#linear-gradient"/>
    <linearGradient id="linear-gradient-8" x1="137.646" y1="-612.685" x2="-72.44" y2="326.249" xlink:href="#linear-gradient"/>
    <linearGradient id="linear-gradient-9" x1="0.609" y1="-1.277" x2="0.473" y2="1.56" xlink:href="#linear-gradient"/>
    <linearGradient id="linear-gradient-10" x1="2.714" y1="-11.401" x2="-0.512" y2="5.94" xlink:href="#linear-gradient"/>
    <linearGradient id="linear-gradient-11" x1="14.766" y1="-85.444" x2="-6.448" y2="42.516" xlink:href="#linear-gradient"/>
    <linearGradient id="linear-gradient-12" x1="128.57" y1="-446.716" x2="-63.397" y2="223.624" xlink:href="#linear-gradient"/>
    <linearGradient id="linear-gradient-13" x1="12.986" y1="-63.399" x2="-6.484" y2="36.241" xlink:href="#linear-gradient"/>
    <linearGradient id="linear-gradient-14" x1="10.495" y1="-70.484" x2="-6.444" y2="49.817" xlink:href="#linear-gradient"/>
    <linearGradient id="linear-gradient-15" x1="0.71" y1="-12.869" x2="0.245" y2="16.873" xlink:href="#linear-gradient"/>
    <linearGradient id="linear-gradient-16" x1="93.542" y1="-8272.905" x2="-121.433" y2="10842.822" xlink:href="#linear-gradient"/>
    <linearGradient id="linear-gradient-17" x1="19.316" y1="-1960.2" x2="-22.304" y2="2376.802" xlink:href="#linear-gradient"/>
    <linearGradient id="linear-gradient-18" x1="9.511" y1="-222.581" x2="-10.382" y2="269.917" xlink:href="#linear-gradient"/>
    <linearGradient id="linear-gradient-19" x1="6.085" y1="-192.287" x2="-5.981" y2="224.228" xlink:href="#linear-gradient"/>
    <linearGradient id="linear-gradient-20" x1="2.787" y1="-42.083" x2="-2.29" y2="52.669" xlink:href="#linear-gradient"/>
    <linearGradient id="linear-gradient-21" x1="5.16" y1="-85.252" x2="-5.337" y2="108.066" xlink:href="#linear-gradient"/>
    <linearGradient id="linear-gradient-22" x1="15.262" y1="-228.027" x2="-13.428" y2="216.12" xlink:href="#linear-gradient"/>
    <linearGradient id="linear-gradient-23" x1="0.926" y1="-7.078" x2="0.076" y2="7.988" xlink:href="#linear-gradient"/>
    <linearGradient id="linear-gradient-24" x1="258.133" y1="-978.607" x2="-135.706" y2="518.445" xlink:href="#linear-gradient"/>
    <linearGradient id="linear-gradient-25" x1="5.935" y1="-30.299" x2="-2.546" y2="17.616" xlink:href="#linear-gradient"/>
    <linearGradient id="linear-gradient-26" x1="7.123" y1="-32.491" x2="-3.405" y2="20.259" xlink:href="#linear-gradient"/>
    <linearGradient id="linear-gradient-27" x1="10.513" y1="-137.306" x2="-7.464" y2="110.096" xlink:href="#linear-gradient"/>
    <linearGradient id="linear-gradient-28" x1="10.78" y1="-93.568" x2="-7.515" y2="73.565" xlink:href="#linear-gradient"/>
    <linearGradient id="linear-gradient-29" x1="8.076" y1="-86.111" x2="-4.946" y2="62.759" xlink:href="#linear-gradient"/>
    <linearGradient id="linear-gradient-30" x1="9.51" y1="-116.261" x2="-6.157" y2="86.822" xlink:href="#linear-gradient"/>
    <linearGradient id="linear-gradient-31" x1="5.204" y1="-67.407" x2="-3.089" y2="52.222" xlink:href="#linear-gradient"/>
    <linearGradient id="linear-gradient-32" x1="11.654" y1="-96.088" x2="-6.807" y2="63.827" xlink:href="#linear-gradient"/>
    <linearGradient id="linear-gradient-33" x1="29.755" y1="-181.766" x2="-6.483" y2="44.003" xlink:href="#linear-gradient"/>
  </defs>
  <g id="advantages-row" transform="translate(-140 -3177.604)">
    <g id="advantages-row-2" data-name="advantages-row" transform="translate(0 73.604)">
      <g id="Group_57196" data-name="Group 57196" transform="translate(336.355 3383.083)">
        <path id="Path_2812" data-name="Path 2812" d="M913.27,1309.9c-1.242,0-2.253,1.43-2.258,3.2s1,3.208,2.242,3.212,2.253-1.43,2.258-3.2S914.512,1309.906,913.27,1309.9Zm0,.906c.667,0,1.207.335,1.206.745s-.542.741-1.209.74-1.207-.335-1.206-.745S912.6,1310.807,913.267,1310.809Zm-.01,4.3c-.941,0-1.7-.517-1.7-1.149s.765-1.143,1.706-1.141,1.7.517,1.7,1.149S914.2,1315.114,913.257,1315.112Z" transform="translate(-907.382 -1309.903)" fill="#466eb6"/>
        <path id="Path_2813" data-name="Path 2813" d="M896.22,1340.27a7.773,7.773,0,0,0-.723,3.249l-.057,23.473a2.58,2.58,0,0,0,2.586,2.573l13.422.033a2.58,2.58,0,0,0,2.6-2.56l.058-23.473a7.773,7.773,0,0,0-.707-3.252Z" transform="translate(-895.44 -1333.191)" fill="#7f1ca0"/>
        <path id="Path_2814" data-name="Path 2814" d="M896.22,1340.27a7.773,7.773,0,0,0-.723,3.249l-.057,23.473a2.58,2.58,0,0,0,2.586,2.573l13.422.033a2.58,2.58,0,0,0,2.6-2.56l.058-23.473a7.773,7.773,0,0,0-.707-3.252Z" transform="translate(-895.44 -1333.191)" fill="#7f1ca0"/>
        <path id="Path_2815" data-name="Path 2815" d="M914.111,1343.567l-.058,23.474a2.582,2.582,0,0,1-2.6,2.56l-13.422-.033a2.58,2.58,0,0,1-2.587-2.573l.058-23.474a7.77,7.77,0,0,1,.722-3.247l17.177.042A7.778,7.778,0,0,1,914.111,1343.567Z" transform="translate(-895.444 -1333.194)" fill="#f47458"/>
        <path id="Path_2816" data-name="Path 2816" d="M899,1367l.058-23.473a7.771,7.771,0,0,1,.723-3.249l-3.559-.009a7.773,7.773,0,0,0-.723,3.249l-.057,23.473a2.58,2.58,0,0,0,2.586,2.573l3.559.009A2.58,2.58,0,0,1,899,1367Z" transform="translate(-895.44 -1333.191)" fill="#f48c7f"/>
        <path id="Path_2817" data-name="Path 2817" d="M948.722,1343.662l-.058,23.474a2.582,2.582,0,0,1-2.6,2.56l-5.488-.013a2.6,2.6,0,0,0,2.627-2.561l.058-23.474a7.732,7.732,0,0,0-.715-3.251l5.466.013A7.778,7.778,0,0,1,948.722,1343.662Z" transform="translate(-930.055 -1333.289)" fill="#b75742"/>
        <path id="Path_2818" data-name="Path 2818" d="M915.96,1335.853l-17.18-.042h0a1.366,1.366,0,0,1,1.376-1.356l14.435.035a1.366,1.366,0,0,1,1.37,1.362Z" transform="translate(-898.001 -1328.731)" fill="#13375b"/>
        <rect id="Rectangle_1092" data-name="Rectangle 1092" width="2.917" height="18.608" transform="translate(0.006 32.084) rotate(-89.859)" fill="#355389"/>
      </g>
      <g id="Group_57197" data-name="Group 57197" transform="translate(251.519 3382.238)">
        <path id="Path_2819" data-name="Path 2819" d="M643.854,1306.645h2.052a2.146,2.146,0,0,0-1.213-.367H593.28a4.619,4.619,0,0,0-4.871,4.318v2.743a4.619,4.619,0,0,0,4.871,4.318l50.839-.015Z" transform="translate(-575.146 -1306.278)" fill="#86b1f2"/>
        <path id="Path_2820" data-name="Path 2820" d="M685.72,1306.322a4.417,4.417,0,0,0-4.658,4.129v3.1a4.417,4.417,0,0,0,4.658,4.129h32.007v-.693h-.132l-8.137-.683-1.645-5.719s3.174-3.16,3.381-3.242,6.4-.329,6.4-.329h.132v-.689Z" transform="translate(-646.2 -1306.312)" fill="#466eb6"/>
        <path id="Path_2821" data-name="Path 2821" d="M719.056,1314.261a6.607,6.607,0,0,1,1.949-4.965H689.78a4.057,4.057,0,0,0-4.278,3.792v2.385a4.058,4.058,0,0,0,4.278,3.793h31.225S719.056,1318.471,719.056,1314.261Z" transform="translate(-649.605 -1308.592)" fill="#fae0b2"/>
        <path id="Path_2822" data-name="Path 2822" d="M685.5,1313.088v2.385a3.392,3.392,0,0,0,.125.91,8.946,8.946,0,0,1,6.914-5.191c8.971-1.652,28.465-1.9,28.465-1.9H689.78A4.057,4.057,0,0,0,685.5,1313.088Z" transform="translate(-649.605 -1308.592)" fill="#daeef7" style="mix-blend-mode: multiply;isolation: isolate"/>
        <path id="Path_2823" data-name="Path 2823" d="M616.181,1403.894H618.5a2.267,2.267,0,0,0-1.373-.459H558.94a5.459,5.459,0,0,0-5.513,5.4v3.432a5.459,5.459,0,0,0,5.513,5.4l57.541-.019Z" transform="translate(-548.319 -1380.786)" fill="#50bfa5"/>
        <path id="Path_2824" data-name="Path 2824" d="M663.565,1403.489a5.221,5.221,0,0,0-5.272,5.168v3.879a5.221,5.221,0,0,0,5.272,5.168H699.79v-.868h-.15l-9.209-.855-1.861-7.159s3.593-3.956,3.827-4.058,7.244-.412,7.244-.412h.15v-.863Z" transform="translate(-628.739 -1380.828)" fill="#3c8f7c"/>
        <path id="Path_2825" data-name="Path 2825" d="M701.294,1413.427a8.66,8.66,0,0,1,2.206-6.215H668.16a4.8,4.8,0,0,0-4.842,4.747v2.986a4.8,4.8,0,0,0,4.842,4.747H703.5S701.294,1418.7,701.294,1413.427Z" transform="translate(-632.593 -1383.683)" fill="#fae0b2"/>
        <path id="Path_2826" data-name="Path 2826" d="M663.318,1411.959v2.986a4.669,4.669,0,0,0,.141,1.138,10.354,10.354,0,0,1,7.825-6.5c10.153-2.067,32.216-2.374,32.216-2.374H668.16A4.8,4.8,0,0,0,663.318,1411.959Z" transform="translate(-632.593 -1383.683)" fill="#daeef7" style="mix-blend-mode: multiply;isolation: isolate"/>
        <path id="Path_2827" data-name="Path 2827" d="M537.556,1355.325h-2.324a2.675,2.675,0,0,1,1.373-.365h58.214c3.046,0,5.515,1.92,5.515,4.288v2.724c0,2.368-2.469,4.288-5.515,4.288l-57.563-.015Z" transform="translate(-534.365 -1343.612)" fill="#f47458"/>
        <path id="Path_2828" data-name="Path 2828" d="M567.754,1355c2.913,0,5.274,1.836,5.274,4.1v3.078c0,2.265-2.361,4.1-5.274,4.1h-36.24v-.688h.15l9.213-.678,1.862-5.68s-3.594-3.139-3.828-3.22-7.247-.327-7.247-.327h-.15V1355Z" transform="translate(-531.514 -1343.645)" fill="#b75742"/>
        <path id="Path_2829" data-name="Path 2829" d="M534.336,1362.888a6.259,6.259,0,0,0-2.207-4.931h35.354c2.675,0,4.844,1.687,4.844,3.767v2.37c0,2.08-2.169,3.767-4.844,3.767H532.129S534.336,1367.07,534.336,1362.888Z" transform="translate(-531.986 -1345.91)" fill="#fae0b2"/>
        <path id="Path_2830" data-name="Path 2830" d="M572.327,1361.724v2.37a2.976,2.976,0,0,1-.141.9c-1.192-2.269-3.478-4.454-7.828-5.156-10.157-1.64-32.229-1.883-32.229-1.883h35.354C570.159,1357.957,572.327,1359.644,572.327,1361.724Z" transform="translate(-531.986 -1345.91)" fill="#daeef7" style="mix-blend-mode: multiply;isolation: isolate"/>
      </g>
      <rect id="Rectangle_1093" data-name="Rectangle 1093" width="5.555" height="127.288" transform="translate(462.929 3398.978) rotate(10.732)" fill="#184655"/>
      <path id="Path_2831" data-name="Path 2831" d="M2060.052,1504.725h6.564l-24.464-126.688-5.458,1.035Z" transform="translate(-1434.299 2020.929)" fill="#184655"/>
      <path id="Path_2832" data-name="Path 2832" d="M1544.481,1504.725h6.565l-24.464-126.688-5.458,1.035Z" transform="translate(-1038.914 2020.929)" fill="#184655"/>
      <path id="Path_2833" data-name="Path 2833" d="M1862.773,1506.6l-5.33.064,23.454-126.183,5.458,1.035Z" transform="translate(-1296.833 2019.058)" fill="#184655"/>
      <path id="Path_2834" data-name="Path 2834" d="M1359.436,644.345c21.612,2.315,49.58,4.756,77.657,52.4,30.687,52.076,14.533,129.864-9.687,151.48s-103.326,48.307-169.824,8.349c0,0-40.152-24.215-19.545-64.4,31.711-61.844,27.23-74.741,41.409-98.977S1313.561,639.432,1359.436,644.345Z" transform="translate(-817.307 2584.003)" fill="#fae0b2"/>
      <path id="Path_2835" data-name="Path 2835" d="M1480.012,710.659c-19.164-32.521-38.276-43.98-55.352-48.716a143.017,143.017,0,0,1,20,27c30.687,52.076,14.533,129.864-9.687,151.48-21.479,19.17-86.121,42.322-146.857,19.452a61.708,61.708,0,0,0,12.382,10.612c66.5,39.957,145.6,13.267,169.824-8.349S1510.7,762.735,1480.012,710.659Z" transform="translate(-860.225 2570.093)" fill="#f7cc7f"/>
      <path id="Path_2836" data-name="Path 2836" d="M491.779,769.047c-.613,4.831,4.418,8.665,8.892,8.362a11.01,11.01,0,0,0,9.865-9.251c.783-5.261-2.378-9.469-7.269-9.854a6.1,6.1,0,0,0-6.431,8.138c.986,3.066,3.784,4.209,5.194,3.363a1.4,1.4,0,0,0-.3-2.615,1.375,1.375,0,0,0-1.366.589c-1.165-.462-2.273-2.582-1.521-4.871.961-2.924,4.657-3.091,6.953-1.727,2.922,1.735,3.381,5.473,2.309,8.451a8.992,8.992,0,0,1-7.54,5.828,7.007,7.007,0,0,1-7.423-6.407A.684.684,0,0,0,491.779,769.047Z" transform="translate(-249.484 2496.212)" fill="#f48c7f"/>
      <g id="Group_57199" data-name="Group 57199" transform="translate(534.652 3104)">
        <path id="Path_2837" data-name="Path 2837" d="M1786.735,112.7c-22.368-.133-40.567,10.9-40.649,24.639-.041,6.87,4.456,13.117,11.758,17.663l-9.2,20.2,19.2-15.635a61.68,61.68,0,0,0,18.6,2.887c22.368.133,40.567-10.9,40.648-24.639S1809.1,112.836,1786.735,112.7Z" transform="translate(-1746.087 -112.702)" fill="#fae0b2"/>
        <g id="Group_57198" data-name="Group 57198" transform="translate(24.683 9.53)">
          <path id="Path_2838" data-name="Path 2838" d="M1852.442,171.3a14.114,14.114,0,1,0,10.051-17.249A14.112,14.112,0,0,0,1852.442,171.3Z" transform="translate(-1851.973 -153.585)" fill="#f7cc7f"/>
          <path id="Path_2839" data-name="Path 2839" d="M1898.269,215.178a7.546,7.546,0,1,1-14.594,3.848Z" transform="translate(-1876.285 -200.82)" fill="#efefef"/>
        </g>
      </g>
      <g id="Group_57201" data-name="Group 57201" transform="translate(341.533 3252.228)">
        <path id="Path_2840" data-name="Path 2840" d="M920.534,795.424l61.756-.464a2.554,2.554,0,0,0,2.534-2.573l-.31-41.288a2.554,2.554,0,0,0-2.573-2.534l-61.756.464a2.554,2.554,0,0,0-2.534,2.573l.31,41.288A2.554,2.554,0,0,0,920.534,795.424Z" transform="translate(-917.652 -748.566)" fill="#f47458"/>
        <path id="Path_2841" data-name="Path 2841" d="M1181.032,847.086l19.94,20.32-24.6-4.592Z" transform="translate(-1116.062 -824.12)" fill="#f47458"/>
        <g id="Group_57200" data-name="Group 57200" transform="translate(16.249 5.209)">
          <path id="Path_2842" data-name="Path 2842" d="M1018.087,785.805l-6-.108s-7.562-5.646-7.793-7.642,1.008-6.219-.165-6.749A3.931,3.931,0,0,0,998.9,773c-1.139,1.918-.191,8.92-.9,9.388-.441.293-3.892.328-6.413.314a4.452,4.452,0,0,0-3.959,2.367l0,0a2.372,2.372,0,0,0,.574,2.931l1.338,1.119-1.053,1.4a2.372,2.372,0,0,0,.457,3.312l1.057.806-.724.824a2.372,2.372,0,0,0,.422,3.507l.939.658-.141.26a2.372,2.372,0,0,0,.775,3.109l.944.624,15.982.284a10.989,10.989,0,0,0,4.37-.822l5.637-.829a1.237,1.237,0,0,0,1.057-1.221l.036-13.99A1.236,1.236,0,0,0,1018.087,785.805Z" transform="translate(-987.355 -770.911)" fill="#fff"/>
        </g>
      </g>
      <path id="Path_2843" data-name="Path 2843" d="M1462.239,985.671l-5.555,16.664,16.929-6.658Z" transform="translate(-989.496 2321.83)" fill="#f79c8d"/>
      <path id="Path_2844" data-name="Path 2844" d="M1479.847,772.937c-1.129.047-4.221,1.078-8.744,9.6-5.775,10.877-14.216,43.736-14.216,43.736l25.2,9.351,3.237-6.859,5.331-52.8S1480.16,772.924,1479.847,772.937Z" transform="translate(-989.652 2484.973)" fill="#042a44"/>
      <path id="Path_2845" data-name="Path 2845" d="M1583.426,752.619c-7.2.01-25.031,2.1-33.305,4.739,0,0-6.078,52.064,5.472,91.627,2.586,8.856-2.138,36.711-2.138,36.711l74.656-.982s-8.844-67.342-5.513-78.22,3.411-48.786,3.411-48.786-.511-.079-16.773-2.881A169.582,169.582,0,0,0,1583.426,752.619Z" transform="translate(-1059.926 2500.554)" fill="#07345a"/>
      <path id="Path_2846" data-name="Path 2846" d="M1715.854,1738.023s-1.651,19-4.688,24.259.16,14.2.319,15.432,6.393,2.981,16.3,1.929,9.75-3.332,8.95-7.015-6.074-8.417-6.393-11.925,3.037-16.133,3.037-16.133Z" transform="translate(-1183.654 1744.861)" fill="#f7a491"/>
      <path id="Path_2847" data-name="Path 2847" d="M1383.2,1252.386s-51.535-2.852-63.043,4.094,2.081,21.209,2.081,21.209,41.955,18.179,112.195,22.219c16.633.957,18.067-43.222,14.956-46.878S1383.2,1252.386,1383.2,1252.386Z" transform="translate(-881.247 2118.183)" fill="#327f6b"/>
      <path id="Path_2848" data-name="Path 2848" d="M1725.492,1864.683c10.2-1.084,8.942-6.079,8.119-9.872-.515-2.375-3.442-5.173-5.187-7.821-.912.724-2.4,2-6.827,3.307-4.6,1.355-10.909-1.326-14.929-3.005a48.952,48.952,0,0,0-1.364,13.118C1705.469,1861.673,1715.289,1865.766,1725.492,1864.683Z" transform="translate(-1180.123 1661.295)" fill="#355389"/>
      <path id="Path_2849" data-name="Path 2849" d="M1727.59,1290.808c-2.059,15.528-12.253,92.827-12.253,92.827l23.654,2.923s29.088-100.893,27.6-116.326-12.38-16.73-12.38-16.73S1733.04,1249.7,1727.59,1290.808Z" transform="translate(-1187.853 2116.505)" fill="#3c8f7c"/>
      <path id="Path_2850" data-name="Path 2850" d="M1603.854,460.305s7.859-8.286,14.181,1.794a6.284,6.284,0,0,1,8.286,2.136s8.8-2.648,10.934,10.507c0,0,4.528-.854,5.126,4.528a13.317,13.317,0,0,1-2.136,8.969s2.543,1.907,1.388,6.855a6.122,6.122,0,0,1-4.463,4.848s-.94,7.09-4.015,9.226-7.261,1.111-7.261,1.111-1.111,3.844-4.7,3.5-8.03-3.758-12.045-2.221-14.437-.086-14.437-.086-11.7-5.211-8.2-17.17c0,0-6.151-5.552-.769-12.216,0,0-3.93-10.422,3.844-16.572S1603.854,460.305,1603.854,460.305Z" transform="translate(-1086.777 2727.182)" fill="#07345a"/>
      <path id="Path_2851" data-name="Path 2851" d="M1667.827,657.484l-1.423,10.555s-3.187,15.206.913,18.137,17.436-18.571,17.436-18.571l-1.409-26.744Z" transform="translate(-1149.423 2586.26)" fill="#f7a491"/>
      <path id="Path_2852" data-name="Path 2852" d="M1688.395,649.528c-3.387,9.122-11.453,14.729-17.179,16.9l1.206-8.948,15.518-16.623Z" transform="translate(-1154.017 2586.26)" fill="#f47458"/>
      <path id="Path_2853" data-name="Path 2853" d="M1637.8,517.821a14.105,14.105,0,0,0-18.459,11.24A106.616,106.616,0,0,0,1618.2,542.6c-.224,12.327,6.158,24.325,11.755,24.325s21.069-7.98,21.629-25.481C1651.928,530.642,1646.534,520.827,1637.8,517.821Z" transform="translate(-1113.355 2681.202)" fill="#f7a491"/>
      <path id="Path_2854" data-name="Path 2854" d="M1743.733,611.414c0,2.72,1.8,4.924,4.026,4.924s4.026-2.2,4.026-4.924-1.8-4.924-4.026-4.924S1743.733,608.695,1743.733,611.414Z" transform="translate(-1209.63 2612.618)" fill="#f7a491"/>
      <path id="Path_2855" data-name="Path 2855" d="M1578.219,481.629c-5.782,4.581-7.808,11.541-4.526,15.546s10.631,3.538,16.413-1.042,7.809-11.541,4.526-15.546S1584,477.048,1578.219,481.629Z" transform="translate(-1078.024 2711.261)" fill="#07345a"/>
      <path id="Path_2856" data-name="Path 2856" d="M1599.1,799.015c-6.98-2.609-10.4,60.071-11.336,85.87-12.361,1.185-33.907.009-39.271-.393-2.523-.189-8.341-2.312-10.85-2.64a25.2,25.2,0,0,0-6.167-.291c-.464.08-13.348,5.332-14.451,6.483-1.367,1.428-5.062,5.03-4.438,6.588s7.107-4.341,7.107-4.341l3.168-1.772c-3.944,3.84-11.468,8.9-10.384,10.74,1.057,1.8,7.844-3.337,12.68-6.835-4.148,3.734-9.3,10.418-8.115,11.459,1.067.936,6.93-6.8,13.2-9.029,2.322-.825,4.636,1.461,6.463,1.737,1.342.2,3.415.635,4.732.263l6.784-1.917c2.311.208,2.369,1.571,4.7,2.066,2.709.574,7.154,1.179,10.6,2.02,19.868,4.838,26.495,7.084,32.578,7.081C1614.526,906.094,1615.594,805.182,1599.1,799.015Z" transform="translate(-1032.201 2465.034)" fill="#f7a491"/>
      <path id="Path_2857" data-name="Path 2857" d="M1848.09,838.593c1.308-26.426,1.116-59-13.748-64.556-5.865-2.193-16.2,10.992-14.345,65.093C1827.933,839.783,1839.583,840.309,1848.09,838.593Z" transform="translate(-1267.947 2484.302)" fill="#07345a"/>
      <path id="Path_2858" data-name="Path 2858" d="M1584.494,1003h1.515l22.778,55.786-1.569-.238Z" transform="translate(-1087.511 2308.539)" fill="#f79c8d"/>
      <path id="Path_2859" data-name="Path 2859" d="M1358.028,1807.733s2.064,6.6-1.632,10.956-19.053,8.64-21.069,11a6.608,6.608,0,0,0-1.863,4.374l43.1-1.182-.469-12.973-1.985-9.323Z" transform="translate(-894.998 1691.401)" fill="#f7a491"/>
      <path id="Path_2860" data-name="Path 2860" d="M1331.835,1860.81s11.075,4.465,16.425,1.822,5.188-3.376,6.736-2.39,2.1,13.147,2.1,13.147l-48.467,1.42c-3.373-.077-5.078-2.553-2.338-4.672a39.5,39.5,0,0,1,5.284-3.131C1315.369,1864.838,1331.835,1860.81,1331.835,1860.81Z" transform="translate(-873.118 1651.455)" fill="#355389"/>
      <path id="Path_2861" data-name="Path 2861" d="M1321.022,1268.036c-3.331-6.987-10.908-16.083-24.239-10.6-12.715,5.225-16.127,18.068-12.116,31.219s30.421,90.458,31.342,101.087l21.087.139s-3.832-61.213-4.772-76.009C1331.418,1299.631,1326.787,1280.128,1321.022,1268.036Z" transform="translate(-856.358 2114.707)" fill="#3c8f7c"/>
      <path id="Path_2862" data-name="Path 2862" d="M1283.87,1003h70.487a4.6,4.6,0,0,1,4.252,2.852l21.7,52.934h38.86a1.967,1.967,0,0,1,1.967,1.966h0a1.967,1.967,0,0,1-1.967,1.966h-110.6a7.721,7.721,0,0,1-7.043-4.559l-21.854-48.681A4.6,4.6,0,0,1,1283.87,1003Z" transform="translate(-853.438 2308.539)" fill="#f47458"/>
      <path id="Path_2863" data-name="Path 2863" d="M1461.482,1118.368a3.879,3.879,0,1,0,2.908-5.059A4.147,4.147,0,0,0,1461.482,1118.368Z" transform="translate(-993.1 2223.997)" fill="#fff"/>
      <ellipse id="Ellipse_665" data-name="Ellipse 665" cx="34.804" cy="34.877" rx="34.804" ry="34.877" transform="translate(631.746 3166.91)" fill="#9bc1f9" opacity="0.3"/>
      <g id="Group_57209" data-name="Group 57209" transform="translate(629.12 3164.542)">
        <g id="Group_57208" data-name="Group 57208">
          <g id="Group_57202" data-name="Group 57202" transform="translate(0 36.558)">
            <rect id="Rectangle_1094" data-name="Rectangle 1094" width="12.831" height="0.988" fill="#184655"/>
          </g>
          <g id="Group_57203" data-name="Group 57203" transform="translate(62.109 36.558)">
            <rect id="Rectangle_1095" data-name="Rectangle 1095" width="12.831" height="0.988" fill="#184655"/>
          </g>
          <g id="Group_57204" data-name="Group 57204" transform="translate(36.883)">
            <rect id="Rectangle_1096" data-name="Rectangle 1096" width="0.986" height="12.857" fill="#184655"/>
          </g>
          <g id="Group_57205" data-name="Group 57205" transform="translate(36.883 61.99)">
            <rect id="Rectangle_1097" data-name="Rectangle 1097" width="0.986" height="12.857" fill="#184655"/>
          </g>
          <path id="Path_2864" data-name="Path 2864" d="M2309.467,528.682a1.062,1.062,0,1,1-1.062-1.064A1.063,1.063,0,0,1,2309.467,528.682Z" transform="translate(-2270.975 -491.437)" fill="#184655"/>
          <g id="Group_57206" data-name="Group 57206" transform="translate(17.871 17.645)">
            <path id="Path_2865" data-name="Path 2865" d="M2247.553,468.181a.472.472,0,0,1-.335-.139l-19.084-19.124a.475.475,0,0,1,.671-.673l19.084,19.124a.476.476,0,0,1-.336.812Z" transform="translate(-2227.995 -448.105)" fill="#184655"/>
          </g>
          <g id="Group_57207" data-name="Group 57207" transform="translate(37.208 37.245)">
            <path id="Path_2866" data-name="Path 2866" d="M2317.3,551.511a.344.344,0,0,1-.173-.2l-6.168-18.672a.345.345,0,1,1,.655-.217l6.169,18.672a.345.345,0,0,1-.483.418Z" transform="translate(-2310.944 -532.184)" fill="#184655"/>
          </g>
        </g>
      </g>
      <path id="Path_2867" data-name="Path 2867" d="M2549.331,807.427l3.107-5.046-2.495-1.012a1.067,1.067,0,0,1-.587-1.389h0a1.066,1.066,0,0,1,1.389-.588l2.877,1.167,2.777-4.531-2.665-1.08a1.067,1.067,0,0,1-.588-1.389h0a1.067,1.067,0,0,1,1.389-.588l3.047,1.235,3.225-5.189a1.067,1.067,0,0,1,1.307-.425l.466.189a1.066,1.066,0,0,1,.508,1.546l-3,4.9,4.418,1.792,3.226-5.189a1.067,1.067,0,0,1,1.307-.425l.508.206a1.067,1.067,0,0,1,.509,1.546l-3,4.9,2.495,1.012a1.066,1.066,0,0,1,.588,1.389h0a1.066,1.066,0,0,1-1.389.588l-2.877-1.167-2.735,4.549,2.664,1.081a1.067,1.067,0,0,1,.588,1.389h0a1.067,1.067,0,0,1-1.389.588l-3.047-1.236-3.295,5.351a1.067,1.067,0,0,1-1.309.429l-.544-.221a1.067,1.067,0,0,1-.507-1.548l3.106-5.045-4.417-1.792-3.294,5.351a1.067,1.067,0,0,1-1.309.429l-.544-.221A1.067,1.067,0,0,1,2549.331,807.427Zm11.257-4.043,2.777-4.531-4.417-1.792-2.777,4.531Z" transform="translate(-1827.311 2473.027)" fill="#07345a"/>
      <path id="Path_2868" data-name="Path 2868" d="M1377.189,211.7l3.176-7.169-4.1-6.681a1.078,1.078,0,0,1,1.029-1.636l7.8.805,5.085-5.968a1.078,1.078,0,0,1,1.874.473l1.644,7.667,7.248,2.992a1.077,1.077,0,0,1,.129,1.928l-6.783,3.933-.606,7.817a1.078,1.078,0,0,1-1.794.719l-5.837-5.236-7.622,1.84A1.078,1.078,0,0,1,1377.189,211.7Z" transform="translate(-927.696 2931.501)" fill="#f48c7f"/>
      <path id="Path_2869" data-name="Path 2869" d="M2365.106,228.96l2.382-5.377-3.079-5.011a.808.808,0,0,1,.772-1.227l5.85.6,3.815-4.477a.808.808,0,0,1,1.405.355l1.233,5.751,5.437,2.244a.808.808,0,0,1,.1,1.446l-5.088,2.95-.454,5.864a.808.808,0,0,1-1.346.539l-4.378-3.928-5.717,1.38A.808.808,0,0,1,2365.106,228.96Z" transform="translate(-1685.525 2914.237)" fill="#f7cc7f"/>
      <path id="Path_2870" data-name="Path 2870" d="M2251.314,892.643l-.377-4.454-3.883-2.214a.614.614,0,0,1,.066-1.1l4.12-1.736.906-4.378a.614.614,0,0,1,1.066-.277l2.923,3.382,4.443-.491a.614.614,0,0,1,.593.929l-2.313,3.826,1.841,4.074a.614.614,0,0,1-.7.851l-4.353-1.018-3.306,3.009A.615.615,0,0,1,2251.314,892.643Z" transform="translate(-1595.382 2404.193)" fill="#f48c7f"/>
      <path id="Path_2871" data-name="Path 2871" d="M735.69,620.943,737.437,617l-2.258-3.675a.593.593,0,0,1,.566-.9l4.29.443,2.8-3.283a.593.593,0,0,1,1.031.26l.9,4.217,3.987,1.646a.593.593,0,0,1,.071,1.061l-3.731,2.163-.333,4.3a.593.593,0,0,1-.987.4l-3.21-2.88-4.193,1.012A.593.593,0,0,1,735.69,620.943Z" transform="translate(-436.115 2610.405)" fill="#f7cc7f"/>
      <path id="Path_2872" data-name="Path 2872" d="M1315.783,590.333l1.747-3.943-2.258-3.675a.593.593,0,0,1,.566-.9l4.29.443,2.8-3.283a.592.592,0,0,1,1.031.26l.9,4.217,3.987,1.646a.593.593,0,0,1,.071,1.061l-3.731,2.163-.333,4.3a.593.593,0,0,1-.987.4l-3.21-2.88-4.193,1.012A.593.593,0,0,1,1315.783,590.333Z" transform="translate(-880.981 2633.88)" fill="#50bfa5"/>
      <path id="Path_2873" data-name="Path 2873" d="M1028.065,335.055l6.923-1,2.846,10.962,10.3-.22,3.471,7.855,3.976-1.757-4.643-10.506-9.765.208-2.961-11.4L1027.8,330.7Z" transform="translate(-660.59 2825.277)" fill="#50bfa5"/>
      <path id="Path_2874" data-name="Path 2874" d="M956.671,1107.557l5.239-4.636,8.391,7.606,8.5-5.834,7.21,4.666,2.362-3.65-9.643-6.24L970.675,1105l-8.729-7.912-7.884,6.976Z" transform="translate(-604.042 2236.388)" fill="#07345a"/>
      <path id="Path_2875" data-name="Path 2875" d="M611.514,1078.549l4.4-7.141-3.531-1.432a1.51,1.51,0,0,1-.832-1.966h0a1.509,1.509,0,0,1,1.966-.832l4.072,1.651,3.931-6.413-3.771-1.529a1.51,1.51,0,0,1-.832-1.966h0a1.509,1.509,0,0,1,1.966-.832l4.312,1.749,4.565-7.344a1.51,1.51,0,0,1,1.849-.6l.658.267a1.51,1.51,0,0,1,.72,2.188l-4.246,6.93,6.252,2.536,4.565-7.344a1.51,1.51,0,0,1,1.849-.6l.719.292a1.51,1.51,0,0,1,.72,2.188l-4.246,6.93,3.531,1.432a1.509,1.509,0,0,1,.832,1.966h0a1.51,1.51,0,0,1-1.966.832l-4.072-1.651-3.871,6.438,3.771,1.529a1.51,1.51,0,0,1,.832,1.966h0a1.51,1.51,0,0,1-1.966.831l-4.312-1.749-4.663,7.573a1.509,1.509,0,0,1-1.853.608l-.77-.312a1.51,1.51,0,0,1-.718-2.19l4.4-7.141-6.252-2.536-4.663,7.574a1.51,1.51,0,0,1-1.853.607l-.77-.312A1.51,1.51,0,0,1,611.514,1078.549Zm15.932-5.721,3.931-6.413-6.252-2.536-3.931,6.413Z" transform="translate(-341.174 2271.13)" fill="#50bfa5"/>
      <g id="Group_57210" data-name="Group 57210" transform="translate(614.508 3311.035)">
        <path id="Path_2876" data-name="Path 2876" d="M2143.881,1219.045c-.447-3.949-.978-7.988-2.811-11.513-2.229-4.285-6.145-7.378-9.565-10.783a59.827,59.827,0,0,1-14.264-22.736c-2.283-6.6-3.421-13.624-6.567-19.854-1.921-3.8-4.541-7.2-6.723-10.864-5.158-8.65-7.965-18.873-14.958-26.113a31.389,31.389,0,0,0,7.089,24.83c1.723,2.009,3.72,3.82,5.032,6.119,2.382,4.173,2.165,9.266,2.444,14.065a61.764,61.764,0,0,0,7.386,25.85c4.589,8.426,11.212,15.929,13.665,25.208,1.838,6.953,1.292,14.753,5.211,20.779a5.313,5.313,0,0,1,1.015,2.081,4.562,4.562,0,0,1-.077,1.307q-.132.84-.263,1.679c-.892,5.691-1.813,12.932,3.077,17.191,3.389,2.952,7.751,3.018,10.185-.9,2.451-3.948,2.234-9.726,2.052-14.169C2145.506,1233.82,2144.714,1226.4,2143.881,1219.045Z" transform="translate(-2088.648 -1090.059)" fill="#3c8f7c"/>
        <path id="Path_2877" data-name="Path 2877" d="M2273.619,1125.243c-1.9-6.588-4.855-12.862-6.335-19.558-1.435-6.495-1.447-13.209-1.451-19.861q-.008-10.934-.016-21.868a82.375,82.375,0,0,0-.758-13.576c-1.614-9.629-6.618-18.533-7.466-28.26-.367-4.206.059-8.458-.4-12.654a19.913,19.913,0,0,0-1.989-6.972,3.1,3.1,0,0,0-5.572.156c-2.431,5.267-3.973,10.96-2.99,16.6.589,3.385,2.055,6.542,3.149,9.8,4.875,14.5,2.287,30.553,6.059,45.38,1.138,4.476,2.86,8.865,3.06,13.479.479,11.044-7.769,21.132-7.012,32.16.621,9.042,7.121,16.525,9.85,25.166,1.528,4.838,1.854,10,3.491,14.8,1.271,3.73,4.228,8.261,8.821,7.128,4.36-1.075,3.043-4.634,2.848-8.033C2276.244,1147.635,2276.864,1136.478,2273.619,1125.243Z" transform="translate(-2209.578 -1000.835)" fill="#327f6b"/>
        <path id="Path_2878" data-name="Path 2878" d="M2345.337,1152.9c-.192-3.423-.77-6.865-.291-10.26.4-2.867,1.546-5.569,2.361-8.347,1.527-5.205,1.906-10.669,2.275-16.082q1.009-14.76,2.017-29.52c1.045-15.3,2.1-30.634,4.955-45.7.794-4.182,1.686-8.713-.194-12.53-.4-.8-1.175-1.658-2.03-1.391-.609.191-.907.861-1.128,1.461-6.251,16.989-8.614,35.28-15.592,51.983-1.672,4-3.616,7.938-4.481,12.188-1.039,5.1-.468,10.375-.334,15.582a73.509,73.509,0,0,1-2.6,22.171c-1.079,3.756-2.523,7.427-3.115,11.29-.737,4.817-.118,9.724.343,14.575a223.865,223.865,0,0,1,.9,28.074c-.17,5.505,4.478,5.361,7.557,1.979,2.153-2.365,2.133-4.962,2.87-7.907C2341.274,1170.8,2345.925,1163.379,2345.337,1152.9Z" transform="translate(-2271.316 -1022.453)" fill="#3c8f7c"/>
        <path id="Path_2879" data-name="Path 2879" d="M2189.938,1520.7c-4.109-6.6-12.3-10.357-14.922-17.681-.669-1.864-.93-3.868-1.746-5.671-1.813-4-5.937-6.268-9.99-8.111a.857.857,0,0,0-1.211.771h0a2.925,2.925,0,0,0,1.269,2.473,16.445,16.445,0,0,1,6.552,8.937c1.252,4.292.709,9,2.265,13.188,1.306,3.518,4,6.394,5.26,9.928,1.155,3.23,1.033,6.76,1.577,10.148s2.048,6.983,5.159,8.417C2195.406,1548.283,2192.593,1524.962,2189.938,1520.7Z" transform="translate(-2144.953 -1375.322)" fill="#327f6b"/>
        <path id="Path_2880" data-name="Path 2880" d="M2415.28,1469.884c-.175,3.193.313,6.539-.936,9.481a28.752,28.752,0,0,1-3.417,5.073c-4.144,5.861-5.646,14.166-12.013,17.465a2.165,2.165,0,0,1-1.354.326,2.076,2.076,0,0,1-1.343-1.361c-1.561-3.637.19-7.734,1.228-11.554a2.836,2.836,0,0,0,.015-2.028c-.35-.676-1.149-.969-1.7-1.5-1.088-1.058-.985-2.809-.77-4.313a97.834,97.834,0,0,1,2.271-11.151,19.506,19.506,0,0,1,2.387-5.964,26.4,26.4,0,0,1,5.03-4.977,59.608,59.608,0,0,0,17.4-25.687c.736-2.143,1.392-4.406,2.912-6.085s4.23-2.542,6.081-1.24c1.317.927-4.078,9.6-4.707,10.646-1.8,2.974-1.821,5.562-2.837,8.864C2421.043,1453.971,2415.756,1461.214,2415.28,1469.884Z" transform="translate(-2323.475 -1326.688)" fill="#3c8f7c"/>
        <path id="Path_2881" data-name="Path 2881" d="M2372.617,1379.173a39.285,39.285,0,0,0,2.754-9.373c.431-3.6-.141-7.292.475-10.87.791-4.6,3.474-8.646,4.8-13.12.959-3.231,1.194-6.625,1.77-9.947,1.646-9.5,6.111-18.776,4.83-28.329-.279-2.078-1.217-4.5-3.279-4.854-1.867-.321-3.567,1.386-4.052,3.221s-.123,3.77.01,5.663a23.373,23.373,0,0,1-4.188,14.993c-2.933,4.15-7.188,7.275-9.827,11.618-3.238,5.328-3.678,11.831-5.33,17.846-3.285,11.96-11.525,22.394-13.027,34.707-.6,4.9.552,10.855,5.074,12.813C2365.707,1409.2,2369.655,1386.835,2372.617,1379.173Z" transform="translate(-2287.088 -1232.286)" fill="#327f6b"/>
        <path id="Path_2882" data-name="Path 2882" d="M2248.276,1696.059h-30.014a3.183,3.183,0,0,0-3.092,3.921l10.942,46.137a3.179,3.179,0,0,0,3.091,2.448h36.054a3.179,3.179,0,0,0,3.092-2.448l10.941-46.137a3.182,3.182,0,0,0-3.091-3.921Z" transform="translate(-2185.609 -1533.993)" fill="#f47458"/>
      </g>
      <g id="Group_57211" data-name="Group 57211" transform="translate(212.613 3419.102)">
        <rect id="Rectangle_1098" data-name="Rectangle 1098" width="145.894" height="7.535" transform="translate(17.536)" fill="#184655"/>
        <rect id="Rectangle_1099" data-name="Rectangle 1099" width="95.386" height="6.593" transform="translate(20.173 43.711)" fill="#184655"/>
        <rect id="Rectangle_1100" data-name="Rectangle 1100" width="6.154" height="102.771" transform="translate(142.959 3.768)" fill="#184655"/>
        <rect id="Rectangle_1101" data-name="Rectangle 1101" width="6.154" height="102.771" transform="translate(55.925 3.768)" fill="#184655"/>
        <path id="Path_2883" data-name="Path 2883" d="M770.335,1580.441l33.152-101.888-5.434-1.768-33.727,103.655Z" transform="translate(-671.149 -1473.902)" fill="#184655"/>
        <path id="Path_2884" data-name="Path 2884" d="M370.549,1580.493l28.355-102.11-5.506-1.529-28.78,103.64Z" transform="translate(-364.618 -1473.954)" fill="#184655"/>
      </g>
      <path id="Path_2885" data-name="Path 2885" d="M2178.179,357.454a40.732,40.732,0,1,0,40.647,40.732A40.69,40.69,0,0,0,2178.179,357.454Zm2.18,75.54A34.876,34.876,0,1,1,2212.915,396,34.83,34.83,0,0,1,2180.359,432.994Z" transform="translate(-1511.629 2803.601)" fill="#184655"/>
      <rect id="Rectangle_1102" data-name="Rectangle 1102" width="801.115" height="1.545" transform="translate(149.028 3528.182)" fill="#2b1656"/>
      <path id="Path_2886" data-name="Path 2886" d="M1646.892,671.7l10.837-.177s-.182,4.12-4.946,4.336C1646.975,676.125,1646.892,671.7,1646.892,671.7Z" transform="translate(-1135.364 2562.743)" fill="#fff"/>
    </g>
    <g id="Layer_11" data-name="Layer 11" transform="translate(140 3275.143)">
      <g id="Group_57061" data-name="Group 57061" opacity="0.18">
        <path id="Path_2547" data-name="Path 2547" d="M1365.115,405.57c.125-.152.294-.251.283-.581l-3.9-.357.072.049C1362.845,405.04,1364.013,405.33,1365.115,405.57Z" transform="translate(-732.797 -307.992)" fill="url(#linear-gradient)"/>
        <path id="Path_2548" data-name="Path 2548" d="M1486.021,479.949l7.446,2.949c1.528.112,3.068.222,4.577.37-1.174-.908-2.411-1.759-3.615-2.634l-3.629-2.6c-2.417-1.729-4.814-3.461-7.295-5.1,2.852.488-3.407-5.192.588-3.939-1.13-.77-5.987-4.767-5.409-2.929l2.57,2.473a21.08,21.08,0,0,0-5.557-1.075c-1.371-.048-2.413.1-3.552.077-2.288-.021-4.98-.711-11.685-4.5,2.364,4.261,4.672,6.635,7.093,8.15a41.035,41.035,0,0,0,7.386,3.223c1.416.954,2.506,1.852,3.633,2.736l3.749,1.364Z" transform="translate(-773.51 -332.02)" fill="url(#linear-gradient-2)"/>
        <path id="Path_2549" data-name="Path 2549" d="M487.568,486.466l-.144-.4A.409.409,0,0,0,487.568,486.466Z" transform="translate(-373.187 -341.496)" opacity="0.45" fill="url(#linear-gradient-3)"/>
        <path id="Path_2550" data-name="Path 2550" d="M486.4,482.613,487,484.25C487.068,483.071,488.925,480.147,486.4,482.613Z" transform="translate(-372.766 -339.68)" opacity="0.45" fill="url(#linear-gradient-4)"/>
        <path id="Path_2551" data-name="Path 2551" d="M1684.73,795.172c-.587-1.26-1.133-2.46-1.82-3.81a30.4,30.4,0,0,0,1.756,3.81Z" transform="translate(-865.029 -467.099)" fill="url(#linear-gradient-5)"/>
        <path id="Path_2552" data-name="Path 2552" d="M1552.747,565.324l-4.358-4.395A21.888,21.888,0,0,0,1552.747,565.324Z" transform="translate(-809.686 -372.296)" fill="url(#linear-gradient-6)"/>
        <path id="Path_2553" data-name="Path 2553" d="M1656.741,782.727a6.743,6.743,0,0,0-1.094-.59C1656.115,782.85,1656.586,783.1,1656.741,782.727Z" transform="translate(-853.813 -463.304)" fill="url(#linear-gradient-7)"/>
        <path id="Path_2554" data-name="Path 2554" d="M1619.58,650.887a1.262,1.262,0,0,0,.3-.539C1619.185,649.562,1619.273,650.084,1619.58,650.887Z" transform="translate(-838.88 -408.924)" fill="url(#linear-gradient-8)"/>
        <path id="Path_2555" data-name="Path 2555" d="M1099.62,582.284c-.09-.178-.17-.357-.263-.535-.191-.368-.391-.736-.606-1.1l-.161-.274-.156-.242-.318-.483-.329-.482c-.112-.163-.227-.326-.327-.444q-.312-.391-.646-.782c-.447-.521-.927-1.042-1.443-1.562,6.351-2.281,6.01-6.14,10.909-4.075a2.552,2.552,0,0,1,.127,1.331,20.453,20.453,0,0,1,1.906,1.157,4.413,4.413,0,0,1,.534.441l.559.513.566.542c.192.19.4.44.6.666,1.323,1.558,2.689,3.367,4.056,5.33h4.685c-.376-1.26-.735-2.44-1.071-3.528l-1.061-3.36c-.163-.509-.348-1.038-.5-1.475l-.437-1.179-.677-1.756-.592-1.478c-.783-1.928-1.55-3.76-2.5-6.4-.976-2.63-2.214-6.036-3.851-11.164,1.446-1.621,4.271,2.568,6.808,6.5,1.287,1.953,2.417,3.872,3.3,4.935s1.51,1.281,1.679-.134l1.351,4.941.337,1.234.084.308.044.161.065.214.259.857.549,1.864.565,2.057,2.021,7.407h6.325c-.158-.533-.315-1.069-.473-1.587-.917-3.022-1.831-5.806-2.74-8.374-.226-.643-.453-1.271-.692-1.885-.124-.331-.223-.556-.328-.805l-.314-.729-.316-.714-.13-.276-.116-.238-.47-.928a37.122,37.122,0,0,0-8.284-10.709L1113.6,551.9c-1.538-1.434-3.087-2.984-4.722-4.8a49.972,49.972,0,0,1-4.888-6.531c-.412-.648-.818-1.328-1.236-2.037s-.859-1.439-1.29-2.211c-.862-1.543-1.73-3.228-2.6-5.08,2.208-1.534.472-4.932-1.316-7.993-1.756-3.077-3.41-5.9-.828-6.507,4.115,9.085,5.033,6.41,5.974,2.752-2.118-2.213-4.452-3.73-6.666-6.041-2.275-2.284-4.431-5.351-6.192-10.752,2.154,1.178,2.573-.671,3.206-1.675s1.487-1.152,4.543,3.5q-1.156-2.64-2.243-4.968c-.754-1.541-1.5-2.977-2.236-4.326a65.239,65.239,0,0,0-4.375-7.068,30.384,30.384,0,0,0-10.226-8.957c-4.277-4.655-6.351-7.539-7.31-9.591a6.567,6.567,0,0,1-.652-4.461,7.81,7.81,0,0,0-.379-4.645,20.884,20.884,0,0,0-2.144-4.007,55.932,55.932,0,0,0-4.667-5.891l3.743,1.842c-3.2-4.082-6.334-8.2-9.669-12.165l.918,5.639-6.716-6.369c-1.125-1.051-2.218-2.122-3.366-3.151l-3.432-3.087c-4.6-3.474-4.544-2.046-3.679.244s2.545,5.464,1.253,5.558c1.782.184,3.574.374,5.333.6,1.818,3.205,4.948,6.359,7.445,9.1,2.439,2.782,4.279,5.118,3.6,6.524-3.679-4.7-5.71-6.023-7.37-6.5-1.641-.488-2.842-.187-4.862-1.611l4,4.048,3.9,4.137-.262,4.666c.791,1.146,1.563,2.256,2.29,3.35l2.085,3.205c1.356,2.068,2.656,3.991,3.965,5.742l.982,1.282q.479.634.964,1.233c.648.8,1.306,1.552,1.984,2.254a22.782,22.782,0,0,0,4.375,3.592c-.613-2.345-2.22-3.569-3.711-4.777s-2.842-2.421-3.089-4.727a14.76,14.76,0,0,1,5.439,3.105,51.258,51.258,0,0,1,5.727,5.754c1.939,2.26,3.859,4.833,5.861,7.5.99,1.339,2.02,2.69,3.011,4.077s1.985,2.788,3,4.174c-.823.882,1,4.8-.756,3.686-.522-.028-1.647-2.114-2.124-3.362-1.383,1.936-6.257-3.906-1.2,7.747-2.608-1.155-6.293-3.077-9.417-4.569-.782-.374-1.528-.722-2.215-1.026s-1.336-.553-1.887-.749c-1.1-.391-1.862-.544-2.071-.327-1.125-1.43-2.312-3.033-3.488-4.72-.588-.843-1.174-1.708-1.749-2.583l-1.733-2.612a58.77,58.77,0,0,1-5.267-9.715l.852-.005c-1.54-2.736-4.872-6.4-7.56-9.686-2.755-3.246-4.826-6.162-3.723-7.605-.726-.662-1.7-1.665-2.7-2.63a27.477,27.477,0,0,0-2.82-2.4c-1.559-1.064-2.125-.564.3,4.321l-6.1-6.5c-1.025-1.073-2.01-2.174-3.067-3.22l-3.13-3.163c3.335-.749,2.67-4.6,3-6.951s1.685-3.2,9.225,2.306c-.24-.2-1.526-1.484-3.676-3.665L1031.9,434.5l-5.144-5.006c.261,0,.49-.038.777-.012a2.935,2.935,0,0,0,1.728.386c1.24,1.756,2.288,2.584,1.613,3.59,1.869.514,2.922.445,3.409-.125s.374-1.614-.187-2.959a29.306,29.306,0,0,0-2.76-4.834c-.612-.91-1.285-1.859-2-2.828s-1.456-1.959-2.254-2.919l-4.184.5c-1.038-1.929-1.886-3.749-2.712-5.513-.413-.882-.819-1.75-1.241-2.612s-.892-1.686-1.381-2.526a36.107,36.107,0,0,0-3.546-5.062c-.719-.856-1.516-1.725-2.412-2.607s-1.934-1.745-3.07-2.644c-4.7-1.69-9.3-3.39-14.029-4.885l-7.005-2.259-1.742-.553-1.766-.52-3.522-1.026-6.212-4.587c-1.232-3.748-10.964-10.172-4.9-10.277.139-2,3.643-.059,7,3.868.3.833-.835.209-.513,1.073,2.5-.67,4.712-2.17,1.5-8.052,2.273,2.282,3.489,3.639,4.688,4.648a15.48,15.48,0,0,0,4.493,2.657l-2.223-2.367-1.114-1.184-1.141-1.156c.981.707,2.034,1.451,3.15,2.187s2.3,1.457,3.521,2.153,2.463,1.365,3.7,1.99,2.48,1.2,3.641,1.749c4.68,2.155,8.711,3.3,9.7,2.158-2.579.486-4.238-1.1-5.677-3.348-.723-1.119-1.374-2.42-2.081-3.677a26.119,26.119,0,0,0-2.3-3.519c3.589,2.07,11.387,6.424,6.973,1.453a6.324,6.324,0,0,1-1.563-.571c-.672-.3-1.461-.7-2.3-1.131-1.679-.869-3.554-1.888-5.077-2.583-3.05-1.391-4.679-1.491-.578,3.4-1.177-.7-2.48-1.433-3.827-2.212-.673-.39-1.358-.791-2.045-1.207s-1.4-.82-2.089-1.254a27.742,27.742,0,0,1-7.314-6.167c6.765,3.084,4.168-1.1,7.555-1.96-3.255-1.15-5.318-1.1-6.785-.716s-2.352,1.124-3.208,1.347a107.6,107.6,0,0,1-7.246-10.091c-2.1-3.121-3.973-6.091-6.047-8.951-.521-.712-1.045-1.428-1.605-2.119s-1.148-1.364-1.759-2.036a48.86,48.86,0,0,0-4.029-3.965q-1.113-.975-2.351-1.933-.621-.479-1.277-.954t-1.376-.915a64.114,64.114,0,0,0-6.351-3.563c-1.286-.546,1.512.961,4.225,2.767a20.6,20.6,0,0,1,3.47,2.718c.772.848,1,1.534.191,1.825a34.443,34.443,0,0,1-4.969-2.024,21.87,21.87,0,0,1-3.734-2.433,33.575,33.575,0,0,1-5.248-5.679,63.316,63.316,0,0,0-4.778-5.835,22.014,22.014,0,0,0-3.091-2.647,22.739,22.739,0,0,0-4.1-2.175l.7,5.991c-1.97-.707-5.184-2.175-8.453-3.73l-2.443-1.172L912.79,314.8l-4.047-1.853c-.153-1-2.885-3.946-4.4-6.142-.764-1.081-1.211-1.991-.842-2.408.185-.209.574-.295,1.23-.216a11.677,11.677,0,0,1,2.815.8,35.974,35.974,0,0,0-3.355-2.193c-1.072-.627-2.094-1.166-3.072-1.629a29.181,29.181,0,0,0-5.416-1.969,23.973,23.973,0,0,0-4.789-.682c-1.534-.082-3.022-.064-4.533-.045s-3.044.039-4.667-.039a46.269,46.269,0,0,1-5.243-.548,38.571,38.571,0,0,1-6.24-1.645c-1.147-.4-2.348-.882-3.629-1.424-1.288-.523-2.646-1.129-4.085-1.828,2.61,1.418,4.65,2.491,6.346,3.44,1.705.926,3.1,1.642,4.443,2.287s2.625,1.222,4.105,1.873c.743.318,1.525.679,2.383,1.087l2.846,1.344c-10.043-1.919-2.269,1.268-4.674,3.776a10.034,10.034,0,0,0-2.084-1.99,30.928,30.928,0,0,0-2.921-1.871c-2.1-1.205-4.374-2.3-6.1-3.185-1.722-.9-2.925-1.508-2.838-1.848s1.461-.406,4.822.047c-.891-.424-1.888-.915-2.973-1.412l-3.477-1.523c-2.431-1.049-5.041-2.141-7.556-3.115-5.065-1.852-9.757-3.19-11.8-2.916l5.845,3.986a66.8,66.8,0,0,0-7.974-2.548,63.524,63.524,0,0,0-7.7-1.258c-1.217-.12-2.392-.2-3.511-.228a27.172,27.172,0,0,0-3.186.062,20.605,20.605,0,0,0-5.074.938,38.665,38.665,0,0,0,8.184,1.413c2.263.129,4.219-.016,6.284-.088,4.143-.192,8.681.107,16.921,3.562,8.324,5.233,6.891,5.573,4.687,5.764-2.222.188-5.211.242-.337,4.8,4.635.612,9.216,1.451,13.851,2.257l-5.678-3.08c1.891-1.727,6.714.532,11.11,2.548,4.363,2.094,8.35,3.873,8.848.911a90.629,90.629,0,0,0,7.038,6.041c2.1,1.59,4.054,2.845,6.043,4.112,1.968,1.311,3.964,2.66,6.182,4.359,1.108.851,2.27,1.793,3.505,2.869.621.531,1.248,1.117,1.891,1.753s1.31,1.3,2,2.017c2.058.084,1.9-.608.765-1.639a45.591,45.591,0,0,0-5.037-3.6,14.726,14.726,0,0,0,4.447,1.779c1.338.287,2.581.363,3.842.567a11.281,11.281,0,0,1,3.94,1.326,13.694,13.694,0,0,1,2.207,1.575,23.244,23.244,0,0,1,2.4,2.586c1.979,1.72,2.863,1.1,2.276-.575-.549-1.529-2.322-4.011-5.742-6.22,3.059,1.89,6.088,3.689,9.195,5.542,1.7,1.028,3.436,2.054,5.145,3.208s3.407,2.411,5.118,3.779l-2.659-4.046-1.342-2.029c-.449-.677-.918-1.328-1.378-1.994,1.32.819,2.6,1.687,3.888,2.556l3.857,2.6c-1.765-2.041-3.529-4.1-5.326-6.139,3.781,2.379,7.632,4.954,11.366,7.6,3.662,2.742,7.216,5.549,10.422,8.362a94.74,94.74,0,0,1,8.283,8.456,33.812,33.812,0,0,1,5.022,7.816c-1.769-.843-3.606-1.846-5.486-2.956l-1.418-.852-1.458-.858q-1.466-.871-2.955-1.8c-1.982-1.229-3.987-2.512-5.988-3.8s-4.067-2.491-6.065-3.693-3.975-2.345-5.895-3.387c-1.949-1-3.836-1.91-5.632-2.67-3.594-1.52-6.81-2.467-9.49-2.336A5.56,5.56,0,0,0,931,340.279c1.248.557,2.757,1.059,4.235,1.673,2.947,1.234,5.809,2.882,6.066,6.281l5.685-.082a51.934,51.934,0,0,1,9.486,5.543c3.089,2.331,5.4,4.793,4.749,6.472-6.5-3.446-10.9-5.15-14.735-6.1-1.9-.5-3.623-.843-5.343-1.183s-3.419-.693-5.345-1.095c-.464.569-1.747.141-3.54-.889l-.229-.054.156,0c-1.83-1.054-4.111-2.63-6.409-4.122a42.79,42.79,0,0,0-6.559-3.506c-3.793-3.339.161-3.155,1-3.46a31.191,31.191,0,0,0-9.906-7.039c-.872-.411-1.752-.789-2.638-1.142s-1.776-.684-2.689-.962c-1.817-.575-3.651-1.079-5.492-1.574s-3.688-.979-5.535-1.514c-1.864-.5-3.738-1.034-5.6-1.69a44.967,44.967,0,0,1-5.576-2.365,43.775,43.775,0,0,1-5.6-3.293c.58-1.394-2.2-3.775-4.581-5.75-2.4-1.919-4.387-3.412-2.059-3.22a35.8,35.8,0,0,0-6.6-2.808,28.01,28.01,0,0,0-3.031-.769c-.993-.182-1.961-.316-2.911-.417-3.8-.394-7.278-.314-10.872-.605-.409-3.095-14.718-6.509-8.719-7.414-3.561.313-7.112.7-10.621,1.069-2.846-1.919-7.779-3.237-12.1-4.641-1.084-.345-2.129-.7-3.1-1.047-.98-.33-1.884-.67-2.673-1.027-1.579-.715-2.7-1.5-3.036-2.423-3.636-.544-4.434.457-5.485,1.065-1.048.591-2.353.863-7.011-1.116.622-.573-.042-1.191,1.949-.515a22.31,22.31,0,0,0-4.075-1.9,35.875,35.875,0,0,0-5.452-1.559c-3.849-.791-7.831-1.127-10.391-.536,6.7,2.437,1.408,1.211,9.432,3.669-.3.889-2.891,1.464-6.47,1.293a36.544,36.544,0,0,1-12.617-2.976c6.755-1.049,4.509-2.643,1.3-4.154-1.6-.746-3.423-1.508-4.459-2.09s-1.262-1.109.361-1.481c-2.551-.483-4.985-.838-7.322-1.088a58.536,58.536,0,0,0-6.751-.388c-2.173,0-4.271.081-6.316.226s-4.034.331-6.006.654c-3.941.613-7.76,1.344-11.67,2.172-3.917.888-7.912,1.753-12.2,2.541-2.5-.038-5.073-.118-7.692-.224l-3.96-.174-4.015-.089-8.1-.2c-2.705.013-5.4.039-8.069.092l-3.967.1c-1.311.067-2.609.162-3.892.258-2.564.195-5.065.432-7.471.726-1.2.132-2.38.356-3.531.557s-2.273.436-3.364.679a61.051,61.051,0,0,0-6.139,1.679l2.06.021c-.753.276-1.507.538-2.257.826l-2.246.884-4.468,1.768c-2.655.242-2.808-.969-3.311-1.987s-1.368-1.881-5.434-.721a5.265,5.265,0,0,1,3.338-2.414,33.523,33.523,0,0,1,5.76-.964c2.175-.226,4.53-.463,6.863-.828a25.82,25.82,0,0,0,6.736-1.772c-7.514-1.561-4.207-2.84-.191-4.071a33.59,33.59,0,0,0,5.214-1.819c1.041-.576.954-1.25-1.581-1.941-2.622,4.51-10.475,5.222-19.288,6.03-8.8.708-18.616,1.46-24.618,4.829-3.14.256-4.4.111-4.612-.241s.607-.982,1.641-1.575c2.061-1.205,4.944-2.481,1.792-2.224-1.182,1.114-2.361,2.192-3.522,3.334-5.039.18-6.841-.361-7.067-2.221-13.543,1.183-28.425,6.389-38.11,13.228,6.711-2.948,5.818-1.607,4.968-.042s-1.629,3.352,5.18,1.35a44.541,44.541,0,0,1-8.6,4.34c-1.835.718-3.785,1.534-5.8,2.309s-4.1,1.524-6.165,2.224c3.792-1.892.642-2.474-1.218-3.125s-2.378-1.394,6.82-3.643c-1.909-1.653-4.088-.733-6.786.846l-2.126,1.278c-.739.466-1.512.956-2.329,1.423a24.088,24.088,0,0,1-5.469,2.378c1.755-1.469,4.661-3.648,7.032-5.479,2.393-1.753,4.239-3.169,3.76-3.245a22.76,22.76,0,0,1-4.667,3.163,43.505,43.505,0,0,1-5.889,2.612c-1.06.388-2.15.756-3.263,1.105l-1.683.513-1.688.539c-2.264.7-4.569,1.353-6.826,1.971l-3.339.905c-1.087.314-2.141.646-3.165.961-2.047.637-3.954,1.261-5.626,1.89-3.362,1.223-5.7,2.627-6.384,4.079-1.682,1.863-3.651,3.812-5.782,5.812-2.094,2.07-4.344,4.2-6.636,6.346-2.311,2.111-4.579,4.387-6.789,6.6s-4.359,4.384-6.234,6.621a45.611,45.611,0,0,0-8.009,3.085,87.853,87.853,0,0,0-7.594,4.493c-1.248.822-2.526,1.621-3.756,2.5l-3.736,2.625c-2.506,1.754-5.109,3.416-7.723,5.087l.792-2.688a42.62,42.62,0,0,0-4.95,3.3c-.871.656-1.765,1.356-2.679,2.085l-1.386,1.114-1.385,1.189c-3.726,3.22-7.806,6.638-12,9.693l-3.832-.957c-2.5,2.621-6.1,6.336-10.158,10.224-1.025.962-2.037,1.98-3.062,3l-3.114,3.05-3.124,3c-1.034.983-2.012,1.99-2.993,2.939.622.713,2.627-.794,4.3-1.794s2.969-1.549,2.027.887c3.967-3.656,7.035-7.082,4.263-7.248a7.867,7.867,0,0,1,5.164-2.347,15.328,15.328,0,0,0,5.346-.978l-3.535,3.833-1.763,1.914-1.712,1.964-3.411,3.927-1.7,1.961c-.569.65-1.134,1.3-1.676,1.982-1.325,1.008-1.929,1.24-2.2,1.109l1.358,3.532c-3.792,3.722-5.509,4.2-5.889,2.576a45.356,45.356,0,0,0-4.12,6.451c-.535,1-1.016,1.97-1.48,2.918l-.685,1.408-.654,1.411a40.954,40.954,0,0,1-3.078,5.592,32.291,32.291,0,0,1-2.175,2.882c-.819.993-1.723,2.038-2.79,3.111.256-1.457.494-2.8.792-4.089a25.076,25.076,0,0,1,1.228-3.746,24.175,24.175,0,0,1,2.088-3.882c.447-.682.95-1.387,1.52-2.125.286-.367.583-.747.908-1.128s.677-.761,1.045-1.156l-1.2,1.27-1.16,1.3-2.32,2.605c-1.54,1.742-3.1,3.464-4.625,5.224.419-1.745,1.82-4.122,3.538-6.758.862-1.315,1.809-2.689,2.767-4.068.992-1.348,1.995-2.7,2.931-4A42.04,42.04,0,0,0,410.1,401.7c.768-1.769.64-2.952-1.034-3.125-.591.789-1.217,1.583-1.822,2.428L405.4,403.6l-3.861,5.461-.984,1.413-.956,1.456-1.916,2.944c-1.271,1.978-2.557,3.958-3.779,5.964-1.194,2.029-2.361,4.053-3.481,6.047s-2.211,3.941-3.148,5.9c-.958,1.946-1.85,3.837-2.657,5.647s-1.537,3.534-2.1,5.2a13.61,13.61,0,0,0-4.8,3.822,30.668,30.668,0,0,0-2.025,2.722c-.641.984-1.241,2.046-1.861,3.138-1.233,2.188-2.486,4.531-3.937,6.865a44.672,44.672,0,0,1-4.946,6.964c-1.606.851-4.461,3.328-4.691.582l1.706-2.829a88.934,88.934,0,0,0-6.446,10.21q-.747,1.345-1.47,2.71c-.477.913-.911,1.852-1.356,2.783-.88,1.869-1.725,3.752-2.534,5.635a144.1,144.1,0,0,0-7.21,22.055l-3.348,2.3-3.276,2.375c-2.842,5.249-3.789,7.79-3.686,9.009.075,1.208,1.091,1.058,2.172.964,2.167-.193,4.563-.146.4,11.076-1.5.947-3.042,3.1-4.562,5.795-.752,1.35-1.534,2.822-2.24,4.37s-1.377,3.154-2.04,4.725-1.308,3.109-1.931,4.532-1.152,2.756-1.7,3.875c-1.078,2.244-2.074,3.693-2.974,3.67-1.048,4.437-1.7,6.393.625,7.653.36-.952.714-2.227,1.123-3.5s.855-2.542,1.28-3.519c.851-1.956,1.666-2.705,2.311.165a36.653,36.653,0,0,1-1.279,5.291,39.648,39.648,0,0,1-1.58,4.2c-.561,1.3-1.139,2.542-1.674,3.856-.267.657-.525,1.331-.761,2.04-.217.714-.414,1.462-.584,2.258a13.392,13.392,0,0,1-1.041-2.768c-.315-1.027-.577-1.66-.656-.372-.271,1.839-.592,3.857-.961,6ZM1056.5,524.589l.908-2.624a20.607,20.607,0,0,0,3.347,5.518c1.114,1.549,1.955,2.945,1.427,4.691-.349.325-5.93-3.495-12.068-7.871l-5.978-4.136q-1.914-3.4-3.892-6.757c.016-.043.035-.081.051-.126.585-1.7.322-5.367-.464-10.316-.441-2.445-1.024-5.2-1.7-8.193-.343-1.491-.69-3.052-1.091-4.636-.42-1.579-.85-3.2-1.29-4.855C1043.3,497.577,1050.043,511.144,1056.5,524.589Zm-93.371-109.56c-.278-.217-.4-.278-.7-.5A17.475,17.475,0,0,1,959,410.681Zm-34.232-30.8c-1.933-1.709-4.6-4.025-7.773-6.759l3.109.442,3.53,3c1.165.994,2.334,1.963,3.444,2.986l6.62,5.945c1.1.958,2.122,1.984,3.17,2.962l3.094,2.934,3.039,2.88,2.911,2.912a47.359,47.359,0,0,1-10.638-7.384,19.519,19.519,0,0,0,1.722,2.621q-10.464-8.571-21.5-16.435a31.842,31.842,0,0,1,6.128,2.632,36.075,36.075,0,0,1,3.245,2c1.067.761,2.132,1.592,3.181,2.487C931.96,387.132,930.79,385.991,928.9,384.225ZM553.787,328.848c-.626.971-1.237,1.893-1.809,2.769q-3.116,1.216-6.21,2.493c-.02-.088-.04-.178-.058-.27C545.4,332.329,545.544,330.2,553.787,328.848Zm-13.543,6.636c.689.078,1.289.134,1.821.174q-2.739,1.168-5.458,2.383A10.29,10.29,0,0,1,540.244,335.484Z" transform="translate(-302.891 -254.8)" opacity="0.45" fill="url(#linear-gradient-9)"/>
        <path id="Path_2556" data-name="Path 2556" d="M358.45,548.881l1.7-2.77,3.428-5.562c.567-.943,1.186-1.858,1.8-2.792l1.853-2.825,3.85-5.859,4.251-6.136,2.245-3.251c.759-1.111,1.59-2.2,2.408-3.341l5.181-7.14,5.888-7.732-4.688,6.008-1.168,1.5-1.13,1.534-2.256,3.068c-1.493,2.052-3.022,4.075-4.479,6.152L373,526l-2.155,3.13-2.071,3.189L364.65,538.7c-1.363,2.133-2.646,4.32-3.968,6.477l-1.967,3.246-.982,1.623-.942,1.649.813-1.419Z" transform="translate(-319.444 -347.835)" opacity="0.45" fill="url(#linear-gradient-10)"/>
        <path id="Path_2557" data-name="Path 2557" d="M1644.812,678.919l4.245,4.424-2.793-6.805C1646.594,678.724,1641.882,676.883,1644.812,678.919Z" transform="translate(-848.958 -419.859)" fill="url(#linear-gradient-11)"/>
        <path id="Path_2558" data-name="Path 2558" d="M1647.551,675.63a3.308,3.308,0,0,0-.576-1.3Z" transform="translate(-850.245 -418.951)" fill="url(#linear-gradient-12)"/>
        <path id="Path_2559" data-name="Path 2559" d="M1604.21,628.267c-.937-1.461-1.87-2.925-2.859-4.355l.082.973c1.9,2.56,3.727,5.174,5.594,7.766Z" transform="translate(-831.475 -398.208)" fill="url(#linear-gradient-13)"/>
        <path id="Path_2560" data-name="Path 2560" d="M1564.988,550.035l-.308-1.863-3.075-2.719-3.141-2.656.364,1.868C1560.934,546.406,1562.941,548.23,1564.988,550.035Z" transform="translate(-813.83 -364.836)" fill="url(#linear-gradient-14)"/>
        <path id="Path_2561" data-name="Path 2561" d="M801.582,249.661c1.567-.021,3.14-.036,4.742-.077s3.244-.035,4.937-.127c-9.2,6.059,11.011-.947,8.721,3.755a23.042,23.042,0,0,1-7.449,2.191,35.338,35.338,0,0,1-3.908.321,31.835,31.835,0,0,1-3.42-.022c-1.03,2.4,4.758,3.221,4.567,5.908a27.125,27.125,0,0,0,9.9-1.612c.662-.248,1.294-.518,1.9-.805s1.2-.559,1.774-.86c1.148-.6,2.237-1.247,3.326-1.9a46.189,46.189,0,0,1,7.009-3.713,27.738,27.738,0,0,1,9.825-1.643c-.2,1.319-1.477,2.662-1.4,3.5.037.421.409.716,1.417.822a12.922,12.922,0,0,0,2.027.008c.43-.024.909-.067,1.443-.116s1.122-.092,1.769-.159c-.865.251-1.729.477-2.59.759a28.711,28.711,0,0,1,9.162-1.074,18.575,18.575,0,0,1,4.889,1.057c2.52.838,4.185,1.182,9.307-2.563l-.159,3.741a25.39,25.39,0,0,1,3.095-1.045c1.128-.283,2.344-.529,3.62-.745,2.553-.431,5.349-.739,8.171-.974,2.821-.2,5.667-.254,8.326-.328,2.659-.057,5.132-.14,7.2-.142l-.52.695c2.913-.395,5.311-.693,7.321-.915s3.637-.394,5-.426a41.364,41.364,0,0,1,6.261.175l2.9.324,3.852.4c1.531.16,3.359.322,5.622.475,1.132.077,2.373.152,3.74.224l2.148.109,2.344.161c-1.04.232-2.075.439-3.113.693l-3.107.761-6.171,1.532a16.133,16.133,0,0,0,9.659.3c2.511-.567,4.75-1.337,7.913-.662-.451.534.188,2.572-2.879,3.221l5.337-.394,2.006-.143,2-.092,4.015-.181,4.03-.175c1.344-.049,2.7-.134,4.038-.14l8.091-.12c8.018-1.3-.963-2.985-1.842-4.771a7.511,7.511,0,0,1,3.977-.393,25.726,25.726,0,0,1,2.733.414c.943.214,1.908.478,2.847.773,3.762,1.184,7.118,2.89,7.206,4.09-2.05.557-9.538-.138-5.282,2.316l5.985-1.7c1.005-.291,2.005-.548,3.008-.8l3.019-.768c6.643,3.6,3.415,4.8-2.282,5.156-.713.045-1.465.078-2.243.1s-1.581.036-2.4.068c-1.638.049-3.321.072-4.938.088-3.237.042-6.2.008-8.045.19a68.794,68.794,0,0,0,9.174,1.855c1.347.171,2.629.287,3.884.373l3.7.281c2.461.171,4.963.331,7.8.692.708.095,1.441.184,2.191.323s1.525.293,2.329.468c1.609.35,3.336.781,5.215,1.32a24.917,24.917,0,0,1-5.214-2.906c-.7-.509-1.325-1.021-1.9-1.525s-1.122-.968-1.635-1.429c.138-1.042,1.1-1.5,2.637-1.523a25.758,25.758,0,0,1,6.008,1.041c1.2.315,2.467.683,3.781,1.078s2.672.808,4.024,1.282c2.711.919,5.461,1.846,8,2.566-5.855-3.76-1.71-4.058,3.534-4.12a4.949,4.949,0,0,0,2.011-.009l1.78-.006-1.215-.416c.237-.417.148-1.044-.484-2.086a35.91,35.91,0,0,1-11.3-4.309c-1.6-.907-3.12-1.718-4.576-2.477a25.148,25.148,0,0,0-4.264-1.8c.923,2.032.158,2.8-1.605,2.818a14.85,14.85,0,0,1-3.321-.476c-1.3-.311-2.795-.675-4.367-1.136-3.15-.9-6.654-2.069-9.862-2.927a30.48,30.48,0,0,0-8.005-1.287l-4.166-.585L972,249.016l-3.082-.584c-.458-.826.5-1.554,5.045-1.961a78.2,78.2,0,0,1-9.58-.77c-3.689-.33-6.753-.371-6.323.8l-7.5-1.207-7.53-1.009-3.766-.5-1.883-.247-1.889-.2-7.559-.783a9.342,9.342,0,0,1-2.474-1.381c-1.089.313-1.3.65-1.19,1.006a462.733,462.733,0,0,0-66.26-.992l-8.289.594-4.144.309-4.138.418-8.275.85c-2.754.337-5.505.717-8.257,1.078-5.51.665-10.987,1.659-16.472,2.542-1.373.212-2.738.479-4.1.748l-4.1.8-4.1.8-2.047.4c-.682.139-1.36.3-2.039.454a45.536,45.536,0,0,1,4.821-.412C798.452,249.711,800.015,249.683,801.582,249.661Z" transform="translate(-498.516 -240.443)" opacity="0.45" fill="url(#linear-gradient-15)"/>
        <path id="Path_2562" data-name="Path 2562" d="M1101.114,250.652c.181-.011.354-.025.511-.045C1101.446,250.621,1101.283,250.637,1101.114,250.652Z" transform="translate(-625.67 -244.625)" fill="url(#linear-gradient-16)"/>
        <path id="Path_2563" data-name="Path 2563" d="M1042.862,275.188l-2.655.2A11.659,11.659,0,0,0,1042.862,275.188Z" transform="translate(-600.612 -254.738)" opacity="0.45" fill="url(#linear-gradient-17)"/>
        <path id="Path_2564" data-name="Path 2564" d="M1161.649,291.954c-1.015-.393-1.978-.7-2.9-.981s-1.8-.541-2.658-.787c.778.326,1.619.64,2.54.933S1160.56,291.674,1161.649,291.954Z" transform="translate(-648.289 -260.908)" opacity="0.45" fill="url(#linear-gradient-18)"/>
        <path id="Path_2565" data-name="Path 2565" d="M776.489,259.1l9.158-2.091A52,52,0,0,0,776.489,259.1Z" transform="translate(-492.114 -247.258)" fill="url(#linear-gradient-19)"/>
        <path id="Path_2566" data-name="Path 2566" d="M1208.067,290.518c2.582.879,5.14,1.832,7.711,2.749,2.563.938,5.148,1.819,7.68,2.848-4.473-3.939,4.9-.9,6.374-1.835l-4.685-1.923-2.343-.959-2.365-.9-9.47-3.571C1210.559,288.3,1208.134,289.139,1208.067,290.518Z" transform="translate(-669.672 -259.566)" opacity="0.45" fill="url(#linear-gradient-20)"/>
        <path id="Path_2567" data-name="Path 2567" d="M1201.056,279.272c-.982.718-3.307.854-5.845.873,3.491,1.207,6.99,2.39,10.469,3.632C1205.989,282.728,1205.159,281.388,1201.056,279.272Z" transform="translate(-664.383 -256.418)" opacity="0.45" fill="url(#linear-gradient-21)"/>
        <path id="Path_2568" data-name="Path 2568" d="M671.146,320.369c-1.293.658-2.553,1.281-3.852,1.961A27.93,27.93,0,0,0,671.146,320.369Z" transform="translate(-447.19 -273.326)" opacity="0.45" fill="url(#linear-gradient-22)"/>
        <path id="Path_2569" data-name="Path 2569" d="M587.629,312.291c2.614.042,5.648.087,2.563,4.162,3.151-1.961,6.909-3.791,10.628-5.693,3.7-1.934,7.544-3.637,10.885-5.37.838-.429,1.647-.855,2.422-1.276l2.227-1.222a34.435,34.435,0,0,0,3.682-2.3,7.3,7.3,0,0,0,2.836-3.2c.094.707.631,1.3,2.615.8l.748-.946.765-.919,1.539-1.842,3.112-3.7c-2.71.71-5.444,1.394-8.155,2.144,3.111-3.716,11.337-8.347,19.637-11.525,1.032-.41,2.064-.8,3.083-1.178s2.043-.681,3.035-.994c1.989-.611,3.887-1.137,5.612-1.556s3.277-.731,4.574-.915a12.3,12.3,0,0,1,3.071-.067c-.928.4-1.76.784-2.51,1.154-.745.389-1.407.768-2,1.128a25.556,25.556,0,0,0-2.875,2c-1.524,1.233-2.408,2.285-3.517,3.281a18.13,18.13,0,0,1-4.839,3.011,46.725,46.725,0,0,1-4.511,1.715c-.923.3-1.941.622-3.067.952s-2.366.665-3.7,1.081a26.81,26.81,0,0,1,3.027,1.3c.4.286.616.625.464,1.049a1.874,1.874,0,0,1-.529.705,7.51,7.51,0,0,1-1.209.9c1.434-.757,2.9-1.395,4.354-2.062s2.905-1.3,4.355-1.928l4.34-1.853,4.373-1.663,4.361-1.623,2.177-.8,1.088-.4,1.1-.367,8.77-2.945,2.192-.75,2.211-.7,4.431-1.429q2.219-.729,4.445-1.5l1.114-.387,1.124-.359,2.253-.736c3.009-.993,6.034-2.072,9.1-3.21,3.078-1.067,6.188-2.224,9.346-3.5-10.761.269-7.624-1.328-2.64-3.492,1.243-.54,2.6-1.114,3.873-1.7A30.47,30.47,0,0,0,713,261.906c1.854-1.126,2.617-2.253.7-3.249l-2.789.992c-.928.33-1.857.655-2.777,1.024l-5.519,2.148.656-1.624-6.921,1.8-6.873,2.01c3.46,1.655,5.6,1.262,5.616,3.932-9.254,1.857-10.907,1.506-12.014.755s-1.68-1.995-8.894-1.582c-3.417,1.037-6.778,2.28-10.154,3.456l-5.056,1.787c-1.679.614-3.342,1.284-5.012,1.925l1.374-1.325a5.561,5.561,0,0,0-2.765,1.86l-4.212,1.645-2.1.823-2.084.884-8.319,3.562c-.692.3-1.387.589-2.075.9l-2.054.956-4.1,1.916c-2.733,1.281-5.479,2.536-8.151,3.93l-8.057,4.094c-2.653,1.42-5.283,2.881-7.921,4.323-1.315.728-2.639,1.44-3.945,2.182l-3.881,2.285-3.876,2.29c-1.284.774-2.6,1.5-3.853,2.321C582.859,312.186,585.027,312.244,587.629,312.291Z" transform="translate(-413.276 -247.936)" opacity="0.45" fill="url(#linear-gradient-23)"/>
        <path id="Path_2570" data-name="Path 2570" d="M424.43,500.459l-.217-.458C424.092,500.51,424.133,500.746,424.43,500.459Z" transform="translate(-347.156 -347.229)" opacity="0.45" fill="url(#linear-gradient-24)"/>
        <path id="Path_2571" data-name="Path 2571" d="M429.564,478.037l-.088,3.72c.386-1.055.756-2.128,1.16-3.175l1.227-3.14,2.5-6.317-6.623,7.3L421.33,483.9l1.723,3.4C423.512,485.427,426.757,479.085,429.564,478.037Z" transform="translate(-345.996 -334.526)" opacity="0.45" fill="url(#linear-gradient-25)"/>
        <path id="Path_2572" data-name="Path 2572" d="M453.562,460.677a57.07,57.07,0,0,0,4.968-6.348l-4.961-6.634c-6.228,8.322-2.8,10.814,2.423,8.3-2.592,3.948-4.246,4.015-5.44,4.057a1.742,1.742,0,0,0-1.484.514,7.571,7.571,0,0,0-1.035,3.381C449.2,464.917,451.374,463,453.562,460.677Z" transform="translate(-356.982 -325.71)" opacity="0.45" fill="url(#linear-gradient-26)"/>
        <path id="Path_2573" data-name="Path 2573" d="M558.629,369.643l-1.406,3.063c2.011-1.231,4.084-2.371,6.147-3.52Z" transform="translate(-401.905 -293.41)" opacity="0.45" fill="url(#linear-gradient-27)"/>
        <path id="Path_2574" data-name="Path 2574" d="M553,375.166l-6.04,3.6a7.242,7.242,0,0,0,3.689,1.606Z" transform="translate(-397.683 -295.87)" opacity="0.45" fill="url(#linear-gradient-28)"/>
        <path id="Path_2575" data-name="Path 2575" d="M506.114,404.07c2.8-1.99,5.661-3.9,8.486-5.849C512.07,399.815,509.306,401.639,506.114,404.07Z" transform="translate(-380.878 -305.355)" opacity="0.45" fill="url(#linear-gradient-29)"/>
        <path id="Path_2576" data-name="Path 2576" d="M527.586,391.233l-.516-.3-3.295,2.107c-1.1.7-2.16,1.454-3.243,2.181,1.24-.748,2.394-1.48,3.578-2.115S526.433,391.845,527.586,391.233Z" transform="translate(-386.81 -302.358)" opacity="0.45" fill="url(#linear-gradient-30)"/>
        <path id="Path_2577" data-name="Path 2577" d="M535.36,381.543l2.286-1.373a7.006,7.006,0,0,0-4.731-1.58c-2.018.2-4.7,1.467-8.594,4.842l4.307,2.416,4.488-2.875Z" transform="translate(-388.368 -297.27)" opacity="0.45" fill="url(#linear-gradient-31)"/>
        <path id="Path_2578" data-name="Path 2578" d="M476.384,427.451c-.551-.749-1.651-.026-2.818,1.16a23.144,23.144,0,0,0-1.733,2c-.54.713-1.037,1.415-1.435,1.977C472.082,431.183,474.8,429.609,476.384,427.451Z" transform="translate(-366.184 -317.255)" opacity="0.45" fill="url(#linear-gradient-32)"/>
        <path id="Path_2579" data-name="Path 2579" d="M296.388,711.348c-1.012,1.281-2.074,2.548-3.049,3.857A10.256,10.256,0,0,0,296.388,711.348Z" transform="translate(-293.339 -434.18)" opacity="0.45" fill="url(#linear-gradient-33)"/>
      </g>
    </g>
  </g>
</svg>
