<svg id="be-ready" xmlns="http://www.w3.org/2000/svg" width="138.391" height="122.387" viewBox="0 0 138.391 122.387">
  <path id="Path_1015" data-name="Path 1015" d="M128.544,72.9c-.246-.247-.5-.487-.75-.725v-7.79a14.065,14.065,0,0,0-14.049-14.049H89.1v-7.06A13.685,13.685,0,0,0,75.434,29.6H52.361A13.685,13.685,0,0,0,38.692,43.272v7.06H14.049A14.064,14.064,0,0,0,0,64.381v62.533a14.065,14.065,0,0,0,14.049,14.049H43.38a2.027,2.027,0,1,0,0-4.054H14.049a10.006,10.006,0,0,1-9.994-9.994v-40.9a23.822,23.822,0,0,0,17.98,10.468v7.381a7.645,7.645,0,0,0,15.29,0V96.552H71.2c0,.032,0,.065,0,.1A33.349,33.349,0,0,0,77.112,115.7l-4.3,4.3a4.453,4.453,0,0,0-4.367,1.131L51.91,137.662A8.392,8.392,0,1,0,63.778,149.53L80.309,133a4.454,4.454,0,0,0,1.131-4.367l4.307-4.307a33.675,33.675,0,0,0,37.993.064v2.525a10.006,10.006,0,0,1-9.994,9.994H81.726a2.027,2.027,0,0,0,0,4.054h32.02a14.065,14.065,0,0,0,14.049-14.049v-5.786c.252-.237.5-.478.75-.725a33.575,33.575,0,0,0,0-47.507Zm-85.8-29.624a9.626,9.626,0,0,1,9.615-9.615H75.434a9.626,9.626,0,0,1,9.615,9.615v7.06H80.725v-7.06a5.3,5.3,0,0,0-5.291-5.291H52.361a5.3,5.3,0,0,0-5.291,5.291v7.06H42.745Zm8.379,7.06v-7.06a1.238,1.238,0,0,1,1.237-1.236H75.434a1.238,1.238,0,0,1,1.237,1.236v7.06Zm-17.855,47.3H26.088V90.811a3.591,3.591,0,1,1,7.181,0Zm-3.591,9.822a3.6,3.6,0,0,1-3.591-3.591V101.69h7.181v2.177A3.6,3.6,0,0,1,29.679,107.458ZM37.324,92.5V90.811a7.645,7.645,0,0,0-15.29,0v1.6A19.781,19.781,0,0,1,4.054,72.742V64.381a10.006,10.006,0,0,1,9.994-9.994h99.7a10.006,10.006,0,0,1,9.994,9.994V68.9A33.605,33.605,0,0,0,71.451,92.5H37.324Zm23.588,54.166a4.338,4.338,0,1,1-6.135-6.135l11.452-11.452,6.135,6.135Zm16.531-16.531-2.212,2.212L69.1,126.21,71.307,124a.4.4,0,0,1,.563,0h0l5.571,5.571a.4.4,0,0,1,0,.564Zm1.53-4.767-2.9-2.9,3.559-3.559q.678.764,1.4,1.494t1.5,1.4Zm4.931-7.83a29.538,29.538,0,1,1,41.773,0A29.344,29.344,0,0,1,83.9,117.536Z" transform="translate(0 -29.603)" fill="#42b39a"/>
  <path id="Path_1016" data-name="Path 1016" d="M344.232,214.692a2.027,2.027,0,0,0-2.412,1.55,20.285,20.285,0,1,1,0-8.678,2.027,2.027,0,0,0,3.961-.864,24.341,24.341,0,1,0,0,10.4A2.028,2.028,0,0,0,344.232,214.692Z" transform="translate(-217.202 -144.862)" fill="#fc8e0b"/>
</svg>
