<svg xmlns="http://www.w3.org/2000/svg" width="85.552" height="65.78" viewBox="0 0 85.552 65.78">
  <g id="binoculars" transform="translate(0 -59.331)">
    <path id="Path_1096" data-name="Path 1096" d="M31,256.6a15.133,15.133,0,1,0,15.133-15.133A15.15,15.15,0,0,0,31,256.6Zm27.767,0a12.634,12.634,0,1,1-12.634-12.634A12.648,12.648,0,0,1,58.767,256.6Z" transform="translate(-25.835 -151.79)" fill="#faa220"/>
    <path id="Path_1097" data-name="Path 1097" d="M82.679,94.413c0-.007-.005-.013-.008-.02L72.534,73.378a14.545,14.545,0,0,0-6.518-6.626l-.957-1.984a9.615,9.615,0,0,0-18.275,4.177v3.692A14.4,14.4,0,0,0,45.1,77.6H40.447a14.4,14.4,0,0,0-1.679-4.965V68.946a9.615,9.615,0,0,0-18.275-4.177l-.957,1.984a14.546,14.546,0,0,0-6.518,6.626l-1.756,3.64A1.25,1.25,0,1,0,13.513,78.1l1.756-3.64A12.011,12.011,0,0,1,38.1,79.682V95.055a20.327,20.327,0,0,0-4.656-5.711,1.25,1.25,0,0,0-1.619,1.9,17.72,17.72,0,1,1-4.2-2.665,1.25,1.25,0,0,0,1.029-2.278A20.294,20.294,0,0,0,8.641,88.2l2.553-5.293a1.25,1.25,0,1,0-2.251-1.086L2.881,94.393c0,.006-.005.013-.008.02a20.3,20.3,0,1,0,37.718,10.822H44.96A20.3,20.3,0,1,0,82.679,94.413Zm-12.4-19.949L76.91,88.2a20.278,20.278,0,0,0-29.456,6.858V79.682a12.01,12.01,0,0,1,22.828-5.218ZM44.955,102.735H40.6V80.1h4.358ZM56.4,61.83a7.155,7.155,0,0,1,6.238,3.7,14.432,14.432,0,0,0-13.353,3.825v-.409A7.124,7.124,0,0,1,56.4,61.83ZM26.087,65.172a14.331,14.331,0,0,0-3.172.358,7.113,7.113,0,0,1,13.353,3.416v.409A14.462,14.462,0,0,0,26.087,65.172Zm39.166,57.439a17.8,17.8,0,1,1,17.8-17.8A17.819,17.819,0,0,1,65.253,122.611Z" fill="#42b39a"/>
    <path id="Path_1098" data-name="Path 1098" d="M321.609,242.58a1.25,1.25,0,0,0-.941,2.316,12.628,12.628,0,1,1-4.762-.924,1.25,1.25,0,0,0,0-2.5h0a15.142,15.142,0,1,0,5.707,1.108Z" transform="translate(-250.679 -151.792)" fill="#faa220"/>
  </g>
</svg>
