<svg xmlns="http://www.w3.org/2000/svg" width="52.359" height="43.962" viewBox="0 0 52.359 43.962">
  <g id="briefcase" transform="translate(3.769 -3.43) rotate(5)" opacity="0.2">
    <g id="Group_57222" data-name="Group 57222" transform="translate(0 8.187)">
      <path id="Path_2888" data-name="Path 2888" d="M44.337,40.057H5.155A5.105,5.105,0,0,1,0,34.9V10.155A5.105,5.105,0,0,1,5.155,5H44.337a5.105,5.105,0,0,1,5.155,5.155V34.9A5.105,5.105,0,0,1,44.337,40.057ZM5.155,7.062a3.172,3.172,0,0,0-3.093,3.093V34.9a3.172,3.172,0,0,0,3.093,3.093H44.337A3.172,3.172,0,0,0,47.43,34.9V10.155a3.172,3.172,0,0,0-3.093-3.093Z" transform="translate(0 -5)" fill="#112459"/>
    </g>
    <g id="Group_57223" data-name="Group 57223" transform="translate(16.497 2)">
      <path id="Path_2889" data-name="Path 2889" d="M23.466,10.249a.974.974,0,0,1-1.031-1.031V5.093A.974.974,0,0,0,21.4,4.062H11.093a.974.974,0,0,0-1.031,1.031V9.218a.974.974,0,0,1-1.031,1.031A.974.974,0,0,1,8,9.218V5.093A3.172,3.172,0,0,1,11.093,2H21.4A3.172,3.172,0,0,1,24.5,5.093V9.218A.974.974,0,0,1,23.466,10.249Z" transform="translate(-8 -2)" fill="#112459"/>
    </g>
    <g id="Group_57224" data-name="Group 57224" transform="translate(0 20.56)">
      <path id="Path_2890" data-name="Path 2890" d="M48.461,13.062H1.031a1.031,1.031,0,0,1,0-2.062h47.43a1.031,1.031,0,1,1,0,2.062Z" transform="translate(0 -11)" fill="#112459"/>
    </g>
    <g id="Group_57225" data-name="Group 57225" transform="translate(12.373 16.435)">
      <path id="Path_2891" data-name="Path 2891" d="M7.031,19.723A.974.974,0,0,1,6,18.692V10.031A.974.974,0,0,1,7.031,9a.974.974,0,0,1,1.031,1.031v8.661A1.1,1.1,0,0,1,7.031,19.723Z" transform="translate(-6 -9)" fill="#112459"/>
    </g>
    <g id="Group_57226" data-name="Group 57226" transform="translate(35.057 16.435)">
      <path id="Path_2892" data-name="Path 2892" d="M18.031,19.723A.974.974,0,0,1,17,18.692V10.031a1.031,1.031,0,0,1,2.062,0v8.661A1.1,1.1,0,0,1,18.031,19.723Z" transform="translate(-17 -9)" fill="#112459"/>
    </g>
  </g>
</svg>
