<svg id="certificate" xmlns="http://www.w3.org/2000/svg" width="121.052" height="122.387" viewBox="0 0 121.052 122.387">
  <path id="Path_1006" data-name="Path 1006" d="M106.974,181.506H61.083a1.793,1.793,0,0,0,0,3.585h45.892a1.793,1.793,0,1,0,0-3.585Z" transform="translate(-45.785 -138.119)" fill="#42b39a"/>
  <path id="Path_1007" data-name="Path 1007" d="M106.974,234.2H61.083a1.793,1.793,0,1,0,0,3.585h45.892a1.793,1.793,0,1,0,0-3.585Z" transform="translate(-45.785 -178.219)" fill="#42b39a"/>
  <path id="Path_1008" data-name="Path 1008" d="M106.974,286.9H61.083a1.793,1.793,0,1,0,0,3.585h45.892a1.793,1.793,0,1,0,0-3.585Z" transform="translate(-45.785 -218.318)" fill="#42b39a"/>
  <path id="Path_1009" data-name="Path 1009" d="M108.767,341.387a1.792,1.792,0,0,0-1.793-1.793H61.083a1.793,1.793,0,1,0,0,3.585h45.892A1.792,1.792,0,0,0,108.767,341.387Z" transform="translate(-45.785 -258.418)" fill="#42b39a"/>
  <path id="Path_1010" data-name="Path 1010" d="M61.083,416.821a1.793,1.793,0,1,0,0,3.585h23a1.793,1.793,0,1,0,0-3.585Z" transform="translate(-45.785 -317.185)" fill="#42b39a"/>
  <path id="Path_1011" data-name="Path 1011" d="M202.445,61.542V55.726a4.023,4.023,0,0,0-4.019-4.019h-36.8a4.023,4.023,0,0,0-4.018,4.019v5.817a4.023,4.023,0,0,0,4.018,4.018h3.108a1.793,1.793,0,1,0,0-3.585h-3.108a.434.434,0,0,1-.433-.433V55.726a.434.434,0,0,1,.433-.433h36.8a.434.434,0,0,1,.433.433v5.817a.434.434,0,0,1-.433.433H173.111a1.793,1.793,0,0,0,0,3.585h25.316a4.022,4.022,0,0,0,4.018-4.018Z" transform="translate(-120.599 -39.347)" fill="#42b39a"/>
  <path id="Path_1012" data-name="Path 1012" d="M98.044,109.311a1.793,1.793,0,0,0-1.793,1.793v2.414a5.291,5.291,0,0,1-5.285,5.284h-79.3a5.291,5.291,0,0,1-5.284-5.284V27.353a5.32,5.32,0,0,1,.126-1.139H22.828a6.187,6.187,0,0,0,6.18-6.18V3.712a5.318,5.318,0,0,1,1.139-.126H90.967A5.291,5.291,0,0,1,96.252,8.87V32.736a1.793,1.793,0,1,0,3.585,0V8.869A8.879,8.879,0,0,0,90.967,0H30.147a8.812,8.812,0,0,0-6.272,2.6L5.392,21.081a8.811,8.811,0,0,0-2.6,6.272v86.165a8.879,8.879,0,0,0,8.87,8.87h79.3a8.88,8.88,0,0,0,8.87-8.87V111.1a1.793,1.793,0,0,0-1.793-1.793ZM25.423,6.12V20.034a2.6,2.6,0,0,1-2.595,2.595H8.914Z" transform="translate(-2.794 0)" fill="#42b39a"/>
  <path id="Path_1013" data-name="Path 1013" d="M343.684,189.246a7.168,7.168,0,0,0-3.5-10.783,3.562,3.562,0,0,1-2.371-3.264,7.168,7.168,0,0,0-9.172-6.664,3.562,3.562,0,0,1-3.837-1.247,7.168,7.168,0,0,0-11.338,0,3.562,3.562,0,0,1-3.837,1.247,7.168,7.168,0,0,0-9.172,6.664,3.562,3.562,0,0,1-2.371,3.264,7.168,7.168,0,0,0-3.5,10.783,3.563,3.563,0,0,1,0,4.034,7.168,7.168,0,0,0,3.5,10.783,3.562,3.562,0,0,1,2.371,3.264,7.167,7.167,0,0,0,6.189,6.884v16.321a3.8,3.8,0,0,0,5.8,3.24l6.575-4.047a.188.188,0,0,1,.23,0l6.574,4.047a3.805,3.805,0,0,0,5.8-3.24V214.21a7.167,7.167,0,0,0,6.189-6.884,3.562,3.562,0,0,1,2.371-3.264,7.168,7.168,0,0,0,3.5-10.783A3.56,3.56,0,0,1,343.684,189.246ZM327.7,230.718l-6.574-4.047a3.8,3.8,0,0,0-3.989,0l-6.574,4.047a.218.218,0,0,1-.334-.187V213.87a3.556,3.556,0,0,1,3.234,1.367,7.168,7.168,0,0,0,11.338,0,3.557,3.557,0,0,1,3.235-1.367v16.661a.218.218,0,0,1-.335.187Zm13.021-35.42a3.582,3.582,0,0,1-1.751,5.389,7.127,7.127,0,0,0-4.744,6.53,3.534,3.534,0,0,1-1.29,2.646,3.569,3.569,0,0,1-3.294.685,7.128,7.128,0,0,0-7.677,2.494,3.583,3.583,0,0,1-5.667,0,7.122,7.122,0,0,0-5.647-2.786,7.237,7.237,0,0,0-2.029.292,3.568,3.568,0,0,1-3.295-.685,3.532,3.532,0,0,1-1.29-2.646,7.128,7.128,0,0,0-4.745-6.53,3.582,3.582,0,0,1-1.751-5.389,7.128,7.128,0,0,0,0-8.072,3.583,3.583,0,0,1,1.751-5.389,7.128,7.128,0,0,0,4.745-6.53,3.582,3.582,0,0,1,4.584-3.331,7.127,7.127,0,0,0,7.676-2.494,3.583,3.583,0,0,1,5.667,0,7.127,7.127,0,0,0,7.677,2.494,3.582,3.582,0,0,1,4.584,3.331,7.128,7.128,0,0,0,4.744,6.53,3.582,3.582,0,0,1,1.751,5.389,7.127,7.127,0,0,0,0,8.072Z" transform="translate(-223.881 -125.184)" fill="#42b39a"/>
  <path id="Path_1014" data-name="Path 1014" d="M353.438,213.583a15.024,15.024,0,1,0,15.024,15.024A15.041,15.041,0,0,0,353.438,213.583Zm0,26.464a11.439,11.439,0,1,1,11.439-11.439A11.452,11.452,0,0,1,353.438,240.047Z" transform="translate(-258.188 -162.529)" fill="#fc8e0b"/>
</svg>
