<svg xmlns="http://www.w3.org/2000/svg" width="143.065" height="122.387" viewBox="0 0 143.065 122.387">
  <g id="cirruculum" transform="translate(0 -37)">
    <g id="Group_55277" data-name="Group 55277" transform="translate(0 37)">
      <path id="Path_1140" data-name="Path 1140" d="M137.057,141.225h-4.2a7.636,7.636,0,0,0,.845-3.5l0-72.648a7.693,7.693,0,0,0-7.684-7.684H114.7v-2.56a3.665,3.665,0,0,0-3.66-3.66h-3.468V40.66a3.661,3.661,0,0,0-4.858-3.46l-6.6,2.283a2.1,2.1,0,0,0,1.37,3.961l5.9-2.04v50.4L73.628,102.1v-50.4l15.407-5.328a2.1,2.1,0,0,0-1.37-3.961L71.532,47.984,40.348,37.2a3.661,3.661,0,0,0-4.858,3.46V51.176H32.022a3.665,3.665,0,0,0-3.66,3.66V57.4H17.045a7.693,7.693,0,0,0-7.684,7.684v7.453a2.1,2.1,0,0,0,4.191,0V65.083a3.5,3.5,0,0,1,3.493-3.493H28.361v4.191H19.839a2.1,2.1,0,0,0-2.1,2.1l0,67.06a2.1,2.1,0,0,0,2.1,2.1l103.384,0a2.1,2.1,0,0,0,2.1-2.1l0-67.06a2.1,2.1,0,0,0-2.1-2.1H114.7V61.588h11.314a3.5,3.5,0,0,1,3.493,3.493l0,72.648a3.5,3.5,0,0,1-3.493,3.493l-108.972,0a3.5,3.5,0,0,1-3.493-3.493l0-56.228a2.1,2.1,0,0,0-4.191,0l0,56.228a7.631,7.631,0,0,0,.843,3.493h-4.2A6.014,6.014,0,0,0,0,147.232v6.147a6.015,6.015,0,0,0,6.008,6.008H89.326a2.1,2.1,0,1,0,0-4.191H6.008a1.818,1.818,0,0,1-1.816-1.816v-6.147a1.818,1.818,0,0,1,1.816-1.816H57.422v1.473a5.24,5.24,0,0,0,5.234,5.234H80.41a5.24,5.24,0,0,0,5.234-5.234v-1.473h51.414a1.818,1.818,0,0,1,1.816,1.816v6.147a1.818,1.818,0,0,1-1.816,1.816H98.476a2.1,2.1,0,1,0,0,4.191h38.581a6.014,6.014,0,0,0,6.008-6.008v-6.147a6.014,6.014,0,0,0-6.008-6.008ZM105.11,95.644a3.663,3.663,0,0,0,2.464-3.46V55.368h2.938v47.575H84ZM39.682,41.4l29.755,10.29v50.4L39.682,91.807ZM32.553,55.368H35.49V92.185a3.664,3.664,0,0,0,2.465,3.46l21.105,7.3H32.553Zm88.574,14.6,0,62.869-99.193,0,0-62.869h6.427v33.5a3.665,3.665,0,0,0,3.66,3.66h79.021a3.665,3.665,0,0,0,3.66-3.66V69.97ZM81.452,146.888a1.044,1.044,0,0,1-1.042,1.043H62.655a1.044,1.044,0,0,1-1.043-1.043v-1.473H81.452Z" transform="translate(0 -37)" fill="#3ebfab"/>
      <path id="Path_1141" data-name="Path 1141" d="M207.138,309.387H152.085a2.1,2.1,0,0,0,0,4.191h55.053a2.1,2.1,0,0,0,0-4.191Z" transform="translate(-108.079 -233.276)" fill="#faa220"/>
      <path id="Path_1142" data-name="Path 1142" d="M187.788,341.2h-35.7a2.1,2.1,0,0,0,0,4.191h35.7a2.1,2.1,0,0,0,0-4.191Z" transform="translate(-108.079 -256.201)" fill="#faa220"/>
    </g>
  </g>
</svg>
