<svg xmlns="http://www.w3.org/2000/svg" width="60.242" height="56.542" viewBox="0 0 60.242 56.542">
  <g id="computer" transform="matrix(0.951, -0.309, 0.309, 0.951, -2.679, 11.725)" opacity="0.2">
    <path id="Path_2917" data-name="Path 2917" d="M48.81,38.71H3.254A3.258,3.258,0,0,1,0,35.456V7.254A3.258,3.258,0,0,1,3.254,4H8.677a1.085,1.085,0,0,1,0,2.169H3.254A1.085,1.085,0,0,0,2.169,7.254v28.2A1.085,1.085,0,0,0,3.254,36.54H48.81A1.085,1.085,0,0,0,49.9,35.456V7.254A1.085,1.085,0,0,0,48.81,6.169H43.387a1.085,1.085,0,0,1,0-2.169H48.81a3.258,3.258,0,0,1,3.254,3.254v28.2A3.258,3.258,0,0,1,48.81,38.71Z" transform="translate(0 4.67)" fill="#001a46"/>
    <path id="Path_2918" data-name="Path 2918" d="M11.085,29.847A1.085,1.085,0,0,1,10,28.762V20.085a1.085,1.085,0,1,1,2.169,0v8.677A1.085,1.085,0,0,1,11.085,29.847Z" transform="translate(11.694 22.21)" fill="#001a46"/>
    <path id="Path_2919" data-name="Path 2919" d="M14.085,29.847A1.085,1.085,0,0,1,13,28.762V20.085a1.085,1.085,0,1,1,2.169,0v8.677A1.085,1.085,0,0,1,14.085,29.847Z" transform="translate(15.202 22.21)" fill="#001a46"/>
    <path id="Path_2920" data-name="Path 2920" d="M12.585,21.317A1.085,1.085,0,0,1,11.5,20.232V2.335a1.085,1.085,0,0,1,2.169,0v17.9A1.085,1.085,0,0,1,12.585,21.317Z" transform="translate(13.448 1.454)" fill="#001a46"/>
    <path id="Path_2921" data-name="Path 2921" d="M18.431,23.855a1.1,1.1,0,0,1-.679-.236c-2.72-2.176-5.345-2.506-8.024-1A2.156,2.156,0,0,1,6.5,20.746V4.346A3.172,3.172,0,0,1,7.867,1.693a8.719,8.719,0,0,1,10.565.2,8.71,8.71,0,0,1,10.563-.2,3.162,3.162,0,0,1,1.369,2.651v16.4A2.128,2.128,0,0,1,29.3,22.6a2.16,2.16,0,0,1-2.169.015c-2.679-1.506-5.3-1.176-8.024,1a1.083,1.083,0,0,1-.677.239Zm-5.4-4.343a9.291,9.291,0,0,1,5.4,1.9c3.224-2.286,6.5-2.519,9.762-.688V4.346a1.021,1.021,0,0,0-.406-.85c-2.9-1.944-5.744-1.751-8.677.6a1.086,1.086,0,0,1-1.356,0c-2.933-2.347-5.773-2.542-8.68-.6a1.018,1.018,0,0,0-.406.85v16.4a8.769,8.769,0,0,1,4.363-1.234Z" transform="translate(7.601 0)" fill="#001a46"/>
    <path id="Path_2922" data-name="Path 2922" d="M27.609,25.169H8.085a1.085,1.085,0,0,1,0-2.169H27.609a1.085,1.085,0,0,1,0,2.169Z" transform="translate(8.185 26.887)" fill="#001a46"/>
  </g>
</svg>
