<svg xmlns="http://www.w3.org/2000/svg" width="72.117" height="80.271" viewBox="0 0 72.117 80.271">
  <g id="copy" transform="translate(8.727 -0.156) rotate(9)" opacity="0.2">
    <path id="Path_2929" data-name="Path 2929" d="M48.877,63.14H13.393A7.4,7.4,0,0,1,6,55.748V11.393A7.4,7.4,0,0,1,13.393,4H48.877a7.4,7.4,0,0,1,7.393,7.393V55.748A7.4,7.4,0,0,1,48.877,63.14ZM13.393,6.957a4.441,4.441,0,0,0-4.436,4.436V55.748a4.441,4.441,0,0,0,4.436,4.436H48.877a4.441,4.441,0,0,0,4.436-4.436V11.393a4.441,4.441,0,0,0-4.436-4.436Z" transform="translate(9.785 7.828)" fill="#002158"/>
    <path id="Path_2930" data-name="Path 2930" d="M11.35,62.1H8.393A7.4,7.4,0,0,1,1,54.7V7.393A7.4,7.4,0,0,1,8.393,0H43.877a7.4,7.4,0,0,1,7.393,7.393,1.479,1.479,0,0,1-2.957,0,4.441,4.441,0,0,0-4.436-4.436H8.393A4.441,4.441,0,0,0,3.957,7.393V54.7A4.441,4.441,0,0,0,8.393,59.14H11.35a1.479,1.479,0,0,1,0,2.957Z" transform="translate(0)" fill="#002158"/>
    <path id="Path_2931" data-name="Path 2931" d="M35.135,18.957H11.479a1.479,1.479,0,1,1,0-2.957H35.135a1.479,1.479,0,1,1,0,2.957Z" transform="translate(17.613 31.312)" fill="#002158"/>
    <path id="Path_2932" data-name="Path 2932" d="M35.135,22.957H11.479a1.479,1.479,0,0,1,0-2.957H35.135a1.479,1.479,0,1,1,0,2.957Z" transform="translate(17.613 39.14)" fill="#002158"/>
    <path id="Path_2933" data-name="Path 2933" d="M35.135,14.957H11.479a1.479,1.479,0,1,1,0-2.957H35.135a1.479,1.479,0,1,1,0,2.957Z" transform="translate(17.613 23.484)" fill="#002158"/>
    <path id="Path_2934" data-name="Path 2934" d="M35.135,10.957H11.479a1.479,1.479,0,1,1,0-2.957H35.135a1.479,1.479,0,1,1,0,2.957Z" transform="translate(17.613 15.656)" fill="#002158"/>
  </g>
</svg>
