<svg xmlns="http://www.w3.org/2000/svg" width="49.669" height="55.054" viewBox="0 0 49.669 55.054">
  <g id="coursentelli-certifi" transform="translate(-0.001)">
    <path id="Path_1" data-name="Path 1" d="M173.173,110.377a7.011,7.011,0,0,1-9.873.65c-3.966-3.488-10.1-4.246-15.481-1.964,6.921-8.892,15-11.425,19.4-12.152a25.6,25.6,0,0,1,5.3,3.593A6.993,6.993,0,0,1,173.173,110.377Z" transform="translate(-125.24 -93.815)" fill="#42b39a"/>
    <path id="Path_2" data-name="Path 2" d="M173.173,110.377a7.011,7.011,0,0,1-9.873.65c-3.966-3.488-10.1-4.246-15.481-1.964,6.921-8.892,15-11.425,19.4-12.152a25.6,25.6,0,0,1,5.3,3.593A6.993,6.993,0,0,1,173.173,110.377Z" transform="translate(-125.24 -93.815)" fill="#fc8e0b"/>
    <path id="Path_3" data-name="Path 3" d="M167.566,97.013c-4.4.727-12.479,3.261-19.4,12.152a5.98,5.98,0,0,0-.739.317,13.342,13.342,0,0,0-7.684,10.088c-3.607-9.982-1.746-17.809-.236-21.741h.021c.6-.338,1.22-.656,1.841-.953A29.839,29.839,0,0,1,167.566,97.013Z" transform="translate(-125.586 -93.917)" fill="#42b39a"/>
    <path id="Path_4" data-name="Path 4" d="M146.376,133.449c-11.8-1.813-17.98-8.286-20.388-11.49v-.021A26.919,26.919,0,0,1,139.906,97.7c-1.51,3.932-3.371,11.759.236,21.741a15.46,15.46,0,0,0-.148,2.938A13.02,13.02,0,0,0,146.376,133.449Z" transform="translate(-125.984 -93.788)" fill="#112459"/>
    <path id="Path_5" data-name="Path 5" d="M161.14,133.55c-7.021,9.091-15.261,11.625-19.659,12.312h-.021A27.08,27.08,0,0,1,126,122.177c-.019-.34-.018-.679-.017-1.019,2.409,3.2,8.584,9.677,20.388,11.49a16.241,16.241,0,0,0,1.735.9A15.907,15.907,0,0,0,161.14,133.55Z" transform="translate(-125.984 -93.904)" fill="#fc8e0b"/>
    <path id="Path_6" data-name="Path 6" d="M172.391,142.239a28.278,28.278,0,0,1-18.243,6.42,30.507,30.507,0,0,1-12.2-2.613,8.923,8.923,0,0,1-.977-.482c4.4-.687,12.638-3.22,19.659-12.312a11.6,11.6,0,0,0,2.8-1.751,6.992,6.992,0,0,1,8.96,10.738Z" transform="translate(-125.473 -93.606)" fill="#42b39a"/>
    <g id="Group_1" data-name="Group 1" transform="translate(18.605 24.84)">
      <circle id="Ellipse_1" data-name="Ellipse 1" cx="2.655" cy="2.655" r="2.655" fill="#112459"/>
      <circle id="Ellipse_2" data-name="Ellipse 2" cx="2.655" cy="2.655" r="2.655" transform="translate(7.547 0.022)" fill="#42b39a"/>
      <circle id="Ellipse_3" data-name="Ellipse 3" cx="2.655" cy="2.655" r="2.655" transform="translate(15.094 0.044)" fill="#fc8e0b"/>
    </g>
  </g>
</svg>
