<svg xmlns="http://www.w3.org/2000/svg" width="63.755" height="63.755" viewBox="0 0 63.755 63.755">
  <g id="customer" transform="translate(-6.375 12.387) rotate(-18)" opacity="0.2">
    <g id="Group_57227" data-name="Group 57227" transform="translate(5.06 5.06)">
      <path id="Path_2893" data-name="Path 2893" d="M27.3,52.6A25.3,25.3,0,1,1,52.6,27.3,25.373,25.373,0,0,1,27.3,52.6Zm0-48.067A22.768,22.768,0,1,0,50.067,27.3,22.674,22.674,0,0,0,27.3,4.53Z" transform="translate(-2 -2)" fill="#112459"/>
    </g>
    <g id="Group_57228" data-name="Group 57228" transform="translate(29.093)">
      <path id="Path_2894" data-name="Path 2894" d="M12.765,12.649A1.2,1.2,0,0,1,11.5,11.384V1.265A1.2,1.2,0,0,1,12.765,0,1.2,1.2,0,0,1,14.03,1.265V11.384A1.2,1.2,0,0,1,12.765,12.649Z" transform="translate(-11.5)" fill="#112459"/>
    </g>
    <g id="Group_57229" data-name="Group 57229" transform="translate(29.093)">
      <path id="Path_2895" data-name="Path 2895" d="M12.765,12.649A1.2,1.2,0,0,1,11.5,11.384V1.265A1.2,1.2,0,0,1,12.765,0,1.2,1.2,0,0,1,14.03,1.265V11.384A1.2,1.2,0,0,1,12.765,12.649Z" transform="translate(-11.5)" fill="#112459"/>
    </g>
    <g id="Group_57230" data-name="Group 57230" transform="translate(48.067 29.093)">
      <path id="Path_2896" data-name="Path 2896" d="M30.384,14.03H20.265A1.2,1.2,0,0,1,19,12.765,1.2,1.2,0,0,1,20.265,11.5H30.384a1.2,1.2,0,0,1,1.265,1.265A1.2,1.2,0,0,1,30.384,14.03Z" transform="translate(-19 -11.5)" fill="#112459"/>
    </g>
    <g id="Group_57231" data-name="Group 57231" transform="translate(29.093 48.067)">
      <path id="Path_2897" data-name="Path 2897" d="M12.765,31.649A1.2,1.2,0,0,1,11.5,30.384V20.265A1.2,1.2,0,0,1,12.765,19a1.2,1.2,0,0,1,1.265,1.265V30.384A1.2,1.2,0,0,1,12.765,31.649Z" transform="translate(-11.5 -19)" fill="#112459"/>
    </g>
    <g id="Group_57232" data-name="Group 57232" transform="translate(0 29.093)">
      <path id="Path_2898" data-name="Path 2898" d="M11.384,14.03H1.265A1.2,1.2,0,0,1,0,12.765,1.2,1.2,0,0,1,1.265,11.5H11.384a1.2,1.2,0,0,1,1.265,1.265A1.2,1.2,0,0,1,11.384,14.03Z" transform="translate(0 -11.5)" fill="#112459"/>
    </g>
    <g id="Group_57233" data-name="Group 57233" transform="translate(25.298 17.709)">
      <path id="Path_2899" data-name="Path 2899" d="M15.06,17.119a5.06,5.06,0,1,1,5.06-5.06A5.075,5.075,0,0,1,15.06,17.119Zm0-7.589a2.39,2.39,0,0,0-2.53,2.53,2.39,2.39,0,0,0,2.53,2.53,2.39,2.39,0,0,0,2.53-2.53A2.39,2.39,0,0,0,15.06,9.53Z" transform="translate(-10 -7)" fill="#112459"/>
    </g>
    <g id="Group_57234" data-name="Group 57234" transform="translate(20.239 30.358)">
      <path id="Path_2900" data-name="Path 2900" d="M26.974,22.119a1.2,1.2,0,0,1-1.265-1.265v-2.53a3.891,3.891,0,0,0-3.795-3.795H14.325a3.891,3.891,0,0,0-3.795,3.795v2.53a1.2,1.2,0,0,1-1.265,1.265A1.2,1.2,0,0,1,8,20.854v-2.53A6.263,6.263,0,0,1,14.325,12h7.589a6.263,6.263,0,0,1,6.325,6.325v2.53A1.2,1.2,0,0,1,26.974,22.119Z" transform="translate(-8 -12)" fill="#112459"/>
    </g>
  </g>
</svg>
