<svg xmlns="http://www.w3.org/2000/svg" width="53.8" height="53.121" viewBox="0 0 53.8 53.121">
  <g id="do-what-you-learn" transform="translate(0 0)">
    <path id="Path_1054" data-name="Path 1054" d="M51.257,171.32l-14.136,8.426a2.472,2.472,0,0,0-1.041,3,2.643,2.643,0,0,1-1.982.027l-1.829-.718a3.7,3.7,0,0,0-2.277-.144l-2.8.709q-.163.041-.319.1c-1.712-.977-2.731-1.269-4.538-.571l-1.622.627a2.65,2.65,0,0,1-2.32-.194l-.542-.319a2.472,2.472,0,0,0-1.172-2.513L2.543,171.32A1.682,1.682,0,0,0,0,172.764v15.78a3.124,3.124,0,0,0,1.517,2.671l6.172,3.679a2.465,2.465,0,0,0,3.339-.786l.264.156-.8,1.115a2.773,2.773,0,0,0,2.736,4.348,2.771,2.771,0,0,0,3.226,2.314,2.773,2.773,0,0,0,3.886,2.113,2.774,2.774,0,0,0,4.764.8l2.073,1.228a2.773,2.773,0,0,0,4.176-2.141l.081.048a2.776,2.776,0,0,0,4.185-2.247,2.778,2.778,0,0,0,3.508-2.456,2.774,2.774,0,0,0,3.159-4.391l.812-.475a2.467,2.467,0,0,0,3.013.379L47.6,194a.788.788,0,1,0-.807-1.354l-1.492.889a.891.891,0,0,1-1.056-.107c-.005-.044-6.63-11.115-6.63-11.115a.892.892,0,0,1,.31-1.219l14.136-8.426a.105.105,0,0,1,.16.091v15.78a1.54,1.54,0,0,1-.748,1.317l-1.49.888a.788.788,0,1,0,.807,1.354l1.49-.888a3.124,3.124,0,0,0,1.517-2.671v-15.78A1.681,1.681,0,0,0,51.257,171.32ZM30.379,183.439a2.14,2.14,0,0,1,1.314.083l1.833.72a4.211,4.211,0,0,0,3.331-.116l5.374,9.07-.871.509a4.219,4.219,0,0,0-.454.311L29.413,187.21a.788.788,0,0,0-1.19.678v.158a2.1,2.1,0,0,1-2.1,2.1.176.176,0,0,1-.171-.171v-3.74a2.149,2.149,0,0,1,1.154-1.907.789.789,0,0,0,.1-.049,2.166,2.166,0,0,1,.368-.129Zm-21.207,10.2a.885.885,0,0,1-.676-.1l-6.172-3.679a1.54,1.54,0,0,1-.748-1.317v-15.78a.1.1,0,0,1,.053-.092.107.107,0,0,1,.053-.015.1.1,0,0,1,.053.016L15.872,181.1a.892.892,0,0,1,.31,1.219L9.718,193.229A.884.884,0,0,1,9.172,193.638Zm3.766,4.538a1.2,1.2,0,0,1-1.166-1.879l1.124-1.566a1.2,1.2,0,0,1,.088-.108.79.79,0,0,0,.067-.067,1.2,1.2,0,0,1,1.79,1.572l0,0-1.123,1.564a1.189,1.189,0,0,1-.778.483Zm2.333,2.106a1.2,1.2,0,0,1-.274-1.67l1.124-1.566h0l1.241-1.728a1.189,1.189,0,0,1,.778-.483,1.207,1.207,0,0,1,.2-.016,1.2,1.2,0,0,1,.97,1.9l-2.365,3.295A1.2,1.2,0,0,1,15.271,200.283Zm4.117,2.524a1.2,1.2,0,0,1-1.166-1.879l0,0,2.363-3.292a1.2,1.2,0,1,1,1.945,1.4l-2.365,3.295A1.189,1.189,0,0,1,19.388,202.807Zm2.861,1.371a1.2,1.2,0,0,1-.274-1.67l0,0,.785-1.093a1.2,1.2,0,0,1,1.944,1.4l-.45.626-.014.019-.323.45a1.2,1.2,0,0,1-1.67.274Zm18.988-6.743a1.2,1.2,0,0,1-1.64.42l-1.822-1.079h0l-5.643-3.343a.788.788,0,1,0-.8,1.356l5.645,3.344h0a1.2,1.2,0,0,1-1.222,2.06l-1.485-.88,0,0h0L30.1,196.846a.788.788,0,0,0-.8,1.356l4.157,2.463h0a1.2,1.2,0,0,1-1.221,2.06l-2.229-1.32,0,0-1.63-.966a.788.788,0,1,0-.8,1.356l1.63.966h0a1.2,1.2,0,0,1-1.223,2.059l-1.951-1.156a2.772,2.772,0,0,0-1.9-4.3,2.772,2.772,0,0,0-3.058-3.765,2.773,2.773,0,0,0-4.763-1.484,2.772,2.772,0,0,0-3.92-1.036l-.559-.33,5.362-9.051.4.233a4.216,4.216,0,0,0,3.69.307l1.622-.627a2.552,2.552,0,0,1,2.469.084,3.722,3.722,0,0,0-.993,2.534v3.74a1.749,1.749,0,0,0,1.745,1.747h0a3.68,3.68,0,0,0,3.5-2.552l10.977,6.5a.782.782,0,0,0,.112.055.8.8,0,0,0,.1.072,1.2,1.2,0,0,1,.42,1.64Z" transform="translate(0 -153.442)" fill="#112459"/>
    <path id="Path_1055" data-name="Path 1055" d="M144.759,23.763h18.068a2.97,2.97,0,0,0,2.967-2.967V10.046a2.97,2.97,0,0,0-2.967-2.967h-4.349V5.831a2.606,2.606,0,0,0-2.6-2.6H151.71a2.606,2.606,0,0,0-2.6,2.6V7.08h-4.349a2.97,2.97,0,0,0-2.967,2.967v5.922a.788.788,0,0,0,1.576,0V14.5a4.717,4.717,0,0,0,3.16,1.211h.617v.867a.788.788,0,0,0,1.576,0v-.867h10.143v.867a.788.788,0,0,0,1.576,0v-.867h.617a4.717,4.717,0,0,0,3.16-1.211V20.8a1.392,1.392,0,0,1-1.39,1.39H144.759a1.392,1.392,0,0,1-1.39-1.39V19.652a.788.788,0,0,0-1.576,0V20.8a2.97,2.97,0,0,0,2.967,2.967Zm5.926-17.932A1.028,1.028,0,0,1,151.711,4.8h4.164A1.028,1.028,0,0,1,156.9,5.831V7.08h-6.217V5.831Zm10.373,8.307h-.617v-.867a.788.788,0,0,0-1.576,0v.867H148.721v-.867a.788.788,0,1,0-1.576,0v.867h-.617a3.163,3.163,0,0,1-3.16-3.16v-.932a1.392,1.392,0,0,1,1.39-1.39h18.068a1.392,1.392,0,0,1,1.391,1.39v.932A3.163,3.163,0,0,1,161.057,14.138Z" transform="translate(-126.893 -3.228)" fill="#112459"/>
  </g>
</svg>
