<svg id="elearning" xmlns="http://www.w3.org/2000/svg" width="134.684" height="122.387" viewBox="0 0 134.684 122.387">
  <path id="Path_1103" data-name="Path 1103" d="M131.6,182.794h-2.164V113.155a12.925,12.925,0,0,0-12.91-12.91h-7.009a1.976,1.976,0,0,0,0,3.952h7.009a8.969,8.969,0,0,1,8.959,8.958v69.639H81.319a4.065,4.065,0,0,0-3.364,1.78l-.592.871a2.951,2.951,0,0,1-2.442,1.292H59.5a2.951,2.951,0,0,1-2.442-1.292l-.592-.87a4.066,4.066,0,0,0-3.364-1.78H32.05a1.976,1.976,0,1,0,0,3.952H53.1a.118.118,0,0,1,.1.051l.592.871a6.9,6.9,0,0,0,5.709,3.02H74.92a6.9,6.9,0,0,0,5.709-3.021l.592-.871a.117.117,0,0,1,.1-.051h49.414v2.138a9.547,9.547,0,0,1-9.536,9.536H13.488a9.547,9.547,0,0,1-9.536-9.536v-2.138H23.63a1.976,1.976,0,1,0,0-3.952H9.2V113.155a8.969,8.969,0,0,1,8.959-8.958h5.827a1.976,1.976,0,1,0,0-3.952H18.157a12.925,12.925,0,0,0-12.91,12.91v69.639H3.083A3.086,3.086,0,0,0,0,185.877v3.007a13.5,13.5,0,0,0,13.488,13.488H121.2a13.5,13.5,0,0,0,13.488-13.488v-3.007A3.087,3.087,0,0,0,131.6,182.794Z" transform="translate(0 -79.985)" fill="#3ebfab"/>
  <path id="Path_1104" data-name="Path 1104" d="M56.395,136.2H69.12a1.976,1.976,0,1,0,0-3.952H56.395a4.485,4.485,0,0,0-4.48,4.48v63.185a1.976,1.976,0,0,0,1.976,1.976H157.27a1.976,1.976,0,0,0,1.976-1.976v-16.72a1.976,1.976,0,0,0-3.952,0v14.745H55.867V136.724A.529.529,0,0,1,56.395,136.2Z" transform="translate(-38.238 -103.554)" fill="#3ebfab"/>
  <path id="Path_1105" data-name="Path 1105" d="M423.389,136.724a4.485,4.485,0,0,0-4.48-4.48h-6.4a1.976,1.976,0,1,0,0,3.952h6.4a.529.529,0,0,1,.528.528v38.044a1.976,1.976,0,0,0,3.952,0Z" transform="translate(-302.381 -103.554)" fill="#3ebfab"/>
  <path id="Path_1106" data-name="Path 1106" d="M118.651,49.15l4.662,2.5v18.4a12.229,12.229,0,0,0,12.215,12.215h34.854A12.229,12.229,0,0,0,182.6,70.054V51.512l2.863-1.537V85.152a7.181,7.181,0,1,0,3.952,0V45.11h0A4.579,4.579,0,0,0,187,41.07l-32-17.184a4.572,4.572,0,0,0-4.339,0l-32,17.184a4.585,4.585,0,0,0,0,8.08Zm72.015,42.9a3.229,3.229,0,1,1-3.229-3.229A3.233,3.233,0,0,1,190.667,92.055Zm-70.146-47.5,32-17.184a.632.632,0,0,1,.6,0l32,17.184a.634.634,0,0,1,0,1.117l-32,17.184a.631.631,0,0,1-.6,0l-9.067-4.869a1.976,1.976,0,1,0-1.869,3.481l9.067,4.869a4.573,4.573,0,0,0,4.338,0l23.653-12.7V70.054a8.273,8.273,0,0,1-8.264,8.263H135.529a8.273,8.273,0,0,1-8.264-8.263V53.775l6.668,3.58a1.976,1.976,0,1,0,1.869-3.481l-15.282-8.205a.633.633,0,0,1,0-1.116Z" transform="translate(-85.614 -23.339)" fill="#faa220"/>
</svg>
