<svg xmlns="http://www.w3.org/2000/svg" width="212.706" height="159.422" viewBox="0 0 212.706 159.422">
  <g id="facebook" transform="translate(0 -64.129)">
    <path id="Path_3544" data-name="Path 3544" d="M189.608,64.129H23.1A23.123,23.123,0,0,0,0,87.226v99.907a23.123,23.123,0,0,0,23.1,23.1h146.53a3.116,3.116,0,1,0,0-6.232H23.1A16.885,16.885,0,0,1,6.232,187.133V87.226A16.885,16.885,0,0,1,23.1,70.361H189.609a16.885,16.885,0,0,1,16.866,16.866v99.907A16.885,16.885,0,0,1,189.609,204h-6.66a3.116,3.116,0,0,0,0,6.232h6.66a23.123,23.123,0,0,0,23.1-23.1V87.226a23.124,23.124,0,0,0-23.1-23.1Z" transform="translate(0)" fill="#3ebfab"/>
    <path id="Path_3545" data-name="Path 3545" d="M225.858,432.871H99.309a3.116,3.116,0,0,0,0,6.232H225.857a3.116,3.116,0,0,0,0-6.232Z" transform="translate(-56.231 -215.552)" fill="#3ebfab"/>
    <path id="Path_3546" data-name="Path 3546" d="M192.283,160.947a3.479,3.479,0,0,1,3.449-.155l7.012,3.506a3.116,3.116,0,1,0,2.787-5.574l-7.012-3.506a9.776,9.776,0,0,0-14.148,8.744v51.711a9.762,9.762,0,0,0,14.148,8.745l51.711-25.856a9.776,9.776,0,0,0,0-17.488l-31.378-15.689a3.116,3.116,0,1,0-2.787,5.574l31.378,15.689a3.544,3.544,0,0,1,0,6.34l-51.711,25.856a3.545,3.545,0,0,1-5.13-3.171V163.962a3.477,3.477,0,0,1,1.681-3.015Z" transform="translate(-107.776 -52.639)" fill="#faa220"/>
  </g>
</svg>
