<?xml version="1.0" standalone="no"?>
<!DOCTYPE svg PUBLIC "-//W3C//DTD SVG 20010904//EN"
 "http://www.w3.org/TR/2001/REC-SVG-20010904/DTD/svg10.dtd">
<svg version="1.0" xmlns="http://www.w3.org/2000/svg"
 width="5866.000000pt" height="2800.000000pt" viewBox="0 0 5866.000000 2800.000000"
 preserveAspectRatio="xMidYMid meet">

<g transform="translate(0.000000,2800.000000) scale(0.100000,-0.100000)"
fill="#000000" stroke="none">
<path d="M34460 25734 c-15 -7 -43 -28 -63 -48 -62 -61 -83 -186 -43 -242 12
-16 71 -16 1207 10 657 14 1285 29 1397 33 l202 6 0 42 c0 60 -45 143 -98 180
l-44 30 -1265 0 c-927 0 -1273 -3 -1293 -11z"/>
<path d="M37520 25476 c0 -18 52 -116 60 -111 10 6 -39 115 -52 115 -4 0 -8
-2 -8 -4z"/>
<path d="M37722 25014 c3 -11 83 -194 178 -409 94 -214 234 -533 311 -708
l140 -317 -40 -53 c-99 -131 -214 -369 -309 -642 -77 -218 -192 -572 -192
-587 0 -44 40 56 129 322 168 500 249 691 373 872 l60 87 -71 158 c-39 87
-181 412 -314 722 -133 311 -249 567 -256 569 -10 3 -12 -1 -9 -14z"/>
<path d="M36950 24719 l0 -140 53 -67 c64 -80 90 -122 123 -199 l24 -58 -5 95
c-4 52 -10 173 -14 267 -4 95 -9 175 -12 177 -2 2 -41 18 -87 35 l-82 30 0
-140z"/>
<path d="M34786 24768 c-5 -23 -35 -412 -57 -745 -6 -94 -8 -184 -4 -200 6
-27 7 -28 22 -8 15 20 15 20 10 -3 -3 -12 -1 -20 4 -16 5 3 9 12 9 20 0 8 4
13 9 10 17 -11 20 39 26 414 3 206 8 414 11 463 5 74 3 87 -10 87 -9 0 -18
-10 -20 -22z m-6 -919 c0 -4 -4 -11 -10 -14 -5 -3 -10 -1 -10 6 0 7 -7 4 -15
-7 -12 -16 -14 -17 -15 -2 0 16 13 25 38 25 6 0 12 -4 12 -8z"/>
<path d="M35271 24529 c-140 -17 -407 -106 -398 -133 12 -38 170 -58 431 -54
l188 3 -48 95 c-55 107 -49 104 -173 89z"/>
<path d="M35470 24439 l49 -104 42 -3 42 -3 -6 97 c-4 53 -9 99 -12 102 -3 3
-41 7 -85 10 l-80 5 50 -104z"/>
<path d="M35617 24523 c-4 -3 -7 -51 -7 -105 0 -91 1 -98 20 -98 19 0 20 7 20
105 0 81 -3 105 -13 105 -8 0 -17 -3 -20 -7z"/>
<path d="M36085 24523 c-22 -2 -43 -9 -46 -15 -4 -6 -7 -50 -8 -98 l-2 -87
108 4 c60 1 198 5 308 7 284 6 375 30 284 77 -70 35 -169 70 -259 90 -85 19
-305 32 -385 22z"/>
<path d="M36965 24294 c4 -128 8 -245 10 -260 2 -16 5 -87 6 -159 1 -71 6
-119 9 -105 4 14 5 35 3 47 -3 21 17 27 33 10 4 -4 13 -2 21 4 7 6 13 8 13 4
0 -4 7 -2 15 5 15 13 21 2 8 -16 -5 -5 -1 -2 8 8 20 21 34 11 16 -11 -11 -14
-10 -14 6 -2 9 8 15 16 12 19 -2 3 3 10 12 17 27 20 23 255 -6 359 -26 94 -87
215 -137 271 l-35 40 6 -231z m56 -387 c-10 -9 -11 -8 -5 6 3 10 9 15 12 12 3
-3 0 -11 -7 -18z m60 -20 c-6 -6 -11 -16 -11 -21 0 -6 9 3 20 19 11 17 20 24
20 16 0 -10 3 -11 13 -2 10 8 14 7 14 -5 0 -10 -7 -14 -19 -11 -12 4 -18 1
-15 -6 2 -7 13 -10 23 -9 10 2 16 1 12 -4 -4 -4 -20 -8 -35 -10 -16 -1 -29 -3
-30 -4 -2 -1 -6 -3 -10 -4 -5 -1 -13 -4 -19 -8 -6 -4 -14 -4 -18 0 -4 4 -13 7
-19 7 -7 0 -13 14 -14 30 -1 20 0 23 4 8 2 -13 9 -24 14 -24 38 -5 44 -3 43
18 -1 12 4 21 10 20 6 -1 10 7 8 18 -2 19 -2 19 9 2 8 -14 8 -22 0 -30z m-39
-5 c6 -22 -18 -26 -26 -5 -3 8 -1 11 4 8 6 -3 10 -1 10 4 0 17 7 13 12 -7z"/>
<path d="M35970 24415 c0 -88 1 -95 20 -95 19 0 20 7 20 95 0 88 -1 95 -20 95
-19 0 -20 -7 -20 -95z"/>
<path d="M20682 24158 c-6 -6 -12 -19 -11 -27 0 -9 157 -223 348 -476 323
-428 350 -460 377 -459 16 1 205 77 419 171 351 153 390 172 390 193 0 52 -17
47 -414 -125 -322 -139 -386 -164 -398 -153 -7 8 -160 209 -341 448 -180 239
-334 436 -342 438 -9 1 -21 -3 -28 -10z"/>
<path d="M35070 24041 c-16 -16 -32 -40 -36 -55 -9 -38 3 -74 36 -107 23 -23
37 -29 73 -29 75 0 127 61 113 134 -16 82 -127 116 -186 57z m21 -67 c11 -14
10 -18 -5 -30 -22 -16 -36 -10 -36 15 0 33 20 40 41 15z"/>
<path d="M36227 24040 c-14 -11 -30 -33 -36 -50 -9 -28 -9 -29 8 -20 14 7 22
6 31 -5 18 -22 -5 -48 -31 -35 -17 9 -17 8 -7 -21 24 -69 123 -91 180 -40 29
26 33 35 33 81 0 46 -4 55 -33 81 -40 36 -105 40 -145 9z"/>
<path d="M34712 23780 c0 -19 2 -27 5 -17 2 9 2 25 0 35 -3 9 -5 1 -5 -18z"/>
<path d="M37146 23754 c-10 -32 -25 -72 -33 -87 -19 -38 -13 -41 31 -21 32 16
36 22 35 53 0 20 -3 54 -7 75 l-7 40 -19 -60z"/>
<path d="M34702 23660 c0 -14 2 -19 5 -12 2 6 2 18 0 25 -3 6 -5 1 -5 -13z"/>
<path d="M37120 23596 c-32 -14 -66 -39 -83 -60 -31 -39 -31 -41 5 -27 13 5
49 17 81 27 55 16 57 18 57 50 0 19 -1 34 -2 34 -2 -1 -28 -11 -58 -24z"/>
<path d="M37140 23500 c-14 -5 -51 -16 -82 -25 -46 -12 -58 -20 -58 -35 0 -11
3 -20 8 -19 24 1 176 66 180 77 4 14 -11 14 -48 2z"/>
<path d="M35556 22864 c-108 -24 -189 -65 -262 -135 -57 -56 -63 -64 -47 -73
23 -14 918 -21 952 -9 23 9 22 11 -43 75 -71 72 -151 117 -251 143 -75 19
-256 18 -349 -1z"/>
<path d="M24575 22354 c-228 -48 -429 -226 -518 -456 l-32 -83 -3 -1737 -2
-1738 -260 -1 c-321 -1 -304 -1 -312 -13 -5 -8 -8 -8 -8 0 0 6 -22 9 -57 8
-73 -4 -73 -3 -44 -15 13 -5 33 -7 45 -4 19 5 19 5 3 -5 -10 -7 -30 -9 -44 -6
-17 5 -23 3 -18 -5 5 -7 22 -9 47 -5 27 4 46 2 56 -6 9 -7 13 -8 10 -3 -4 6 7
18 23 27 16 10 29 13 29 9 0 -4 -10 -13 -22 -19 -20 -10 -15 -12 29 -9 29 2
58 0 65 -4 8 -5 19 2 31 19 11 15 17 20 14 10 -3 -9 1 -24 8 -35 13 -16 14
-15 10 13 -3 25 0 31 13 30 10 -2 18 -8 18 -14 1 -7 2 -16 3 -21 1 -11 20 -9
41 4 13 7 13 6 2 -7 -9 -11 -10 -18 -2 -23 5 -3 8 -21 5 -38 -5 -29 -4 -30 9
-14 8 11 12 26 9 35 -4 15 -3 15 6 2 10 -14 16 -7 12 13 -1 5 3 6 9 2 6 -3 8
-10 6 -14 -3 -4 -1 -13 4 -21 5 -8 3 -22 -6 -35 -13 -20 -13 -23 3 -29 9 -4
14 -4 11 0 -12 12 11 42 29 40 10 -2 21 2 25 8 6 8 8 8 8 -1 0 -6 -4 -15 -10
-18 -5 -3 -10 -11 -10 -17 0 -6 11 -1 25 12 14 13 25 22 26 19 0 -2 2 -17 4
-33 2 -15 6 -31 9 -33 3 -3 0 -15 -6 -27 -8 -17 -8 -19 2 -9 11 10 16 7 26
-13 7 -13 11 -31 8 -38 -3 -8 -1 -17 5 -21 7 -3 8 0 5 9 -3 9 -2 16 4 16 15 0
34 -28 27 -40 -4 -6 4 -10 20 -10 15 0 24 4 20 10 -4 6 -11 7 -17 4 -6 -4 -6
1 1 14 7 14 8 23 1 27 -5 3 -10 12 -10 18 0 7 4 6 10 -3 9 -14 14 -7 11 13 -1
5 3 6 9 2 7 -4 8 -11 1 -18 -10 -13 22 -61 33 -49 4 3 4 -2 0 -12 -5 -13 -4
-17 4 -12 7 4 9 -3 7 -23 -3 -22 0 -28 13 -27 11 1 17 -7 19 -24 0 -14 1 -33
2 -43 1 -12 6 -16 14 -11 6 4 4 -2 -6 -13 -11 -12 -14 -24 -9 -27 6 -3 13 0
15 6 3 7 4 0 4 -17 -1 -16 3 -29 8 -28 6 1 10 -20 10 -50 -1 -29 4 -58 9 -66
8 -11 8 -13 -1 -7 -8 4 -13 1 -13 -9 0 -10 5 -13 12 -9 7 4 8 3 4 -5 -4 -6
-11 -9 -16 -6 -16 10 -29 -19 -15 -38 10 -15 14 -15 18 -3 3 8 1 17 -6 19 -7
3 -2 5 9 4 20 -1 21 -3 8 -22 -8 -12 -11 -26 -7 -30 5 -5 1 -4 -8 3 -13 10
-19 9 -30 -5 -12 -15 -12 -16 6 -10 20 7 20 7 1 -8 -18 -13 -15 -20 7 -16 4 1
1 -9 -8 -22 -8 -13 -12 -27 -8 -32 5 -4 2 -5 -6 0 -9 5 -12 3 -9 -6 3 -8 11
-13 18 -11 11 3 11 0 1 -12 -7 -8 -10 -20 -7 -25 4 -5 3 -12 -2 -15 -5 -3 -9
0 -10 7 -8 64 -8 86 -1 81 11 -6 7 25 -5 45 -6 9 -5 12 0 8 6 -3 10 12 9 34 0
21 -4 39 -8 39 -5 0 -5 5 -1 11 3 6 8 67 9 135 2 90 -1 126 -10 134 -9 8 -14
6 -18 -4 -4 -9 -1 -18 5 -22 7 -5 8 -2 3 6 -5 9 -4 11 4 6 6 -4 8 -12 4 -18
-8 -14 -8 -71 0 -85 4 -6 4 -13 1 -16 -3 -3 -6 -61 -6 -129 0 -67 -3 -127 -7
-133 -3 -5 -6 -21 -7 -35 -2 -48 -4 -52 -20 -46 -8 3 -12 2 -9 -4 7 -11 -30
-51 -39 -43 -3 4 -6 -3 -6 -15 0 -11 -10 -28 -22 -36 -15 -11 -18 -16 -8 -16
13 0 13 -2 1 -9 -8 -5 -12 -18 -8 -30 3 -12 1 -24 -5 -27 -5 -3 -7 -18 -4 -33
5 -19 4 -22 -4 -11 -8 13 -14 8 -12 -11 2 -9 -39 -45 -46 -41 -4 2 -8 -1 -10
-7 -2 -6 3 -8 11 -5 8 3 18 1 22 -5 4 -7 -1 -8 -12 -4 -16 6 -16 4 2 -18 l20
-24 -21 18 c-20 16 -22 16 -28 2 -3 -9 -4 -21 0 -26 3 -5 3 -9 0 -9 -3 0 -10
10 -17 21 -6 12 -7 19 -1 15 5 -3 13 1 16 10 5 12 2 15 -11 10 -13 -6 -12 -1
5 17 l23 24 -21 6 c-17 4 -19 3 -9 -9 9 -11 8 -15 -5 -20 -19 -7 -20 -58 -2
-84 10 -13 9 -13 -6 -1 -15 11 -18 11 -18 0 0 -11 -2 -11 -10 1 -5 8 -10 20
-10 25 0 6 4 4 9 -4 6 -9 11 -10 15 -2 4 6 3 11 -3 11 -5 0 -8 9 -6 20 2 12 0
18 -6 15 -5 -4 -7 -10 -4 -15 6 -10 -29 -32 -37 -24 -11 10 -2 -32 10 -54 8
-13 11 -26 8 -30 -3 -3 -6 1 -6 9 -1 10 -5 8 -15 -5 -8 -11 -15 -15 -15 -9 0
7 5 15 10 18 6 3 10 11 10 16 0 6 -5 7 -12 3 -7 -4 -8 -3 -4 4 4 7 3 12 -2 12
-13 0 -21 -45 -10 -63 5 -9 4 -18 -1 -22 -5 -3 -8 -14 -6 -25 2 -12 0 -18 -4
-15 -5 3 -7 21 -5 40 2 24 -1 33 -8 29 -6 -4 -8 -3 -5 2 3 6 1 16 -4 24 -7 11
-9 -2 -7 -40 2 -40 0 -54 -9 -53 -7 2 -13 -1 -13 -5 0 -4 6 -14 13 -22 9 -11
8 -11 -7 0 -18 14 -19 13 -13 -2 4 -13 2 -15 -10 -11 -11 4 -14 2 -9 -5 5 -8
2 -10 -9 -6 -11 5 -14 2 -9 -10 3 -9 9 -14 13 -11 4 2 8 -2 8 -10 0 -9 -4 -11
-11 -6 -6 5 -18 7 -27 6 -9 -2 -16 3 -16 11 0 11 3 11 16 1 12 -10 14 -9 8 5
-3 10 -2 20 3 23 5 3 7 13 4 23 -5 14 -4 15 5 2 16 -22 19 -8 4 20 -10 19 -13
21 -13 7 0 -10 -4 -15 -10 -12 -5 3 -10 0 -10 -7 0 -10 -3 -9 -11 2 -9 13 -10
13 -6 0 2 -8 10 -14 17 -12 6 1 10 -3 8 -10 -3 -7 -14 -12 -26 -12 -11 1 -23
-5 -26 -12 -3 -9 1 -11 12 -7 16 5 16 5 0 -12 -12 -13 -21 -15 -30 -8 -17 13
-58 2 -72 -20 -8 -14 -8 -20 4 -27 9 -6 10 -10 3 -10 -6 0 -15 5 -18 10 -10
17 -82 12 -82 -5 0 -10 10 -15 31 -14 30 1 30 1 6 9 l-25 8 27 1 c15 1 30 -3
33 -9 4 -6 117 -10 306 -10 l299 0 0 -580 0 -580 344 0 c380 0 401 -3 465 -63
45 -43 71 -101 71 -161 0 -27 -46 -241 -106 -495 -58 -245 -143 -606 -189
-801 -46 -195 -154 -652 -240 -1015 -86 -363 -199 -839 -251 -1057 l-94 -397
0 -625 0 -625 243 -3 244 -3 41 -28 c48 -34 82 -83 105 -151 14 -39 17 -89 17
-241 0 -152 -3 -202 -17 -241 -44 -130 -117 -184 -250 -184 -47 0 -65 4 -69
15 -5 13 -760 15 -6705 15 l-6699 0 0 -296 c0 -307 2 -322 44 -356 18 -16 48
-18 252 -18 127 0 426 -3 665 -7 l435 -6 -78 -321 c-43 -177 -104 -427 -134
-556 -31 -129 -75 -318 -99 -420 -24 -102 -114 -475 -200 -830 -86 -355 -174
-719 -195 -810 -22 -91 -117 -482 -210 -870 -94 -388 -229 -950 -301 -1250
-72 -300 -177 -733 -233 -963 l-101 -419 -5387 2 c-4563 1 -5388 -1 -5388 -13
0 -18 2585 -27 7413 -27 2729 0 3347 -2 3347 -13 0 -7 -54 -235 -119 -507
-121 -503 -300 -1244 -397 -1648 -30 -123 -54 -228 -54 -233 0 -5 161 -9 400
-9 220 0 400 2 400 4 0 5 82 348 255 1061 64 264 159 658 211 875 52 217 99
412 105 433 l10 37 522 -2 c515 -3 522 -3 520 -23 -3 -19 -33 -247 -189 -1430
-35 -269 -70 -537 -76 -593 l-12 -104 29 -55 c39 -74 87 -106 171 -111 104 -7
183 45 212 138 6 19 38 242 71 495 33 253 97 732 141 1064 44 331 80 607 80
612 0 5 995 9 2420 9 l2419 0 6 -32 c7 -45 62 -445 140 -1038 123 -929 146
-1095 157 -1124 31 -78 105 -126 194 -126 68 0 112 20 158 70 70 77 77 1 -139
1594 -19 142 -35 264 -35 270 0 6 -41 46 -90 90 -50 43 -125 118 -166 166 -42
48 -105 110 -142 137 -89 66 -94 69 -90 47 3 -18 -68 -19 -2409 -22 -2215 -2
-2413 -1 -2413 14 0 13 81 640 152 1171 l11 82 456 152 c251 84 761 255 1133
380 l678 228 107 -39 c105 -37 447 -158 1163 -409 190 -67 444 -156 565 -199
l220 -77 8 -40 c5 -22 11 -49 13 -60 3 -21 121 -94 262 -164 149 -74 356 -121
536 -121 85 0 590 70 3170 440 741 106 1004 140 1080 140 123 0 307 17 399 36
38 8 101 29 140 47 72 34 174 107 183 131 6 14 -476 950 -753 1464 l-45 82
284 0 283 0 27 -112 c15 -62 104 -432 198 -823 94 -390 220 -917 281 -1170 60
-253 148 -614 195 -802 46 -188 84 -344 84 -347 0 -3 -1166 -6 -2590 -6 -2587
0 -2591 0 -2580 -20 11 -20 23 -20 2597 -22 l2586 -3 58 -245 c116 -481 501
-2076 510 -2112 l10 -38 399 0 c220 0 400 2 400 5 0 2 -29 125 -64 272 -135
560 -290 1205 -398 1650 -61 255 -109 465 -106 469 4 3 6697 1 14875 -5 19597
-15 19083 -15 19083 4 0 18 703 16 -7950 24 l-6735 6 -7 100 c-58 781 -652
1399 -1430 1484 -65 7 -596 11 -1583 11 l-1485 0 0 1720 0 1720 4143 2 4142 3
77 28 c232 86 393 259 465 502 17 57 18 373 21 6893 2 5909 0 6842 -12 6902
-54 260 -234 463 -483 548 l-78 27 -1702 3 -1703 2 0 -460 0 -460 978 0 c623
0 990 -4 1013 -10 54 -15 101 -51 126 -95 l23 -40 0 -5463 c0 -4908 -2 -5466
-15 -5500 -21 -49 -52 -81 -100 -103 -39 -18 -356 -19 -10650 -19 l-10610 0
-52 24 c-38 18 -58 35 -77 68 l-26 45 0 5471 c0 3833 3 5479 11 5499 5 15 24
43 42 61 63 65 -14 62 1529 62 l1398 0 0 460 0 460 -1642 -1 c-1406 -1 -1653
-3 -1713 -15z m-1150 -4034 c3 -5 1 -10 -4 -10 -6 0 -11 5 -11 10 0 6 2 10 4
10 3 0 8 -4 11 -10z m95 -5 c-7 -9 -15 -13 -19 -10 -3 3 1 10 9 15 21 14 24
12 10 -5z m70 10 c0 -2 -6 -8 -13 -14 -10 -8 -14 -7 -14 2 0 8 6 14 14 14 7 0
13 -1 13 -2z m194 -91 c3 -8 2 -12 -4 -9 -6 3 -10 10 -10 16 0 14 7 11 14 -7z
m117 -79 c5 4 6 -2 2 -11 -4 -12 -3 -15 6 -10 7 5 10 2 9 -6 -2 -7 3 -12 10
-10 6 1 11 -1 10 -5 -1 -5 4 -21 11 -37 6 -16 10 -31 7 -33 -2 -2 -8 10 -14
26 -6 17 -14 31 -18 31 -3 0 -3 -8 1 -17 4 -13 3 -15 -5 -7 -6 6 -12 18 -14
25 -1 8 -7 24 -14 36 -7 12 -12 25 -11 30 0 4 3 2 6 -5 2 -6 9 -10 14 -7z
m240 -432 c13 -16 12 -17 -3 -4 -17 13 -22 21 -14 21 2 0 10 -8 17 -17z m-111
-318 c5 3 7 -3 5 -12 -1 -10 -8 -17 -14 -15 -16 3 -13 -9 7 -25 15 -13 15 -13
-5 -3 -27 13 -29 4 -5 -24 16 -20 16 -20 0 -7 -17 13 -23 8 -19 -13 1 -5 -5
-4 -13 4 -17 13 -19 10 -10 -14 3 -9 11 -13 17 -9 6 4 7 1 2 -6 -12 -20 -27 3
-31 46 -3 39 23 91 33 65 6 -15 23 -6 19 11 -1 7 -1 9 1 4 3 -4 8 -5 13 -2z
m-83 -85 c-3 -11 -2 -22 3 -25 4 -3 10 -14 13 -25 3 -11 1 -18 -4 -14 -5 3 -9
11 -9 19 0 8 -4 16 -9 19 -5 3 -7 -9 -6 -27 3 -37 -2 -50 -16 -41 -6 4 -6 11
2 20 6 7 8 21 5 30 -3 9 -3 21 1 27 4 7 8 15 9 20 3 15 4 17 10 17 4 0 4 -9 1
-20z m-188 -274 c1 -6 -5 -1 -13 9 -8 11 -12 24 -8 29 5 9 20 -17 21 -38z
m-269 -217 c0 -5 -4 -9 -10 -9 -5 0 -10 5 -10 11 0 8 -5 8 -15 -1 -9 -8 -15
-8 -15 -2 0 6 6 12 13 15 16 5 37 -3 37 -14z m30 1 c0 -5 -4 -10 -10 -10 -5 0
-10 5 -10 10 0 6 5 10 10 10 6 0 10 -4 10 -10z m35 -18 c-3 -3 -11 0 -18 7 -9
10 -8 11 6 5 10 -3 15 -9 12 -12z m-1179 -8132 c28 -118 137 -570 242 -1005
233 -962 362 -1501 362 -1509 0 -3 -158 -5 -351 -4 l-352 3 -191 345 c-468
842 -887 1556 -1242 2116 -85 133 -156 249 -160 258 -6 15 57 16 817 14 l823
-3 52 -215z m1645 -220 c5 -402 7 -440 26 -496 40 -119 92 -204 183 -294 94
-94 161 -138 272 -178 l73 -27 4440 -5 4440 -5 0 -1715 0 -1715 -1630 -5
-1630 -5 -109 -23 c-434 -92 -788 -329 -1028 -687 -153 -229 -243 -492 -266
-775 l-7 -95 -1200 -3 c-660 -2 -1583 0 -2051 4 l-851 6 -57 247 c-32 135 -80
338 -107 451 -211 865 -505 2081 -634 2615 -152 633 -580 2410 -695 2886 -33
136 -60 250 -60 253 0 3 199 5 443 4 l442 -3 6 -435z m14649 -79 c0 -5 -8 -7
-19 -4 -10 3 -21 1 -24 -4 -4 -6 -1 -10 6 -11 7 0 31 -4 55 -8 32 -5 42 -3 42
7 1 10 3 10 10 -2 7 -13 20 -16 53 -13 35 3 44 1 44 -11 0 -10 -6 -14 -16 -10
-14 4 -14 3 0 -8 10 -7 42 -12 78 -12 34 0 62 -3 62 -7 1 -4 2 -14 3 -20 1 -8
15 -13 39 -12 33 1 42 -5 38 -28 -2 -12 27 -9 35 3 3 6 1 16 -6 22 -10 9 -12
8 -7 -6 4 -10 3 -16 -2 -13 -16 10 -10 56 8 56 13 0 13 -2 2 -9 -11 -7 -11
-10 0 -17 8 -5 22 -9 32 -10 9 -1 20 -3 25 -4 18 -6 38 -5 49 3 6 4 14 3 17
-2 4 -6 14 -8 24 -5 12 4 13 3 4 -3 -14 -11 -12 -61 3 -66 5 -2 22 -3 38 -2
19 1 26 -2 25 -13 -2 -8 3 -16 10 -18 7 -1 8 0 2 3 -7 3 -6 11 1 24 6 12 15
17 22 12 22 -13 35 -11 32 6 -6 27 -6 27 -15 6 -7 -16 -9 -17 -9 -3 -1 24 15
30 30 11 8 -9 13 -18 12 -20 -2 -1 -3 -12 -3 -24 0 -14 5 -19 14 -16 7 3 23
-1 35 -9 12 -9 20 -12 19 -7 -1 4 3 18 10 30 13 23 47 25 47 2 0 -8 10 -14 25
-14 14 0 25 5 25 12 0 6 3 14 6 18 4 3 5 -8 4 -25 -1 -17 1 -33 6 -36 9 -5 12
9 12 49 0 13 3 15 13 6 11 -9 14 -8 15 2 0 10 2 11 6 1 2 -6 10 -9 16 -5 31
19 63 0 51 -31 -6 -15 -8 -15 -21 1 -13 17 -13 16 -4 -3 6 -12 7 -25 3 -29 -4
-3 0 -5 8 -3 23 5 38 40 28 63 -9 19 -8 19 5 2 11 -14 16 -15 21 -5 4 9 5 9 5
-2 -2 -30 1 -40 14 -37 6 1 15 7 19 12 12 15 10 -7 -2 -25 -7 -11 -10 -11 -10
-2 0 7 -5 10 -12 6 -7 -5 -5 -11 8 -21 16 -12 19 -11 26 4 6 16 7 16 8 -2 l1
-20 9 20 c8 18 9 19 9 1 1 -18 2 -18 19 1 9 10 14 14 10 8 -4 -6 -5 -20 -3
-30 2 -11 4 -31 5 -45 1 -23 2 -23 9 -5 5 11 6 23 4 28 -2 4 1 6 8 5 7 -2 13
8 14 22 1 14 7 35 14 45 11 18 11 18 5 -5 -6 -23 -5 -24 10 -11 9 8 16 10 15
5 -5 -29 2 -37 17 -18 15 19 15 19 5 -2 -6 -12 -6 -26 0 -35 7 -11 9 -8 10 11
1 18 5 12 13 -20 10 -38 13 -41 18 -23 3 13 2 26 -3 29 -5 3 -9 11 -9 17 0 7
4 6 10 -3 5 -8 15 -15 21 -15 6 0 13 -16 14 -35 l2 -35 -14 30 c-11 25 -13 25
-8 5 4 -14 7 -30 7 -37 1 -7 6 -11 12 -10 17 3 25 31 12 47 -10 13 -9 13 7 1
18 -14 24 -2 7 15 -7 7 5 10 34 9 25 0 48 -4 53 -9 4 -4 2 -6 -6 -4 -7 2 -15
-2 -18 -8 -2 -7 7 -11 26 -9 l31 3 -20 -27 c-21 -30 -21 -66 1 -66 8 0 14 -7
14 -15 1 -8 7 -14 14 -12 7 1 10 -2 6 -8 -5 -8 -11 -8 -20 0 -15 13 -29 -3
-31 -35 -1 -26 -33 -95 -34 -73 0 9 -5 20 -11 24 -8 4 -9 -1 -5 -17 3 -13 3
-18 0 -10 -5 11 -8 11 -16 0 -7 -10 -8 -8 -3 6 4 11 8 25 8 32 0 7 4 10 9 7
14 -9 13 54 -2 70 -5 5 -7 14 -6 20 2 6 1 8 -1 4 -3 -4 -4 -10 -3 -14 1 -4 -4
-11 -12 -16 -10 -8 -10 -9 3 -5 10 3 15 -2 15 -18 0 -13 -4 -21 -8 -19 -5 3
-6 10 -3 15 4 5 1 9 -4 9 -6 0 -11 -5 -11 -11 0 -5 -4 -8 -9 -4 -10 6 -28 -22
-27 -40 2 -20 18 -35 29 -29 7 4 8 3 4 -1 -4 -5 -15 -10 -23 -11 -9 -1 -13 0
-10 3 9 9 -25 44 -35 37 -5 -3 -9 -10 -9 -15 0 -6 4 -8 9 -4 18 10 21 -13 4
-26 -10 -8 -14 -9 -10 -2 4 6 3 14 -3 18 -5 3 -10 -2 -11 -12 0 -10 -3 -13 -5
-6 -3 7 0 21 6 33 11 21 11 21 -14 5 -14 -10 -27 -15 -27 -11 -1 3 -2 10 -3
15 0 5 -5 13 -10 18 -5 4 -6 3 -2 -4 3 -6 2 -14 -4 -18 -5 -3 -10 -11 -10 -16
0 -6 5 -7 11 -3 8 4 8 0 0 -15 -11 -20 -8 -25 12 -22 5 1 6 -3 2 -9 -5 -8 -11
-8 -19 -1 -17 15 -29 1 -14 -16 8 -10 8 -17 -1 -26 -10 -9 -11 -8 -6 8 7 20 7
20 -9 0 -16 -19 -17 -19 -13 2 2 13 6 25 10 29 9 10 -12 46 -24 39 -5 -4 -9
-14 -9 -23 0 -15 2 -15 11 -2 7 10 9 11 7 2 -2 -8 -8 -13 -13 -13 -15 0 -18
30 -5 47 11 12 14 12 25 -2 13 -19 23 -10 30 27 4 20 3 21 -14 5 -15 -14 -20
-14 -29 -3 -7 8 -8 18 -4 22 4 5 1 5 -6 1 -10 -6 -10 -11 -2 -21 7 -8 7 -15 1
-19 -5 -3 -12 0 -14 6 -3 7 -6 -7 -6 -31 -1 -33 -4 -42 -15 -38 -18 7 -42 -18
-26 -28 5 -3 11 2 11 12 1 16 2 16 6 -1 4 -15 7 -16 15 -5 8 12 9 12 6 -1 -5
-16 -56 -22 -65 -7 -3 5 -9 4 -13 -3 -5 -9 -9 -8 -13 3 -3 9 1 14 11 13 10 0
17 4 17 9 0 6 -4 9 -9 7 -15 -5 -35 19 -31 39 2 11 0 17 -5 14 -9 -6 -8 -24 3
-42 5 -8 3 -13 -3 -13 -6 0 -15 10 -21 23 -9 21 -9 21 -5 -3 6 -28 -7 -55 -26
-55 -7 0 -13 -9 -12 -21 1 -11 -5 -21 -12 -21 -7 0 -11 9 -9 19 3 14 -2 18
-24 18 -34 0 -44 -9 -30 -26 6 -8 7 -14 0 -18 -6 -4 -9 -12 -7 -19 1 -7 1 -9
-1 -4 -3 4 -10 4 -15 1 -6 -4 -8 -2 -4 4 3 6 2 13 -4 17 -6 4 -8 11 -5 16 9
13 -7 11 -27 -5 -10 -7 -14 -17 -10 -22 4 -4 -1 -2 -10 5 -10 7 -16 17 -13 21
3 5 1 11 -4 15 -6 3 -8 -2 -7 -12 3 -13 -2 -18 -19 -18 -13 0 -21 3 -19 7 2 4
-1 10 -7 14 -7 4 -9 3 -6 -2 3 -5 -3 -21 -14 -34 -15 -20 -18 -21 -12 -5 6 18
5 18 -10 6 -9 -7 -14 -17 -11 -22 3 -5 0 -8 -8 -7 -8 2 -13 -6 -12 -20 1 -22
1 -22 -19 -5 -20 17 -20 17 -14 -2 7 -18 6 -19 -6 -3 -8 10 -18 14 -22 10 -5
-4 -5 -2 -1 5 3 6 15 10 26 8 11 -2 22 0 25 6 4 5 -8 9 -25 9 -17 0 -29 4 -25
9 3 5 0 13 -6 17 -8 4 -9 3 -5 -5 8 -13 -18 -25 -66 -30 -5 -1 -8 -6 -8 -12 0
-5 4 -8 8 -5 5 3 9 -1 9 -8 0 -9 -11 -13 -29 -12 -26 2 -34 -8 -29 -38 1 -5
-4 -4 -13 3 -10 8 -16 9 -21 1 -5 -8 -11 -8 -19 -1 -7 6 -16 8 -20 4 -4 -4
-15 -8 -24 -8 -9 -1 -30 -2 -46 -3 -18 -1 -26 -6 -23 -15 3 -8 -3 -13 -18 -13
-13 0 -21 4 -19 8 3 5 10 6 15 3 5 -4 9 -2 9 4 0 15 -63 1 -77 -17 -11 -13
-13 -13 -14 -1 0 10 -2 10 -6 2 -2 -7 -17 -13 -31 -13 -53 0 -104 -12 -90 -21
7 -5 -62 -8 -162 -6 -134 1 -174 5 -172 15 1 9 -17 12 -69 12 -53 0 -68 3 -63
13 5 8 2 8 -9 -2 -15 -11 -17 -11 -17 2 0 17 -38 25 -138 29 -35 2 -66 6 -68
10 -2 3 7 5 21 4 36 -4 20 12 -20 20 -19 3 -33 9 -30 13 2 4 -2 8 -10 8 -8 0
-12 -4 -9 -9 3 -4 -6 -8 -19 -8 -21 0 -23 4 -19 26 4 24 3 26 -34 24 -56 -3
-58 -2 -43 18 7 9 10 14 5 10 -4 -4 -19 -2 -33 3 -21 8 -24 7 -20 -5 4 -9 1
-18 -5 -22 -6 -4 -8 -3 -5 2 3 6 3 14 -1 19 -10 14 -55 39 -48 26 4 -5 2 -12
-4 -16 -6 -4 -7 -11 -3 -18 4 -7 9 -4 15 9 8 18 8 18 5 0 -1 -11 -10 -20 -20
-22 -9 -1 -15 2 -12 6 3 5 1 11 -5 15 -5 3 -10 14 -9 23 0 14 2 13 9 -3 8 -19
9 -19 9 1 1 14 -7 24 -19 27 -20 5 -21 -4 -8 -53 3 -8 3 -12 1 -7 -3 4 -8 5
-13 2 -4 -3 -7 3 -6 13 0 9 -5 16 -12 14 -8 -1 -11 2 -8 7 4 5 3 11 -1 14 -5
2 -2 2 5 1 6 -2 12 1 12 6 0 6 -9 10 -21 10 -11 0 -18 4 -14 9 3 5 1 13 -5 16
-6 4 -9 3 -8 -2 1 -4 -3 -18 -10 -31 -7 -12 -10 -27 -7 -32 15 -24 -4 -7 -21
18 -15 23 -15 25 -1 13 10 -7 17 -9 17 -3 0 15 -23 21 -43 10 -16 -8 -17 -7
-7 11 8 15 8 21 0 21 -6 0 -8 5 -5 11 4 6 -2 5 -14 -3 -12 -7 -21 -16 -21 -21
0 -4 4 -6 8 -3 5 3 9 -1 9 -8 0 -23 -30 -11 -32 12 -1 12 2 19 5 17 4 -3 16 5
26 18 18 22 18 22 -1 5 -18 -17 -20 -17 -39 0 -20 16 -20 16 -7 -1 12 -15 11
-17 -5 -14 -11 1 -25 7 -33 11 -10 6 -12 5 -7 -2 4 -7 2 -12 -4 -12 -6 0 -10
10 -8 23 2 18 -1 21 -22 19 -20 -3 -22 -1 -12 10 9 12 9 15 -2 15 -20 0 -13
-29 10 -38 17 -7 18 -8 1 -8 -10 -1 -15 -6 -12 -11 4 -6 10 -8 14 -6 4 3 7 -7
8 -22 0 -15 -1 -19 -4 -9 -2 9 -9 15 -14 11 -5 -3 -7 -9 -5 -13 3 -3 -10 -7
-29 -7 -25 0 -32 4 -28 16 3 10 0 9 -11 -4 -9 -11 -22 -16 -31 -12 -20 7 -9
27 13 24 12 -2 16 3 14 17 -2 16 -1 17 7 5 8 -12 11 -8 10 15 0 17 -3 24 -6
17 -2 -6 -9 -10 -13 -7 -5 3 -7 12 -4 20 3 7 -4 18 -15 25 -12 6 -21 7 -20 3
4 -23 -4 -24 -28 -2 l-28 24 24 -27 c13 -15 27 -25 32 -23 4 3 11 1 14 -5 4
-6 3 -10 -2 -9 -22 4 -53 -2 -53 -10 0 -6 9 -8 20 -6 17 3 18 1 7 -16 -6 -10
-13 -15 -15 -9 -2 6 -7 8 -11 6 -4 -3 -8 0 -8 7 0 7 -3 23 -8 37 -7 23 -7 24
11 10 17 -14 18 -14 6 2 -8 10 -17 17 -20 16 -4 -1 -17 3 -28 10 -21 11 -38 6
-28 -9 2 -4 12 -6 22 -3 11 4 13 3 5 -3 -8 -6 -9 -14 -3 -23 8 -12 10 -12 10
4 0 30 11 12 15 -26 2 -18 1 -25 -1 -15 -3 9 -9 17 -14 17 -5 0 -7 -8 -3 -17
3 -10 3 -15 -1 -12 -4 4 -9 17 -11 29 -3 13 -10 28 -16 34 -8 8 -10 4 -5 -14
6 -21 5 -22 -4 -7 -6 9 -8 22 -5 27 4 7 -2 9 -19 4 -23 -6 -25 -4 -22 33 1 21
6 45 11 53 6 12 6 13 -6 2 -8 -7 -14 -18 -14 -24 0 -6 -10 -13 -23 -15 -13 -1
-21 1 -18 6 7 11 -20 8 -31 -4 -4 -4 -2 -5 5 -1 7 4 15 1 18 -9 5 -12 9 -13
21 -4 8 7 13 8 12 3 -2 -5 6 -28 18 -51 12 -24 17 -45 12 -49 -5 -3 -9 -2 -7
3 3 13 -32 87 -38 80 -3 -3 0 -15 6 -27 6 -12 9 -24 7 -27 -3 -2 -8 5 -12 16
-3 12 -11 19 -16 15 -7 -4 -6 -10 0 -18 8 -9 2 -12 -24 -11 -19 0 -37 3 -40 7
-3 3 3 5 14 4 11 0 21 4 21 9 0 6 -9 9 -19 9 -13 -1 -18 4 -14 15 3 12 1 11
-11 -3 -9 -11 -16 -14 -16 -7 0 7 -4 10 -9 6 -5 -3 -13 -1 -16 5 -4 6 -3 9 2
8 4 -2 8 2 8 7 0 5 -4 9 -10 7 -5 -2 -5 2 2 9 9 9 9 18 -2 40 -8 15 -12 36 -9
46 5 17 5 17 -10 -1 -13 -16 -13 -21 1 -42 9 -14 13 -27 9 -31 -3 -3 -6 0 -6
8 0 11 -2 11 -10 -1 -7 -11 -10 -11 -10 -2 0 7 -4 11 -9 8 -4 -3 -7 -16 -6
-29 2 -15 -2 -24 -11 -24 -8 0 -12 3 -9 5 3 3 -1 12 -8 21 -11 14 -10 14 6 2
15 -12 17 -11 14 5 -1 11 -6 24 -10 31 -4 6 -3 15 3 18 6 4 9 1 8 -5 -2 -7 5
-14 15 -15 9 -2 17 -1 17 3 0 3 -8 14 -17 25 -10 11 -13 17 -7 14 24 -14 23
25 -1 49 -13 13 -19 24 -12 24 8 0 6 4 -3 11 -13 9 -13 10 2 6 11 -4 17 0 17
11 3 59 7 79 18 79 8 0 9 -6 2 -18 -5 -11 -5 -20 0 -24 5 -3 11 0 14 7 2 7 3
5 2 -4 -2 -10 1 -21 6 -24 5 -3 10 1 10 8 1 7 2 20 3 28 0 8 -3 18 -9 22 -6 5
-6 8 2 8 6 0 15 -5 18 -10 4 -6 10 -8 15 -5 4 3 7 -6 5 -20 -1 -14 2 -28 6
-31 5 -3 9 1 9 8 0 9 3 9 10 -2 8 -12 10 -12 10 -1 0 8 3 11 7 8 3 -4 -2 -15
-11 -26 -12 -13 -14 -21 -6 -26 7 -4 14 2 17 14 3 11 9 19 13 16 4 -2 5 7 2
20 -2 14 -8 22 -13 19 -5 -3 -8 0 -7 8 2 7 -2 12 -9 11 -15 -3 -10 24 7 40 12
10 12 9 2 -4 -10 -13 -9 -19 2 -28 11 -10 17 -8 25 6 8 14 10 10 5 -21 -4 -29
-2 -37 8 -34 7 3 12 13 10 23 -5 23 17 36 40 24 17 -9 22 -5 19 14 -1 5 2 6 7
3 5 -3 8 -24 7 -47 -2 -36 0 -40 10 -25 11 15 13 15 19 1 3 -9 2 -14 -3 -11
-5 3 -11 -1 -15 -9 -3 -8 -1 -17 5 -20 5 -4 7 -10 4 -15 -3 -5 -1 -11 4 -15 6
-3 8 4 6 16 -3 15 0 19 11 15 10 -4 13 -2 8 6 -11 18 -12 87 -1 85 5 -1 12 4
15 12 2 8 0 11 -5 8 -5 -3 -10 0 -10 7 0 8 13 12 36 11 20 -1 42 3 48 8 9 6
15 4 19 -8 6 -13 9 -14 16 -3 8 10 9 9 4 -4 -3 -10 -1 -20 4 -23 6 -4 11 4 11
17 2 22 2 22 6 2 2 -12 14 -30 26 -40 16 -14 18 -15 9 -2 -8 10 -9 19 -3 22 5
4 12 2 16 -4 4 -7 12 -7 26 0 14 8 19 7 19 -2 0 -6 7 -3 15 8 8 10 15 15 14 9
-3 -22 2 -27 16 -15 8 7 15 18 15 24 0 8 -2 8 -8 0 -5 -9 -11 -8 -21 3 -11 12
-10 14 5 11 15 -2 18 3 17 22 -3 25 -3 25 7 3 5 -13 12 -23 15 -23 4 0 4 10 1
23 l-6 22 11 -22 c14 -27 45 -26 46 1 2 20 1 20 -11 3 -13 -16 -14 -16 -20 -1
-4 9 -4 19 -1 22 3 3 5 0 5 -7 0 -7 5 -9 10 -6 8 5 7 11 -1 21 -6 8 -9 14 -5
14 3 0 9 0 14 0 4 0 7 -3 7 -7 0 -5 3 -13 7 -18 4 -6 5 -23 4 -38 -3 -22 -1
-25 10 -16 7 6 18 8 23 5 12 -8 42 34 34 47 -3 6 -1 7 5 3 6 -4 8 -14 5 -23
-4 -11 -3 -14 5 -9 17 10 15 26 -5 49 -13 14 -13 18 -3 11 8 -5 18 -9 23 -10
4 -1 9 -2 12 -3 2 0 0 -12 -5 -26 -6 -15 -6 -26 0 -30 6 -4 10 3 10 15 0 14 6
21 18 19 36 -3 44 1 39 21 -3 11 -1 18 4 14 14 -8 11 -25 -8 -48 -18 -21 -18
-21 5 -2 12 11 22 17 23 15 0 -2 2 -12 4 -22 2 -11 7 -22 10 -25 4 -4 5 0 4 8
-2 8 1 16 6 16 6 1 9 -2 7 -8 -1 -5 2 -7 8 -3 7 4 8 11 2 18 -5 7 -6 21 -1 32
7 18 8 18 9 -5 1 -14 4 -19 7 -12 2 6 9 9 14 6 6 -3 5 -12 -3 -22 -12 -15 -11
-16 6 -2 21 17 36 20 93 21 27 0 47 7 55 17 12 15 11 16 -5 3 -15 -12 -17 -12
-11 3 4 9 14 16 23 15 41 -4 63 2 58 14 -6 17 29 41 39 26 4 -7 21 -8 48 -3
22 4 51 7 64 6 12 -1 22 2 22 7 0 5 -17 8 -39 7 -30 -2 -38 1 -36 13 1 9 -2
22 -7 28 -7 9 -5 15 6 19 9 4 20 4 23 0 4 -3 -1 -6 -11 -6 -9 0 -14 -5 -11
-10 4 -6 11 -7 17 -4 7 4 8 2 4 -5 -12 -18 35 -31 58 -15 10 7 25 10 32 7 8
-3 22 1 31 8 12 10 15 10 9 2 -4 -8 -1 -13 9 -13 10 0 13 5 9 13 -6 9 -5 9 7
0 13 -10 16 -10 16 2 0 17 -52 21 -62 5 -5 -8 -11 -8 -20 0 -10 8 -14 8 -17
-2 -3 -8 -6 -8 -10 3 -6 16 -9 15 125 20 58 2 67 5 67 21 0 16 10 18 120 18
66 0 120 -4 120 -9z m83 2 c-7 -2 -19 -2 -25 0 -7 3 -2 5 12 5 14 0 19 -2 13
-5z m-686 -90 c-20 -2 -35 -8 -32 -13 3 -5 13 -7 23 -4 13 5 14 4 3 -4 -7 -5
-18 -16 -23 -23 -8 -11 -9 -10 -4 3 3 10 1 20 -5 23 -19 12 3 25 39 23 l37 -1
-38 -4z m-81 -35 c19 -21 19 -21 -3 -16 -16 4 -23 2 -23 -9 0 -8 -4 -12 -9 -9
-5 4 -11 1 -13 -6 -9 -26 -33 -15 -34 16 l-1 31 11 -27 c11 -27 12 -27 25 -7
7 12 8 18 2 15 -5 -4 -13 -1 -17 5 -4 8 -3 9 4 5 7 -4 12 -3 12 3 0 6 7 7 17
4 11 -4 14 -3 9 5 -12 19 -1 14 20 -10z m32 -19 c-3 -8 -7 -3 -11 10 -4 17 -3
21 5 13 5 -5 8 -16 6 -23z m-171 -1 c-3 -8 -6 -5 -6 6 -1 11 2 17 5 13 3 -3 4
-12 1 -19z m-46 -15 c-5 -10 -9 -21 -10 -25 -2 -19 -14 -11 -18 12 -2 17 0 21
6 12 7 -11 9 -11 14 2 4 9 9 16 12 16 3 0 1 -8 -4 -17z m1440 -7 c5 3 6 11 3
17 -5 9 -3 8 6 0 10 -10 17 -10 27 -1 8 6 13 7 12 2 -4 -21 2 -26 18 -13 15
13 15 12 3 -8 -13 -20 -15 -20 -28 -5 -12 15 -13 15 -9 1 3 -9 -1 -16 -8 -16
-7 0 -11 7 -8 16 4 13 2 12 -10 -2 -13 -16 -15 -16 -21 -1 -3 8 -5 21 -5 27 1
7 3 4 6 -6 2 -9 9 -15 14 -11z m-1616 5 c3 -5 2 -12 -3 -15 -5 -3 -9 1 -9 9 0
17 3 19 12 6z m236 -18 c-12 -20 -14 -14 -5 12 4 9 9 14 11 11 3 -2 0 -13 -6
-23z m29 7 c-6 -11 -13 -20 -16 -20 -2 0 0 9 6 20 6 11 13 20 16 20 2 0 0 -9
-6 -20z m1548 -36 c-7 -15 -14 -21 -16 -15 -2 6 -8 9 -13 6 -5 -4 -6 1 -2 10
4 12 8 13 13 5 5 -8 9 -7 13 4 4 9 9 16 11 16 3 0 0 -12 -6 -26z m-2323 -12
c-1 -9 2 -24 8 -32 9 -12 9 -13 -3 -3 -11 10 -17 10 -29 0 -11 -8 -10 -5 2 10
12 14 15 23 7 28 -5 3 -8 11 -4 16 8 14 23 1 19 -19z m305 18 c1 8 8 2 16 -13
8 -16 13 -34 10 -40 -2 -7 -5 -4 -5 6 -1 10 -6 15 -11 12 -6 -4 -7 -11 -4 -17
4 -6 2 -8 -4 -4 -5 3 -12 0 -15 -6 -2 -7 -4 6 -4 30 0 27 3 38 8 30 7 -10 9
-10 9 2z m205 1 c3 -5 2 -12 -3 -15 -5 -3 -9 1 -9 9 0 17 3 19 12 6z m1768 -6
c-3 -9 -8 -14 -10 -11 -3 3 -2 9 2 15 9 16 15 13 8 -4z m424 -10 c4 -4 2 -5
-4 -1 -8 4 -13 1 -13 -9 0 -10 5 -13 13 -9 6 4 8 3 4 -1 -12 -13 -36 -15 -44
-3 -4 7 -1 8 7 3 10 -6 12 -3 8 12 -6 21 13 26 29 8z m-2827 -9 c0 -2 -6 -9
-14 -15 -11 -9 -16 -9 -22 0 -4 7 -3 9 4 5 6 -3 13 -2 17 4 6 10 15 14 15 6z
m391 -15 c5 8 9 9 9 3 0 -6 -6 -16 -13 -22 -10 -8 -13 -6 -14 11 0 12 1 16 4
8 5 -11 7 -11 14 0z m2759 -27 c0 -8 -19 -13 -24 -6 -3 5 1 9 9 9 8 0 15 -2
15 -3z m-3287 -19 c-3 -9 -8 -14 -10 -11 -3 3 -2 9 2 15 9 16 15 13 8 -4z
m3132 6 c3 -5 2 -12 -3 -15 -5 -3 -9 1 -9 9 0 17 3 19 12 6z m196 -15 c5 3 6
11 3 17 -4 7 -3 8 1 4 11 -9 16 -37 7 -36 -4 1 -9 0 -12 -1 -29 -11 -37 -7
-26 16 8 17 12 19 14 9 2 -8 8 -13 13 -9z m-3317 -64 c3 -5 -1 -9 -9 -9 -8 0
-12 4 -9 9 3 4 7 8 9 8 2 0 6 -4 9 -8z m3293 -10 c0 -10 -6 -19 -13 -19 -9 0
-9 5 -1 19 7 10 13 18 14 18 1 0 1 -8 0 -18z m-1 -60 c-17 -16 -18 -16 -5 5 7
12 15 20 18 17 3 -2 -3 -12 -13 -22z m26 -4 c-8 -8 -9 -4 -5 13 4 13 8 18 11
10 2 -7 -1 -18 -6 -23z m18 -44 c0 -8 -19 -13 -24 -6 -3 5 1 9 9 9 8 0 15 -2
15 -3z m-64 -50 c0 -13 -2 -22 -5 -19 -3 3 -6 17 -7 31 0 13 2 22 5 19 3 -3 6
-17 7 -31z m45 19 c12 -16 12 -17 -2 -6 -9 7 -20 9 -24 5 -5 -4 -5 -1 -1 6 9
16 11 15 27 -5z m-55 -55 c4 -6 3 -8 -4 -4 -6 3 -14 -3 -17 -15 -4 -11 -9 -18
-12 -16 -5 5 14 47 22 47 2 0 7 -5 11 -12z m-27235 -25 c1 -34 8 -76 15 -92 4
-9 9 -25 11 -36 2 -11 6 -27 10 -35 3 -8 7 -18 8 -22 2 -5 4 -10 5 -13 1 -3 4
-9 5 -15 1 -5 4 -12 5 -15 1 -3 3 -8 4 -12 1 -5 7 -18 14 -30 7 -13 10 -23 7
-23 -8 0 24 -61 49 -91 12 -14 28 -36 36 -49 8 -12 36 -39 62 -60 26 -21 44
-41 40 -45 -4 -5 -2 -5 5 -1 6 3 31 -2 55 -13 24 -11 55 -22 71 -26 l27 -5
-33 -34 c-46 -46 -53 -68 -76 -251 -52 -398 -91 -703 -96 -732 l-6 -33 -314 0
c-199 0 -315 4 -315 10 0 9 136 582 220 925 23 94 46 175 51 181 5 6 6 14 2
17 -3 4 -1 13 5 20 7 8 9 17 6 20 -3 3 -2 12 2 19 4 7 9 22 11 33 5 35 10 60
12 60 1 0 4 15 7 33 2 18 9 42 14 53 6 10 8 19 4 19 -3 0 -1 7 6 15 6 8 9 19
6 24 -4 5 -1 13 5 16 5 4 8 13 5 21 -3 7 0 16 5 20 6 3 9 15 6 25 -3 10 -1 21
3 24 5 3 9 13 9 23 0 9 2 26 5 37 2 11 5 28 5 38 1 9 6 17 11 17 6 0 10 -8 11
-17z m24263 -9 c5 -14 4 -15 -9 -4 -17 14 -19 20 -6 20 5 0 12 -7 15 -16z
m2754 -16 c10 -12 10 -18 1 -24 -7 -4 -9 -3 -5 4 3 6 2 13 -4 17 -5 3 -10 11
-10 17 0 6 1 9 3 7 1 -2 8 -11 15 -21z m-2427 -37 c7 11 9 11 9 1 0 -7 4 -10
10 -7 6 4 7 -1 3 -11 -4 -12 -8 -14 -11 -6 -3 9 -8 10 -16 3 -8 -7 -12 -4 -13
12 0 12 1 16 4 8 5 -11 7 -11 14 0z m-34 -23 c-3 -8 -6 -5 -6 6 -1 11 2 17 5
13 3 -3 4 -12 1 -19z m2216 5 c-5 -12 -3 -14 7 -8 9 6 11 4 5 -4 -5 -9 -11 -9
-17 -3 -6 6 -7 15 -4 21 11 17 16 13 9 -6z m-2016 -35 c-3 -8 -6 -5 -6 6 -1
11 2 17 5 13 3 -3 4 -12 1 -19z m140 -50 c-3 -8 -6 -5 -6 6 -1 11 2 17 5 13 3
-3 4 -12 1 -19z m1632 -1 c0 -9 -2 -8 -6 1 -2 6 -10 9 -15 6 -7 -4 -8 -2 -4 5
9 13 26 5 25 -12z m-1532 -35 c-1 -21 -24 -26 -24 -6 0 7 4 11 9 8 4 -3 8 0 8
5 0 6 2 11 4 11 3 0 4 -8 3 -18z m1340 -5 c2 -19 2 -19 -13 -1 -14 17 -15 17
-10 2 7 -23 -1 -23 -13 0 -8 15 -6 18 13 18 15 0 23 -6 23 -19z m-1012 -79 c5
4 5 1 1 -6 -6 -10 -11 -10 -22 -1 -8 6 -14 14 -14 16 0 3 6 0 13 -6 8 -6 18
-7 22 -3z m685 -2 c0 -2 -7 -6 -15 -10 -8 -3 -15 -1 -15 4 0 6 7 10 15 10 8 0
15 -2 15 -4z m-21610 -708 c5 -13 25 -147 44 -298 20 -151 39 -290 42 -307 l5
-33 -1921 0 c-1761 0 -1920 1 -1920 16 0 29 81 628 86 636 3 4 826 8 1830 8
l1824 0 10 -22z m-4244 -1135 c-3 -21 -35 -258 -71 -528 -325 -2471 -352
-2672 -360 -2684 -8 -14 -1021 -15 -1029 -2 -3 5 23 130 59 277 61 251 96 394
240 989 31 127 105 435 165 685 114 477 164 683 258 1068 l56 232 344 0 344 0
-6 -37z m4399 10 c9 -37 6 -486 -3 -495 -10 -10 -9 -9 -1088 -373 l-872 -294
-208 73 c-332 116 -1817 638 -1840 646 l-20 8 28 219 c16 120 31 224 33 231 4
9 409 12 1984 12 l1979 0 7 -27z m-3537 -654 c268 -94 699 -245 957 -336 259
-91 488 -171 510 -178 26 -9 35 -15 25 -19 -56 -22 -2173 -726 -2176 -723 -3
3 31 267 121 947 7 58 23 179 35 270 23 184 28 210 36 210 3 0 225 -77 492
-171z m3542 -62 c0 -288 32 -755 76 -1115 l7 -52 -44 16 c-24 8 -343 121 -709
249 -1119 393 -1220 429 -1220 435 0 3 199 72 443 153 243 81 665 223 937 316
272 92 498 166 503 164 4 -2 7 -77 7 -166z"/>
<path d="M23977 17361 c-2 -10 -1 -25 4 -32 5 -8 9 -12 10 -9 6 39 6 60 -1 60
-4 0 -10 -9 -13 -19z"/>
<path d="M38440 8370 c0 -5 11 -9 24 -8 14 1 22 6 20 10 -7 12 -44 10 -44 -2z"/>
<path d="M38727 8330 c-5 -19 -1 -20 34 -18 22 1 38 7 36 12 -5 14 -28 15 -46
2 -11 -8 -13 -8 -8 1 4 6 3 14 -2 17 -5 3 -11 -3 -14 -14z"/>
<path d="M38075 8251 c-3 -5 -2 -12 3 -15 5 -3 9 1 9 9 0 17 -3 19 -12 6z"/>
<path d="M39176 8252 c-3 -5 -17 -8 -31 -7 -14 2 -25 -1 -25 -6 0 -5 -9 -9
-19 -9 -37 0 -34 -32 3 -38 13 -3 17 1 13 12 -8 20 23 38 44 26 21 -12 48 5
33 20 -7 7 -14 8 -18 2z"/>
<path d="M38106 8238 c3 -5 10 -6 15 -3 13 9 11 12 -6 12 -8 0 -12 -4 -9 -9z"/>
<path d="M38997 8239 c7 -7 15 -10 18 -7 3 3 -2 9 -12 12 -14 6 -15 5 -6 -5z"/>
<path d="M39459 8171 c-8 -38 -2 -56 19 -59 13 -2 20 -8 16 -14 -4 -6 -2 -8 4
-5 11 7 5 44 -9 63 -5 6 -7 13 -4 16 3 2 -2 5 -10 5 -8 0 -16 -3 -16 -6z"/>
<path d="M39621 8163 c-6 -10 -11 -13 -11 -7 0 6 -7 11 -15 11 -8 0 -13 -3
-11 -6 2 -3 0 -17 -5 -30 -8 -19 -12 -21 -24 -11 -8 7 -12 17 -8 23 3 6 1 7
-5 3 -6 -4 -8 -14 -5 -23 5 -12 3 -14 -7 -8 -9 5 -11 4 -6 -4 4 -6 13 -8 19
-4 7 4 7 0 -1 -10 -16 -19 -7 -39 16 -35 10 2 17 13 17 28 0 18 5 24 17 22 20
-3 33 14 17 24 -8 5 -9 3 -4 -6 5 -9 4 -11 -4 -6 -6 4 -9 12 -5 17 3 5 9 7 14
4 9 -6 35 23 27 31 -3 3 -10 -3 -16 -13z"/>
<path d="M39650 8171 c0 -5 5 -13 10 -16 6 -3 10 -2 10 4 0 5 -4 13 -10 16 -5
3 -10 2 -10 -4z"/>
<path d="M37628 8143 c-29 -34 -32 -46 -11 -34 11 6 23 7 27 4 3 -3 6 6 6 20
0 32 -2 33 -22 10z"/>
<path d="M37286 8142 c-3 -5 -19 -8 -36 -7 -16 1 -27 -2 -24 -7 3 -5 0 -16 -7
-24 -13 -16 -23 -52 -12 -40 4 3 12 1 20 -5 11 -10 11 -15 1 -28 -11 -14 -11
-14 2 -4 9 6 17 27 18 45 3 32 18 51 34 42 4 -3 8 0 8 7 0 7 2 10 5 7 10 -10
-7 -38 -19 -31 -6 4 -5 -1 2 -10 8 -9 12 -20 9 -24 -3 -4 10 -8 29 -8 28 0 31
2 19 11 -8 6 -15 14 -15 18 0 9 24 3 33 -9 5 -6 7 -5 5 3 -2 8 -7 12 -10 10
-4 -2 -18 12 -32 30 -13 18 -27 29 -30 24z m-45 -54 c-3 -21 -6 -26 -9 -15 -3
17 3 47 11 47 2 0 1 -15 -2 -32z m70 9 c-6 -8 -7 -18 -3 -22 4 -5 1 -5 -6 -1
-10 6 -10 11 -1 22 6 8 14 14 16 14 3 0 0 -6 -6 -13z"/>
<path d="M39694 8136 c-4 -10 -3 -21 2 -25 5 -3 10 -14 12 -25 2 -12 -1 -16
-10 -10 -7 4 -10 3 -5 -2 13 -13 114 -12 114 2 0 6 -12 10 -28 9 -29 -3 -73
21 -65 34 3 4 1 13 -4 21 -7 12 -10 11 -16 -4z m34 -61 c-3 -3 -9 2 -12 12 -6
14 -5 15 5 6 7 -7 10 -15 7 -18z"/>
<path d="M37683 8125 c0 -8 4 -12 9 -9 5 3 6 10 3 15 -9 13 -12 11 -12 -6z"/>
<path d="M37499 8103 c-13 -16 -12 -17 4 -4 16 13 21 21 13 21 -2 0 -10 -8
-17 -17z"/>
<path d="M39865 8092 c1 -9 -3 -24 -11 -32 -15 -18 -15 -65 0 -50 6 6 18 10
27 10 21 0 32 48 16 70 -17 21 -36 23 -32 2z m25 -38 c-6 -6 -8 -14 -5 -17 3
-4 2 -5 -2 -2 -3 3 -11 0 -18 -5 -8 -7 -12 -5 -12 5 0 7 5 13 11 12 9 -2 11 2
15 36 1 8 4 8 11 -3 5 -9 5 -19 0 -26z"/>
<path d="M36972 8088 c4 -8 2 -21 -2 -28 -12 -19 0 -36 12 -19 8 11 9 10 5 -2
-3 -9 0 -23 6 -30 8 -8 5 -8 -7 1 -18 14 -19 13 -13 -3 4 -10 7 -21 7 -24 0
-3 7 0 15 7 8 7 12 16 9 22 -3 5 0 17 7 26 7 9 9 14 5 10 -13 -11 -36 11 -30
27 3 7 0 16 -7 21 -8 5 -11 2 -7 -8z"/>
<path d="M37120 8078 c0 -11 5 -18 12 -16 16 6 18 35 2 35 -8 0 -14 -9 -14
-19z"/>
<path d="M37504 8078 l-19 -23 23 19 c21 18 27 26 19 26 -2 0 -12 -10 -23 -22z"/>
<path d="M37615 8091 c-3 -5 -2 -12 3 -15 5 -3 9 1 9 9 0 17 -3 19 -12 6z"/>
<path d="M39631 8086 c-9 -11 -9 -16 1 -22 7 -4 10 -4 6 1 -4 4 -3 14 3 22 6
7 9 13 6 13 -2 0 -10 -6 -16 -14z"/>
<path d="M37400 8086 c0 -2 8 -10 18 -17 15 -13 16 -12 3 4 -13 16 -21 21 -21
13z"/>
<path d="M36919 8059 c-1 -8 -1 -18 0 -23 1 -4 -3 -13 -8 -20 -6 -7 -3 -19 9
-33 17 -22 18 -22 23 -3 3 11 1 23 -4 26 -5 3 -9 0 -9 -7 0 -7 -2 -10 -5 -8
-2 3 0 18 4 35 8 23 9 25 10 7 1 -12 5 -24 9 -27 4 -2 7 -22 6 -43 -1 -21 5
-50 13 -65 7 -16 11 -28 7 -28 -4 0 -1 -6 5 -13 6 -8 9 -17 6 -21 -3 -3 0 -2
6 3 7 6 5 21 -9 49 -11 24 -16 46 -11 53 4 8 3 20 -4 28 -10 12 -9 12 11 0 12
-8 22 -17 22 -22 0 -4 5 -5 10 -2 8 5 8 11 1 19 -6 7 -7 17 -3 22 4 4 -1 3
-10 -4 -14 -11 -18 -10 -28 8 -6 11 -9 24 -6 29 3 4 -6 19 -19 31 -18 17 -25
20 -26 9z"/>
<path d="M37365 8061 c-3 -5 -2 -12 3 -15 5 -3 9 1 9 9 0 17 -3 19 -12 6z"/>
<path d="M40037 8038 c2 -5 -1 -15 -7 -23 -7 -9 -9 -26 -5 -42 6 -24 5 -25
-12 -12 -16 12 -17 12 -6 -2 7 -9 10 -19 6 -23 -4 -3 -8 -14 -9 -22 -1 -9 1
-13 4 -9 4 4 7 12 7 18 0 6 10 17 23 23 18 9 20 13 8 17 -9 4 -13 15 -11 28 6
30 21 44 30 28 6 -8 4 -10 -5 -4 -10 6 -12 4 -7 -7 3 -9 0 -21 -6 -27 -8 -8
-8 -11 0 -11 16 0 26 18 28 50 1 21 -3 26 -21 26 -13 0 -20 -4 -17 -8z"/>
<path d="M37089 8018 c-6 -20 -6 -39 0 -42 4 -3 7 6 7 20 0 20 -4 32 -7 22z"/>
<path d="M40079 7991 c-15 -31 -18 -76 -8 -112 3 -14 3 -33 -2 -42 -6 -9 -6
-18 0 -21 18 -11 33 50 18 71 -5 7 -4 20 3 30 9 15 10 14 4 -7 -7 -25 -7 -25
15 -6 22 20 28 32 12 21 -10 -6 -24 11 -28 34 -1 8 5 24 13 36 12 19 12 22 0
22 -8 0 -20 -12 -27 -26z"/>
<path d="M37018 7988 c-4 -8 -1 -21 5 -27 16 -16 -12 -34 -29 -20 -8 6 -14 5
-17 -5 -7 -19 9 -31 17 -14 3 7 3 3 1 -8 -6 -23 23 -96 35 -89 4 2 7 35 7 74
0 38 4 75 8 82 5 7 4 10 -3 5 -5 -3 -12 -1 -14 6 -3 8 -6 7 -10 -4z m-1 -80
c-3 -8 -6 -5 -6 6 -1 11 2 17 5 13 3 -3 4 -12 1 -19z m9 -40 c0 -10 -1 -18 -3
-18 -1 0 -7 8 -12 18 -7 13 -6 19 2 19 7 0 13 -9 13 -19z"/>
<path d="M37074 7956 c1 -8 5 -18 8 -22 4 -3 5 1 4 10 -1 8 -5 18 -8 22 -4 3
-5 -1 -4 -10z"/>
<path d="M39966 7958 c3 -5 10 -6 15 -3 13 9 11 12 -6 12 -8 0 -12 -4 -9 -9z"/>
<path d="M39953 7935 c0 -8 4 -12 9 -9 5 3 6 10 3 15 -9 13 -12 11 -12 -6z"/>
<path d="M37063 7923 c4 -3 1 -13 -6 -22 -11 -14 -10 -14 5 -2 16 12 16 31 1
31 -4 0 -3 -3 0 -7z"/>
<path d="M39955 7904 c-10 -8 -13 -14 -7 -14 7 0 12 -6 12 -13 0 -8 7 -14 15
-14 9 0 15 10 15 23 0 30 -11 35 -35 18z m22 -9 c0 -8 -4 -12 -9 -9 -5 3 -6
10 -3 15 9 13 12 11 12 -6z"/>
<path d="M37205 7871 c-3 -6 -15 -8 -26 -6 -15 3 -19 0 -15 -10 3 -8 0 -15 -6
-15 -6 0 -8 -3 -5 -6 4 -4 13 -2 20 4 8 7 16 10 18 7 3 -2 10 5 17 15 7 11 10
20 8 20 -3 0 -7 -4 -11 -9z"/>
<path d="M39899 7873 c-6 -56 -5 -64 8 -47 7 9 19 14 28 11 11 -5 15 0 15 21
0 15 -4 22 -8 16 -4 -6 -15 -13 -24 -17 -12 -4 -15 -2 -11 9 3 7 2 14 -1 14
-3 0 -6 -3 -7 -7z"/>
<path d="M39819 7857 c6 -8 7 -18 3 -22 -4 -5 -1 -5 6 -1 10 6 10 11 1 22 -6
8 -14 14 -16 14 -3 0 0 -6 6 -13z"/>
<path d="M37050 7860 c-7 -31 -7 -41 0 -45 14 -9 22 14 11 32 -6 10 -11 16
-11 13z"/>
<path d="M37215 7851 c-3 -5 -2 -12 3 -15 5 -3 9 1 9 9 0 17 -3 19 -12 6z"/>
<path d="M39965 7841 c-3 -5 -2 -12 3 -15 5 -3 9 1 9 9 0 17 -3 19 -12 6z"/>
<path d="M37369 7808 c-6 -20 -12 -69 -10 -85 1 -14 27 -11 43 5 9 9 9 12 -2
13 -8 1 -19 1 -23 0 -5 -1 -7 14 -4 34 3 19 3 35 1 35 -2 0 -4 -1 -5 -2z"/>
<path d="M39713 7772 c-5 -11 -7 -11 -15 0 -8 11 -9 11 -6 0 2 -8 8 -14 13
-14 6 0 16 -4 23 -10 6 -6 12 -7 13 -2 0 5 2 16 4 25 3 19 -25 21 -32 1z"/>
<path d="M39847 7783 c-4 -3 -7 -11 -7 -17 0 -6 5 -5 12 2 6 6 9 14 7 17 -3 3
-9 2 -12 -2z"/>
<path d="M39581 7737 c-1 -11 -6 -15 -13 -11 -7 4 -8 3 -4 -5 4 -6 12 -9 17
-6 5 4 9 1 9 -5 0 -6 5 -8 10 -5 6 3 10 16 9 28 0 21 -1 21 -8 2 l-8 -20 -5
20 c-5 17 -6 18 -7 2z"/>
<path d="M39620 7731 c0 -25 6 -27 13 -6 4 8 2 17 -3 20 -6 4 -10 -3 -10 -14z"/>
<path d="M39507 7724 c-3 -3 -3 -12 0 -20 4 -10 -2 -11 -26 -4 -20 6 -33 5
-37 -2 -4 -6 -2 -8 4 -4 6 3 13 2 17 -4 3 -5 1 -10 -6 -10 -7 0 -9 -3 -6 -6 4
-4 13 -1 21 5 16 13 40 6 31 -9 -3 -5 -1 -11 4 -14 5 -4 12 -2 15 3 4 5 2 12
-2 15 -5 3 -8 17 -7 31 3 26 2 29 -8 19z"/>
<path d="M39346 7682 c-2 -4 -1 -14 4 -22 7 -11 9 -9 7 8 -1 24 -3 26 -11 14z"/>
<path d="M39294 7659 c-3 -5 -2 -9 3 -9 4 0 2 -4 -5 -9 -11 -7 -11 -9 1 -14 8
-3 22 2 31 12 16 17 15 19 -4 24 -11 3 -23 1 -26 -4z m21 -8 c3 -5 2 -12 -3
-15 -5 -3 -9 1 -9 9 0 17 3 19 12 6z"/>
<path d="M39053 7566 c-28 -6 -54 -13 -57 -16 -7 -8 38 -5 51 3 7 4 15 3 18
-3 5 -8 11 -8 19 -1 7 6 16 8 19 4 4 -3 7 1 7 10 0 10 -1 16 -2 16 -2 -1 -26
-6 -55 -13z"/>
<path d="M37417 8163 c-4 -3 -7 -11 -7 -17 0 -6 5 -5 12 2 6 6 9 14 7 17 -3 3
-9 2 -12 -2z"/>
<path d="M35602 21910 l3 -140 -124 0 -124 0 -113 75 c-62 41 -115 75 -117 75
-3 0 41 -68 97 -152 l101 -152 389 -4 388 -4 174 173 c96 96 174 177 174 180
0 4 -96 -37 -214 -92 l-214 -99 -84 0 -83 0 3 140 3 140 -131 0 -131 0 3 -140z"/>
<path d="M11970 21230 c-157 -10 -339 -21 -405 -24 -66 -4 -142 -8 -170 -11
-27 -2 -104 -7 -170 -10 -66 -3 -154 -8 -195 -11 -41 -2 -347 -20 -680 -39
-792 -45 -760 -43 -760 -66 0 -13 7 -19 24 -19 21 0 1090 61 1301 75 44 2 125
7 180 10 55 3 366 21 692 40 326 19 599 35 608 35 8 0 15 9 15 20 0 18 -6 20
-77 19 -43 -1 -206 -10 -363 -19z"/>
<path d="M35790 20795 l0 -215 40 0 40 0 0 215 0 215 -40 0 -40 0 0 -215z m55
-1 c0 -161 -2 -189 -15 -189 -13 0 -15 28 -18 180 -3 187 0 209 21 202 9 -3
12 -50 12 -193z"/>
<path d="M12315 20878 c-173 -11 -1771 -103 -2220 -128 -465 -25 -465 -25
-465 -52 0 -19 4 -20 98 -14 53 4 131 9 172 11 41 2 118 7 170 10 239 14 1996
115 2085 120 222 12 296 18 300 25 2 4 -1 14 -8 21 -10 12 -33 13 -132 7z"/>
<path d="M15625 20715 c-293 -97 -759 -245 -773 -245 -8 0 -43 -23 -76 -52
-226 -191 -426 -482 -550 -797 -27 -67 -54 -114 -95 -165 -504 -619 -826
-1382 -930 -2202 -29 -230 -36 -370 -35 -699 2 -376 36 -717 108 -1083 15 -77
19 -115 12 -121 -6 -4 -58 -33 -116 -63 -58 -30 -171 -90 -252 -132 -101 -53
-148 -83 -148 -94 0 -9 -36 -47 -80 -84 -104 -89 -170 -170 -262 -325 -164
-276 -314 -611 -512 -1139 -68 -183 -233 -679 -271 -816 -9 -32 -22 -58 -29
-58 -6 0 -18 -17 -26 -37 -8 -21 -16 -41 -18 -45 -2 -5 15 -8 37 -8 l41 0 40
-80 c22 -44 40 -84 40 -90 0 -6 -45 -10 -119 -10 l-120 0 -4 -147 c-3 -124
-10 -178 -43 -333 -22 -102 -42 -190 -46 -195 -3 -6 -3 -25 -1 -42 l5 -33 207
0 207 0 17 123 c10 67 35 239 55 382 l38 260 50 78 49 78 40 -6 c22 -3 43 -9
46 -13 4 -4 18 -45 32 -92 l26 -84 -40 -276 c-22 -151 -42 -288 -45 -305 -2
-16 -6 -46 -9 -65 -3 -19 -7 -45 -9 -57 -5 -23 -3 -23 89 -23 l95 0 -5 -27
c-3 -16 -14 -98 -25 -183 -10 -85 -44 -347 -75 -581 -30 -235 -55 -429 -55
-433 0 -3 587 -6 1304 -6 l1303 0 7 74 c7 74 -5 210 -23 274 -5 17 -8 32 -6
32 1 0 45 9 96 19 281 58 600 97 692 85 37 -5 127 -44 310 -132 141 -69 257
-129 257 -134 0 -16 -55 -30 -99 -24 l-44 6 65 -67 c67 -70 92 -106 81 -117
-12 -11 -60 -6 -116 13 -56 20 -63 18 -51 -13 5 -14 62 -16 530 -16 567 0 542
2 514 -51 -11 -19 21 -19 2495 -19 2216 0 2509 2 2535 15 67 35 66 86 -2 212
-88 160 -115 172 -394 173 l-200 0 17 98 c9 53 20 113 23 132 3 19 17 100 31
180 13 80 25 147 25 150 0 3 -126 5 -280 5 -273 0 -281 0 -285 -20 -7 -32 -95
-530 -95 -538 0 -4 -666 -7 -1480 -7 -1529 0 -1496 -1 -1472 37 5 9 167 14
624 19 l618 7 -5 21 c-2 12 -18 118 -35 236 -17 118 -33 223 -36 232 -5 16
-40 17 -478 17 -318 0 -483 4 -502 11 -82 31 -144 122 -144 210 0 44 73 359
534 2306 l86 361 -64 314 c-69 337 -155 742 -159 745 -1 1 -240 119 -531 263
-291 144 -531 263 -534 265 -2 3 35 123 84 268 l87 263 -174 168 c-96 93 -229
220 -297 284 l-122 116 -205 -210 -204 -210 -198 -38 c-109 -20 -224 -43 -255
-50 -32 -7 -58 -9 -58 -4 0 8 9 10 303 67 l199 39 206 206 207 207 -58 58
c-31 32 -57 65 -57 73 0 9 43 204 94 435 52 230 93 420 91 422 -11 11 -27 -16
-45 -79 -61 -202 -188 -472 -324 -686 -76 -119 -271 -338 -351 -393 -123 -85
-241 -94 -425 -35 -449 146 -746 369 -902 680 -49 97 -214 506 -254 627 l-28
88 33 103 c31 95 33 107 22 155 -6 29 -11 97 -11 151 0 193 67 356 205 499
l81 83 118 357 c115 346 120 358 155 383 149 106 263 179 278 179 10 0 152
-28 316 -62 l298 -61 57 56 57 57 55 -38 c86 -60 419 -300 479 -346 37 -28 55
-49 57 -66 1 -14 8 -72 14 -130 19 -188 16 -179 69 -201 25 -10 58 -26 73 -34
14 -8 30 -15 35 -15 4 0 10 59 11 131 l4 132 -227 461 -228 461 -361 218
c-199 119 -366 217 -371 216 -6 0 -55 -16 -110 -34z m262 -603 l78 -27 1 -50
2 -50 -7 44 -6 43 -94 34 c-92 33 -131 52 -79 39 15 -4 62 -19 105 -33z m-259
-4751 l-5 -1066 -951 -3 c-524 -1 -952 1 -952 5 0 5 425 7 945 5 l945 -2 0
1070 c0 782 3 1069 11 1064 8 -5 10 -298 7 -1073z m1506 312 l-59 -78 -353
-185 c-194 -102 -432 -227 -530 -277 -97 -51 -248 -131 -335 -177 -87 -46
-156 -79 -155 -74 2 5 64 41 138 80 74 38 308 161 520 272 212 112 457 240
545 286 l160 82 60 79 c32 43 61 76 64 74 2 -3 -22 -40 -55 -82z m-1424 -2989
c0 -1134 -3 -1703 -10 -1699 -7 4 -10 583 -10 1706 0 1126 3 1699 10 1699 7 0
10 -575 10 -1706z m-2641 -684 c11 -107 23 -226 26 -265 4 -38 8 -80 10 -91 2
-12 6 -61 10 -110 3 -49 8 -102 10 -119 2 -16 7 -61 10 -99 6 -64 6 -68 -12
-61 -16 7 -37 11 -66 14 -5 1 -6 5 -3 10 4 5 -3 7 -15 4 -12 -4 -25 0 -30 8
-5 8 -9 9 -9 3 0 -11 -14 -8 -240 46 -154 38 -170 45 -170 72 0 26 128 288
141 288 5 0 9 6 9 13 0 8 9 24 20 37 11 13 20 29 20 37 0 7 5 13 10 13 6 0 10
6 10 14 0 8 6 21 14 28 7 8 17 24 20 36 4 12 12 22 17 22 5 0 9 7 9 15 0 8 5
15 10 15 6 0 10 6 10 13 0 8 14 33 30 55 17 23 30 45 30 48 0 4 15 28 34 54
19 26 42 63 52 81 9 19 19 30 20 24 2 -5 12 -98 23 -205z"/>
<path d="M37210 20460 c0 -37 -2 -38 -190 -85 -154 -39 -391 -80 -520 -90 -47
-4 -96 -9 -110 -11 -64 -11 -490 -3 -625 11 -216 23 -569 93 -679 135 -16 6
-27 6 -31 0 -8 -13 22 -24 163 -59 600 -151 1221 -153 1817 -5 55 14 121 32
148 40 45 15 47 17 47 55 0 21 -4 39 -10 39 -5 0 -10 -14 -10 -30z"/>
<path d="M11248 20314 c-12 -12 -9 -40 5 -52 7 -6 50 -13 95 -14 45 -2 82 -6
82 -10 0 -10 -210 -156 -330 -230 -528 -325 -1133 -595 -1920 -858 -601 -201
-1415 -408 -2065 -525 -110 -20 -207 -40 -215 -44 -21 -11 -24 -45 -6 -61 18
-14 134 3 483 76 1681 347 3054 862 3975 1490 76 52 141 94 144 94 4 0 4 -24
0 -54 -3 -30 -3 -62 0 -70 8 -21 51 -20 62 2 15 28 22 230 8 241 -14 12 -308
26 -318 15z"/>
<path d="M20388 19963 c7 -3 16 -2 19 1 4 3 -2 6 -13 5 -11 0 -14 -3 -6 -6z"/>
<path d="M20304 19928 l-19 -23 23 19 c21 18 27 26 19 26 -2 0 -12 -10 -23
-22z"/>
<path d="M20525 19890 c21 -22 41 -40 44 -40 3 0 -13 18 -34 40 -21 22 -41 40
-44 40 -3 0 13 -18 34 -40z"/>
<path d="M35705 19265 c0 -330 1 -464 2 -297 2 167 2 437 0 600 -1 163 -2 27
-2 -303z"/>
<path d="M20321 19634 c0 -11 3 -14 6 -6 3 7 2 16 -1 19 -3 4 -6 -2 -5 -13z"/>
<path d="M20297 19575 c-24 -50 -20 -58 4 -12 11 22 19 41 17 43 -3 2 -12 -12
-21 -31z"/>
<path d="M20244 19469 c-14 -28 -24 -53 -22 -55 2 -2 16 21 31 51 15 30 25 55
22 55 -3 0 -16 -23 -31 -51z"/>
<path d="M21180 19425 c13 -14 26 -25 28 -25 3 0 -5 11 -18 25 -13 14 -26 25
-28 25 -3 0 5 -11 18 -25z"/>
<path d="M20688 19363 c7 -3 16 -2 19 1 4 3 -2 6 -13 5 -11 0 -14 -3 -6 -6z"/>
<path d="M20618 19343 c7 -3 16 -2 19 1 4 3 -2 6 -13 5 -11 0 -14 -3 -6 -6z"/>
<path d="M21161 19204 c-19 -13 -27 -24 -19 -24 8 0 25 11 38 25 29 31 25 30
-19 -1z"/>
<path d="M21188 19183 c7 -3 16 -2 19 1 4 3 -2 6 -13 5 -11 0 -14 -3 -6 -6z"/>
<path d="M21221 19177 c2 -2 18 -11 34 -21 l30 -17 -24 20 c-13 12 -28 21 -34
21 -6 0 -8 -1 -6 -3z"/>
<path d="M16760 19154 c0 -25 20 -208 26 -232 l5 -24 -31 22 -30 22 -248 -31
c-136 -17 -257 -34 -270 -37 -16 -3 -29 -19 -42 -50 -11 -25 -20 -46 -20 -48
0 -1 217 17 315 28 159 17 236 18 281 6 25 -7 48 -18 50 -25 3 -6 19 -143 37
-303 18 -160 35 -294 39 -297 3 -4 7 40 7 97 1 105 16 503 26 704 l6 110 -48
26 c-77 42 -103 50 -103 32z"/>
<path d="M20123 19090 c0 -25 2 -35 4 -22 2 12 2 32 0 45 -2 12 -4 2 -4 -23z"/>
<path d="M21302 19065 c0 -16 2 -22 5 -12 2 9 2 23 0 30 -3 6 -5 -1 -5 -18z"/>
<path d="M19771 19015 c-117 -32 -140 -41 -130 -48 2 -2 66 13 142 34 140 39
168 40 194 8 16 -20 223 -758 223 -794 -1 -33 -14 -55 -45 -73 -17 -9 -17 -11
-3 -12 25 0 58 48 58 86 0 19 -36 161 -79 317 -44 156 -90 323 -102 371 -38
151 -66 163 -258 111z"/>
<path d="M21283 19001 c-7 -19 -25 -37 -47 -48 -38 -17 -47 -33 -20 -33 8 0
13 4 10 9 -3 4 5 13 19 19 27 12 59 56 53 72 -2 6 -8 -3 -15 -19z"/>
<path d="M14764 18936 c-114 -129 -172 -272 -181 -441 -2 -55 -1 -118 4 -140
9 -39 13 -28 121 294 61 184 110 336 108 338 -2 2 -25 -21 -52 -51z"/>
<path d="M30966 18982 c-8 -13 40 -112 54 -112 15 0 12 9 -19 69 -16 31 -31
49 -35 43z"/>
<path d="M36210 17485 c0 -995 3 -1494 10 -1490 7 4 10 512 10 1490 0 978 -3
1486 -10 1490 -7 4 -10 -495 -10 -1490z"/>
<path d="M19581 18944 c-12 -15 -21 -40 -21 -57 0 -33 80 -331 87 -324 2 3
-14 71 -37 152 -22 80 -40 158 -40 172 0 14 13 37 29 54 17 17 24 29 16 29 -7
0 -23 -12 -34 -26z"/>
<path d="M14957 18847 c-59 -49 -105 -92 -103 -94 2 -2 60 12 128 31 l125 36
268 -26 c147 -14 269 -23 272 -21 6 7 -40 97 -50 97 -14 0 -489 59 -512 64
-14 3 -53 -23 -128 -87z"/>
<path d="M21277 18893 c31 -29 39 -47 46 -108 3 -24 4 -22 5 10 2 46 -25 97
-60 116 -17 9 -15 4 9 -18z"/>
<path d="M21291 18718 c-13 -16 -35 -34 -49 -39 -14 -5 -22 -12 -19 -15 9 -9
70 32 85 56 20 33 10 31 -17 -2z"/>
<path d="M21298 18650 c18 -11 37 -30 42 -43 6 -15 9 -17 9 -5 1 17 -53 68
-72 68 -7 0 3 -9 21 -20z"/>
<path d="M19651 18540 c0 -8 4 -24 9 -35 5 -13 9 -14 9 -5 0 8 -4 24 -9 35 -5
13 -9 14 -9 5z"/>
<path d="M31182 18533 c2 -5 62 -125 135 -268 72 -143 230 -456 351 -695 121
-239 226 -436 232 -438 6 -2 -148 314 -342 702 -203 406 -359 706 -366 706 -8
0 -12 -3 -10 -7z"/>
<path d="M35704 18350 c0 -102 2 -143 3 -92 2 50 2 134 0 185 -1 50 -3 9 -3
-93z"/>
<path d="M21324 18499 c-3 -6 -20 -17 -38 -25 -17 -7 -23 -13 -14 -14 16 0 81
49 66 50 -4 0 -10 -5 -14 -11z"/>
<path d="M19671 18464 c0 -11 3 -14 6 -6 3 7 2 16 -1 19 -3 4 -6 -2 -5 -13z"/>
<path d="M15317 18456 c-15 -8 -55 -16 -90 -18 l-62 -3 43 -24 c34 -20 42 -30
42 -54 0 -43 29 -96 61 -112 85 -44 179 13 179 110 0 78 -103 139 -173 101z
m153 -105 c0 -27 -19 -36 -37 -18 -18 18 -9 37 18 37 12 0 19 -7 19 -19z"/>
<path d="M16498 18454 c-36 -19 -58 -63 -58 -114 0 -32 6 -48 29 -70 74 -74
190 -36 207 69 5 31 14 42 52 67 l47 29 -75 5 c-41 3 -85 11 -97 18 -29 16
-72 15 -105 -4z m172 -103 c0 -20 -17 -31 -37 -24 -7 3 -13 13 -13 24 0 14 7
19 25 19 18 0 25 -5 25 -19z"/>
<path d="M21198 18443 c7 -3 16 -2 19 1 4 3 -2 6 -13 5 -11 0 -14 -3 -6 -6z"/>
<path d="M19681 18430 c0 -8 4 -24 9 -35 5 -13 9 -14 9 -5 0 8 -4 24 -9 35 -5
13 -9 14 -9 5z"/>
<path d="M21128 18423 c7 -3 16 -2 19 1 4 3 -2 6 -13 5 -11 0 -14 -3 -6 -6z"/>
<path d="M21058 18403 c7 -3 16 -2 19 1 4 3 -2 6 -13 5 -11 0 -14 -3 -6 -6z"/>
<path d="M23214 18309 c-5 -8 -3 -9 6 -4 7 4 16 2 22 -6 8 -12 9 -12 6 0 -6
20 -24 25 -34 10z"/>
<path d="M23639 18318 c-6 -15 -5 -68 2 -68 5 0 9 -10 10 -22 1 -22 2 -19 15
20 2 7 9 10 14 7 7 -5 8 -11 1 -19 -6 -7 -6 -17 -1 -26 6 -8 10 -10 11 -5 0 6
2 20 5 31 2 12 -3 27 -11 34 -12 10 -15 10 -15 -1 -1 -8 -7 -3 -14 11 -8 14
-12 28 -10 32 3 5 3 8 0 8 -3 0 -6 -1 -7 -2z"/>
<path d="M23590 18288 c0 -20 -4 -22 -29 -9 -10 6 -23 6 -32 0 -10 -6 -7 -9
14 -9 19 0 26 -4 21 -12 -5 -7 -3 -8 5 -3 8 4 26 -2 44 -16 l32 -22 -20 22
c-11 13 -18 24 -16 25 3 0 0 10 -7 21 -10 17 -11 18 -12 3z"/>
<path d="M19721 18275 c1 -19 18 -51 18 -35 0 8 -4 22 -9 30 -5 8 -9 11 -9 5z"/>
<path d="M20330 18266 c0 -2 8 -10 18 -17 15 -13 16 -12 3 4 -13 16 -21 21
-21 13z"/>
<path d="M23731 18222 c-13 -24 1 -39 17 -19 6 7 7 18 3 26 -7 11 -11 9 -20
-7z"/>
<path d="M20398 18223 c7 -3 16 -2 19 1 4 3 -2 6 -13 5 -11 0 -14 -3 -6 -6z"/>
<path d="M23780 18186 c0 -12 19 -44 21 -36 6 31 3 47 -8 47 -7 0 -13 -5 -13
-11z"/>
<path d="M23838 18183 c-24 -29 -33 -47 -18 -38 10 6 12 4 7 -8 -5 -13 -1 -16
16 -13 13 2 20 10 18 17 -1 8 -4 24 -5 36 -1 27 0 27 -18 6z m9 -20 c-4 -3 -1
-13 6 -22 11 -14 10 -14 -5 -2 -16 12 -16 31 -1 31 4 0 3 -3 0 -7z"/>
<path d="M23706 18182 c-3 -5 1 -9 9 -9 8 0 12 4 9 9 -3 4 -7 8 -9 8 -2 0 -6
-4 -9 -8z"/>
<path d="M19754 18157 c3 -10 6 -25 6 -33 0 -17 44 -64 60 -64 6 0 -2 12 -19
26 -17 14 -31 33 -31 42 0 10 -5 24 -11 32 -9 12 -10 12 -5 -3z"/>
<path d="M20108 18123 c7 -3 16 -2 19 1 4 3 -2 6 -13 5 -11 0 -14 -3 -6 -6z"/>
<path d="M20068 18113 c7 -3 16 -2 19 1 4 3 -2 6 -13 5 -11 0 -14 -3 -6 -6z"/>
<path d="M20028 18103 c7 -3 16 -2 19 1 4 3 -2 6 -13 5 -11 0 -14 -3 -6 -6z"/>
<path d="M19958 18083 c7 -3 16 -2 19 1 4 3 -2 6 -13 5 -11 0 -14 -3 -6 -6z"/>
<path d="M19860 18060 c-20 -6 -21 -8 -5 -8 11 0 29 3 40 8 25 11 -1 11 -35 0z"/>
<path d="M23980 18042 c0 -5 3 -12 7 -15 12 -12 12 -57 0 -57 -8 0 -7 -4 2 -9
8 -5 11 -15 8 -23 -6 -18 22 -20 42 -4 11 8 13 8 8 -1 -4 -6 -3 -14 3 -18 5
-3 10 3 10 15 0 14 -5 20 -17 18 -12 -2 -18 4 -18 17 0 11 -8 35 -18 53 -17
31 -27 40 -27 24z"/>
<path d="M23958 17993 c10 -4 10 -8 0 -21 -12 -15 -11 -16 4 -3 19 14 15 32
-5 30 -8 0 -8 -2 1 -6z"/>
<path d="M16842 17910 c0 -14 2 -19 5 -12 2 6 2 18 0 25 -3 6 -5 1 -5 -13z"/>
<path d="M23995 17901 c-3 -5 -2 -12 3 -15 5 -3 9 1 9 9 0 17 -3 19 -12 6z"/>
<path d="M24065 17729 c0 -84 2 -96 14 -84 19 19 22 131 4 146 -7 6 -11 15 -8
19 3 5 2 11 -2 13 -5 3 -8 -39 -8 -94z"/>
<path d="M24063 17602 c1 -14 5 -18 11 -12 7 7 6 14 -1 21 -9 9 -12 7 -10 -9z"/>
<path d="M23997 17498 c-5 -18 3 -48 15 -48 5 0 5 7 0 18 -5 9 -7 23 -5 30 3
6 2 12 0 12 -3 0 -7 -6 -10 -12z"/>
<path d="M15610 17466 c0 -9 61 -32 140 -51 104 -26 250 -24 354 4 81 22 121
39 113 47 -2 3 -17 0 -33 -6 -74 -29 -163 -39 -294 -36 -121 3 -163 10 -257
40 -13 4 -23 5 -23 2z"/>
<path d="M23955 17419 c-11 -16 -1 -19 13 -3 7 8 8 14 3 14 -5 0 -13 -5 -16
-11z"/>
<path d="M15850 17340 c-23 -5 6 -7 80 -7 88 0 105 1 70 8 -54 9 -103 9 -150
-1z"/>
<path d="M18636 17291 c17 -4 35 -11 41 -14 5 -3 29 -94 54 -202 24 -108 45
-192 47 -187 6 19 -80 378 -95 395 -10 10 -29 17 -47 16 l-31 -1 31 -7z"/>
<path d="M18568 17283 c6 -2 18 -2 25 0 6 3 1 5 -13 5 -14 0 -19 -2 -12 -5z"/>
<path d="M18528 17273 c7 -3 16 -2 19 1 4 3 -2 6 -13 5 -11 0 -14 -3 -6 -6z"/>
<path d="M23871 17274 c1 -5 1 -21 0 -36 -1 -21 -5 -25 -21 -21 -15 4 -20 1
-19 -13 0 -11 3 -14 6 -6 8 21 21 13 15 -10 -5 -21 -4 -22 12 -9 9 8 14 16 11
19 -3 3 0 11 6 19 6 7 8 13 4 13 -5 0 0 10 11 23 10 12 15 19 10 15 -5 -4 -15
-3 -23 4 -8 6 -13 7 -12 2z"/>
<path d="M18478 17263 c6 -2 18 -2 25 0 6 3 1 5 -13 5 -14 0 -19 -2 -12 -5z"/>
<path d="M18410 17240 c-24 -24 -24 -38 -6 -105 17 -59 21 -43 5 20 -13 49 -1
81 34 95 17 7 18 9 5 9 -10 1 -27 -8 -38 -19z"/>
<path d="M19510 17176 c0 -2 7 -7 16 -10 8 -3 12 -2 9 4 -6 10 -25 14 -25 6z"/>
<path d="M18422 17065 c0 -11 4 -31 8 -45 6 -20 8 -21 8 -5 0 11 -4 31 -8 45
-6 20 -8 21 -8 5z"/>
<path d="M23643 16987 c1 -21 5 -41 9 -43 10 -6 9 23 -2 56 -7 21 -8 20 -7
-13z"/>
<path d="M18442 16970 c0 -14 2 -19 5 -12 2 6 2 18 0 25 -3 6 -5 1 -5 -13z"/>
<path d="M23615 16950 c1 -20 14 -40 16 -24 0 5 2 17 4 27 2 9 -2 17 -9 17 -7
0 -12 -9 -11 -20z"/>
<path d="M18451 16924 c0 -11 3 -14 6 -6 3 7 2 16 -1 19 -3 4 -6 -2 -5 -13z"/>
<path d="M18461 16884 c0 -11 3 -14 6 -6 3 7 2 16 -1 19 -3 4 -6 -2 -5 -13z"/>
<path d="M23500 16890 c-9 -6 -10 -10 -3 -10 6 0 15 5 18 10 8 12 4 12 -15 0z"/>
<path d="M18782 16850 c0 -14 2 -19 5 -12 2 6 2 18 0 25 -3 6 -5 1 -5 -13z"/>
<path d="M23405 16850 c-3 -6 1 -7 9 -4 18 7 21 14 7 14 -6 0 -13 -4 -16 -10z"/>
<path d="M18471 16834 c0 -11 3 -14 6 -6 3 7 2 16 -1 19 -3 4 -6 -2 -5 -13z"/>
<path d="M37220 16830 c0 -6 29 -10 66 -10 41 0 63 4 59 10 -3 6 -33 10 -66
10 -33 0 -59 -4 -59 -10z"/>
<path d="M37710 16830 c0 -7 170 -10 490 -10 320 0 490 3 490 10 0 7 -170 10
-490 10 -320 0 -490 -3 -490 -10z"/>
<path d="M18791 16804 c0 -11 3 -14 6 -6 3 7 2 16 -1 19 -3 4 -6 -2 -5 -13z"/>
<path d="M22955 16810 c-3 -5 -1 -10 4 -10 6 0 11 5 11 10 0 6 -2 10 -4 10 -3
0 -8 -4 -11 -10z"/>
<path d="M23312 16806 c7 -8 15 -12 17 -11 5 6 -10 25 -20 25 -5 0 -4 -6 3
-14z"/>
<path d="M18482 16790 c0 -14 2 -19 5 -12 2 6 2 18 0 25 -3 6 -5 1 -5 -13z"/>
<path d="M18801 16764 c0 -11 3 -14 6 -6 3 7 2 16 -1 19 -3 4 -6 -2 -5 -13z"/>
<path d="M18491 16744 c0 -11 3 -14 6 -6 3 7 2 16 -1 19 -3 4 -6 -2 -5 -13z"/>
<path d="M18502 16700 c0 -14 2 -19 5 -12 2 6 2 18 0 25 -3 6 -5 1 -5 -13z"/>
<path d="M18783 16694 c-12 -13 -18 -24 -13 -24 11 0 40 29 40 41 0 12 -1 11
-27 -17z"/>
<path d="M18527 16639 c7 -7 15 -10 18 -7 3 3 -2 9 -12 12 -14 6 -15 5 -6 -5z"/>
<path d="M18588 16633 c6 -2 18 -2 25 0 6 3 1 5 -13 5 -14 0 -19 -2 -12 -5z"/>
<path d="M36040 15674 c-19 -7 -45 -13 -57 -13 -13 -1 -23 -5 -23 -11 0 -19
112 -2 125 20 9 15 -9 17 -45 4z"/>
<path d="M11107 12579 l-16 -51 40 5 c23 3 43 8 46 10 4 4 -45 87 -51 87 -1 0
-10 -23 -19 -51z"/>
<path d="M15510 10519 c-25 -6 -110 -31 -190 -56 -80 -25 -172 -51 -205 -58
-54 -12 -21 -13 302 -14 l363 -1 -63 65 c-58 61 -66 66 -112 70 -27 2 -70 -1
-95 -6z"/>
</g>
</svg>
