<svg xmlns="http://www.w3.org/2000/svg" width="35.5" height="35.5" viewBox="0 0 35.5 35.5">
  <path id="fi-rr-globe" d="M17.75,0A17.75,17.75,0,1,0,35.5,17.75,17.75,17.75,0,0,0,17.75,0ZM30.54,10.354H25.776A29.1,29.1,0,0,0,21.6,3.485a14.838,14.838,0,0,1,8.937,6.869Zm-6.134,7.4a15.1,15.1,0,0,1-.7,4.438H11.8a15.1,15.1,0,0,1-.7-4.437,15.1,15.1,0,0,1,.7-4.438H23.7A15.1,15.1,0,0,1,24.406,17.75Zm-11.422,7.4h9.532a29.012,29.012,0,0,1-4.766,6.786,28.947,28.947,0,0,1-4.766-6.786Zm0-14.792A29.013,29.013,0,0,1,17.75,3.568a28.947,28.947,0,0,1,4.766,6.786Zm.92-6.869a29.1,29.1,0,0,0-4.18,6.869H4.96A14.838,14.838,0,0,1,13.9,3.485ZM3.64,13.313H8.727a17.774,17.774,0,0,0-.592,4.437,17.774,17.774,0,0,0,.592,4.438H3.64a14.78,14.78,0,0,1,0-8.875ZM4.96,25.146H9.724a29.1,29.1,0,0,0,4.18,6.869A14.838,14.838,0,0,1,4.96,25.146ZM21.6,32.015a29.1,29.1,0,0,0,4.173-6.869H30.54A14.838,14.838,0,0,1,21.6,32.015ZM31.86,22.188H26.773a17.774,17.774,0,0,0,.592-4.437,17.774,17.774,0,0,0-.592-4.437h5.084a14.78,14.78,0,0,1,0,8.875Z" fill="#42b39a"/>
</svg>
