<svg xmlns="http://www.w3.org/2000/svg" width="43.501" height="35.5" viewBox="0 0 43.501 35.5">
  <path id="fi-rr-crown" d="M41.265,6.314a3.614,3.614,0,0,0-3.951.787l-4.687,4.687L24.314,3.476a3.625,3.625,0,0,0-5.126,0l-8.312,8.312L6.188,7.1A3.625,3.625,0,0,0,0,9.664V28.852a9.074,9.074,0,0,0,9.063,9.063H34.439A9.074,9.074,0,0,0,43.5,28.852V9.664A3.625,3.625,0,0,0,41.265,6.314ZM39.876,28.852a5.438,5.438,0,0,1-5.438,5.438H9.063a5.438,5.438,0,0,1-5.438-5.438V9.664l5.969,5.969a1.813,1.813,0,0,0,2.563,0l9.594-9.594,9.594,9.594a1.813,1.813,0,0,0,2.563,0l5.969-5.969Z" transform="translate(0 -2.414)" fill="#42b39a"/>
</svg>
