<svg id="fi-sr-calendar" xmlns="http://www.w3.org/2000/svg" width="27" height="27" viewBox="0 0 27 27">
  <path id="Path_1053" data-name="Path 1053" d="M0,20.125A5.632,5.632,0,0,0,5.625,25.75h15.75A5.632,5.632,0,0,0,27,20.125V10H0Zm19.125-5.063a1.688,1.688,0,1,1-1.687,1.688A1.688,1.688,0,0,1,19.125,15.062Zm-5.625,0a1.688,1.688,0,1,1-1.687,1.688A1.688,1.688,0,0,1,13.5,15.062Zm-5.625,0A1.688,1.688,0,1,1,6.188,16.75a1.688,1.688,0,0,1,1.687-1.688Z" transform="translate(0 1.25)" fill="#42b39a"/>
  <path id="Path_1054" data-name="Path 1054" d="M21.375,2.25H20.25V1.125a1.125,1.125,0,0,0-2.25,0V2.25H9V1.125a1.125,1.125,0,0,0-2.25,0V2.25H5.625A5.632,5.632,0,0,0,0,7.875V9H27V7.875A5.632,5.632,0,0,0,21.375,2.25Z" transform="translate(0 0)" fill="#42b39a"/>
</svg>
