<svg id="graduation" xmlns="http://www.w3.org/2000/svg" width="116.375" height="122.387" viewBox="0 0 116.375 122.387">
  <path id="Path_1291" data-name="Path 1291" d="M23.343,73.9a1.8,1.8,0,0,0,.456-1.384L21.936,53.885a5.624,5.624,0,0,0-1.961-9.52V29.52l13.652,6.338v23.42c0,3.117,3.954,5.464,12.089,7.177a133.05,133.05,0,0,0,26.113,2.284,133.032,133.032,0,0,0,26.113-2.284c8.135-1.713,12.089-4.06,12.089-7.177V35.858l16.2-7.524a1.8,1.8,0,0,0,0-3.259L113.15,19a1.8,1.8,0,0,0-1.513,3.259l9.576,4.446L71.829,49.634,26.313,28.5h43.6a1.8,1.8,0,1,0,0-3.593h-43.6L71.829,3.777l31.817,14.772a1.8,1.8,0,0,0,1.513-3.259L72.585.167a1.8,1.8,0,0,0-1.513,0L17.422,25.076a1.817,1.817,0,0,0-1.04,1.629v17.66a5.624,5.624,0,0,0-1.961,9.52L12.559,72.512a1.815,1.815,0,0,0,1.787,1.975h7.664a1.8,1.8,0,0,0,1.332-.591ZM71.829,53.411a1.8,1.8,0,0,0,.756-.167l33.853-15.717V59.261c-.157.518-2.285,2.294-9.906,3.816a132.2,132.2,0,0,1-24.7,2.069,132.2,132.2,0,0,1-24.7-2.069c-7.621-1.523-9.749-3.3-9.906-3.816V37.526L71.073,53.244a1.8,1.8,0,0,0,.756.167Zm-53.65-5.748A2.036,2.036,0,1,1,16.143,49.7,2.038,2.038,0,0,1,18.179,47.662ZM16.331,70.895l1.558-15.576q.144.007.29.007c.1,0,.194,0,.29-.007l1.558,15.576Z" transform="translate(-12.55 0)" fill="#3ebfab"/>
  <path id="Path_1292" data-name="Path 1292" d="M67.64,367.545a7.545,7.545,0,1,0-7.545,7.545A7.553,7.553,0,0,0,67.64,367.545Zm-11.5,0A3.952,3.952,0,1,1,60.1,371.5,3.956,3.956,0,0,1,56.144,367.545Z" transform="translate(-42.97 -273.776)" fill="#3ebfab"/>
  <path id="Path_1293" data-name="Path 1293" d="M133.213,341.413H127.5A15.228,15.228,0,0,0,112.4,328a1.793,1.793,0,0,0-.3.024c-.105.017-10.468,1.734-21.744,2.851a15.163,15.163,0,0,0-18.92.921c-5.107-.13-11.365-.619-18.624-1.456a1.8,1.8,0,0,0-.411,3.569c6.073.7,11.467,1.16,16.1,1.375a15.1,15.1,0,0,0-2.123,6.128H56.836a1.8,1.8,0,0,0-1.8,1.8c0,3.974-2.972,6.875-6.878,8.785a15.2,15.2,0,1,0-12.4,6.423,135.979,135.979,0,0,0,25.962-2.23c3.251-.551,6.333-1.073,9.957-1.362a15.289,15.289,0,0,0,2.256,1.58v13.629a1.814,1.814,0,0,0,2.364,1.7l5.18-1.727,5.18,1.727a1.814,1.814,0,0,0,2.364-1.7V356.407a15.3,15.3,0,0,0,1.374-.889c2.451.329,4.853.708,7.179,1.079a103.109,103.109,0,0,0,16.1,1.731c.224,0,.448,0,.672,0,8.334-.12,20.665-5.007,20.665-15.115a1.8,1.8,0,0,0-1.8-1.8ZM93.1,343.193c0,.005,0,.01,0,.015s0,.01,0,.015a11.616,11.616,0,1,1,0-.031Zm-68.953.016a11.616,11.616,0,1,1,11.616,11.616A11.629,11.629,0,0,1,24.143,343.209Zm36.978,9.437c-2.738.464-5.644.956-9.169,1.355.335-.211.661-.427.971-.649A12.749,12.749,0,0,0,58.492,345h7.889a15.106,15.106,0,0,0,2.36,6.5C66.072,351.807,63.646,352.218,61.121,352.646Zm24.31,14.9-3.384-1.128a1.8,1.8,0,0,0-1.136,0l-3.384,1.128v-9.648a15.165,15.165,0,0,0,7.9,0Zm28.862-12.81a96.042,96.042,0,0,1-16.151-1.682c-1.475-.235-2.982-.474-4.514-.7a15.129,15.129,0,0,0,2.951-7.342h10.054a1.8,1.8,0,0,0,0-3.593H96.579a15.128,15.128,0,0,0-2.9-7.271c9.452-1.031,17.649-2.35,18.861-2.548a11.635,11.635,0,0,1,11.335,9.819h-8.529a1.8,1.8,0,1,0,0,3.593h15.862C129.754,351.226,120.864,354.637,114.293,354.732Z" transform="translate(-18.634 -249.441)" fill="#3ebfab"/>
  <path id="Path_1294" data-name="Path 1294" d="M250.99,375.089a7.545,7.545,0,1,0-7.545-7.545A7.553,7.553,0,0,0,250.99,375.089Zm0-11.5a3.952,3.952,0,1,1-3.952,3.952A3.956,3.956,0,0,1,250.99,363.593Z" transform="translate(-188.143 -273.776)" fill="#faa220"/>
</svg>
