<svg xmlns="http://www.w3.org/2000/svg" width="70.152" height="99.432" viewBox="0 0 70.152 99.432">
  <g id="information-point" transform="translate(-75.386)">
    <path id="Path_1099" data-name="Path 1099" d="M127.613,65.678A35.079,35.079,0,0,0,110.462,0h0A35.079,35.079,0,0,0,93.393,65.724a16.968,16.968,0,0,1,8,10.006h-4.7a11.851,11.851,0,1,0,0,23.7H122.71a11.853,11.853,0,0,0,9.653-18.73,1.456,1.456,0,1,0-2.371,1.692,8.94,8.94,0,0,1-7.281,14.125H96.694a8.938,8.938,0,1,1,0-17.876h5.289a16.822,16.822,0,0,1,.1,1.853V80.7a8.375,8.375,0,1,0,16.75,0V80.5a16.563,16.563,0,0,1,.106-1.854h3.767a8.891,8.891,0,0,1,3.38.661,1.457,1.457,0,0,0,1.1-2.7,11.792,11.792,0,0,0-4.482-.877h-3.172a17.2,17.2,0,0,1,8.075-10.052ZM115.924,80.5V80.7A5.462,5.462,0,1,1,105,80.7V80.5A19.857,19.857,0,0,0,94.812,63.18a32.163,32.163,0,1,1,31.374-.042A19.984,19.984,0,0,0,115.924,80.5Z" transform="translate(0)" fill="#42b39a"/>
    <path id="Path_1100" data-name="Path 1100" d="M171.684,69.523a26.781,26.781,0,0,0-40.329-23.094,1.457,1.457,0,1,0,1.477,2.511,23.889,23.889,0,1,1-4.351,3.279,1.457,1.457,0,1,0-2.006-2.112,26.774,26.774,0,1,0,45.21,19.416Z" transform="translate(-34.448 -34.448)" fill="#42b39a"/>
    <path id="Path_1101" data-name="Path 1101" d="M201.141,164.675a4.346,4.346,0,0,0,0,8.693h14.3a4.346,4.346,0,1,0,0-8.693h-.319V154.438a4.228,4.228,0,0,0-4.223-4.223H201.14a4.346,4.346,0,0,0,0,8.693h1.044v5.767Zm2.5-8.68h-2.5a1.433,1.433,0,0,1,0-2.867H210.9a1.311,1.311,0,0,1,1.31,1.31v11.694a1.457,1.457,0,0,0,1.457,1.457h1.775a1.433,1.433,0,0,1,0,2.867h-14.3a1.433,1.433,0,1,1,0-2.867h2.5a1.457,1.457,0,0,0,1.457-1.457v-8.68A1.457,1.457,0,0,0,203.641,156Z" transform="translate(-97.83 -121.043)" fill="#faa220"/>
    <path id="Path_1102" data-name="Path 1102" d="M237.494,82.232a6.471,6.471,0,1,0-6.471,6.471A6.478,6.478,0,0,0,237.494,82.232Zm-10.028,0a3.558,3.558,0,1,1,3.558,3.558A3.562,3.562,0,0,1,227.466,82.232Z" transform="translate(-120.198 -61.048)" fill="#faa220"/>
  </g>
</svg>
