<svg xmlns="http://www.w3.org/2000/svg" width="53.098" height="53.121" viewBox="0 0 53.098 53.121">
  <g id="instructors" transform="translate(0 0)">
    <path id="Path_1045" data-name="Path 1045" d="M331.034,11.763v2.616a1.18,1.18,0,0,0,2.015.835l3.285-3.285h8.294a3.063,3.063,0,0,0,3.06-3.06V3.06A3.063,3.063,0,0,0,344.629,0h-12.6a3.063,3.063,0,0,0-3.06,3.06V8.869a3.075,3.075,0,0,0,2.066,2.894Zm-.51-8.7a1.506,1.506,0,0,1,1.5-1.5h12.6a1.506,1.506,0,0,1,1.5,1.5V8.869a1.506,1.506,0,0,1-1.5,1.5H336.15a1.1,1.1,0,0,0-.785.325l-2.775,2.775V11.425a1.111,1.111,0,0,0-.874-1.085,1.509,1.509,0,0,1-1.191-1.471V3.06Z" transform="translate(-294.849 0)" fill="#112459"/>
    <path id="Path_1046" data-name="Path 1046" d="M51.144,101.79H49.665V77.325A2.927,2.927,0,0,0,46.741,74.4H32.188a.778.778,0,1,0,0,1.556H46.741a1.37,1.37,0,0,1,1.368,1.368V101.79H45.516V80.752a2.2,2.2,0,0,0-2.2-2.2H27.425a7.527,7.527,0,0,0,.458-1.879,1.847,1.847,0,0,0,1.446-1.8V68.146a2.805,2.805,0,0,0-2.778-2.8,2.805,2.805,0,0,0-2.8-2.708H16.775a5.443,5.443,0,0,0-5.437,5.437v6.8a1.847,1.847,0,0,0,1.447,1.8,7.526,7.526,0,0,0,.458,1.879H10.007a2.2,2.2,0,0,0-2.2,2.2v6.354a6.38,6.38,0,0,0-2.593,1.817v-11.6A1.37,1.37,0,0,1,6.58,75.957h1.94a.778.778,0,0,0,0-1.556H6.58a2.927,2.927,0,0,0-2.924,2.924V101.79H2.176a2.068,2.068,0,0,0-2.065,2.065,5.409,5.409,0,0,0,5.4,5.4H47.806a5.409,5.409,0,0,0,5.4-5.4A2.068,2.068,0,0,0,51.144,101.79Zm-7.83-21.685a.648.648,0,0,1,.647.647V101.79H37.015v-2.85a.778.778,0,1,0-1.556,0v2.85H31.725V99.322a.778.778,0,1,0-1.556,0v2.468H23.843l-1.677-9.456.643-1.153a1.755,1.755,0,0,0,1.611-.458l2.887-2.812a1.691,1.691,0,0,0,.433-.708l4.25,1.248a4.856,4.856,0,0,1,3.469,4.634V95.3a.778.778,0,0,0,1.556,0V93.085a6.421,6.421,0,0,0-4.587-6.127L27.3,85.451a1.708,1.708,0,0,0-.485-.326l-1.062-.473a2.07,2.07,0,0,0-.978-.175V81.99a7.657,7.657,0,0,0,1.838-1.885H43.314ZM14.525,86.537l1.042-.468a.517.517,0,0,1,.521.058l3.07,2.294L17.65,89.68a.218.218,0,0,1-.291-.009l-2.881-2.885h0a.154.154,0,0,1,.046-.249Zm8.69-3.68v2.375L20.4,87.409l-2.951-2.2V82.857a7.555,7.555,0,0,0,5.762,0Zm2.963,3.689a.154.154,0,0,1,.045.251l-2.884,2.808a.218.218,0,0,1-.294.009h0l-1.4-1.2,2.944-2.28a.516.516,0,0,1,.527-.063ZM19.766,91.42l-.58-1,1.22-1.019,1.092.934-.6,1.081Zm.2,1.556H20.7l1.563,8.815H18.409ZM33.59,103.346a2.18,2.18,0,0,1-2.033,1.4H21.763a2.18,2.18,0,0,1-2.033-1.4Zm-20.7-35.273a3.886,3.886,0,0,1,3.881-3.881h6.976A1.248,1.248,0,0,1,25,65.438,1.463,1.463,0,0,0,26.459,66.9h.068a1.248,1.248,0,0,1,1.246,1.246v3.643h-.621a.631.631,0,0,1-.631-.631v-.771a2.263,2.263,0,0,0-2.976-2.15,10.3,10.3,0,0,1-6.423,0l-.009,0a2.263,2.263,0,0,0-2.969,2.152v.771a.631.631,0,0,1-.631.631h-.621Zm0,6.8V73.344h.621A2.189,2.189,0,0,0,15.7,71.158v-.771a.709.709,0,0,1,.931-.673l.008,0a11.87,11.87,0,0,0,7.394,0,.709.709,0,0,1,.932.673v.771a2.189,2.189,0,0,0,2.186,2.186h.621V74.87a.288.288,0,0,1-.288.288,1.131,1.131,0,0,0-1.125,1.06,6.039,6.039,0,0,1-12.054,0,1.131,1.131,0,0,0-1.125-1.06A.288.288,0,0,1,12.894,74.87Zm-2.888,5.235H14.06A7.658,7.658,0,0,0,15.9,81.99v2.482a2.069,2.069,0,0,0-.967.178l-1.042.468a1.71,1.71,0,0,0-.481.325L9.36,86.631V80.752a.648.648,0,0,1,.647-.647Zm-4.8,12.98a4.856,4.856,0,0,1,3.47-4.634l.127-.037.009,0L12.959,87.2a1.711,1.711,0,0,0,.42.69h0l2.886,2.89.008.008a1.756,1.756,0,0,0,1.6.467l.636,1.093-1.675,9.448H10.5V99.322a.778.778,0,1,0-1.556,0v2.468H5.211Zm42.6,14.618H5.514a3.852,3.852,0,0,1-3.847-3.847.51.51,0,0,1,.51-.51H18.111a3.74,3.74,0,0,0,3.652,2.956h9.794a3.74,3.74,0,0,0,3.652-2.956H51.144a.51.51,0,0,1,.51.51A3.852,3.852,0,0,1,47.806,107.7Z" transform="translate(-0.111 -56.137)" fill="#112459"/>
  </g>
</svg>
