<svg xmlns="http://www.w3.org/2000/svg" width="44.95" height="31" viewBox="0 0 44.95 31">
  <g id="japan" transform="translate(0.001 -0.5)">
    <path id="Path_1212" data-name="Path 1212" d="M34.875,31.5H43.4a1.55,1.55,0,0,0,1.55-1.55V2.05A1.55,1.55,0,0,0,43.4.5H1.549A1.55,1.55,0,0,0,0,2.05v27.9a1.55,1.55,0,0,0,1.55,1.55Zm0,0" fill="#e6e7e8"/>
    <path id="Path_1213" data-name="Path 1213" d="M175.949,88.474a8.525,8.525,0,1,1-8.525-8.525A8.525,8.525,0,0,1,175.949,88.474Zm0,0" transform="translate(-144.949 -72.474)" fill="#c03a2b"/>
  </g>
</svg>
