<svg xmlns="http://www.w3.org/2000/svg" width="811.229" height="437.959" viewBox="0 0 811.229 437.959">
  <g id="kids-arrow-left" transform="translate(-609.771 -3631)">
    <g id="Group_57372" data-name="Group 57372" transform="translate(26 44)">
      <path id="fi-sr-angle-down" d="M22.293,6.121l-8.171,8.172a3,3,0,0,1-4.244,0L1.707,6.121A1,1,0,1,0,.293,7.535l8.171,8.172a5.007,5.007,0,0,0,7.072,0l8.171-8.172a1,1,0,1,0-1.414-1.414Z" transform="translate(1371 3581.172)" fill="#fabd1e"/>
      <path id="fi-sr-angle-down-2" data-name="fi-sr-angle-down" d="M22.293,6.121l-8.171,8.172a3,3,0,0,1-4.244,0L1.707,6.121A1,1,0,1,0,.293,7.535l8.171,8.172a5.007,5.007,0,0,0,7.072,0l8.171-8.172a1,1,0,1,0-1.414-1.414Z" transform="translate(1371 3592.172)" fill="#fabd1e"/>
      <path id="fi-sr-angle-down-3" data-name="fi-sr-angle-down" d="M22.293,6.121l-8.171,8.172a3,3,0,0,1-4.244,0L1.707,6.121A1,1,0,1,0,.293,7.535l8.171,8.172a5.007,5.007,0,0,0,7.072,0l8.171-8.172a1,1,0,1,0-1.414-1.414Z" transform="translate(1371 3604.172)" fill="#fabd1e"/>
    </g>
    <path id="Path_3524" data-name="Path 3524" d="M9369,3694.63s-83.762,164.705-310.23,164.705-488.5-33.69-488.5,209.624" transform="translate(-7960)" fill="none" stroke="#112459" stroke-width="1" stroke-dasharray="16" opacity="0.4"/>
  </g>
</svg>
