<svg xmlns="http://www.w3.org/2000/svg" width="1102.765" height="457.399" viewBox="0 0 1102.765 457.399">
  <g id="kids-arrow-right" transform="translate(-499 -4321)">
    <g id="Group_57378" data-name="Group 57378" transform="translate(-872 734)">
      <path id="fi-sr-angle-down" d="M22.293,6.121l-8.171,8.172a3,3,0,0,1-4.244,0L1.707,6.121A1,1,0,1,0,.293,7.535l8.171,8.172a5.007,5.007,0,0,0,7.072,0l8.171-8.172a1,1,0,1,0-1.414-1.414Z" transform="translate(1371 3581.172)" fill="#fabd1e"/>
      <path id="fi-sr-angle-down-2" data-name="fi-sr-angle-down" d="M22.293,6.121l-8.171,8.172a3,3,0,0,1-4.244,0L1.707,6.121A1,1,0,1,0,.293,7.535l8.171,8.172a5.007,5.007,0,0,0,7.072,0l8.171-8.172a1,1,0,1,0-1.414-1.414Z" transform="translate(1371 3592.172)" fill="#fabd1e"/>
      <path id="fi-sr-angle-down-3" data-name="fi-sr-angle-down" d="M22.293,6.121l-8.171,8.172a3,3,0,0,1-4.244,0L1.707,6.121A1,1,0,1,0,.293,7.535l8.171,8.172a5.007,5.007,0,0,0,7.072,0l8.171-8.172a1,1,0,1,0-1.414-1.414Z" transform="translate(1371 3604.172)" fill="#fabd1e"/>
    </g>
    <path id="Path_3525" data-name="Path 3525" d="M8471,4394.624s179.745,262.03,655.144,207.752,434.223,175.935,434.223,175.935" transform="translate(-7960)" fill="none" stroke="#112459" stroke-width="1" stroke-dasharray="16" opacity="0.4"/>
  </g>
</svg>
