<svg id="kindness" xmlns="http://www.w3.org/2000/svg" width="127.801" height="119.065" viewBox="0 0 127.801 119.065">
  <path id="Path_2803" data-name="Path 2803" d="M53.7,174.1v-4.988c0-.019,0-.039,0-.059a49.816,49.816,0,0,0-1.294-12.015c-2.528-9.459-8.009-14.681-18.324-17.463l-.167-.045c-.29-.078-.646-.174-.776-.229a4.32,4.32,0,0,1-.45-.648l-6.5-10.543a8.611,8.611,0,0,0-5.353-3.871l-1.559-20.108a8.635,8.635,0,0,0-8.418-8.245,8.567,8.567,0,0,0-8.441,8.252L.028,139.722c0,.025,0,.051,0,.076C-.321,149.21,2.989,152.209,8,156.749l.1.087c.632.573,1.377,1.21,2.166,1.884,4.334,3.7,10.883,9.3,10.883,14.7v.676a6.274,6.274,0,0,0-4.344,5.961v9.061a6.273,6.273,0,0,0,6.267,6.264H26.2a2.5,2.5,0,0,0,0-4.992H23.066a1.29,1.29,0,0,1-1.275-1.271v-9.061a1.29,1.29,0,0,1,1.275-1.271H51.779a1.29,1.29,0,0,1,1.275,1.271v9.061a1.275,1.275,0,0,1-1.275,1.271H48.623a2.5,2.5,0,0,0,0,4.992h3.156a6.273,6.273,0,0,0,6.268-6.264v-9.061A6.274,6.274,0,0,0,53.7,174.1Zm-4.992-.3H26.135v-.373c0-7.7-7.6-14.194-12.631-18.495-.76-.65-1.478-1.264-2.057-1.788l-.1-.088c-4.658-4.221-6.591-5.974-6.339-13.032L7.4,104.47a3.63,3.63,0,0,1,3.455-3.595,3.666,3.666,0,0,1,3.446,3.641l1.551,20.007a8.638,8.638,0,0,0-4.386,12.64L22,154.261a2.5,2.5,0,0,0,4.25-2.619l-10.534-17.1a3.65,3.65,0,0,1,6.221-3.821l6.5,10.542a5.728,5.728,0,0,0,4.179,3.081l.164.044c9.909,2.672,13.084,7.5,14.8,13.931a45.835,45.835,0,0,1,1.126,10.815v4.656Z" transform="translate(0.001 -76.317)" fill="#42b39a"/>
  <path id="Path_2804" data-name="Path 2804" d="M337.469,139.8c0-.025,0-.051,0-.076l-2.391-35.588a8.432,8.432,0,0,0-16.859,0l-1.559,20.105a8.606,8.606,0,0,0-5.351,3.869l-6.505,10.55a4.287,4.287,0,0,1-.448.644c-.13.055-.486.151-.775.229l-.165.045c-10.317,2.782-15.8,8.005-18.326,17.465a49.781,49.781,0,0,0-1.294,12.013c0,.02,0,.039,0,.059V174.1a6.274,6.274,0,0,0-4.344,5.96v9.061a6.273,6.273,0,0,0,6.267,6.264h28.713a6.272,6.272,0,0,0,6.267-6.264v-9.061a6.274,6.274,0,0,0-4.344-5.96v-.676c0-5.4,6.549-11,10.883-14.7.788-.674,1.533-1.31,2.165-1.884l.1-.087c5.009-4.54,8.319-7.54,7.974-16.951ZM315.7,189.119a1.29,1.29,0,0,1-1.275,1.271H285.715a1.29,1.29,0,0,1-1.275-1.271v-9.061a1.29,1.29,0,0,1,1.275-1.271h28.713a1.29,1.29,0,0,1,1.275,1.271Zm10.44-36.068-.1.088c-.578.524-1.3,1.138-2.056,1.788-5.03,4.3-12.631,10.8-12.631,18.495v.373H288.784v-4.655a45.8,45.8,0,0,1,1.126-10.814c1.718-6.43,4.893-11.26,14.8-13.933l.162-.044a5.723,5.723,0,0,0,4.176-3.077l6.5-10.548a3.651,3.651,0,0,1,3.3-1.729h.011a3.651,3.651,0,0,1,2.909,5.551l-10.536,17.1a2.5,2.5,0,1,0,4.25,2.619l10.534-17.1a8.649,8.649,0,0,0-2.835-11.892,8.657,8.657,0,0,0-1.549-.75l1.551-20a3.454,3.454,0,1,1,6.9-.049l2.389,35.549C332.733,147.076,330.8,148.829,326.143,153.05Z" transform="translate(-209.694 -76.317)" fill="#42b39a"/>
  <path id="Path_2805" data-name="Path 2805" d="M176.579,55.587a23.574,23.574,0,0,0,0-32.5,18.466,18.466,0,0,0-14.25-5.573,22.159,22.159,0,0,0-14.182,6.027l-.262.245c-.4.372-.83.775-1.162,1.063-.332-.288-.764-.691-1.162-1.063l-.261-.244a22.163,22.163,0,0,0-14.183-6.029,18.463,18.463,0,0,0-14.243,5.573,23.56,23.56,0,0,0,0,32.5l.062.061L144.99,82.7a2.5,2.5,0,0,0,3.465,0l28.062-27.049.062-.063ZM146.722,77.434,135.433,66.55a11.383,11.383,0,0,1,5.449-8.675,11.517,11.517,0,0,0,11.681,0,11.383,11.383,0,0,1,5.449,8.678Zm-6.554-29.505a6.554,6.554,0,1,1,6.554,6.544A6.556,6.556,0,0,1,140.168,47.929ZM162.23,62.486a16.433,16.433,0,0,0-5.933-8.117,11.546,11.546,0,1,0-19.15,0,16.434,16.434,0,0,0-5.932,8.114l-10.783-10.4a18.529,18.529,0,0,1,.031-25.528c5.428-5.622,15.04-5.337,21.429.636l.259.242c1.728,1.615,2.87,2.682,4.571,2.682s2.843-1.067,4.571-2.682l.261-.244c6.387-5.97,16-6.254,21.435-.633a18.541,18.541,0,0,1,.029,25.528Z" transform="translate(-82.822 -17.498)" fill="#fc8e0b"/>
  <path id="Path_2806" data-name="Path 2806" d="M142.364,474.5a2.5,2.5,0,1,0,0,4.992h.014a2.5,2.5,0,1,0-.014-4.992Z" transform="translate(-104.955 -360.425)" fill="#42b39a"/>
</svg>
