<svg xmlns="http://www.w3.org/2000/svg" width="48.123" height="51.339" viewBox="0 0 48.123 51.339">
  <g id="lamp" transform="translate(-5.69 6.185) rotate(-14)" opacity="0.2">
    <g id="Group_57235" data-name="Group 57235" transform="translate(10.226 10.226)">
      <path id="Path_2901" data-name="Path 2901" d="M22.385,43.86H16.249c-1.432,0-3.068-1.227-3.068-3.681v-4.3a7.1,7.1,0,0,0-2.659-5.318A14.138,14.138,0,0,1,5,19.112,14.555,14.555,0,0,1,19.112,5,14.374,14.374,0,0,1,29.339,9.091a14.56,14.56,0,0,1,4.3,10.226,13.755,13.755,0,0,1-5.318,11.044,7.468,7.468,0,0,0-2.863,5.727v4.7a3.146,3.146,0,0,1-3.068,3.068ZM19.317,7.045A12.544,12.544,0,0,0,7.045,19.112a12.022,12.022,0,0,0,4.7,9.817,8.913,8.913,0,0,1,3.477,6.954v4.3c0,.409,0,1.636,1.023,1.636h6.136a.966.966,0,0,0,1.023-1.023v-4.7a9.939,9.939,0,0,1,3.681-7.363,11.926,11.926,0,0,0,4.5-9.408,12.226,12.226,0,0,0-3.681-8.795,12.056,12.056,0,0,0-8.59-3.477Z" transform="translate(-5 -5)" fill="#002158"/>
    </g>
    <g id="Group_57236" data-name="Group 57236" transform="translate(18.407 40.905)">
      <path id="Path_2902" data-name="Path 2902" d="M20.249,22.045H10.023a1.023,1.023,0,1,1,0-2.045H20.249a1.023,1.023,0,1,1,0,2.045Z" transform="translate(-9 -20)" fill="#002158"/>
    </g>
    <g id="Group_57237" data-name="Group 57237" transform="translate(23.521)">
      <path id="Path_2903" data-name="Path 2903" d="M12.523,6.136A.966.966,0,0,1,11.5,5.113V1.023a1.023,1.023,0,1,1,2.045,0V5.113A.966.966,0,0,1,12.523,6.136Z" transform="translate(-11.5)" fill="#002158"/>
    </g>
    <g id="Group_57238" data-name="Group 57238" transform="translate(37.122 7.056)">
      <path id="Path_2904" data-name="Path 2904" d="M19.275,8.256a1.23,1.23,0,0,1-.818-.2.989.989,0,0,1,0-1.432L21.32,3.757a1.012,1.012,0,0,1,1.432,1.432L19.888,8.052a2.06,2.06,0,0,1-.614.2Z" transform="translate(-18.15 -3.45)" fill="#002158"/>
    </g>
    <g id="Group_57239" data-name="Group 57239" transform="translate(42.951 23.521)">
      <path id="Path_2905" data-name="Path 2905" d="M26.113,13.545H22.023a1.023,1.023,0,0,1,0-2.045h4.091a1.023,1.023,0,1,1,0,2.045Z" transform="translate(-21 -11.5)" fill="#002158"/>
    </g>
    <g id="Group_57240" data-name="Group 57240" transform="translate(37.122 37.326)">
      <path id="Path_2906" data-name="Path 2906" d="M22.138,23.056a1.23,1.23,0,0,1-.818-.2l-2.863-2.863a1.012,1.012,0,0,1,1.432-1.432l2.863,2.863a.989.989,0,0,1,0,1.432c0,.2-.2.2-.614.2Z" transform="translate(-18.15 -18.25)" fill="#002158"/>
    </g>
    <g id="Group_57241" data-name="Group 57241" transform="translate(6.852 37.326)">
      <path id="Path_2907" data-name="Path 2907" d="M4.475,23.056a1.23,1.23,0,0,1-.818-.2.989.989,0,0,1,0-1.432L6.52,18.557a1.012,1.012,0,0,1,1.432,1.432L5.088,22.852A.751.751,0,0,1,4.475,23.056Z" transform="translate(-3.35 -18.25)" fill="#002158"/>
    </g>
    <g id="Group_57242" data-name="Group 57242" transform="translate(0 23.521)">
      <path id="Path_2908" data-name="Path 2908" d="M5.113,13.545H1.023a1.023,1.023,0,1,1,0-2.045H5.113a1.023,1.023,0,1,1,0,2.045Z" transform="translate(0 -11.5)" fill="#002158"/>
    </g>
    <g id="Group_57243" data-name="Group 57243" transform="translate(6.852 6.852)">
      <path id="Path_2909" data-name="Path 2909" d="M7.338,8.361a1.23,1.23,0,0,1-.818-.2L3.657,5.088A1.012,1.012,0,1,1,5.088,3.657L7.952,6.52a.989.989,0,0,1,0,1.432c-.2.2-.409.409-.614.409Z" transform="translate(-3.35 -3.35)" fill="#002158"/>
    </g>
    <g id="Group_57244" data-name="Group 57244" transform="translate(23.521 15.339)">
      <path id="Path_2910" data-name="Path 2910" d="M20.7,17.726A.966.966,0,0,1,19.681,16.7a7.247,7.247,0,0,0-7.158-7.158A.966.966,0,0,1,11.5,8.523.966.966,0,0,1,12.523,7.5a9.165,9.165,0,0,1,9.2,9.2A.966.966,0,0,1,20.7,17.726Z" transform="translate(-11.5 -7.5)" fill="#002158"/>
    </g>
  </g>
</svg>
