<svg xmlns="http://www.w3.org/2000/svg" width="120.552" height="122.387" viewBox="0 0 120.552 122.387">
  <g id="motion-graphic" transform="translate(0)">
    <g id="Group_55202" data-name="Group 55202" transform="translate(0 0)">
      <path id="Path_1107" data-name="Path 1107" d="M192.538,357.672a1.793,1.793,0,1,0,0,3.586h8.935a1.793,1.793,0,1,0,0-3.586Z" transform="translate(-146.068 -272.175)" fill="#3ebfab"/>
      <path id="Path_1108" data-name="Path 1108" d="M67.353,107.178a10.983,10.983,0,0,0-10.818,9.175H47.968a2.991,2.991,0,0,0-2.988,2.988v18.438a2.991,2.991,0,0,0,2.988,2.988H66.406a2.991,2.991,0,0,0,2.988-2.988v-8.863a10.964,10.964,0,0,0-2.041-21.738Zm-1.545,30H48.566V119.938H65.808Zm3.586-11.943v-5.9a2.991,2.991,0,0,0-2.988-2.988H60.193a7.381,7.381,0,1,1,9.2,8.885Z" transform="translate(-35.146 -81.558)" fill="#3ebfab"/>
      <path id="Path_1109" data-name="Path 1109" d="M186.661,152.053a2.957,2.957,0,0,0-2.588-1.494h0a2.957,2.957,0,0,0-2.588,1.494L171.53,169.3a2.988,2.988,0,0,0,2.588,4.482h19.91a2.988,2.988,0,0,0,2.588-4.482Zm-11.508,18.139,8.92-15.45,8.92,15.45Z" transform="translate(-131.138 -114.57)" fill="#faa220"/>
      <path id="Path_1110" data-name="Path 1110" d="M67.367,270.4a5.264,5.264,0,0,0-9.9,0h-10.7a1.793,1.793,0,1,0,0,3.586h10.7a5.264,5.264,0,0,0,9.9,0h32.74a1.793,1.793,0,1,0,0-3.586Zm-4.949,3.472a1.678,1.678,0,1,1,1.679-1.679A1.68,1.68,0,0,1,62.417,273.867Z" transform="translate(-35.146 -203.119)" fill="#faa220"/>
      <path id="Path_1111" data-name="Path 1111" d="M121.3,0H77.312a3.09,3.09,0,0,0-3.087,3.087V15.368H29.694a1.793,1.793,0,1,0,0,3.586h44.53V70.179a3.09,3.09,0,0,0,3.087,3.087H102.13v4.65H77.024a1.793,1.793,0,1,0,0,3.586H102.13V92.164a2.271,2.271,0,0,1-2.269,2.269H9.695a2.271,2.271,0,0,1-2.269-2.269V81.5H68.658a1.793,1.793,0,0,0,0-3.586H7.426V19.868a.916.916,0,0,1,.915-.915H21.328a1.793,1.793,0,1,0,0-3.586H8.341a4.506,4.506,0,0,0-4.5,4.5v72.3a5.861,5.861,0,0,0,5.854,5.854h33V107.7H29.325a11.553,11.553,0,0,0-11.541,11.54,3.15,3.15,0,0,0,3.147,3.147H88.624a3.15,3.15,0,0,0,3.147-3.147A11.553,11.553,0,0,0,80.23,107.7H66.86V98.018h33a5.861,5.861,0,0,0,5.854-5.854v-18.9H121.3a3.09,3.09,0,0,0,3.087-3.087V3.087A3.09,3.09,0,0,0,121.3,0ZM46.281,98.018H63.274V107.7H46.281ZM80.23,111.286a7.965,7.965,0,0,1,7.943,7.516H21.383a7.965,7.965,0,0,1,7.943-7.516Zm40.576-68.328h-9.36a1.793,1.793,0,1,0,0,3.586h9.36V69.68h-43V46.544h25.269a1.793,1.793,0,0,0,0-3.586H77.81V15.49h43Zm0-31.054h-43V3.586h43Z" transform="translate(-3.84 0)" fill="#3ebfab"/>
      <ellipse id="Ellipse_23" data-name="Ellipse 23" cx="1.793" cy="1.793" rx="1.793" ry="1.793" transform="translate(77.14 6.081)" fill="#3ebfab"/>
      <ellipse id="Ellipse_24" data-name="Ellipse 24" cx="1.793" cy="1.793" rx="1.793" ry="1.793" transform="translate(82.159 6.081)" fill="#3ebfab"/>
      <ellipse id="Ellipse_25" data-name="Ellipse 25" cx="1.793" cy="1.793" rx="1.793" ry="1.793" transform="translate(87.179 6.081)" fill="#3ebfab"/>
      <path id="Path_1112" data-name="Path 1112" d="M339.057,149.737h27.949a1.793,1.793,0,0,0,0-3.586H339.057a1.793,1.793,0,0,0,0,3.586Z" transform="translate(-257.563 -111.215)" fill="#faa220"/>
      <path id="Path_1113" data-name="Path 1113" d="M375.446,91.4a2.494,2.494,0,0,0,2.446.1l7.955-4.011a2.51,2.51,0,0,0,0-4.482L377.892,79a2.51,2.51,0,0,0-3.64,2.241v8.022A2.494,2.494,0,0,0,375.446,91.4Zm2.392-8.412,4.49,2.264-4.49,2.264Z" transform="translate(-285.709 -59.908)" fill="#3ebfab"/>
      <path id="Path_1114" data-name="Path 1114" d="M367.005,240.889H351.789a4.776,4.776,0,0,0-8.858,0h-3.874a1.793,1.793,0,0,0,0,3.586h3.874a4.776,4.776,0,0,0,8.858,0h15.216a1.793,1.793,0,1,0,0-3.586Zm-19.645,2.988a1.2,1.2,0,1,1,1.2-1.2A1.2,1.2,0,0,1,347.36,243.877Z" transform="translate(-257.563 -181.033)" fill="#faa220"/>
      <path id="Path_1115" data-name="Path 1115" d="M355.839,208.488H339.057a1.793,1.793,0,0,0,0,3.586h16.782a4.776,4.776,0,0,0,8.858,0h2.308a1.793,1.793,0,1,0,0-3.586H364.7a4.776,4.776,0,0,0-8.858,0Zm5.624,1.793a1.2,1.2,0,1,1-1.2-1.2A1.2,1.2,0,0,1,361.463,210.281Z" transform="translate(-257.563 -156.378)" fill="#3ebfab"/>
    </g>
  </g>
</svg>
