<svg id="online-learning" xmlns="http://www.w3.org/2000/svg" width="119.331" height="119.331" viewBox="0 0 119.331 119.331">
  <circle id="Ellipse_663" data-name="Ellipse 663" cx="1.123" cy="1.123" r="1.123" transform="translate(58.678 101.087)" fill="#42b39a"/>
  <path id="Path_2796" data-name="Path 2796" d="M148.508,79.51,111.217,63.195a2.33,2.33,0,0,0-1.868,0L72.074,79.5a2.365,2.365,0,0,0-1.413,2.143V96.03A7,7,0,0,0,66,102.621v9.323a2.331,2.331,0,0,0,2.331,2.331h9.323a2.331,2.331,0,0,0,2.331-2.331v-9.323a7,7,0,0,0-4.661-6.591V85.209l13.984,6.118v15.956a2.331,2.331,0,0,0,1.385,2.13c.447.2,11.054,4.862,19.591,4.862s19.144-4.663,19.591-4.862a2.331,2.331,0,0,0,1.385-2.13V91.327l17.249-7.546a2.331,2.331,0,0,0,0-4.271Zm-73.185,30.1H70.661v-6.992a2.331,2.331,0,1,1,4.661,0Zm51.275-3.887c-3.026,1.2-10.424,3.887-16.315,3.887S97,106.93,93.968,105.725V93.366l15.381,6.729a2.331,2.331,0,0,0,1.868,0L126.6,93.366Zm-16.315-10.31L78.807,81.645l31.476-13.771,31.476,13.771Z" transform="translate(-50.618 -48.316)" fill="#fc8e0b"/>
  <path id="Path_2797" data-name="Path 2797" d="M388.375,203H368.331a2.331,2.331,0,1,0,0,4.661h20.044a2.331,2.331,0,0,0,0-4.661Z" transform="translate(-280.697 -155.687)" fill="#42b39a"/>
  <path id="Path_2798" data-name="Path 2798" d="M388.375,243H368.331a2.331,2.331,0,1,0,0,4.661h20.044a2.331,2.331,0,0,0,0-4.661Z" transform="translate(-280.697 -186.365)" fill="#42b39a"/>
  <ellipse id="Ellipse_664" data-name="Ellipse 664" cx="1.123" cy="3.37" rx="1.123" ry="3.37" transform="translate(58.678)" fill="#42b39a"/>
  <path id="Path_2799" data-name="Path 2799" d="M117,0H70.153a2.331,2.331,0,0,0,0,4.661h44.516V75.98H4.661V4.661H49.177a2.331,2.331,0,0,0,0-4.661H2.331A2.331,2.331,0,0,0,0,2.331V92.295a2.331,2.331,0,0,0,2.331,2.331h45.2l-3.782,20.044H36.359a2.331,2.331,0,1,0,0,4.661H82.972a2.331,2.331,0,1,0,0-4.661H75.581L71.8,94.626H117a2.331,2.331,0,0,0,2.331-2.331V2.331A2.331,2.331,0,0,0,117,0ZM48.493,114.669l3.782-20.044H67.056l3.782,20.044Zm66.177-24.705H4.661V80.641H114.669Z" fill="#42b39a"/>
</svg>
