<svg xmlns="http://www.w3.org/2000/svg" width="59.724" height="60.672" viewBox="0 0 59.724 60.672">
  <g id="online-business" transform="translate(-0.948 11.38) rotate(-13)" opacity="0.2">
    <g id="Group_57245" data-name="Group 57245" transform="translate(25.294)">
      <path id="Path_2911" data-name="Path 2911" d="M36.24,21.079a.774.774,0,0,1-.632-.211l-5.27-3.583a3.971,3.971,0,0,0-1.686-.422H15.162A3.242,3.242,0,0,1,12,13.7V3.162A3.242,3.242,0,0,1,15.162,0H34.133a3.242,3.242,0,0,1,3.162,3.162V20.025c0,.422-.211.843-.632.843,0,.211-.211.211-.422.211ZM15.162,2.108a1,1,0,0,0-1.054,1.054V13.7a1,1,0,0,0,1.054,1.054h13.49A4.839,4.839,0,0,1,31.6,15.6l3.583,2.529V3.162a1,1,0,0,0-1.054-1.054Z" transform="translate(-12)" fill="#263069"/>
    </g>
    <g id="Group_57246" data-name="Group 57246" transform="translate(0 4.216)">
      <path id="Path_2912" data-name="Path 2912" d="M1.054,23.079c-.211,0-.422,0-.422-.211-.422,0-.632-.422-.632-.843V5.162A3.242,3.242,0,0,1,3.162,2H20.025a1,1,0,0,1,1.054,1.054,1,1,0,0,1-1.054,1.054H3.162A1,1,0,0,0,2.108,5.162V20.128l3.583-2.319a5.036,5.036,0,0,1,2.951-1.054H26.348a1.054,1.054,0,0,1,0,2.108H8.642a2.393,2.393,0,0,0-1.686.632l-5.27,3.583H1.054Z" transform="translate(0 -2)" fill="#263069"/>
    </g>
    <g id="Group_57247" data-name="Group 57247" transform="translate(5.27 25.294)">
      <path id="Path_2913" data-name="Path 2913" d="M8.824,24.647A6.211,6.211,0,0,1,2.5,18.324,6.211,6.211,0,0,1,8.824,12a6.211,6.211,0,0,1,6.324,6.324A6.211,6.211,0,0,1,8.824,24.647Zm0-10.539a4.216,4.216,0,1,0,4.216,4.216A4.228,4.228,0,0,0,8.824,14.108Z" transform="translate(-2.5 -12)" fill="#263069"/>
    </g>
    <g id="Group_57248" data-name="Group 57248" transform="translate(0 40.049)">
      <path id="Path_2914" data-name="Path 2914" d="M22.133,29.539a1,1,0,0,1-1.054-1.054V24.27a3.242,3.242,0,0,0-3.162-3.162H5.27A3.242,3.242,0,0,0,2.108,24.27v4.216a1,1,0,0,1-1.054,1.054A1,1,0,0,1,0,28.485V24.27A5.218,5.218,0,0,1,5.27,19H17.917a5.218,5.218,0,0,1,5.27,5.27v4.216A1,1,0,0,1,22.133,29.539Z" transform="translate(0 -19)" fill="#263069"/>
    </g>
    <g id="Group_57249" data-name="Group 57249" transform="translate(32.672 25.294)">
      <path id="Path_2915" data-name="Path 2915" d="M21.824,24.647A6.211,6.211,0,0,1,15.5,18.324,6.211,6.211,0,0,1,21.824,12a6.211,6.211,0,0,1,6.324,6.324A6.211,6.211,0,0,1,21.824,24.647Zm0-10.539a4.216,4.216,0,1,0,4.216,4.216A4.228,4.228,0,0,0,21.824,14.108Z" transform="translate(-15.5 -12)" fill="#263069"/>
    </g>
    <g id="Group_57250" data-name="Group 57250" transform="translate(27.402 40.049)">
      <path id="Path_2916" data-name="Path 2916" d="M35.133,29.539a1,1,0,0,1-1.054-1.054V24.27a3.242,3.242,0,0,0-3.162-3.162H18.27a3.242,3.242,0,0,0-3.162,3.162v4.216a1.054,1.054,0,1,1-2.108,0V24.27A5.218,5.218,0,0,1,18.27,19H30.917a5.218,5.218,0,0,1,5.27,5.27v4.216A1,1,0,0,1,35.133,29.539Z" transform="translate(-13 -19)" fill="#263069"/>
    </g>
  </g>
</svg>
