<svg xmlns="http://www.w3.org/2000/svg" width="134.15" height="122.387" viewBox="0 0 134.15 122.387">
  <g id="practicing" transform="translate(0 -22.446)">
    <path id="Path_1146" data-name="Path 1146" d="M125.079,22.446H9.071A9.081,9.081,0,0,0,0,31.517v77.215A9.081,9.081,0,0,0,9.071,117.8H24.629a1.965,1.965,0,1,0,0-3.93H9.071a5.147,5.147,0,0,1-5.141-5.141v-6.1a9.018,9.018,0,0,0,5.141,1.6H125.079a9.018,9.018,0,0,0,5.141-1.6v6.1a5.147,5.147,0,0,1-5.141,5.141H32.489a1.965,1.965,0,1,0,0,3.93H57.007l-5.664,13.147H47.786a8.49,8.49,0,0,0-8.48,8.48V140.7a4.134,4.134,0,0,0,4.129,4.129H90.715a4.134,4.134,0,0,0,4.129-4.129V139.43a8.49,8.49,0,0,0-8.48-8.48H82.807L77.143,117.8h47.936a9.081,9.081,0,0,0,9.071-9.071V31.517a9.081,9.081,0,0,0-9.071-9.071ZM90.913,139.43V140.7a.2.2,0,0,1-.2.2H43.435a.2.2,0,0,1-.2-.2V139.43a4.555,4.555,0,0,1,4.55-4.55H86.364a4.555,4.555,0,0,1,4.55,4.55Zm-12.386-8.48H55.622L61.286,117.8H72.863Zm46.552-30.641H9.071A5.147,5.147,0,0,1,3.93,95.167V31.517a5.147,5.147,0,0,1,5.141-5.141H125.079a5.147,5.147,0,0,1,5.141,5.141v63.65A5.147,5.147,0,0,1,125.079,100.308Z" fill="#3ebfab"/>
    <path id="Path_1147" data-name="Path 1147" d="M162.61,71.472H154a3.288,3.288,0,0,0-3.284,3.284v2.338H131.974V74.756a3.288,3.288,0,0,0-3.284-3.284h-8.606a3.288,3.288,0,0,0-3.284,3.284v2.338H87.986a6.4,6.4,0,1,0,0,3.93h19.982A36.06,36.06,0,0,0,89.06,105.637H85.919a3.288,3.288,0,0,0-3.284,3.284v8.606a3.288,3.288,0,0,0,3.284,3.284h8.606a3.288,3.288,0,0,0,3.284-3.284v-8.606a3.288,3.288,0,0,0-3.284-3.284H93.089a32.127,32.127,0,0,1,23.71-23.71v1.435a3.288,3.288,0,0,0,3.284,3.284h8.606a3.288,3.288,0,0,0,3.284-3.284V81.024h18.746v2.337A3.288,3.288,0,0,0,154,86.646h8.606a3.288,3.288,0,0,0,3.284-3.284V74.756a3.288,3.288,0,0,0-3.284-3.284Zm-68.73,45.409H86.565v-7.314h7.314ZM81.9,81.527a2.468,2.468,0,1,1,2.468-2.468A2.47,2.47,0,0,1,81.9,81.527Zm46.146,1.189H120.73V79.6s0-.01,0-.015V75.4h7.314Zm33.92,0H154.65V79.082c0-.008,0-.015,0-.023s0-.015,0-.023V75.4h7.314Z" transform="translate(-55.718 -36.181)" fill="#faa220"/>
    <path id="Path_1148" data-name="Path 1148" d="M309.049,162.645l-19.441-14.2a4.266,4.266,0,0,0-6.786,3.468v24.078a4.256,4.256,0,0,0,3.127,4.113,4.4,4.4,0,0,0,1.2.168,4.255,4.255,0,0,0,3.631-2.032L296,169.826a.356.356,0,0,1,.329-.168l9.877.725a4.287,4.287,0,0,0,2.842-7.738Zm-2.193,3.585a.316.316,0,0,1-.361.233l-9.876-.725a4.279,4.279,0,0,0-3.957,2.016l-5.219,8.416a.332.332,0,0,1-.421.154.317.317,0,0,1-.269-.336V151.91a.35.35,0,0,1,.34-.362.328.328,0,0,1,.2.073l19.441,14.2A.317.317,0,0,1,306.856,166.231Z" transform="translate(-208.719 -92.377)" fill="#faa220"/>
  </g>
</svg>
