<svg xmlns="http://www.w3.org/2000/svg" width="127.254" height="122.387" viewBox="0 0 127.254 122.387">
  <g id="Group_55203" data-name="Group 55203" transform="translate(0 0)">
    <path id="Path_1116" data-name="Path 1116" d="M27.887,277.134a1.864,1.864,0,0,0,1.864-1.864v-2.661a1.864,1.864,0,0,0-3.728,0v2.661A1.864,1.864,0,0,0,27.887,277.134Z" transform="translate(-19.555 -205.886)" fill="#3ebfab"/>
    <path id="Path_1117" data-name="Path 1117" d="M27.887,321.027a1.864,1.864,0,0,0,1.864-1.864V316.5a1.864,1.864,0,0,0-3.728,0v2.661A1.864,1.864,0,0,0,27.887,321.027Z" transform="translate(-19.555 -238.87)" fill="#3ebfab"/>
    <path id="Path_1118" data-name="Path 1118" d="M27.887,364.919a1.864,1.864,0,0,0,1.864-1.864v-2.661a1.864,1.864,0,1,0-3.728,0v2.661A1.864,1.864,0,0,0,27.887,364.919Z" transform="translate(-19.555 -271.853)" fill="#3ebfab"/>
    <path id="Path_1119" data-name="Path 1119" d="M27.887,408.812a1.864,1.864,0,0,0,1.864-1.864v-2.661a1.864,1.864,0,0,0-3.728,0v2.661A1.864,1.864,0,0,0,27.887,408.812Z" transform="translate(-19.555 -304.837)" fill="#3ebfab"/>
    <path id="Path_1120" data-name="Path 1120" d="M27.887,452.7a1.864,1.864,0,0,0,1.864-1.864v-2.661a1.864,1.864,0,0,0-3.728,0v2.661A1.864,1.864,0,0,0,27.887,452.7Z" transform="translate(-19.555 -337.82)" fill="#3ebfab"/>
    <path id="Path_1121" data-name="Path 1121" d="M154.141,183.114h5.087a1.864,1.864,0,0,0,0-3.728h-5.087a1.864,1.864,0,1,0,0,3.728Z" transform="translate(-114.429 -137.234)" fill="#faa220"/>
    <path id="Path_1122" data-name="Path 1122" d="M483.483,179.386H478.4a1.864,1.864,0,0,0,0,3.728h5.087a1.864,1.864,0,0,0,0-3.728Z" transform="translate(-358.093 -137.234)" fill="#faa220"/>
    <path id="Path_1123" data-name="Path 1123" d="M206.9,63.2a1.864,1.864,0,0,0,2.648-2.624l-3.6-3.63a1.864,1.864,0,0,0-2.648,2.624Z" transform="translate(-152.366 -44.808)" fill="#faa220"/>
    <path id="Path_1124" data-name="Path 1124" d="M435.232,288.329a1.864,1.864,0,1,0-2.648,2.624l3.6,3.63a1.864,1.864,0,1,0,2.648-2.624Z" transform="translate(-324.662 -218.685)" fill="#faa220"/>
    <path id="Path_1125" data-name="Path 1125" d="M326.5,18.653a1.864,1.864,0,0,0,1.864-1.864V11.655a1.864,1.864,0,1,0-3.728,0v5.134A1.864,1.864,0,0,0,326.5,18.653Z" transform="translate(-243.952 -9.791)" fill="#faa220"/>
    <path id="Path_1126" data-name="Path 1126" d="M436.18,56.941l-3.6,3.63a1.864,1.864,0,1,0,2.648,2.624l3.6-3.63a1.864,1.864,0,1,0-2.648-2.624Z" transform="translate(-324.661 -44.807)" fill="#faa220"/>
    <path id="Path_1127" data-name="Path 1127" d="M138.192,315.343V338.5A3.133,3.133,0,0,0,142.9,341.2l19.9-11.576a3.131,3.131,0,0,0,0-5.413l-19.9-11.576a3.131,3.131,0,0,0-4.705,2.707Zm3.728,1.038,18.115,10.538L141.92,337.458Z" transform="translate(-103.845 -237.048)" fill="#faa220"/>
    <path id="Path_1128" data-name="Path 1128" d="M205.949,294.584l3.6-3.63a1.864,1.864,0,1,0-2.648-2.624l-3.6,3.63a1.864,1.864,0,0,0,2.648,2.624Z" transform="translate(-152.365 -218.686)" fill="#faa220"/>
    <path id="Path_1129" data-name="Path 1129" d="M114.158,94.8a1.864,1.864,0,1,0-3.7-.452A28.281,28.281,0,0,1,94.9,116.355a3.315,3.315,0,0,0-1.735,2.1l-1.237,4.566h-3.68V104.637L95.13,89.864A3.209,3.209,0,0,0,92.221,85.3H87.762V83.813a1.864,1.864,0,0,0-3.728,0V85.3H81.068V83.813a1.864,1.864,0,0,0-3.728,0V85.3H72.881a3.209,3.209,0,0,0-2.908,4.565l6.886,14.773v18.384h-3.68l-1.237-4.566a3.316,3.316,0,0,0-1.735-2.1A28.446,28.446,0,0,1,82.552,62.44a27.959,27.959,0,0,1,18.275,6.814A28.485,28.485,0,0,1,110.3,86.176a1.864,1.864,0,1,0,3.679-.6,32.22,32.22,0,0,0-10.71-19.141,31.689,31.689,0,0,0-20.713-7.721,32.177,32.177,0,0,0-29.1,45.2h-11.2a1.864,1.864,0,1,0,0,3.728H55.4c.086.141.169.284.257.424a32.046,32.046,0,0,0,12.732,11.556l.944,3.487a3.3,3.3,0,0,0-2.574,3.215v5.807a3.3,3.3,0,0,0,2.881,3.268v2.971a1.862,1.862,0,0,0,0,3.722v3.085a3.3,3.3,0,0,0,3.3,3.3h.717l.861,4.1v12.646H16.945V107.637H33.553a1.864,1.864,0,0,0,0-3.728H3.131A3.135,3.135,0,0,0,0,107.04v58.794a3.11,3.11,0,0,0,3.107,3.107H88.334a3.135,3.135,0,0,0,3.131-3.131v-17.34h.694a3.3,3.3,0,0,0,3.3-3.3v-3.085a1.862,1.862,0,0,0,0-3.722v-2.971a3.3,3.3,0,0,0,2.881-3.268v-5.807a3.3,3.3,0,0,0-2.574-3.215l.944-3.487A32,32,0,0,0,114.158,94.8ZM13.217,165.212H3.728V107.637h9.489ZM73.7,89.027H77.34v.731a1.864,1.864,0,0,0,3.728,0v-.731h2.966v.731a1.864,1.864,0,1,0,3.728,0v-.731h3.644l-8.855,19Zm10.819,22.768v11.226H80.587V111.795a3.227,3.227,0,0,0,3.928,0Zm3.222,53.417H78.249V156.65h2.459v2.923a1.864,1.864,0,0,0,3.728,0V156.65h2.61a3.252,3.252,0,0,0,.691-.077ZM77.469,148.47H87.633l-.937,4.453H78.405Zm14.26-3.728H73.373V142.09H91.729ZM94.61,131.7H84.5a1.864,1.864,0,1,0,0,3.728h7.224v2.938H73.373v-2.938h2.433a1.864,1.864,0,1,0,0-3.728H70.492v-4.946H94.61Z" transform="translate(0 -46.553)" fill="#3ebfab"/>
  </g>
</svg>
