<svg xmlns="http://www.w3.org/2000/svg" width="177.081" height="191.575" viewBox="0 0 177.081 191.575">
  <g id="presentation" transform="translate(-19.37)">
    <path id="Path_3527" data-name="Path 3527" d="M227.54,350a21.809,21.809,0,1,0-21.789,0,23.548,23.548,0,0,0-12.635,20.845v11.5a2.806,2.806,0,0,0,2.806,2.806h41.445a2.806,2.806,0,0,0,2.806-2.806v-11.5A23.546,23.546,0,0,0,227.54,350Zm-27.091-18.88a16.2,16.2,0,1,1,16.2,16.2,16.215,16.215,0,0,1-16.2-16.2Zm34.113,48.417H198.729v-8.692a17.916,17.916,0,0,1,35.833,0Z" transform="translate(-108.735 -193.578)" fill="#3ebfab"/>
    <path id="Path_3528" data-name="Path 3528" d="M401.29,350a21.809,21.809,0,1,0-21.789,0,23.547,23.547,0,0,0-12.634,20.845v11.5a2.806,2.806,0,0,0,2.806,2.806h9.641a2.806,2.806,0,0,0,0-5.613H372.48v-8.692a17.917,17.917,0,0,1,35.833,0v8.692h-15.9a2.806,2.806,0,0,0,0,5.613h18.708a2.806,2.806,0,0,0,2.806-2.806v-11.5A23.55,23.55,0,0,0,401.29,350ZM374.2,331.124a16.2,16.2,0,1,1,16.2,16.2A16.215,16.215,0,0,1,374.2,331.124Z" transform="translate(-217.474 -193.578)" fill="#3ebfab"/>
    <circle id="Ellipse_714" data-name="Ellipse 714" cx="3.143" cy="3.143" r="3.143" transform="translate(81.242 22.065)" fill="#faa220"/>
    <circle id="Ellipse_715" data-name="Ellipse 715" cx="3.143" cy="3.143" r="3.143" transform="translate(68.329 25.211) rotate(-45)" fill="#faa220"/>
    <circle id="Ellipse_716" data-name="Ellipse 716" cx="3.143" cy="3.143" r="3.143" transform="translate(92.845 22.065)" fill="#faa220"/>
    <path id="Path_3529" data-name="Path 3529" d="M155.614,114.01l-2.029-6.839a25.913,25.913,0,0,0,2.072-1.853h13.523a6.556,6.556,0,0,0,6.548-6.548V6.548A6.556,6.556,0,0,0,169.179,0H46.64a6.556,6.556,0,0,0-6.548,6.548V14.7a2.806,2.806,0,1,0,5.613,0V6.548a.937.937,0,0,1,.935-.935H67.25A23.3,23.3,0,0,0,57.6,24.186a23.034,23.034,0,0,0,8.962,18.06L64.53,49.086a2.808,2.808,0,0,0,3.489,3.489L82.4,48.307c.665.044,1.329.067,1.982.067,14.771,0,26.788-10.85,26.788-24.187A23.3,23.3,0,0,0,101.52,5.613h67.659a.936.936,0,0,1,.935.935V98.77a.936.936,0,0,1-.935.935h-9.321a22.47,22.47,0,0,0,2.689-10.6c0-13.337-12.017-24.186-26.788-24.186-19.626,0-32.789,18.608-24.078,34.782h-47A21.864,21.864,0,0,0,53.351,81.549,20.078,20.078,0,0,0,45.7,44.524V27.8a2.806,2.806,0,1,0-5.613,0V44.528a20.074,20.074,0,0,0-7.643,37.021A21.825,21.825,0,0,0,21.09,100.686v36.867A21.839,21.839,0,0,0,32,156.425,23.548,23.548,0,0,0,19.37,177.27v11.5a2.806,2.806,0,0,0,2.806,2.806H63.622a2.806,2.806,0,0,0,2.806-2.806v-11.5a23.548,23.548,0,0,0-12.635-20.845,21.839,21.839,0,0,0,10.914-18.88V105.318H115.9a28.072,28.072,0,0,0,19.865,7.979c.653,0,1.317-.022,1.982-.067l14.384,4.268a2.807,2.807,0,0,0,3.488-3.488ZM105.56,24.186c0,10.242-9.5,18.574-21.175,18.574-2.022,0-2.262-.226-3.084.019l-9.918,2.942,1.116-3.76a2.807,2.807,0,0,0-1.107-3.115,17.771,17.771,0,0,1-8.182-14.66c0-10.242,9.5-18.574,21.175-18.574S105.56,13.945,105.56,24.186ZM28.43,64.409A14.468,14.468,0,1,1,42.9,78.877,14.484,14.484,0,0,1,28.43,64.409ZM60.815,177.271v8.692H24.982v-8.692a17.917,17.917,0,0,1,35.833,0ZM42.9,153.741a16.215,16.215,0,0,1-16.193-16.064c0-.043,0-.09,0-.133a16.2,16.2,0,1,1,16.2,16.2Zm16.2-51.23v20.443a21.792,21.792,0,0,0-32.392,0V100.686a16.2,16.2,0,1,1,32.392,0Zm88.551,4.374,1.116,3.76c-13.1-3.886-8.963-2.962-13-2.962a22.136,22.136,0,0,1-17.4-8.007c-.064-.08-.129-.16-.192-.241a17.216,17.216,0,0,1-3.333-7.473c0-.025-.009-.051-.013-.077-1.931-11.251,8.03-21.35,20.937-21.35,12.418,0,22.412,9.445,21.049,20.588-.007.061-.013.122-.022.183a18.145,18.145,0,0,1-8.034,12.463,2.807,2.807,0,0,0-1.106,3.115Z" fill="#3ebfab"/>
    <path id="Path_3530" data-name="Path 3530" d="M325.173,232.484a3.143,3.143,0,1,0,3.143,3.143A3.143,3.143,0,0,0,325.173,232.484Z" transform="translate(-189.414 -145.495)" fill="#faa220"/>
    <circle id="Ellipse_717" data-name="Ellipse 717" cx="3.143" cy="3.143" r="3.143" transform="translate(144.219 86.989)" fill="#faa220"/>
    <circle id="Ellipse_718" data-name="Ellipse 718" cx="3.143" cy="3.143" r="3.143" transform="matrix(0.987, -0.16, 0.16, 0.987, 120.526, 87.545)" fill="#faa220"/>
  </g>
</svg>
