<svg xmlns="http://www.w3.org/2000/svg" width="60.173" height="57.824" viewBox="0 0 60.173 57.824">
  <g id="program" transform="translate(0 12.915) rotate(-17)" opacity="0.2">
    <path id="Path_2935" data-name="Path 2935" d="M17.039,23.047a16.67,16.67,0,0,1-8.6-2.552A3,3,0,0,1,7,17.913V12a1,1,0,0,1,2.008,0v5.909a1.006,1.006,0,0,0,.46.857,13.717,13.717,0,0,0,15.141,0,1,1,0,0,0,.462-.857V12a1,1,0,1,1,2.008,0v5.909A3,3,0,0,1,25.637,20.5,16.67,16.67,0,0,1,17.039,23.047Z" transform="translate(7.055 11.087)" fill="#263069"/>
    <path id="Path_2936" data-name="Path 2936" d="M19.055,21.056a1,1,0,0,1-.422-.092L5.582,14.94a1,1,0,0,1,0-1.823L18.633,7.093a1,1,0,0,1,.843,0l13.051,6.024a1,1,0,0,1,0,1.823L19.477,20.963a1,1,0,0,1-.422.092ZM8.4,14.028l10.656,4.917,10.656-4.917L19.055,9.111Z" transform="translate(5.039 7.055)" fill="#263069"/>
    <path id="Path_2937" data-name="Path 2937" d="M1.546,30.118a1,1,0,0,1-.98-.785,24.08,24.08,0,0,1,42.91-19.5,1,1,0,1,1-1.618,1.187A22.086,22.086,0,0,0,2.526,28.9a1,1,0,0,1-.761,1.2A1.029,1.029,0,0,1,1.546,30.118Z" transform="translate(0)" fill="#263069"/>
    <path id="Path_2938" data-name="Path 2938" d="M21.827,39.118A24.106,24.106,0,0,1,2.444,29.289,1,1,0,1,1,4.063,28.1a22.064,22.064,0,0,0,39.85-13.079,20.7,20.7,0,0,0-.536-4.787,1,1,0,1,1,1.954-.464,22.692,22.692,0,0,1,.59,5.251A24.121,24.121,0,0,1,21.827,39.118Z" transform="translate(2.268 9.071)" fill="#263069"/>
    <path id="Path_2939" data-name="Path 2939" d="M3.1,30.047a1,1,0,0,1-1-.994L2,19.014a1,1,0,0,1,.291-.715A.99.99,0,0,1,3,18H13.043a1,1,0,1,1,0,2.008H4.018l.09,9.025a1,1,0,0,1-.994,1.014H3.1Z" transform="translate(2.016 18.142)" fill="#263069"/>
    <path id="Path_2940" data-name="Path 2940" d="M27.043,12.047H17a1,1,0,1,1,0-2.008h9.035V1a1,1,0,1,1,2.008,0V11.043A1,1,0,0,1,27.043,12.047Z" transform="translate(16.126)" fill="#263069"/>
  </g>
</svg>
