<svg xmlns="http://www.w3.org/2000/svg" width="53.152" height="53.121" viewBox="0 0 53.152 53.121">
  <g id="ready-for-market" transform="translate(0 0)">
    <path id="Path_1050" data-name="Path 1050" d="M181.641,50.854H165.468a.779.779,0,0,0,0,1.557h16.173a.779.779,0,0,0,0-1.557Z" transform="translate(-147.592 -45.59)" fill="#112459"/>
    <path id="Path_1051" data-name="Path 1051" d="M181.641,94.756H165.468a.779.779,0,0,0,0,1.557h16.173a.779.779,0,0,0,0-1.557Z" transform="translate(-147.592 -84.934)" fill="#112459"/>
    <path id="Path_1052" data-name="Path 1052" d="M190.177,195.766h-4.622v-2.174a5.2,5.2,0,0,0-5.2-5.2h-8.753a5.2,5.2,0,0,0-5.2,5.2v2.174h-4.622a4.2,4.2,0,0,0-4.2,4.2v17.806a4.207,4.207,0,0,0,4.2,4.2h28.389a4.207,4.207,0,0,0,4.2-4.2V214.4a.779.779,0,1,0-1.557,0v3.374a2.648,2.648,0,0,1-2.645,2.645H161.788a2.648,2.648,0,0,1-2.645-2.645V206.739a6.973,6.973,0,0,0,5.148,2.586v1.189a2.845,2.845,0,0,0,5.691,0V209.33h12v1.183a2.845,2.845,0,0,0,5.691,0v-1.189a6.973,6.973,0,0,0,5.148-2.586v4.021a.779.779,0,1,0,1.557,0V199.968A4.2,4.2,0,0,0,190.177,195.766Zm-22.209-2.174a3.642,3.642,0,0,1,3.638-3.638h8.753A3.642,3.642,0,0,1,184,193.592v2.174h-1.621v-2.174a2.019,2.019,0,0,0-2.017-2.017h-8.753a2.019,2.019,0,0,0-2.017,2.017v2.174h-1.622Zm3.179,2.174v-2.174a.46.46,0,0,1,.46-.459h8.753a.46.46,0,0,1,.46.459v2.174Zm-2.721,14.747a1.288,1.288,0,1,1-2.576,0V207.73a1.288,1.288,0,0,1,2.576,0Zm17.691,0a1.288,1.288,0,1,1-2.576,0v-1.954s0-.005,0-.008,0-.005,0-.008v-.813a1.288,1.288,0,0,1,2.576,0Zm1.557-2.747v-.036a2.845,2.845,0,1,0-5.691,0v.043h-12v-.043a2.845,2.845,0,1,0-5.691,0v.036a5.431,5.431,0,0,1-5.148-5.417v-2.381a2.644,2.644,0,0,1,2.645-2.645h28.389a2.644,2.644,0,0,1,2.645,2.645v2.381a5.431,5.431,0,0,1-5.148,5.417Z" transform="translate(-141.227 -168.854)" fill="#112459"/>
    <path id="Path_1053" data-name="Path 1053" d="M15.356,51.71H3.85a2.3,2.3,0,0,1-2.293-2.293v-37.4a2.308,2.308,0,0,1,.053-.494H8.7a2.686,2.686,0,0,0,2.683-2.683V1.756a2.315,2.315,0,0,1,.494-.053h26.4A2.3,2.3,0,0,1,40.564,4V17.355a.779.779,0,1,0,1.557,0V4a3.855,3.855,0,0,0-3.85-3.85h-26.4A3.825,3.825,0,0,0,9.15,1.274L1.128,9.3A3.825,3.825,0,0,0,0,12.019v37.4a3.855,3.855,0,0,0,3.85,3.85H15.356a.779.779,0,1,0,0-1.557ZM9.822,2.8V8.842A1.127,1.127,0,0,1,8.7,9.968H2.658Z" transform="translate(0 -0.146)" fill="#112459"/>
  </g>
</svg>
