<svg xmlns="http://www.w3.org/2000/svg" width="153.096" height="191.575" viewBox="0 0 153.096 191.575">
  <g id="report" transform="translate(-51.42)">
    <path id="Path_3531" data-name="Path 3531" d="M201.7,140.336a2.812,2.812,0,0,0,2.812-2.812V8.435A8.445,8.445,0,0,0,196.08,0H69.956A8.445,8.445,0,0,0,61.52,8.435V23.15a12.507,12.507,0,0,0,0,24.547v5.635a12.507,12.507,0,0,0,0,24.547v5.635a12.508,12.508,0,0,0,0,24.547V113.7a12.507,12.507,0,0,0,0,24.547v5.635a12.507,12.507,0,0,0,0,24.547V183.14a8.445,8.445,0,0,0,8.435,8.435H196.08a8.445,8.445,0,0,0,8.435-8.435V148.771a2.812,2.812,0,1,0-5.624,0V183.14a2.815,2.815,0,0,1-2.812,2.812H69.956a2.815,2.815,0,0,1-2.812-2.812V150.068a6.889,6.889,0,0,1,3.669,6.084,2.812,2.812,0,0,0,5.624,0,12.529,12.529,0,0,0-9.293-12.088V119.886a6.889,6.889,0,0,1,3.669,6.084,2.812,2.812,0,1,0,5.624,0,12.529,12.529,0,0,0-9.293-12.088V89.7a6.889,6.889,0,0,1,3.669,6.083,2.812,2.812,0,1,0,5.624,0A12.529,12.529,0,0,0,67.144,83.7V59.522a6.889,6.889,0,0,1,3.669,6.083,2.812,2.812,0,1,0,5.624,0,12.529,12.529,0,0,0-9.293-12.088V29.34a6.889,6.889,0,0,1,3.669,6.083,2.812,2.812,0,1,0,5.624,0,12.529,12.529,0,0,0-9.293-12.088V8.435a2.815,2.815,0,0,1,2.812-2.812H196.08a2.815,2.815,0,0,1,2.812,2.812V137.524A2.812,2.812,0,0,0,201.7,140.336ZM57.043,35.423a6.89,6.89,0,0,1,4.477-6.442V41.865A6.89,6.89,0,0,1,57.043,35.423Zm0,30.182a6.89,6.89,0,0,1,4.477-6.442V72.047A6.89,6.89,0,0,1,57.043,65.606Zm0,30.182a6.89,6.89,0,0,1,4.477-6.442v12.883A6.89,6.89,0,0,1,57.043,95.788Zm0,30.182a6.89,6.89,0,0,1,4.477-6.442v12.883A6.89,6.89,0,0,1,57.043,125.97Zm0,30.182a6.89,6.89,0,0,1,4.477-6.442v12.883A6.89,6.89,0,0,1,57.043,156.152Z" transform="translate(0)" fill="#3ebfab"/>
    <path id="Path_3532" data-name="Path 3532" d="M294.221,56.523a2.812,2.812,0,0,0-2.812,2.812V71.468a2.812,2.812,0,0,0,5.624,0v-9.2A32.76,32.76,0,0,1,326.8,92.036h-29.77V82.715a2.812,2.812,0,0,0-5.624,0V94.847a2.812,2.812,0,0,0,2.812,2.812h35.513a2.812,2.812,0,0,0,2.812-2.812,38.368,38.368,0,0,0-38.325-38.324Z" transform="translate(-150.192 -35.374)" fill="#3ebfab"/>
    <path id="Path_3533" data-name="Path 3533" d="M208.455,93.887a35.564,35.564,0,0,0-35.524,35.524,2.812,2.812,0,1,0,5.624,0,29.942,29.942,0,0,1,27.088-29.769v29.769a3.006,3.006,0,0,0,.182.995l10.53,27.838a29.892,29.892,0,0,1-36.044-18.709,2.812,2.812,0,1,0-5.291,1.9,35.534,35.534,0,0,0,45.855,21.253c.05-.016.1-.03.15-.049s.1-.042.144-.063a35.581,35.581,0,0,0,22.809-33.169,2.812,2.812,0,0,0-2.812-2.812h-29.9V96.7a2.811,2.811,0,0,0-2.812-2.812Zm13.158,62.363-9.089-24.028h25.7A29.956,29.956,0,0,1,221.613,156.25Z" transform="translate(-76.045 -58.757)" fill="#faa220"/>
    <path id="Path_3534" data-name="Path 3534" d="M249.015,329.149H165.242a2.812,2.812,0,0,0,0,5.624h83.773a2.812,2.812,0,0,0,0-5.624Z" transform="translate(-69.473 -205.991)" fill="#3ebfab"/>
    <path id="Path_3535" data-name="Path 3535" d="M251.826,377.87a2.812,2.812,0,0,0-2.812-2.812H165.241a2.812,2.812,0,0,0,0,5.624h83.773A2.812,2.812,0,0,0,251.826,377.87Z" transform="translate(-69.473 -234.722)" fill="#faa220"/>
    <path id="Path_3536" data-name="Path 3536" d="M165.241,420.968a2.812,2.812,0,0,0,0,5.624h59.647a2.812,2.812,0,0,0,0-5.624Z" transform="translate(-69.473 -263.454)" fill="#3ebfab"/>
  </g>
</svg>
