<svg id="revesion" xmlns="http://www.w3.org/2000/svg" width="122.367" height="122.387" viewBox="0 0 122.367 122.387">
  <g id="Group_55278" data-name="Group 55278" transform="translate(0)">
    <path id="Path_1143" data-name="Path 1143" d="M110.171,61.309V12.237a6.125,6.125,0,0,0-6.118-6.118h-2.039A6.125,6.125,0,0,0,95.9,0H61.225a8.106,8.106,0,0,0-6.118,2.819A8.105,8.105,0,0,0,48.988,0H14.318A6.125,6.125,0,0,0,8.2,6.118H6.161A6.125,6.125,0,0,0,.042,12.237V87.7A6.125,6.125,0,0,0,6.16,93.814H53.641a34.652,34.652,0,1,0,56.53-32.5ZM20.436,4.079H32.673V30.9l-4.526-5.657a2.038,2.038,0,0,0-3.184,0L20.436,30.9V4.079ZM12.279,6.118a2.042,2.042,0,0,1,2.039-2.039h2.039V36.71a2.039,2.039,0,0,0,3.632,1.274l6.565-8.206,6.565,8.206a2.039,2.039,0,0,0,3.632-1.274V4.079H48.988a4.083,4.083,0,0,1,4.079,4.079V74.68a8.041,8.041,0,0,0-4.273-1.26H12.279Zm0,71.38H48.794a4.389,4.389,0,0,1,4.225,4.079H12.279ZM53.17,89.735H6.16A2.042,2.042,0,0,1,4.121,87.7V12.237A2.042,2.042,0,0,1,6.16,10.2H8.2V83.617a2.039,2.039,0,0,0,2.039,2.039H53.17c-.04.679-.1,1.351-.1,2.039S53.131,89.056,53.17,89.735ZM102.013,10.2h2.039a2.042,2.042,0,0,1,2.039,2.039v46.1a34.58,34.58,0,0,0-4.079-2.2V10.2ZM57.146,8.158a4.083,4.083,0,0,1,4.079-4.079H95.9a2.042,2.042,0,0,1,2.039,2.039V54.56A34.639,34.639,0,0,0,57.146,71.414V8.158ZM87.737,118.287A30.591,30.591,0,1,1,118.329,87.7,30.592,30.592,0,0,1,87.737,118.287Z" transform="translate(-0.042)" fill="#3ebfab"/>
    <path id="Path_1144" data-name="Path 1144" d="M282.555,256a26.512,26.512,0,1,0,26.512,26.512A26.512,26.512,0,0,0,282.555,256Zm0,48.946a22.434,22.434,0,1,1,22.434-22.434A22.434,22.434,0,0,1,282.555,304.946Z" transform="translate(-194.86 -194.817)" fill="#faa220"/>
    <path id="Path_1145" data-name="Path 1145" d="M362.522,307.644V292.173a2.039,2.039,0,1,0-4.079,0v16.315a2.04,2.04,0,0,0,.6,1.442l10.2,10.2a2.039,2.039,0,0,0,2.884-2.884Z" transform="translate(-272.787 -220.793)" fill="#faa220"/>
  </g>
</svg>
