<svg xmlns="http://www.w3.org/2000/svg" xmlns:xlink="http://www.w3.org/1999/xlink" width="925" height="365.963" viewBox="0 0 925 365.963">
  <defs>
    <linearGradient id="linear-gradient" x1="14.998" y1="-473.858" x2="-13.367" y2="453.704" gradientUnits="objectBoundingBox">
      <stop offset="0" stop-color="#2f336a" stop-opacity="0"/>
      <stop offset="0.991" stop-color="#2b1757" stop-opacity="0.8"/>
    </linearGradient>
    <linearGradient id="linear-gradient-2" x1="2.118" y1="-23.186" x2="-0.822" y2="19.849" xlink:href="#linear-gradient"/>
    <linearGradient id="linear-gradient-3" x1="477.265" y1="-1388.416" x2="-268.451" y2="784.07" xlink:href="#linear-gradient"/>
    <linearGradient id="linear-gradient-4" x1="53.672" y1="-213.302" x2="-29.827" y2="121.998" xlink:href="#linear-gradient"/>
    <linearGradient id="linear-gradient-5" x1="45.619" y1="-169.386" x2="-15.082" y2="59.172" xlink:href="#linear-gradient"/>
    <linearGradient id="linear-gradient-6" x1="15.753" y1="-118.68" x2="-9.605" y2="79.454" xlink:href="#linear-gradient"/>
    <linearGradient id="linear-gradient-7" x1="75.042" y1="-842.394" x2="-26.006" y2="300.063" xlink:href="#linear-gradient"/>
    <linearGradient id="linear-gradient-8" x1="137.646" y1="-612.685" x2="-72.44" y2="326.249" xlink:href="#linear-gradient"/>
    <linearGradient id="linear-gradient-9" x1="0.609" y1="-1.277" x2="0.473" y2="1.56" xlink:href="#linear-gradient"/>
    <linearGradient id="linear-gradient-10" x1="2.714" y1="-11.401" x2="-0.512" y2="5.94" xlink:href="#linear-gradient"/>
    <linearGradient id="linear-gradient-11" x1="14.766" y1="-85.444" x2="-6.448" y2="42.516" xlink:href="#linear-gradient"/>
    <linearGradient id="linear-gradient-12" x1="128.57" y1="-446.716" x2="-63.397" y2="223.624" xlink:href="#linear-gradient"/>
    <linearGradient id="linear-gradient-13" x1="12.986" y1="-63.399" x2="-6.484" y2="36.241" xlink:href="#linear-gradient"/>
    <linearGradient id="linear-gradient-14" x1="10.495" y1="-70.484" x2="-6.444" y2="49.817" xlink:href="#linear-gradient"/>
    <linearGradient id="linear-gradient-15" x1="0.71" y1="-12.869" x2="0.245" y2="16.873" xlink:href="#linear-gradient"/>
    <linearGradient id="linear-gradient-16" x1="93.542" y1="-8272.905" x2="-121.433" y2="10842.822" xlink:href="#linear-gradient"/>
    <linearGradient id="linear-gradient-17" x1="19.316" y1="-1960.2" x2="-22.304" y2="2376.802" xlink:href="#linear-gradient"/>
    <linearGradient id="linear-gradient-18" x1="9.511" y1="-222.581" x2="-10.382" y2="269.917" xlink:href="#linear-gradient"/>
    <linearGradient id="linear-gradient-19" x1="6.085" y1="-192.287" x2="-5.981" y2="224.228" xlink:href="#linear-gradient"/>
    <linearGradient id="linear-gradient-20" x1="2.787" y1="-42.083" x2="-2.29" y2="52.669" xlink:href="#linear-gradient"/>
    <linearGradient id="linear-gradient-21" x1="5.16" y1="-85.252" x2="-5.337" y2="108.066" xlink:href="#linear-gradient"/>
    <linearGradient id="linear-gradient-22" x1="15.262" y1="-228.027" x2="-13.428" y2="216.12" xlink:href="#linear-gradient"/>
    <linearGradient id="linear-gradient-23" x1="0.926" y1="-7.078" x2="0.076" y2="7.988" xlink:href="#linear-gradient"/>
    <linearGradient id="linear-gradient-24" x1="258.133" y1="-978.607" x2="-135.706" y2="518.445" xlink:href="#linear-gradient"/>
    <linearGradient id="linear-gradient-25" x1="5.935" y1="-30.299" x2="-2.546" y2="17.616" xlink:href="#linear-gradient"/>
    <linearGradient id="linear-gradient-26" x1="7.123" y1="-32.491" x2="-3.405" y2="20.259" xlink:href="#linear-gradient"/>
    <linearGradient id="linear-gradient-27" x1="10.513" y1="-137.306" x2="-7.464" y2="110.096" xlink:href="#linear-gradient"/>
    <linearGradient id="linear-gradient-28" x1="10.78" y1="-93.568" x2="-7.515" y2="73.565" xlink:href="#linear-gradient"/>
    <linearGradient id="linear-gradient-29" x1="8.076" y1="-86.111" x2="-4.946" y2="62.759" xlink:href="#linear-gradient"/>
    <linearGradient id="linear-gradient-30" x1="9.51" y1="-116.261" x2="-6.157" y2="86.822" xlink:href="#linear-gradient"/>
    <linearGradient id="linear-gradient-31" x1="5.204" y1="-67.407" x2="-3.089" y2="52.222" xlink:href="#linear-gradient"/>
    <linearGradient id="linear-gradient-32" x1="11.654" y1="-96.088" x2="-6.807" y2="63.827" xlink:href="#linear-gradient"/>
    <linearGradient id="linear-gradient-33" x1="29.755" y1="-181.766" x2="-6.483" y2="44.003" xlink:href="#linear-gradient"/>
    <linearGradient id="linear-gradient-34" x1="1.13" y1="1.295" x2="0.236" y2="0.19" gradientUnits="objectBoundingBox">
      <stop offset="0" stop-color="#dae3fe"/>
      <stop offset="1" stop-color="#e9effd"/>
    </linearGradient>
    <linearGradient id="linear-gradient-35" x1="0" y1="0.5" x2="1" y2="0.5" xlink:href="#linear-gradient-34"/>
    <linearGradient id="linear-gradient-39" y1="0.5" x2="1" y2="0.5" gradientUnits="objectBoundingBox">
      <stop offset="0" stop-color="#febbba"/>
      <stop offset="1" stop-color="#ff928e"/>
    </linearGradient>
    <linearGradient id="linear-gradient-41" x1="0.534" y1="0.308" x2="-0.337" y2="1.354" xlink:href="#linear-gradient-39"/>
    <linearGradient id="linear-gradient-42" x1="0.301" y1="1.478" x2="0.574" y2="0.434" xlink:href="#linear-gradient-39"/>
    <linearGradient id="linear-gradient-43" x1="0.821" y1="0.35" x2="-0.291" y2="1.106" xlink:href="#linear-gradient-39"/>
    <linearGradient id="linear-gradient-44" x1="2.74" y1="-0.685" x2="-1.811" y2="1.784" xlink:href="#linear-gradient-39"/>
    <linearGradient id="linear-gradient-45" x1="2.019" y1="-10.652" x2="0.377" y2="1.165" xlink:href="#linear-gradient-39"/>
    <linearGradient id="linear-gradient-46" x1="0.579" y1="0.379" x2="1.163" y2="-2.74" xlink:href="#linear-gradient-39"/>
    <linearGradient id="linear-gradient-47" x1="0.68" y1="-1.394" x2="0.419" y2="1.019" gradientUnits="objectBoundingBox">
      <stop offset="0" stop-color="#4f52ff"/>
      <stop offset="1" stop-color="#4042e2"/>
    </linearGradient>
  </defs>
  <g id="row1" transform="translate(-174 -192)">
    <g id="row1-2" data-name="row1" transform="translate(174 192)">
      <g id="Layer_11" data-name="Layer 11" transform="translate(0 0)">
        <g id="Group_56556" data-name="Group 56556" opacity="0.18">
          <path id="Path_2320" data-name="Path 2320" d="M1365.532,405.678c.139-.17.328-.28.315-.649l-4.345-.4.081.055C1363,405.087,1364.3,405.411,1365.532,405.678Z" transform="translate(-660.186 -296.831)" fill="url(#linear-gradient)"/>
          <path id="Path_2321" data-name="Path 2321" d="M1488.973,481.9l8.306,3.29c1.7.125,3.423.248,5.105.412-1.31-1.012-2.689-1.962-4.033-2.939l-4.048-2.9c-2.7-1.929-5.37-3.861-8.137-5.694,3.182.544-3.8-5.792.656-4.394-1.261-.859-6.678-5.318-6.034-3.268l2.867,2.759a23.517,23.517,0,0,0-6.2-1.2c-1.529-.054-2.691.107-3.962.086-2.552-.024-5.555-.793-13.035-5.021,2.637,4.753,5.211,7.4,7.912,9.091a45.769,45.769,0,0,0,8.239,3.595c1.58,1.064,2.8,2.066,4.052,3.052l4.182,1.522Z" transform="translate(-694.171 -316.889)" fill="url(#linear-gradient-2)"/>
          <path id="Path_2322" data-name="Path 2322" d="M487.586,486.512l-.161-.447A.456.456,0,0,0,487.586,486.512Z" transform="translate(-359.994 -324.799)" opacity="0.45" fill="url(#linear-gradient-3)"/>
          <path id="Path_2323" data-name="Path 2323" d="M486.4,482.724l.676,1.826C487.146,483.235,489.217,479.973,486.4,482.724Z" transform="translate(-359.643 -323.283)" opacity="0.45" fill="url(#linear-gradient-4)"/>
          <path id="Path_2324" data-name="Path 2324" d="M1684.941,795.612c-.655-1.405-1.264-2.744-2.031-4.25a33.93,33.93,0,0,0,1.959,4.25Z" transform="translate(-770.569 -429.649)" fill="url(#linear-gradient-5)"/>
          <path id="Path_2325" data-name="Path 2325" d="M1553.25,565.832l-4.861-4.9A24.413,24.413,0,0,0,1553.25,565.832Z" transform="translate(-724.37 -350.51)" fill="url(#linear-gradient-6)"/>
          <path id="Path_2326" data-name="Path 2326" d="M1656.867,782.8a7.508,7.508,0,0,0-1.22-.658C1656.169,782.933,1656.7,783.211,1656.867,782.8Z" transform="translate(-761.206 -426.481)" fill="url(#linear-gradient-7)"/>
          <path id="Path_2327" data-name="Path 2327" d="M1619.607,650.994a1.407,1.407,0,0,0,.33-.6C1619.166,649.516,1619.264,650.1,1619.607,650.994Z" transform="translate(-748.74 -381.086)" fill="url(#linear-gradient-8)"/>
          <path id="Path_2328" data-name="Path 2328" d="M1190.059,617.734c-.1-.2-.19-.4-.293-.6-.213-.411-.436-.821-.676-1.228l-.179-.305-.173-.27-.355-.539-.368-.538c-.125-.182-.254-.364-.364-.5q-.348-.436-.721-.873c-.5-.581-1.033-1.162-1.609-1.742,7.085-2.544,6.7-6.849,12.169-4.545a2.85,2.85,0,0,1,.142,1.484,22.836,22.836,0,0,1,2.126,1.291,4.94,4.94,0,0,1,.6.492l.624.572.632.6c.214.212.445.491.667.743,1.475,1.738,3,3.756,4.524,5.945h5.226c-.419-1.406-.819-2.722-1.195-3.935-.426-1.348-.818-2.589-1.184-3.748-.182-.567-.389-1.158-.561-1.645l-.488-1.315-.755-1.959-.661-1.649c-.873-2.15-1.729-4.194-2.79-7.139-1.089-2.934-2.469-6.733-4.3-12.453,1.613-1.808,4.764,2.865,7.594,7.245,1.436,2.179,2.7,4.319,3.686,5.505s1.685,1.429,1.872-.149l1.507,5.511.375,1.376.094.344.049.179.072.238.289.956.613,2.079.63,2.294,2.254,8.263h7.055c-.176-.595-.352-1.192-.527-1.771-1.023-3.371-2.043-6.476-3.056-9.342-.252-.717-.505-1.418-.772-2.1-.139-.369-.248-.62-.366-.9l-.35-.813-.352-.8-.144-.308-.13-.266-.525-1.035a41.41,41.41,0,0,0-9.24-11.946l-5.076-4.62c-1.716-1.6-3.444-3.329-5.267-5.353a55.75,55.75,0,0,1-5.452-7.285c-.46-.723-.913-1.482-1.379-2.272s-.958-1.605-1.439-2.466c-.962-1.721-1.93-3.6-2.905-5.667,2.463-1.712.527-5.5-1.468-8.917-1.958-3.432-3.8-6.578-.924-7.258,4.591,10.134,5.615,7.151,6.664,3.069-2.362-2.469-4.966-4.161-7.436-6.738-2.538-2.548-4.943-5.969-6.907-11.994,2.4,1.314,2.87-.749,3.576-1.869s1.658-1.285,5.067,3.908q-1.29-2.945-2.5-5.542c-.841-1.719-1.677-3.32-2.494-4.825a72.8,72.8,0,0,0-4.88-7.885,33.894,33.894,0,0,0-11.407-9.991c-4.771-5.193-7.084-8.409-8.154-10.7a7.324,7.324,0,0,1-.727-4.976,8.713,8.713,0,0,0-.423-5.182,23.28,23.28,0,0,0-2.391-4.47,62.421,62.421,0,0,0-5.207-6.571l4.176,2.055c-3.566-4.553-7.065-9.143-10.786-13.571l1.024,6.291-7.491-7.1c-1.255-1.173-2.474-2.368-3.755-3.515l-3.828-3.443c-5.134-3.875-5.069-2.282-4.1.272s2.839,6.095,1.4,6.2c1.988.206,3.987.417,5.949.668,2.028,3.576,5.519,7.094,8.3,10.156,2.721,3.1,4.773,5.709,4.012,7.278-4.1-5.245-6.37-6.719-8.221-7.249-1.83-.545-3.17-.209-5.423-1.8l4.461,4.515,4.352,4.614-.293,5.2c.882,1.278,1.744,2.517,2.555,3.737l2.326,3.576c1.513,2.307,2.963,4.452,4.423,6.405l1.1,1.43q.534.707,1.075,1.375c.722.892,1.457,1.731,2.213,2.514a25.417,25.417,0,0,0,4.881,4.006c-.684-2.616-2.476-3.981-4.14-5.329s-3.17-2.7-3.446-5.273a16.466,16.466,0,0,1,6.067,3.464,57.151,57.151,0,0,1,6.388,6.419c2.163,2.521,4.305,5.391,6.538,8.363,1.1,1.494,2.253,3,3.359,4.548s2.215,3.11,3.343,4.656c-.919.984,1.118,5.355-.843,4.111-.582-.032-1.838-2.358-2.37-3.75-1.542,2.159-6.98-4.358-1.339,8.642-2.909-1.289-7.02-3.432-10.5-5.1-.872-.417-1.7-.8-2.471-1.144s-1.49-.617-2.1-.835c-1.231-.436-2.077-.607-2.31-.365-1.255-1.595-2.578-3.383-3.891-5.265-.656-.941-1.309-1.905-1.951-2.882l-1.933-2.914a65.549,65.549,0,0,1-5.875-10.837l.95-.006c-1.718-3.052-5.434-7.138-8.433-10.8-3.073-3.621-5.384-6.874-4.153-8.483-.81-.739-1.9-1.857-3.01-2.934a30.655,30.655,0,0,0-3.146-2.68c-1.739-1.186-2.371-.63.33,4.82l-6.807-7.25c-1.144-1.2-2.242-2.425-3.421-3.592l-3.491-3.528c3.721-.835,2.978-5.13,3.35-7.754s1.879-3.565,10.29,2.572c-.268-.221-1.7-1.655-4.1-4.088l-4.3-4.369-5.738-5.585c.291,0,.546-.043.867-.013a3.275,3.275,0,0,0,1.928.43c1.383,1.959,2.552,2.883,1.8,4.005,2.085.573,3.26.5,3.8-.139s.418-1.8-.208-3.3a32.7,32.7,0,0,0-3.078-5.392c-.683-1.015-1.434-2.074-2.228-3.154s-1.624-2.186-2.514-3.257l-4.667.56c-1.158-2.152-2.1-4.182-3.025-6.15-.46-.984-.914-1.953-1.385-2.913s-1-1.881-1.541-2.817a40.284,40.284,0,0,0-3.956-5.646c-.8-.955-1.691-1.924-2.691-2.909s-2.157-1.946-3.424-2.949c-5.245-1.885-10.376-3.782-15.649-5.45l-7.814-2.52-1.943-.617-1.97-.58-3.929-1.144-6.93-5.117c-1.375-4.181-12.23-11.347-5.468-11.464.156-2.229,4.063-.066,7.8,4.314.336.93-.931.234-.572,1.2,2.793-.748,5.256-2.421,1.672-8.982,2.535,2.545,3.892,4.06,5.229,5.185a17.27,17.27,0,0,0,5.012,2.964l-2.48-2.641-1.242-1.32-1.272-1.289c1.094.789,2.268,1.618,3.514,2.44s2.571,1.625,3.927,2.4,2.747,1.523,4.131,2.22,2.767,1.339,4.062,1.951c5.221,2.4,9.716,3.686,10.815,2.408-2.876.542-4.728-1.227-6.333-3.735-.806-1.249-1.532-2.7-2.322-4.1a29.136,29.136,0,0,0-2.565-3.926c4,2.308,12.7,7.166,7.779,1.62a7.056,7.056,0,0,1-1.743-.637c-.749-.334-1.63-.777-2.566-1.261-1.873-.97-3.964-2.106-5.664-2.882-3.4-1.552-5.219-1.664-.645,3.8-1.313-.783-2.766-1.6-4.269-2.467-.751-.435-1.515-.882-2.281-1.347s-1.56-.915-2.331-1.4a30.946,30.946,0,0,1-8.159-6.879c7.546,3.44,4.65-1.228,8.427-2.186-3.631-1.282-5.933-1.227-7.568-.8-1.649.444-2.624,1.253-3.578,1.5a120,120,0,0,1-8.083-11.257c-2.345-3.482-4.432-6.794-6.745-9.984-.581-.794-1.166-1.594-1.79-2.364s-1.281-1.521-1.962-2.271a54.542,54.542,0,0,0-4.495-4.423q-1.242-1.087-2.623-2.156-.692-.535-1.424-1.064t-1.535-1.02a71.508,71.508,0,0,0-7.084-3.975c-1.435-.609,1.687,1.072,4.713,3.086a22.984,22.984,0,0,1,3.871,3.031c.861.946,1.121,1.711.213,2.036a38.413,38.413,0,0,1-5.544-2.258,24.4,24.4,0,0,1-4.165-2.714,37.448,37.448,0,0,1-5.854-6.335,70.625,70.625,0,0,0-5.33-6.509,24.563,24.563,0,0,0-3.448-2.953,25.37,25.37,0,0,0-4.573-2.426l.781,6.683c-2.2-.789-5.783-2.427-9.43-4.161l-2.725-1.308-2.658-1.214-4.514-2.068c-.171-1.114-3.218-4.4-4.907-6.852-.852-1.205-1.351-2.22-.939-2.686.206-.233.64-.329,1.372-.241a13.031,13.031,0,0,1,3.14.9,40.119,40.119,0,0,0-3.743-2.446c-1.2-.7-2.335-1.3-3.426-1.817a32.559,32.559,0,0,0-6.041-2.2,26.742,26.742,0,0,0-5.342-.761c-1.711-.091-3.371-.071-5.056-.05s-3.4.043-5.206-.043a51.62,51.62,0,0,1-5.849-.611,43.031,43.031,0,0,1-6.961-1.835c-1.279-.444-2.619-.984-4.048-1.589-1.436-.584-2.952-1.259-4.557-2.039,2.912,1.582,5.187,2.779,7.079,3.838,1.9,1.033,3.46,1.831,4.956,2.551s2.928,1.364,4.579,2.09c.829.355,1.7.758,2.658,1.212l3.175,1.5c-11.2-2.14-2.531,1.414-5.214,4.212a11.193,11.193,0,0,0-2.325-2.22,34.484,34.484,0,0,0-3.259-2.087c-2.34-1.345-4.879-2.57-6.807-3.553-1.921-1-3.263-1.682-3.166-2.061s1.63-.452,5.379.053c-.993-.473-2.106-1.02-3.317-1.575l-3.878-1.7c-2.711-1.171-5.623-2.388-8.428-3.475-5.65-2.066-10.884-3.559-13.16-3.253l6.52,4.446a74.52,74.52,0,0,0-8.9-2.842,70.858,70.858,0,0,0-8.59-1.4c-1.358-.134-2.668-.219-3.916-.255a30.313,30.313,0,0,0-3.554.07,22.981,22.981,0,0,0-5.66,1.047,43.131,43.131,0,0,0,9.13,1.576c2.524.144,4.706-.018,7.01-.1,4.622-.214,9.684.119,18.876,3.974,9.285,5.837,7.687,6.217,5.228,6.43-2.479.209-5.813.271-.375,5.359,5.17.682,10.28,1.618,15.45,2.517l-6.334-3.435c2.11-1.927,7.49.593,12.393,2.842,4.867,2.336,9.314,4.321,9.87,1.016a101.118,101.118,0,0,0,7.851,6.738c2.347,1.774,4.522,3.173,6.742,4.587,2.195,1.462,4.422,2.967,6.9,4.863,1.236.949,2.532,2,3.91,3.2.693.592,1.393,1.246,2.109,1.955s1.461,1.452,2.228,2.249c2.3.093,2.114-.678.853-1.829a50.858,50.858,0,0,0-5.619-4.011,16.43,16.43,0,0,0,4.96,1.984c1.492.32,2.88.405,4.285.632a12.585,12.585,0,0,1,4.4,1.479,15.289,15.289,0,0,1,2.461,1.757,25.929,25.929,0,0,1,2.681,2.884c2.207,1.919,3.194,1.223,2.538-.641-.612-1.705-2.59-4.474-6.406-6.938,3.412,2.108,6.792,4.115,10.257,6.182,1.9,1.146,3.833,2.291,5.74,3.578,1.895,1.3,3.8,2.69,5.709,4.215l-2.966-4.513-1.5-2.264c-.5-.755-1.024-1.481-1.538-2.224,1.472.913,2.9,1.882,4.337,2.851l4.3,2.9c-1.968-2.276-3.936-4.576-5.941-6.848,4.217,2.654,8.513,5.526,12.679,8.48,4.085,3.059,8.049,6.19,11.625,9.328a105.668,105.668,0,0,1,9.239,9.433,37.711,37.711,0,0,1,5.6,8.719c-1.974-.941-4.022-2.06-6.119-3.3l-1.582-.95-1.626-.957q-1.636-.971-3.3-2c-2.211-1.371-4.448-2.8-6.679-4.237-2.245-1.419-4.537-2.779-6.766-4.12s-4.434-2.616-6.575-3.779c-2.174-1.119-4.279-2.131-6.283-2.978-4.009-1.7-7.6-2.752-10.586-2.606a6.2,6.2,0,0,0,3.04,2.169c1.392.621,3.075,1.182,4.725,1.866,3.287,1.377,6.48,3.215,6.767,7.007l6.342-.091a57.923,57.923,0,0,1,10.581,6.184c3.446,2.6,6.027,5.347,5.3,7.22-7.254-3.844-12.163-5.745-16.437-6.806-2.119-.552-4.041-.94-5.96-1.319s-3.814-.773-5.962-1.221c-.517.635-1.949.157-3.949-.992l-.255-.06.175.005c-2.041-1.175-4.586-2.934-7.149-4.6a47.741,47.741,0,0,0-7.316-3.911c-4.231-3.725.179-3.52,1.112-3.859a34.794,34.794,0,0,0-11.05-7.852c-.973-.458-1.955-.88-2.943-1.274s-1.981-.763-3-1.073c-2.027-.641-4.073-1.2-6.126-1.756s-4.114-1.092-6.174-1.689c-2.079-.561-4.17-1.154-6.248-1.886a50.159,50.159,0,0,1-6.22-2.638,48.848,48.848,0,0,1-6.25-3.673c.647-1.555-2.46-4.211-5.11-6.415-2.674-2.141-4.893-3.806-2.3-3.592a39.928,39.928,0,0,0-7.367-3.132,31.227,31.227,0,0,0-3.381-.857c-1.107-.2-2.188-.352-3.247-.465-4.241-.439-8.118-.35-12.128-.675-.456-3.452-16.417-7.261-9.726-8.271-3.972.349-7.933.782-11.848,1.192-3.175-2.14-8.677-3.611-13.5-5.177-1.209-.385-2.375-.783-3.463-1.168-1.093-.368-2.1-.747-2.982-1.146-1.761-.8-3.008-1.675-3.387-2.7-4.056-.607-4.946.51-6.119,1.188-1.169.659-2.625.963-7.821-1.245.693-.639-.047-1.329,2.175-.575a24.881,24.881,0,0,0-4.545-2.119,40.029,40.029,0,0,0-6.082-1.739c-4.293-.882-8.736-1.257-11.591-.6,7.474,2.719,1.571,1.351,10.521,4.093-.34.992-3.224,1.633-7.218,1.443a40.765,40.765,0,0,1-14.074-3.32c7.535-1.17,5.029-2.948,1.452-4.634-1.785-.832-3.819-1.682-4.974-2.331-1.152-.666-1.408-1.238.4-1.653-2.846-.538-5.56-.935-8.168-1.213a65.305,65.305,0,0,0-7.531-.433c-2.424,0-4.764.091-7.045.252s-4.5.37-6.7.73c-4.4.684-8.656,1.5-13.018,2.423-4.369.99-8.826,1.956-13.609,2.834-2.79-.042-5.659-.132-8.58-.25l-4.417-.194-4.479-.1-9.04-.218c-3.018.014-6.029.044-9,.1l-4.425.113c-1.462.075-2.911.181-4.341.288-2.861.217-5.65.482-8.334.81-1.343.147-2.655.4-3.939.622s-2.535.486-3.752.757a68.088,68.088,0,0,0-6.848,1.873l2.3.024c-.84.308-1.681.6-2.518.921l-2.505.986-4.985,1.972c-2.961.27-3.132-1.081-3.693-2.217s-1.526-2.1-6.062-.8a5.873,5.873,0,0,1,3.724-2.693,37.388,37.388,0,0,1,6.426-1.076c2.427-.252,5.054-.516,7.656-.924a28.807,28.807,0,0,0,7.514-1.976c-8.382-1.742-4.693-3.168-.213-4.541a37.47,37.47,0,0,0,5.816-2.029c1.161-.642,1.064-1.394-1.764-2.165-2.924,5.031-11.685,5.825-21.516,6.727-9.82.79-20.766,1.629-27.461,5.386-3.5.286-4.906.123-5.145-.269-.241-.408.678-1.1,1.831-1.757,2.3-1.345,5.514-2.767,2-2.481-1.319,1.243-2.634,2.446-3.929,3.719-5.621.2-7.631-.4-7.883-2.478-15.107,1.32-31.707,7.126-42.511,14.756,7.486-3.289,6.49-1.793,5.542-.047s-1.817,3.739,5.778,1.506a49.7,49.7,0,0,1-9.593,4.841c-2.047.8-4.222,1.711-6.472,2.576s-4.572,1.7-6.877,2.48c4.23-2.111.716-2.76-1.358-3.486s-2.653-1.555,7.607-4.063c-2.13-1.844-4.56-.818-7.57.943l-2.372,1.426c-.825.52-1.687,1.066-2.6,1.587a26.872,26.872,0,0,1-6.1,2.653c1.957-1.639,5.2-4.069,7.844-6.112,2.669-1.955,4.729-3.536,4.194-3.62a25.386,25.386,0,0,1-5.206,3.528,48.527,48.527,0,0,1-6.57,2.914c-1.182.433-2.4.843-3.639,1.233l-1.877.572-1.883.6c-2.525.786-5.1,1.509-7.615,2.2l-3.725,1.01c-1.212.351-2.388.72-3.531,1.072-2.283.711-4.41,1.407-6.275,2.108-3.75,1.364-6.359,2.93-7.121,4.551-1.876,2.079-4.073,4.253-6.449,6.483-2.335,2.309-4.846,4.685-7.4,7.078-2.578,2.355-5.107,4.894-7.573,7.365-2.458,2.486-4.863,4.891-6.954,7.386a50.874,50.874,0,0,0-8.934,3.441,98.018,98.018,0,0,0-8.471,5.012c-1.393.917-2.817,1.808-4.19,2.793L485.9,361.9c-2.795,1.957-5.7,3.81-8.615,5.674l.884-3a47.542,47.542,0,0,0-5.522,3.684c-.972.732-1.968,1.512-2.988,2.326l-1.546,1.243-1.545,1.326c-4.157,3.592-8.707,7.4-13.389,10.813l-4.274-1.068c-2.784,2.924-6.8,7.068-11.331,11.4-1.144,1.073-2.272,2.209-3.416,3.348l-3.473,3.4-3.484,3.341c-1.153,1.1-2.245,2.22-3.339,3.278.694.8,2.93-.886,4.8-2s3.312-1.728,2.261.989c4.425-4.078,7.848-7.9,4.755-8.085a8.775,8.775,0,0,1,5.761-2.618,17.1,17.1,0,0,0,5.964-1.091l-3.943,4.276-1.966,2.135-1.91,2.19-3.8,4.381-1.9,2.187c-.635.726-1.265,1.456-1.869,2.211-1.479,1.124-2.152,1.383-2.451,1.238l1.515,3.939c-4.23,4.152-6.145,4.689-6.569,2.874a50.593,50.593,0,0,0-4.6,7.2c-.6,1.116-1.134,2.2-1.651,3.255l-.764,1.571-.729,1.574a45.684,45.684,0,0,1-3.434,6.237,36.033,36.033,0,0,1-2.427,3.215c-.913,1.108-1.922,2.273-3.113,3.471.286-1.626.551-3.12.883-4.562a27.959,27.959,0,0,1,1.37-4.178,26.958,26.958,0,0,1,2.329-4.331c.5-.761,1.06-1.547,1.7-2.37.319-.41.651-.834,1.013-1.258s.756-.849,1.165-1.289l-1.334,1.417-1.294,1.453-2.588,2.906c-1.718,1.943-3.463,3.865-5.159,5.828.467-1.946,2.03-4.6,3.947-7.539.962-1.467,2.018-3,3.087-4.538,1.106-1.5,2.225-3.01,3.27-4.465A46.9,46.9,0,0,0,420.9,416.3c.857-1.974.714-3.293-1.154-3.486-.659.88-1.357,1.766-2.032,2.708l-2.063,2.891-4.307,6.092-1.1,1.576-1.066,1.624-2.137,3.284c-1.418,2.207-2.852,4.415-4.215,6.652-1.332,2.264-2.634,4.521-3.883,6.745s-2.467,4.4-3.512,6.586c-1.069,2.171-2.064,4.28-2.964,6.3s-1.714,3.942-2.343,5.8a15.183,15.183,0,0,0-5.356,4.263,34.2,34.2,0,0,0-2.259,3.037c-.715,1.1-1.385,2.282-2.075,3.5-1.375,2.44-2.773,5.054-4.392,7.658a49.834,49.834,0,0,1-5.517,7.768c-1.791.949-4.977,3.712-5.233.649l1.9-3.155a99.2,99.2,0,0,0-7.191,11.389q-.833,1.5-1.64,3.023c-.532,1.018-1.016,2.066-1.512,3.1-.982,2.084-1.924,4.185-2.827,6.286a160.752,160.752,0,0,0-8.042,24.6l-3.735,2.565-3.654,2.649c-3.171,5.855-4.227,8.69-4.111,10.05.083,1.348,1.217,1.18,2.423,1.075,2.417-.215,5.09-.163.445,12.355-1.676,1.056-3.394,3.458-5.089,6.464-.839,1.506-1.711,3.148-2.5,4.874s-1.536,3.519-2.276,5.271-1.46,3.468-2.154,5.056-1.285,3.074-1.9,4.322c-1.2,2.5-2.314,4.119-3.318,4.094-1.169,4.95-1.891,7.131.7,8.537.4-1.062.8-2.484,1.253-3.9s.953-2.835,1.427-3.925c.949-2.182,1.858-3.018,2.578.185a40.9,40.9,0,0,1-1.427,5.9,44.237,44.237,0,0,1-1.762,4.685c-.626,1.45-1.271,2.836-1.867,4.3-.3.733-.586,1.485-.849,2.276-.242.8-.462,1.63-.651,2.518a14.936,14.936,0,0,1-1.161-3.088c-.351-1.146-.644-1.852-.731-.415-.3,2.051-.66,4.3-1.071,6.688Zm-48.1-64.358,1.013-2.927a22.992,22.992,0,0,0,3.733,6.155c1.243,1.728,2.18,3.285,1.591,5.233-.389.362-6.615-3.9-13.461-8.78l-6.668-4.614q-2.135-3.79-4.341-7.537c.018-.048.039-.091.057-.141.653-1.895.36-5.987-.517-11.508-.492-2.728-1.142-5.805-1.9-9.139-.382-1.663-.769-3.4-1.217-5.172-.468-1.761-.949-3.571-1.439-5.415C1127.238,523.245,1134.757,538.378,1141.963,553.376ZM1037.808,431.162c-.31-.242-.448-.311-.784-.556a19.5,19.5,0,0,1-3.825-4.294ZM999.622,396.8c-2.156-1.907-5.132-4.49-8.671-7.539l3.468.493,3.938,3.348c1.3,1.108,2.6,2.19,3.842,3.331l7.384,6.631c1.223,1.068,2.367,2.213,3.536,3.3l3.452,3.272,3.39,3.213,3.247,3.248c-3.949-2.213-7.984-4.463-11.867-8.237a21.756,21.756,0,0,0,1.921,2.924q-11.673-9.561-23.978-18.333a35.52,35.52,0,0,1,6.835,2.936,40.229,40.229,0,0,1,3.62,2.228c1.19.849,2.378,1.776,3.548,2.775C1003.035,400.043,1001.731,398.771,999.622,396.8ZM581.186,335.029c-.7,1.083-1.38,2.112-2.018,3.088q-3.475,1.356-6.927,2.781c-.022-.1-.045-.2-.065-.3C571.828,338.911,571.991,336.536,581.186,335.029Zm-15.107,7.4c.768.087,1.438.149,2.031.194q-3.056,1.3-6.088,2.658A11.478,11.478,0,0,1,566.079,342.431Z" transform="translate(-301.313 -252.428)" opacity="0.45" fill="url(#linear-gradient-9)"/>
          <path id="Path_2329" data-name="Path 2329" d="M358.641,554.356l1.895-3.09,3.824-6.2c.633-1.052,1.323-2.072,2-3.114l2.068-3.151,4.295-6.536,4.742-6.845,2.5-3.627c.846-1.239,1.773-2.455,2.686-3.727l5.78-7.965L395,501.473l-5.23,6.7-1.3,1.678-1.26,1.711-2.517,3.423c-1.666,2.289-3.371,4.545-5,6.862l-4.823,6.983-2.4,3.491-2.31,3.557-4.605,7.115c-1.521,2.379-2.951,4.818-4.427,7.225l-2.194,3.621-1.1,1.81-1.051,1.839.907-1.582Z" transform="translate(-315.131 -330.09)" opacity="0.45" fill="url(#linear-gradient-10)"/>
          <path id="Path_2330" data-name="Path 2330" d="M1644.924,679.194l4.735,4.935-3.116-7.591C1646.911,678.977,1641.655,676.923,1644.924,679.194Z" transform="translate(-757.153 -390.214)" fill="url(#linear-gradient-11)"/>
          <path id="Path_2331" data-name="Path 2331" d="M1647.617,675.78a3.691,3.691,0,0,0-.642-1.449Z" transform="translate(-758.227 -389.456)" fill="url(#linear-gradient-12)"/>
          <path id="Path_2332" data-name="Path 2332" d="M1604.541,628.77c-1.045-1.63-2.086-3.263-3.189-4.858l.091,1.085c2.124,2.855,4.157,5.771,6.24,8.663Z" transform="translate(-742.559 -372.14)" fill="url(#linear-gradient-13)"/>
          <path id="Path_2333" data-name="Path 2333" d="M1565.741,550.871l-.343-2.079-3.43-3.033-3.5-2.962.406,2.084C1561.22,546.822,1563.458,548.857,1565.741,550.871Z" transform="translate(-727.829 -344.283)" fill="url(#linear-gradient-14)"/>
          <path id="Path_2334" data-name="Path 2334" d="M802.683,250.726c1.748-.024,3.5-.04,5.289-.085s3.618-.039,5.507-.142c-10.263,6.759,12.282-1.056,9.728,4.189a25.7,25.7,0,0,1-8.309,2.444,39.441,39.441,0,0,1-4.359.358,35.5,35.5,0,0,1-3.815-.025c-1.149,2.676,5.308,3.593,5.094,6.591a30.258,30.258,0,0,0,11.045-1.8c.739-.277,1.443-.578,2.123-.9s1.339-.623,1.979-.959c1.281-.667,2.5-1.391,3.71-2.124a51.516,51.516,0,0,1,7.819-4.142,30.94,30.94,0,0,1,10.959-1.833c-.225,1.471-1.647,2.97-1.565,3.909.041.469.456.8,1.58.917a14.408,14.408,0,0,0,2.261.009c.479-.027,1.014-.075,1.609-.129s1.251-.1,1.974-.177c-.964.28-1.929.533-2.889.846a32.028,32.028,0,0,1,10.221-1.2,20.719,20.719,0,0,1,5.454,1.179c2.811.934,4.668,1.319,10.382-2.859l-.177,4.173a28.322,28.322,0,0,1,3.452-1.165c1.258-.315,2.615-.59,4.039-.831,2.848-.481,5.966-.825,9.114-1.086,3.147-.221,6.321-.284,9.288-.366,2.966-.064,5.725-.156,8.033-.158l-.58.775c3.249-.441,5.924-.773,8.167-1.021s4.058-.439,5.581-.475a46.139,46.139,0,0,1,6.984.2l3.24.361,4.3.449c1.708.179,3.747.359,6.271.53,1.263.086,2.646.169,4.172.25l2.4.122,2.615.18c-1.16.259-2.314.49-3.473.773l-3.466.849-6.883,1.709a18,18,0,0,0,10.774.339c2.8-.633,5.3-1.492,8.827-.738-.5.6.21,2.868-3.211,3.593l5.954-.439,2.238-.16,2.234-.1,4.479-.2,4.495-.2c1.5-.055,3.009-.15,4.5-.156l9.026-.134c8.944-1.451-1.074-3.33-2.055-5.322a8.378,8.378,0,0,1,4.437-.438,28.688,28.688,0,0,1,3.049.462c1.052.239,2.128.533,3.176.863,4.2,1.321,7.94,3.224,8.038,4.562-2.287.621-10.64-.154-5.892,2.584l6.676-1.9c1.122-.324,2.237-.611,3.356-.895l3.368-.856c7.411,4.018,3.809,5.349-2.545,5.752-.8.051-1.634.087-2.5.111s-1.763.04-2.678.076c-1.827.055-3.7.08-5.508.1-3.611.047-6.918.009-8.974.211a76.739,76.739,0,0,0,10.233,2.07c1.5.19,2.932.32,4.332.416l4.128.314c2.745.191,5.536.369,8.7.772.79.106,1.607.206,2.444.36s1.7.327,2.6.522c1.8.391,3.721.871,5.817,1.473a27.794,27.794,0,0,1-5.816-3.241c-.778-.567-1.478-1.139-2.125-1.7s-1.251-1.079-1.823-1.593c.154-1.162,1.232-1.67,2.941-1.7a28.73,28.73,0,0,1,6.7,1.161c1.334.351,2.752.762,4.217,1.2s2.981.9,4.488,1.43c3.024,1.026,6.092,2.06,8.927,2.863-6.531-4.195-1.907-4.527,3.942-4.6a5.521,5.521,0,0,0,2.243-.011l1.985-.007-1.356-.464c.264-.465.165-1.164-.54-2.327a40.06,40.06,0,0,1-12.6-4.807c-1.781-1.012-3.48-1.917-5.1-2.763a28.045,28.045,0,0,0-4.756-2.005c1.03,2.266.177,3.124-1.79,3.144a16.565,16.565,0,0,1-3.7-.531c-1.453-.347-3.117-.753-4.871-1.267-3.514-1-7.422-2.308-11-3.265-3.589-.913-6.826-1.563-8.93-1.436l-4.647-.653-4.666-.532-3.438-.652c-.511-.922.561-1.733,5.627-2.187-2.5.15-6.89-.467-10.687-.859-4.115-.368-7.533-.414-7.054.89l-8.365-1.347-8.4-1.125-4.2-.553-2.1-.276-2.108-.221-8.432-.874a10.421,10.421,0,0,1-2.76-1.54c-1.215.349-1.446.725-1.328,1.123a516.18,516.18,0,0,0-73.913-1.107l-9.246.663-4.622.345-4.616.467-9.231.948c-3.072.376-6.141.8-9.211,1.2-6.146.742-12.255,1.85-18.375,2.835-1.531.236-3.054.534-4.578.834l-4.57.892-4.568.9-2.284.45c-.761.155-1.517.339-2.275.507a50.8,50.8,0,0,1,5.378-.46C799.192,250.782,800.935,250.75,802.683,250.726Z" transform="translate(-464.614 -240.443)" opacity="0.45" fill="url(#linear-gradient-15)"/>
          <path id="Path_2335" data-name="Path 2335" d="M1101.114,250.658c.2-.012.395-.028.571-.051C1101.484,250.623,1101.3,250.641,1101.114,250.658Z" transform="translate(-570.759 -243.934)" fill="url(#linear-gradient-16)"/>
          <path id="Path_2336" data-name="Path 2336" d="M1043.169,275.188l-2.962.219A13.005,13.005,0,0,0,1043.169,275.188Z" transform="translate(-549.841 -252.376)" opacity="0.45" fill="url(#linear-gradient-17)"/>
          <path id="Path_2337" data-name="Path 2337" d="M1162.291,292.158c-1.132-.439-2.206-.777-3.232-1.094s-2-.6-2.965-.878c.868.364,1.806.714,2.834,1.041S1161.076,291.846,1162.291,292.158Z" transform="translate(-589.641 -257.527)" opacity="0.45" fill="url(#linear-gradient-18)"/>
          <path id="Path_2338" data-name="Path 2338" d="M776.489,259.339l10.216-2.332A58,58,0,0,0,776.489,259.339Z" transform="translate(-459.271 -246.132)" fill="url(#linear-gradient-19)"/>
          <path id="Path_2339" data-name="Path 2339" d="M1208.067,290.933c2.88.981,5.734,2.044,8.6,3.067,2.859,1.046,5.743,2.029,8.567,3.177-4.989-4.394,5.465-1,7.111-2.047l-5.226-2.146-2.614-1.07-2.638-1.005-10.563-3.983C1210.847,288.455,1208.142,289.394,1208.067,290.933Z" transform="translate(-607.49 -256.407)" opacity="0.45" fill="url(#linear-gradient-20)"/>
          <path id="Path_2340" data-name="Path 2340" d="M1201.732,279.272c-1.1.8-3.689.953-6.52.974,3.894,1.347,7.8,2.666,11.678,4.051C1207.234,283.127,1206.309,281.632,1201.732,279.272Z" transform="translate(-603.075 -253.778)" opacity="0.45" fill="url(#linear-gradient-21)"/>
          <path id="Path_2341" data-name="Path 2341" d="M671.591,320.369c-1.442.734-2.848,1.429-4.3,2.187A31.14,31.14,0,0,0,671.591,320.369Z" transform="translate(-421.769 -267.893)" opacity="0.45" fill="url(#linear-gradient-22)"/>
          <path id="Path_2342" data-name="Path 2342" d="M587.949,318.485c2.916.047,6.3.1,2.859,4.643,3.515-2.188,7.707-4.229,11.856-6.351,4.129-2.157,8.416-4.057,12.143-5.99.934-.479,1.838-.953,2.7-1.423L619.991,308a38.4,38.4,0,0,0,4.107-2.565c1.689-1.242,2.815-2.437,3.163-3.567.1.789.7,1.45,2.917.894l.834-1.055.854-1.026,1.716-2.054,3.471-4.122c-3.023.792-6.073,1.555-9.1,2.392,3.471-4.146,12.646-9.311,21.9-12.856,1.152-.457,2.3-.9,3.439-1.314s2.279-.76,3.385-1.109c2.219-.682,4.336-1.268,6.26-1.735s3.656-.815,5.1-1.02a13.725,13.725,0,0,1,3.426-.075c-1.035.446-1.963.875-2.8,1.287-.831.434-1.569.856-2.234,1.258a28.511,28.511,0,0,0-3.207,2.231c-1.7,1.376-2.686,2.549-3.924,3.66a20.222,20.222,0,0,1-5.4,3.359,52.1,52.1,0,0,1-5.032,1.913c-1.03.34-2.165.693-3.421,1.062s-2.639.742-4.132,1.206a29.888,29.888,0,0,1,3.377,1.452c.445.319.687.7.518,1.171a2.091,2.091,0,0,1-.59.787,8.381,8.381,0,0,1-1.349,1c1.6-.844,3.239-1.556,4.856-2.3s3.241-1.449,4.858-2.151l4.842-2.067,4.878-1.855,4.864-1.811,2.428-.894,1.213-.446,1.224-.409,9.783-3.285,2.446-.836,2.467-.777,4.943-1.594q2.475-.813,4.959-1.668l1.243-.431,1.254-.4,2.513-.821c3.356-1.108,6.731-2.312,10.148-3.58,3.434-1.19,6.9-2.481,10.425-3.9-12,.3-8.5-1.481-2.945-3.9,1.387-.6,2.9-1.242,4.321-1.9a33.979,33.979,0,0,0,3.8-1.878c2.068-1.256,2.92-2.513.779-3.624l-3.111,1.106c-1.035.368-2.071.731-3.1,1.142l-6.156,2.4.731-1.811-7.72,2.012-7.667,2.242c3.86,1.846,6.25,1.408,6.265,4.386-10.323,2.071-12.167,1.68-13.4.842-1.247-.854-1.875-2.225-9.921-1.765-3.811,1.157-7.56,2.544-11.326,3.855l-5.64,1.993c-1.873.685-3.728,1.432-5.591,2.148l1.532-1.478A6.2,6.2,0,0,0,660.4,277.8l-4.7,1.834-2.347.919-2.324.986-9.28,3.974c-.772.335-1.548.657-2.314,1l-2.291,1.067-4.578,2.138c-3.048,1.429-6.111,2.829-9.092,4.384l-8.987,4.567c-2.96,1.584-5.893,3.213-8.835,4.822-1.467.812-2.944,1.606-4.4,2.435l-4.329,2.549-4.324,2.554c-1.432.863-2.9,1.678-4.3,2.589C582.628,318.369,585.046,318.432,587.949,318.485Z" transform="translate(-393.459 -246.698)" opacity="0.45" fill="url(#linear-gradient-23)"/>
          <path id="Path_2343" data-name="Path 2343" d="M424.462,500.512,424.22,500C424.085,500.569,424.131,500.832,424.462,500.512Z" transform="translate(-338.264 -329.585)" opacity="0.45" fill="url(#linear-gradient-24)"/>
          <path id="Path_2344" data-name="Path 2344" d="M430.515,479.066l-.1,4.149c.43-1.177.844-2.374,1.294-3.542l1.369-3.5,2.786-7.047-7.388,8.14-7.148,8.342,1.922,3.79C423.765,487.309,427.384,480.235,430.515,479.066Z" transform="translate(-337.296 -318.98)" opacity="0.45" fill="url(#linear-gradient-25)"/>
          <path id="Path_2345" data-name="Path 2345" d="M454.2,462.176a63.661,63.661,0,0,0,5.541-7.081l-5.534-7.4c-6.947,9.283-3.123,12.063,2.7,9.254-2.892,4.4-4.736,4.479-6.068,4.526a1.944,1.944,0,0,0-1.656.573c-.447.549-.819,1.63-1.154,3.772C449.337,466.906,451.76,464.769,454.2,462.176Z" transform="translate(-346.467 -311.621)" opacity="0.45" fill="url(#linear-gradient-26)"/>
          <path id="Path_2346" data-name="Path 2346" d="M558.791,369.7l-1.568,3.417c2.243-1.373,4.556-2.645,6.857-3.926Z" transform="translate(-383.967 -284.658)" opacity="0.45" fill="url(#linear-gradient-27)"/>
          <path id="Path_2347" data-name="Path 2347" d="M553.7,375.166l-6.738,4.02a8.077,8.077,0,0,0,4.115,1.792Z" transform="translate(-380.442 -286.712)" opacity="0.45" fill="url(#linear-gradient-28)"/>
          <path id="Path_2348" data-name="Path 2348" d="M506.114,404.746c3.126-2.22,6.315-4.356,9.466-6.525C512.759,400,509.675,402.034,506.114,404.746Z" transform="translate(-366.414 -294.63)" opacity="0.45" fill="url(#linear-gradient-29)"/>
          <path id="Path_2349" data-name="Path 2349" d="M528.4,391.267l-.576-.331-3.675,2.35c-1.228.782-2.41,1.622-3.617,2.433,1.383-.835,2.67-1.651,3.991-2.359S527.115,391.95,528.4,391.267Z" transform="translate(-371.366 -292.128)" opacity="0.45" fill="url(#linear-gradient-30)"/>
          <path id="Path_2350" data-name="Path 2350" d="M536.636,381.887l2.55-1.532a7.816,7.816,0,0,0-5.278-1.762c-2.251.223-5.245,1.636-9.587,5.4l4.8,2.695,5.006-3.207Z" transform="translate(-372.667 -287.88)" opacity="0.45" fill="url(#linear-gradient-31)"/>
          <path id="Path_2351" data-name="Path 2351" d="M477.075,427.486c-.615-.836-1.842-.029-3.144,1.294A25.815,25.815,0,0,0,472,431.015c-.6.8-1.157,1.578-1.6,2.2C472.276,431.649,475.305,429.894,477.075,427.486Z" transform="translate(-354.148 -304.564)" opacity="0.45" fill="url(#linear-gradient-32)"/>
          <path id="Path_2352" data-name="Path 2352" d="M296.741,711.348c-1.129,1.429-2.313,2.843-3.4,4.3A11.44,11.44,0,0,0,296.741,711.348Z" transform="translate(-293.339 -402.169)" opacity="0.45" fill="url(#linear-gradient-33)"/>
        </g>
      </g>
      <g id="Group_57162" data-name="Group 57162" transform="translate(279.102 0)">
        <path id="Path_2726" data-name="Path 2726" d="M790.671,763.581a129.213,129.213,0,0,1-19.77,16.646C706.406,826.5,630.092,813.014,613.873,809.72c-23.95-4.865-70.245-14.267-103.716-53.628-50.638-59.549-42.753-153.368-3.475-215.3,7.185-11.328,45.136-74.2,122.272-84.286,46.682-6.1,101.1,6.205,140.5,39.22C852.177,565.028,846.288,705.029,790.671,763.581Z" transform="translate(-471.441 -455)" fill="url(#linear-gradient-34)"/>
        <g id="Group_57137" data-name="Group 57137" transform="translate(6.57 13.476)">
          <ellipse id="Ellipse_661" data-name="Ellipse 661" cx="152.654" cy="164.775" rx="152.654" ry="164.775" transform="translate(0 305.013) rotate(-87.486)" fill="#bebcc7"/>
          <g id="Group_57136" data-name="Group 57136" transform="translate(21.401 10.925)" opacity="0.68">
            <path id="Path_2727" data-name="Path 2727" d="M1570.1,796.937c-.014,13.474-.509,26.949-1.557,40.386-1.077,13.434-2.729,26.828-5.12,40.1a234.813,234.813,0,0,1-10.246,39.132,91.852,91.852,0,0,1-8.9,18.257,36.569,36.569,0,0,1-6.689,7.784,19.116,19.116,0,0,1-4.392,2.824,13.193,13.193,0,0,1-5.142,1.205,13.017,13.017,0,0,1-5.2-.952,17.967,17.967,0,0,1-4.5-2.67,34.736,34.736,0,0,1-6.835-7.663,88.877,88.877,0,0,1-9.027-18.195,186.479,186.479,0,0,1-6.029-19.337c-1.684-6.535-3.1-13.134-4.318-19.766-2.433-13.266-4.1-26.658-5.225-40.089s-1.688-26.907-1.772-40.386c-.039-6.738.167-13.475.413-20.207q.394-10.1,1.15-20.178c1.017-13.435,2.527-26.839,4.76-40.133,1.121-6.645,2.426-13.262,3.994-19.821a190.738,190.738,0,0,1,5.658-19.426,88.032,88.032,0,0,1,8.652-18.315,33.318,33.318,0,0,1,6.678-7.7,17.062,17.062,0,0,1,4.422-2.64,12.5,12.5,0,0,1,5.088-.9,13.531,13.531,0,0,1,5.026,1.171,19.593,19.593,0,0,1,4.363,2.714,37.141,37.141,0,0,1,6.819,7.561,91.048,91.048,0,0,1,9.351,17.965,224.911,224.911,0,0,1,11.085,38.868,381.8,381.8,0,0,1,5.685,40.02Q1570.077,776.7,1570.1,796.937Zm-2.563,0c.033-13.408-.469-26.819-1.575-40.181a387.878,387.878,0,0,0-5.19-39.863,223.353,223.353,0,0,0-10.461-38.743,89.911,89.911,0,0,0-8.977-17.862,36.206,36.206,0,0,0-6.535-7.46,14.884,14.884,0,0,0-8.852-3.812,11.561,11.561,0,0,0-4.756.9,16.214,16.214,0,0,0-4.164,2.569,32.388,32.388,0,0,0-6.374,7.566,86.9,86.9,0,0,0-8.276,18.187,189.285,189.285,0,0,0-5.343,19.353c-1.466,6.538-2.671,13.135-3.693,19.76-4.045,26.521-5.344,53.4-5.245,80.213q-.077,20.11,1.364,40.19c.99,13.37,2.513,26.706,4.8,39.911,1.146,6.6,2.487,13.168,4.093,19.667a184.584,184.584,0,0,0,5.779,19.2,87.345,87.345,0,0,0,8.674,17.942,33.3,33.3,0,0,0,6.457,7.4,13.428,13.428,0,0,0,8.755,3.391,14.115,14.115,0,0,0,8.627-3.786,35.11,35.11,0,0,0,6.327-7.528,90.26,90.26,0,0,0,8.544-18.01,232.953,232.953,0,0,0,9.756-38.9c2.276-13.206,3.779-26.544,4.782-39.913C1567.076,823.762,1567.546,810.349,1567.538,796.937Z" transform="translate(-1377.811 -647.391)" fill="#fff" style="mix-blend-mode: soft-light;isolation: isolate"/>
            <path id="Path_2728" data-name="Path 2728" d="M1128.249,791.239a196.589,196.589,0,0,1-7,51.485,165.617,165.617,0,0,1-21.6,47.189c-9.684,14.389-22.016,27.152-36.752,36.409a97.65,97.65,0,0,1-23.638,10.8,88.738,88.738,0,0,1-51.4.029A97.689,97.689,0,0,1,964.2,926.373c-14.756-9.243-27.117-22-36.828-36.388A165.934,165.934,0,0,1,905.7,842.774a186.522,186.522,0,0,1-5.25-25.531,191.088,191.088,0,0,1,.021-52.006,186.416,186.416,0,0,1,5.273-25.522,165.854,165.854,0,0,1,21.71-47.169c9.717-14.371,22.075-27.109,36.823-36.321A98.181,98.181,0,0,1,987.916,645.5a87.929,87.929,0,0,1,51.294.027,98.092,98.092,0,0,1,23.614,10.746c14.727,9.227,27.057,21.972,36.747,36.343a165.531,165.531,0,0,1,21.637,47.147A196.565,196.565,0,0,1,1128.249,791.239Zm-2.938,0a193.781,193.781,0,0,0-6.638-50.77,164.685,164.685,0,0,0-20.721-46.774,134.111,134.111,0,0,0-16-20.051,111.8,111.8,0,0,0-19.809-16.288,95.681,95.681,0,0,0-23.252-10.77,85.141,85.141,0,0,0-50.638.027,95.6,95.6,0,0,0-23.228,10.794,111.675,111.675,0,0,0-19.774,16.3,134.008,134.008,0,0,0-15.96,20.057,164.363,164.363,0,0,0-20.648,46.751,188.244,188.244,0,0,0-4.958,25.144,196.523,196.523,0,0,0,.021,51.149,188.1,188.1,0,0,0,4.981,25.135,164.289,164.289,0,0,0,20.686,46.71,133.886,133.886,0,0,0,15.963,20.028A111.2,111.2,0,0,0,965.1,924.951a96.086,96.086,0,0,0,23.2,10.743,84.367,84.367,0,0,0,50.535.029A96.129,96.129,0,0,0,1062.066,925a111.351,111.351,0,0,0,19.8-16.251,134.036,134.036,0,0,0,16-20.022A164.594,164.594,0,0,0,1118.629,842,193.761,193.761,0,0,0,1125.311,791.239Z" transform="translate(-867.997 -641.693)" fill="#fff" style="mix-blend-mode: soft-light;isolation: isolate"/>
            <path id="Path_2729" data-name="Path 2729" d="M755.411,1327.992c11.448-.166,22.895-.236,34.342-.357l34.343-.2c11.447-.086,22.9-.077,34.342-.1l34.343-.06,68.685.18,34.342.221c11.448.131,22.9.208,34.342.385a.13.13,0,0,1,0,.259c-11.447.177-22.895.254-34.342.385l-34.342.221-68.685.179-34.343-.06c-11.447-.027-22.9-.017-34.342-.1l-34.343-.2c-11.447-.12-22.895-.191-34.342-.357a.193.193,0,0,1,0-.386Z" transform="translate(-743.286 -1237.664)" fill="#fff" style="mix-blend-mode: soft-light;isolation: isolate"/>
            <path id="Path_2730" data-name="Path 2730" d="M1060.246,887.9c8.127-.166,16.255-.236,24.382-.357l24.382-.2c8.127-.086,16.255-.077,24.382-.1l24.382-.06,24.382.068c8.127.041,16.255.019,24.382.112l24.382.221c8.128.131,16.255.208,24.382.385a.13.13,0,0,1,0,.259c-8.128.177-16.255.254-24.382.385l-24.382.221c-8.127.093-16.255.071-24.382.112l-24.382.068-24.382-.06c-8.127-.026-16.255-.017-24.382-.1l-24.382-.2c-8.127-.12-16.255-.191-24.382-.357a.193.193,0,0,1,0-.386Z" transform="translate(-1008.279 -855.092)" fill="#fff" style="mix-blend-mode: soft-light;isolation: isolate"/>
            <path id="Path_2731" data-name="Path 2731" d="M664.094,1768.085l37.326-.357,37.326-.2c12.442-.086,24.884-.077,37.326-.1l37.326-.06,74.652.18,37.326.22c12.442.131,24.884.208,37.326.385a.13.13,0,0,1,0,.259c-12.442.178-24.884.254-37.326.385l-37.326.221-74.652.179-37.326-.06c-12.442-.026-24.884-.017-37.326-.1l-37.326-.2-37.326-.357a.193.193,0,0,1,0-.386Z" transform="translate(-663.903 -1620.237)" fill="#fff" style="mix-blend-mode: soft-light;isolation: isolate"/>
            <path id="Path_2732" data-name="Path 2732" d="M755.411,2208.178c11.448-.166,22.895-.236,34.342-.357l34.343-.2c11.447-.086,22.9-.077,34.342-.1l34.343-.06,68.685.179,34.342.221c11.448.131,22.9.208,34.342.385a.13.13,0,0,1,0,.259c-11.447.177-22.895.255-34.342.385l-34.342.221-68.685.179-34.343-.06c-11.447-.026-22.9-.017-34.342-.1l-34.343-.2c-11.447-.12-22.895-.191-34.342-.356a.193.193,0,0,1,0-.386Z" transform="translate(-743.286 -2002.809)" fill="#fff" style="mix-blend-mode: soft-light;isolation: isolate"/>
            <path id="Path_2733" data-name="Path 2733" d="M1289.655,2650.724H1094.6a.677.677,0,1,1,0-1.354h195.057a.677.677,0,0,1,0,1.354Z" transform="translate(-1037.717 -2386.964)" fill="#fff" style="mix-blend-mode: soft-light;isolation: isolate"/>
          </g>
        </g>
        <g id="Group_57141" data-name="Group 57141" transform="translate(0 114.575)">
          <g id="Group_57139" data-name="Group 57139">
            <path id="Path_2734" data-name="Path 2734" d="M1014.824,1518.724c-30.017-28.469-80.8-53.094-125.357-53.156l-3.832,46.675q1.791-.053,3.594-.055c37.095,0,73.1,20.919,95.027,47.423,6.075-12.775,18.66-21.178,24.581-34.163Z" transform="translate(-828.682 -1448.061)" fill="#e1921b"/>
            <path id="Path_2735" data-name="Path 2735" d="M567.781,1331.62l-72.12,35.044,10.255,7.668h65.12l3.086-40.777Z" transform="translate(-489.679 -1331.62)" fill="#e1921b"/>
            <g id="Group_57138" data-name="Group 57138" transform="translate(0 0)">
              <path id="Path_2736" data-name="Path 2736" d="M528,1331.62l-6.917,91.208-70.865-52.411a.79.79,0,0,1,.127-1.347Z" transform="translate(-449.895 -1331.62)" fill="#f6a11f"/>
              <path id="Path_2737" data-name="Path 2737" d="M935.276,1601.822c6.709-15.222,19.165-45.937,29.882-58.4-30.5-32.408-79.047-56.384-127.056-56.451l-3.832,46.675q1.791-.053,3.594-.055C877,1533.59,928.451,1561.577,935.276,1601.822Z" transform="translate(-784.032 -1466.666)" fill="#f6a11f"/>
            </g>
          </g>
          <g id="Group_57140" data-name="Group 57140" transform="translate(75.476 27.675)">
            <path id="Path_2738" data-name="Path 2738" d="M1514.736,1741.813a.411.411,0,0,1-.318-.15c-8.446-10.234-21.206-20.351-36.9-29.258a.412.412,0,1,1,.406-.716c15.781,8.956,28.621,19.139,37.13,29.45a.412.412,0,0,1-.317.674Z" transform="translate(-1418.5 -1689.643)" fill="#91b3fa"/>
            <path id="Path_2739" data-name="Path 2739" d="M1239.648,1605a.409.409,0,0,1-.192-.048,206.1,206.1,0,0,0-29.821-12.889.412.412,0,1,1,.266-.779,206.953,206.953,0,0,1,29.939,12.94.412.412,0,0,1-.193.776Z" transform="translate(-1185.569 -1585.004)" fill="#91b3fa"/>
            <path id="Path_2740" data-name="Path 2740" d="M1045.534,1548.506a.415.415,0,0,1-.12-.018,154.716,154.716,0,0,0-17.711-4.308.412.412,0,0,1,.144-.811,155.52,155.52,0,0,1,17.806,4.331.412.412,0,0,1-.12.806Z" transform="translate(-1027.363 -1543.362)" fill="#91b3fa"/>
          </g>
        </g>
        <g id="Group_57144" data-name="Group 57144" transform="translate(138.057 0.329)">
          <g id="Group_57143" data-name="Group 57143" transform="translate(0)">
            <path id="Path_2741" data-name="Path 2741" d="M1599.918,459.275l-8.385-.84,1.983,4.093-38.662,66.756h69.294l15.183,4.458,6.617-3.694Z" transform="translate(-1548.491 -458.315)" fill="#e1921b"/>
            <path id="Path_2742" data-name="Path 2742" d="M1727.011,954.2v85.857c7.565,6.18,8.5,30.42,15.382,37.957,7.642-7.445,22.191-23.174,31.773-28.881V954.2Z" transform="translate(-1698.148 -889.286)" fill="#e1921b"/>
            <g id="Group_57142" data-name="Group 57142">
              <path id="Path_2743" data-name="Path 2743" d="M1507.037,533.026h89.978l-47.387-75.4a.241.241,0,0,0-.412.007l-42.924,74.1A.86.86,0,0,0,1507.037,533.026Z" transform="translate(-1506.175 -457.518)" fill="#f6a11f"/>
              <path id="Path_2744" data-name="Path 2744" d="M1661.413,988.931v101.392c8.574,6.18,15.084,15.026,21.968,22.564,7.642-7.445,16.613-22.712,25.943-28.6V988.931Z" transform="translate(-1641.123 -919.475)" fill="#f6a11f"/>
            </g>
          </g>
          <path id="Path_2745" data-name="Path 2745" d="M1558.428,574.855h-15.1a.966.966,0,0,1-.843-1.44l36.707-65.432a.412.412,0,1,1,.718.4l-36.707,65.432a.143.143,0,0,0,.125.213h15.1a.412.412,0,0,1,0,.823Z" transform="translate(-1537.635 -501.205)" fill="#e1921b"/>
        </g>
        <g id="Group_57145" data-name="Group 57145" transform="translate(148.92 108.981)">
          <path id="Path_2746" data-name="Path 2746" d="M1826.5,1476.886c-69.148.095-128.354,38.856-153.955,100.134h0s0,.017,0,.018c-.023.054-.047.115-.07.168l.031,0c-13.435,29.512-5.379,79.464-4.32,130.682l46.052,0h1.966a3.68,3.68,0,0,0,3.675-3.879c-2.093-38.825-3.895-77.885,1.6-110.5a58.836,58.836,0,0,1,13.012-28.079,120.184,120.184,0,0,1,92.245-42.712c1.2,0,2.4-.013,3.594.021Z" transform="translate(-1654.951 -1452.305)" fill="#e1921b"/>
          <path id="Path_2747" data-name="Path 2747" d="M1751.045,1445.214a1.134,1.134,0,0,0-1.136-1.042c-68.7.49-127.434,39.671-152.905,102.007h0v0l-.071.163h.031c-13.227,29.595-5.623,79.37-4.375,130.689a2.48,2.48,0,0,0,2.478,2.423h48.653a1.134,1.134,0,0,0,1.131-1.193c-2.206-42.432-4.746-79.748,1.041-115.015a61.13,61.13,0,0,1,13.247-29.125,119.307,119.307,0,0,1,92.061-43.283c.786,0,1.571,0,2.353.006a1.13,1.13,0,0,0,1.139-1.223Z" transform="translate(-1589.284 -1423.867)" fill="#f6a11f"/>
          <path id="Path_2748" data-name="Path 2748" d="M2768.962,1366.424l.178-.132-1.709-9.438-.162-.078-.03-.173-.168.078-69.714-33.621,4.809,63.406-1.215.557-5.628,22.769,7.166,5.763,1.783-1.318,0,.03,64.625-47.8.063-.046Z" transform="translate(-2550.762 -1318.583)" fill="#e1921b"/>
          <path id="Path_2749" data-name="Path 2749" d="M2642.4,1288.816l6.917,91.208,71.917-53.189Z" transform="translate(-2504.758 -1288.816)" fill="#f6a11f"/>
        </g>
        <g id="Group_57156" data-name="Group 57156" transform="translate(32.526 13.008)">
          <g id="Group_57150" data-name="Group 57150" transform="translate(49.902 0)">
            <g id="Group_57146" data-name="Group 57146" opacity="0.3">
              <path id="Path_2750" data-name="Path 2750" d="M1082.289,619.507a1.443,1.443,0,0,1-1.433-1.292c-.17-1.621-.272-3.273-.3-4.911a1.443,1.443,0,0,1,1.415-1.471H1082a1.443,1.443,0,0,1,1.442,1.415c.03,1.556.126,3.126.288,4.665a1.443,1.443,0,0,1-1.285,1.585A1.386,1.386,0,0,1,1082.289,619.507Zm.093-12.569a1.5,1.5,0,0,1-.171-.01,1.443,1.443,0,0,1-1.264-1.6c.193-1.625.456-3.259.784-4.854a1.443,1.443,0,1,1,2.826.58c-.312,1.517-.562,3.068-.745,4.613A1.443,1.443,0,0,1,1082.382,606.938Zm2.858-12.236a1.443,1.443,0,0,1-1.359-1.927c.548-1.539,1.17-3.073,1.848-4.559a1.443,1.443,0,1,1,2.625,1.2c-.644,1.412-1.235,2.868-1.755,4.329A1.443,1.443,0,0,1,1085.24,594.7Zm5.523-11.292a1.443,1.443,0,0,1-1.215-2.219c.879-1.378,1.828-2.734,2.821-4.032a1.443,1.443,0,1,1,2.291,1.754c-.943,1.232-1.844,2.52-2.679,3.83A1.442,1.442,0,0,1,1090.764,583.41Zm7.9-9.776a1.443,1.443,0,0,1-1.014-2.469c1.16-1.146,2.386-2.258,3.642-3.305a1.443,1.443,0,1,1,1.847,2.217c-1.195,1-2.359,2.052-3.462,3.141A1.438,1.438,0,0,1,1098.667,573.634Zm9.868-7.784a1.443,1.443,0,0,1-.763-2.668c1.387-.862,2.828-1.676,4.283-2.418a1.443,1.443,0,0,1,1.31,2.571c-1.383.705-2.752,1.478-4.07,2.3A1.433,1.433,0,0,1,1108.535,565.85Zm52.868-3.435a1.437,1.437,0,0,1-.6-.13c-1.411-.641-2.869-1.23-4.334-1.748a1.443,1.443,0,0,1,.963-2.72c1.542.546,3.079,1.166,4.565,1.841a1.443,1.443,0,0,1-.6,2.757Zm-41.528-1.965a1.443,1.443,0,0,1-.47-2.807c1.544-.533,3.13-1,4.714-1.4a1.443,1.443,0,1,1,.7,2.8c-1.5.378-3.01.826-4.476,1.331A1.444,1.444,0,0,1,1119.875,560.45Zm29.572-1.911a1.464,1.464,0,0,1-.289-.029c-1.52-.31-3.073-.557-4.617-.737a1.443,1.443,0,1,1,.334-2.866c1.624.189,3.259.45,4.858.775a1.443,1.443,0,0,1-.286,2.857Zm-17.31-.82a1.443,1.443,0,0,1-.151-2.878c1.622-.173,3.274-.278,4.909-.312h.031a1.443,1.443,0,0,1,.03,2.885c-1.553.033-3.122.133-4.663.3C1132.24,557.716,1132.188,557.719,1132.137,557.719Z" transform="translate(-1080.553 -554.528)" fill="#91b3fa"/>
              <path id="Path_2751" data-name="Path 2751" d="M1744.153,625.5a1.436,1.436,0,0,1-.822-.258c-.611-.425-1.24-.844-1.872-1.246a1.443,1.443,0,1,1,1.55-2.434c.664.423,1.326.863,1.969,1.31a1.443,1.443,0,0,1-.825,2.627Z" transform="translate(-1654.497 -612.6)" fill="#91b3fa"/>
            </g>
            <g id="Group_57147" data-name="Group 57147" transform="translate(22.03 44.96)" opacity="0.3">
              <path id="Path_2752" data-name="Path 2752" d="M1933.514,903.679a1.443,1.443,0,0,1-1.423-1.214c-.118-.734-.253-1.479-.4-2.212a1.443,1.443,0,1,1,2.828-.574c.156.772.3,1.556.422,2.329a1.442,1.442,0,0,1-1.426,1.671Z" transform="translate(-1842.451 -898.523)" fill="#91b3fa"/>
              <path id="Path_2753" data-name="Path 2753" d="M1340.948,1034.689q-1,0-2-.034a1.443,1.443,0,0,1,.1-2.885c1.543.052,3.085.041,4.6-.033a1.443,1.443,0,1,1,.141,2.882C1342.851,1034.666,1341.9,1034.689,1340.948,1034.689Zm-9.577-.81a1.458,1.458,0,0,1-.245-.021c-1.587-.271-3.18-.613-4.734-1.015a1.443,1.443,0,1,1,.723-2.793c1.476.382,2.99.706,4.5.964a1.443,1.443,0,0,1-.242,2.865Zm19.955-.157a1.443,1.443,0,0,1-.265-2.861c1.5-.282,3-.632,4.477-1.041a1.443,1.443,0,1,1,.772,2.781c-1.551.431-3.138.8-4.715,1.1A1.474,1.474,0,0,1,1351.327,1033.723Zm-31.846-3.258a1.447,1.447,0,0,1-.549-.109c-1.487-.613-2.966-1.3-4.395-2.032a1.443,1.443,0,0,1,1.32-2.565c1.357.7,2.761,1.347,4.173,1.929a1.443,1.443,0,0,1-.55,2.777Zm43.666-.36a1.443,1.443,0,0,1-.573-2.768c1.4-.6,2.791-1.277,4.138-2a1.443,1.443,0,0,1,1.364,2.543c-1.419.761-2.885,1.469-4.357,2.105A1.436,1.436,0,0,1,1363.147,1030.1Zm10.74-6.124a1.443,1.443,0,0,1-.849-2.61c1.236-.9,2.449-1.859,3.6-2.856a1.443,1.443,0,1,1,1.885,2.185c-1.216,1.049-2.493,2.06-3.794,3A1.433,1.433,0,0,1,1373.887,1023.98Zm9.149-8.32a1.443,1.443,0,0,1-1.081-2.4c1.012-1.147,1.987-2.348,2.9-3.572a1.443,1.443,0,1,1,2.315,1.722c-.958,1.288-1.984,2.553-3.049,3.76A1.44,1.44,0,0,1,1383.036,1015.661Zm7.117-10.117a1.443,1.443,0,0,1-1.263-2.138c.737-1.34,1.424-2.726,2.043-4.12a1.443,1.443,0,1,1,2.637,1.171c-.652,1.469-1.376,2.928-2.151,4.339A1.443,1.443,0,0,1,1390.153,1005.544Zm4.724-11.437a1.444,1.444,0,0,1-1.387-1.842c.422-1.465.787-2.968,1.084-4.467a1.443,1.443,0,0,1,2.83.563c-.313,1.578-.7,3.16-1.142,4.7A1.444,1.444,0,0,1,1394.876,994.107Zm2.095-12.187-.089,0a1.442,1.442,0,0,1-1.352-1.528c.068-1.123.1-2.26.1-3.383q0-.61-.013-1.216a1.443,1.443,0,0,1,1.411-1.474,1.427,1.427,0,0,1,1.474,1.411q.014.638.014,1.279c0,1.181-.037,2.378-.109,3.559A1.443,1.443,0,0,1,1396.971,981.921Z" transform="translate(-1305.305 -964.409)" fill="#91b3fa"/>
              <path id="Path_2754" data-name="Path 2754" d="M1252.41,1329.968a1.437,1.437,0,0,1-.829-.262c-.639-.449-1.281-.92-1.907-1.4a1.443,1.443,0,0,1,1.755-2.29c.595.456,1.2.9,1.811,1.33a1.443,1.443,0,0,1-.831,2.623Z" transform="translate(-1249.109 -1269.882)" fill="#91b3fa"/>
            </g>
            <g id="Group_57149" data-name="Group 57149" transform="translate(14.152 13.668)">
              <g id="Group_57148" data-name="Group 57148">
                <path id="Path_2755" data-name="Path 2755" d="M1201.954,733.744a.674.674,0,0,0,.755.207l7.7-2.833a35.752,35.752,0,0,0,10.2,5.492l1.879,7.984a.674.674,0,0,0,.589.517l9.794.992a.674.674,0,0,0,.68-.388l3.442-7.445a35.752,35.752,0,0,0,11.092-3.335l6.978,4.32a.674.674,0,0,0,.781-.051l7.627-6.224a.674.674,0,0,0,.207-.755l-2.833-7.7a35.759,35.759,0,0,0,5.492-10.2l7.984-1.879a.674.674,0,0,0,.516-.588l.992-9.794a.674.674,0,0,0-.388-.68L1268,697.94a35.743,35.743,0,0,0-3.335-11.092l4.32-6.978a.675.675,0,0,0-.051-.781l-6.224-7.627a.674.674,0,0,0-.755-.207l-7.7,2.833a35.743,35.743,0,0,0-10.2-5.492l-1.879-7.984a.675.675,0,0,0-.588-.516l-9.794-.992a.674.674,0,0,0-.68.388l-3.442,7.445a35.742,35.742,0,0,0-11.092,3.335l-6.978-4.32a.674.674,0,0,0-.781.051l-7.627,6.224a.675.675,0,0,0-.207.755l2.833,7.7a35.742,35.742,0,0,0-5.492,10.2l-7.984,1.879a.674.674,0,0,0-.516.588l-.992,9.794a.674.674,0,0,0,.388.68l7.445,3.442A35.751,35.751,0,0,0,1200,718.357l-4.32,6.978a.674.674,0,0,0,.051.781Z" transform="translate(-1188.828 -659.1)" fill="#bdd0fb"/>
              </g>
              <path id="Path_2756" data-name="Path 2756" d="M1455.843,936.009a9.9,9.9,0,1,1,1.449-.107A9.91,9.91,0,0,1,1455.843,936.009Zm.023-17.484a7.7,7.7,0,0,0-1.123.082,7.563,7.563,0,1,0,1.123-.082Z" transform="translate(-1412.347 -882.61)" fill="url(#linear-gradient-35)"/>
              <path id="Path_2757" data-name="Path 2757" d="M1361.037,853.327a24.806,24.806,0,0,1-2.5-.126h0q-.394-.04-.788-.092a24.5,24.5,0,0,1-3.809-.822l-.051-.015-.144-.045-.279-.088a.577.577,0,0,1-.4-.548.578.578,0,0,1,.755-.55,23.2,23.2,0,0,0,25.373-7.715,23.035,23.035,0,0,0,4.853-12,23.473,23.473,0,0,0,.12-2.382,23.178,23.178,0,1,0-44.17,9.882.57.57,0,0,1,.055.245.577.577,0,0,1-1.1.245,24.333,24.333,0,1,1,46.369-10.375,24.885,24.885,0,0,1-.126,2.5,24.336,24.336,0,0,1-24.162,21.882Z" transform="translate(-1317.338 -785.636)" fill="url(#linear-gradient-35)"/>
            </g>
          </g>
          <g id="Group_57155" data-name="Group 57155" transform="translate(0 53.085)">
            <g id="Group_57151" data-name="Group 57151" opacity="0.3">
              <path id="Path_2758" data-name="Path 2758" d="M707.474,1316.39a.89.89,0,0,1-.855-.64c-.213-.726-.407-1.468-.577-2.206a.891.891,0,0,1,1.737-.4c.161.7.346,1.411.55,2.1a.892.892,0,0,1-.6,1.106A.9.9,0,0,1,707.474,1316.39Z" transform="translate(-705.07 -1266.475)" fill="#91b3fa"/>
              <path id="Path_2759" data-name="Path 2759" d="M699.839,1003.869a.891.891,0,0,1-.885-.8,38.738,38.738,0,0,1-.2-3.915q0-.411.009-.825a.923.923,0,0,1,.91-.873.892.892,0,0,1,.872.909q-.008.4-.009.788a37.042,37.042,0,0,0,.19,3.734.891.891,0,0,1-.8.977C699.9,1003.867,699.869,1003.869,699.839,1003.869Zm.2-9.25a.923.923,0,0,1-.128-.009.892.892,0,0,1-.755-1.01,38.63,38.63,0,0,1,.962-4.644.891.891,0,1,1,1.719.468,36.913,36.913,0,0,0-.918,4.43A.891.891,0,0,1,700.035,994.619Zm2.433-8.926a.891.891,0,0,1-.824-1.231,38.437,38.437,0,0,1,2.075-4.268.891.891,0,0,1,1.552.877,36.617,36.617,0,0,0-1.979,4.07A.893.893,0,0,1,702.468,985.692Zm4.553-8.056a.891.891,0,0,1-.715-1.422,38.694,38.694,0,0,1,3.056-3.63.891.891,0,0,1,1.29,1.23,36.721,36.721,0,0,0-2.914,3.461A.89.89,0,0,1,707.021,977.637Zm6.383-6.7a.891.891,0,0,1-.566-1.58,39,39,0,0,1,3.844-2.777.891.891,0,1,1,.954,1.505,37.138,37.138,0,0,0-3.667,2.65A.889.889,0,0,1,713.4,970.938Zm7.814-4.946a.891.891,0,0,1-.381-1.7,38.37,38.37,0,0,1,4.4-1.755.891.891,0,0,1,.556,1.694,36.5,36.5,0,0,0-4.2,1.673A.887.887,0,0,1,721.218,965.992ZM730,963.107a.891.891,0,0,1-.17-1.766,38.614,38.614,0,0,1,4.7-.621.892.892,0,0,1,.124,1.779,36.627,36.627,0,0,0-4.485.592A.9.9,0,0,1,730,963.107Zm13.835-.113a.871.871,0,0,1-.157-.014,36.949,36.949,0,0,0-3.906-.478c-.2-.015-.394-.027-.589-.037a.891.891,0,0,1-.844-.936.882.882,0,0,1,.936-.844c.208.011.416.023.624.039a38.787,38.787,0,0,1,4.09.5.891.891,0,0,1-.155,1.768Z" transform="translate(-698.754 -960.682)" fill="#91b3fa"/>
            </g>
            <g id="Group_57152" data-name="Group 57152" transform="translate(14.749 54.411)" opacity="0.3">
              <path id="Path_2760" data-name="Path 2760" d="M874.227,1399.49a.891.891,0,0,1-.011-1.782,36.822,36.822,0,0,0,4.437-.327.891.891,0,0,1,.239,1.767,38.846,38.846,0,0,1-4.652.342Zm-4.554-.215a.922.922,0,0,1-.1-.005,38.98,38.98,0,0,1-4.6-.775.891.891,0,0,1,.4-1.737,37.334,37.334,0,0,0,4.391.741.891.891,0,0,1-.094,1.777Zm13.57-1a.891.891,0,0,1-.226-1.753,37.041,37.041,0,0,0,4.228-1.39.891.891,0,0,1,.658,1.657,38.688,38.688,0,0,1-4.433,1.457A.892.892,0,0,1,883.243,1398.271Zm-22.439-1.052a.9.9,0,0,1-.305-.054,38.207,38.207,0,0,1-4.28-1.865.891.891,0,1,1,.81-1.587,36.668,36.668,0,0,0,4.081,1.778.891.891,0,0,1-.305,1.728Zm30.893-2.309a.891.891,0,0,1-.428-1.674,36.579,36.579,0,0,0,3.769-2.365.891.891,0,0,1,1.037,1.45,38.759,38.759,0,0,1-3.952,2.48A.887.887,0,0,1,891.7,1394.909Zm7.4-5.292a.891.891,0,0,1-.6-1.548,37.264,37.264,0,0,0,3.1-3.2.891.891,0,1,1,1.353,1.159,38.97,38.97,0,0,1-3.245,3.354A.889.889,0,0,1,899.1,1389.618Zm5.921-6.913a.881.881,0,0,1-.493-.15.891.891,0,0,1-.248-1.235,36.435,36.435,0,0,0,2.237-3.848.891.891,0,0,1,1.592.8,38.5,38.5,0,0,1-2.346,4.036A.891.891,0,0,1,905.019,1382.7Z" transform="translate(-849.964 -1376.98)" fill="#91b3fa"/>
              <path id="Path_2761" data-name="Path 2761" d="M814.3,1479.493a.887.887,0,0,1-.5-.153c-.632-.427-1.254-.875-1.849-1.331a.891.891,0,1,1,1.084-1.415c.567.435,1.161.862,1.763,1.271a.891.891,0,0,1-.5,1.629Z" transform="translate(-811.6 -1463.414)" fill="#91b3fa"/>
            </g>
            <g id="Group_57154" data-name="Group 57154" transform="translate(9.403 9.029)">
              <g id="Group_57153" data-name="Group 57153">
                <path id="Path_2762" data-name="Path 2762" d="M779.477,1079.71a.451.451,0,0,0,.505.138l5.154-1.9a23.922,23.922,0,0,0,6.824,3.675l1.257,5.342a.451.451,0,0,0,.394.345l6.554.664a.451.451,0,0,0,.455-.26l2.3-4.982a23.91,23.91,0,0,0,7.422-2.232l4.67,2.891a.452.452,0,0,0,.523-.034l5.1-4.165a.452.452,0,0,0,.138-.505l-1.9-5.154a23.918,23.918,0,0,0,3.675-6.824l5.342-1.257a.451.451,0,0,0,.345-.394l.664-6.554a.451.451,0,0,0-.26-.455l-4.982-2.3a23.913,23.913,0,0,0-2.232-7.422l2.891-4.67a.451.451,0,0,0-.034-.522l-4.165-5.1a.451.451,0,0,0-.505-.138l-5.155,1.9a23.914,23.914,0,0,0-6.824-3.675l-1.257-5.343a.451.451,0,0,0-.394-.345l-6.554-.664a.451.451,0,0,0-.455.26l-2.3,4.982a23.924,23.924,0,0,0-7.422,2.232l-4.669-2.891a.452.452,0,0,0-.523.034l-5.1,4.165a.451.451,0,0,0-.138.505l1.9,5.154a23.927,23.927,0,0,0-3.675,6.824l-5.342,1.257a.451.451,0,0,0-.346.394l-.664,6.554a.451.451,0,0,0,.26.455l4.982,2.3a23.924,23.924,0,0,0,2.232,7.422l-2.891,4.67a.451.451,0,0,0,.034.523Z" transform="translate(-770.693 -1029.761)" fill="#bdd0fb"/>
              </g>
              <path id="Path_2763" data-name="Path 2763" d="M948.569,1214.4a6.759,6.759,0,1,1,1-.073A6.85,6.85,0,0,1,948.569,1214.4Zm.017-11.7a4.959,4.959,0,0,0-4.908,5.682,4.959,4.959,0,0,0,5.628,4.182h0a4.959,4.959,0,0,0-.72-9.864Z" transform="translate(-919.473 -1178.547)" fill="url(#linear-gradient-35)"/>
              <path id="Path_2764" data-name="Path 2764" d="M882.551,1156.863q-.846,0-1.7-.086a16.874,16.874,0,0,1-3.351-.687l-.146-.047a.891.891,0,0,1-.617-.847.892.892,0,0,1,1.166-.848,15.046,15.046,0,0,0,3.127.655h0l.175.016a14.857,14.857,0,0,0,7.257-1.149,15.085,15.085,0,0,0,3.461-2.084l.026-.021.079-.064a14.907,14.907,0,0,0,5.441-10.113,15.162,15.162,0,0,0,.078-1.542,15.005,15.005,0,1,0-28.595,6.4.891.891,0,1,1-1.613.757,16.788,16.788,0,1,1,31.99-7.157,17.185,17.185,0,0,1-.087,1.725A16.811,16.811,0,0,1,882.551,1156.863Z" transform="translate(-853.327 -1111.064)" fill="url(#linear-gradient-35)"/>
            </g>
          </g>
        </g>
        <g id="Group_57160" data-name="Group 57160" transform="translate(55.879 154.783)">
          <path id="Path_2765" data-name="Path 2765" d="M1220.4,3182.417c-4.016.347-10.988.911-16.484,1.153a15.872,15.872,0,0,1-6.3-.617c0,.123.005.24.01.349a1.136,1.136,0,0,0,1.08,1.073,193.015,193.015,0,0,0,21.583.022.809.809,0,0,0,.659-1.216A6.589,6.589,0,0,0,1220.4,3182.417Z" transform="translate(-1155.767 -2980.724)" fill="#002563"/>
          <path id="Path_2766" data-name="Path 2766" d="M1203.908,3129.626c5.5-.242,12.467-.806,16.484-1.153-3.949-4.845-16.484-8.111-16.484-8.111h-3.54a14.846,14.846,0,0,0-2.761,8.647A15.875,15.875,0,0,0,1203.908,3129.626Z" transform="translate(-1155.758 -2926.779)" fill="#001942"/>
          <path id="Path_2767" data-name="Path 2767" d="M1214.178,3076.144l.331,6.556a1.5,1.5,0,0,0,1.278,1.408,5.824,5.824,0,0,0,2.659-.22,1.772,1.772,0,0,0,1.191-1.362l1.145-6.382Z" transform="translate(-1170.164 -2888.34)" fill="url(#linear-gradient-39)"/>
          <g id="Group_57157" data-name="Group 57157" transform="translate(0 189.823)">
            <path id="Path_2768" data-name="Path 2768" d="M880.354,3222.1a3.456,3.456,0,0,1-2.86-2.734l-.007.033a3.116,3.116,0,0,0,1.526,3.335,7.943,7.943,0,0,0,4.224.855,3.906,3.906,0,0,0,3.167-1.888l.01-.017C885.1,3222.522,883.259,3222.62,880.354,3222.1Z" transform="translate(-877.428 -3202.663)" fill="#002563"/>
            <path id="Path_2769" data-name="Path 2769" d="M889,3091.592h-2.92c-4.447-.117-7.239,12-8.153,16.7a3.455,3.455,0,0,0,2.86,2.734c2.9.524,4.747.425,6.059-.414,2.4-4.086,3.594-10.07,4.166-13.563C891.665,3093.076,889,3091.592,889,3091.592Z" transform="translate(-877.863 -3091.591)" fill="#002158"/>
          </g>
          <path id="Path_2770" data-name="Path 2770" d="M932.051,3045.042l-1.621,6.448a1.75,1.75,0,0,0,.911,1.983,6.216,6.216,0,0,0,3.357.813,1.463,1.463,0,0,0,1.193-.975l2.38-6.784Z" transform="translate(-923.456 -2861.303)" fill="url(#linear-gradient-39)"/>
          <path id="Path_2771" data-name="Path 2771" d="M991.792,2383.137s-14.487,90.559-14.249,91.056a12.052,12.052,0,0,1-8.363.232s1.31-48.41,4.38-66.971c0,0-24.725,43.269-32.577,64.829a19.615,19.615,0,0,1-7.485-2.719s26.622-77.882,33.724-88.255Z" transform="translate(-926.17 -2284.321)" fill="#002158"/>
          <path id="Path_2772" data-name="Path 2772" d="M1241.594,2509.2a.421.421,0,0,1-.227-.065.428.428,0,0,1-.136-.589l5.414-8.647a.43.43,0,0,1,.278-.193l3.984-.8a.428.428,0,1,1,.169.839l-3.8.766-5.316,8.491A.428.428,0,0,1,1241.594,2509.2Z" transform="translate(-1193.626 -2386.542)" fill="#5b81bf"/>
          <path id="Path_2773" data-name="Path 2773" d="M1650.068,1716.841s-9.776,2.156-15.722,4.9a5.43,5.43,0,0,0-2.659,2.674c-1.778,3.9-7.1,13.664-17.417,18.325,1.486,1.972,3.878,6.075,4.921,12.97,6.2-4.613,11.547-12.315,14.116-24.949a5.041,5.041,0,0,0,4.4-.122c1.289-.626,2.777-1.514,3.895-2.213a5.1,5.1,0,0,0,2.265-3.041,17.639,17.639,0,0,0,.175-4.709l5.025-1.557A1.787,1.787,0,0,0,1650.068,1716.841Z" transform="translate(-1517.964 -1706.7)" fill="url(#linear-gradient-41)"/>
          <path id="Path_2774" data-name="Path 2774" d="M1087.105,1923.534c-1.042-6.9-3.435-11-4.921-12.97-6.41,2.9-14.748,3.822-25.365.143a11.275,11.275,0,0,0-3.035-.6c-5.652-.331-24.278-.936-39.69,4.156a11.976,11.976,0,0,0-7.225,6.576c-4.169,9.568-10.919,31.357,7.819,42.357a46.473,46.473,0,0,1,4.522-8.558c-3.018-5.09-3.911-12.042,1.443-21.1,3.9,10.544,5.737,25.928,6.119,32.736a14.632,14.632,0,0,1-1.147,6.548l-.1.226a.775.775,0,0,0,.544,1.058,88.88,88.88,0,0,0,24.8,1.455,1.352,1.352,0,0,0,1.206-1.033c5.13-21.614,5.141-36.359,3.885-45.679C1060.764,1929.93,1075.438,1932.218,1087.105,1923.534Z" transform="translate(-985.879 -1874.523)" fill="#45bdaa"/>
          <path id="Path_2775" data-name="Path 2775" d="M1386.077,1965.371a.428.428,0,0,1-.424-.372c-1.2-9.1-3.658-13.072-3.682-13.111a.428.428,0,0,1,.723-.458c.1.165,2.575,4.142,3.808,13.457a.427.427,0,0,1-.368.48A.4.4,0,0,1,1386.077,1965.371Z" transform="translate(-1315.969 -1910.456)" fill="#91b3fa"/>
          <path id="Path_2776" data-name="Path 2776" d="M1201.012,1815.181s-1.067,11.284-2.007,14.621a1.141,1.141,0,0,0,.537,1.3c1.595.911,5.42,2.4,10.651-.167a2.374,2.374,0,0,0,1.318-2.234l-.461-10.9Z" transform="translate(-1156.938 -1792.187)" fill="url(#linear-gradient-42)"/>
          <g id="Group_57158" data-name="Group 57158" transform="translate(34.53)">
            <path id="Path_2777" data-name="Path 2777" d="M1202.162,1704.736s3.413,7.841,3.642,11.956,1.116,6.786-3.642,7.615-8.767-1.542-10.939-5.641c0,0-3.4-6.317-2.639-8.9S1202.162,1704.736,1202.162,1704.736Z" transform="translate(-1182.348 -1696.177)" fill="url(#linear-gradient-43)"/>
            <path id="Path_2778" data-name="Path 2778" d="M1152.118,1658.792l.271-.119a.653.653,0,0,0,.319-.9c-.671-1.3-1.979-4.268-.289-4.961,2.178-.893,10.8-2.653,12.666-5.714a5.7,5.7,0,0,0-2.178-7.82.328.328,0,0,0-.429.14l-.2.376a.323.323,0,0,1-.6-.061.322.322,0,0,0-.582-.083c-.572.916-2.117,2.4-6.247,3.163-5.87,1.083-9.752,3.459-9.848,7.516a.324.324,0,0,1-.5.267c-.433-.264-1.127-.388-2.054.391-1.612,1.356-.952,4.872,2.582,7.765a.321.321,0,0,1-.015.518c-.641.417-1.6,1.41.879,2.732a8.333,8.333,0,0,0,5.208,1.135.322.322,0,0,0,.261-.389l-.786-3.565a.323.323,0,0,1,.316-.393Z" transform="translate(-1141.617 -1639.25)" fill="#002158"/>
            <path id="Path_2779" data-name="Path 2779" d="M1194.571,1768.894s-1.3-5.009-3.548-3.6,1.165,5.612,2.971,5.8Z" transform="translate(-1183.923 -1748.6)" fill="url(#linear-gradient-44)"/>
          </g>
          <path id="Path_2780" data-name="Path 2780" d="M1770.372,1761.469a.428.428,0,0,1-.331-.7c.37-.455,3.65-4.466,4.914-5.18.46-.26.734-.528.792-.776a.633.633,0,0,0-.057-.4l-3.854.773-2.184,1.874a.428.428,0,0,1-.557-.649l2.269-1.947a.43.43,0,0,1,.194-.095l4.267-.855a.427.427,0,0,1,.439.181,1.629,1.629,0,0,1,.316,1.318,2.2,2.2,0,0,1-1.2,1.324c-.951.537-3.694,3.773-4.672,4.975A.427.427,0,0,1,1770.372,1761.469Z" transform="translate(-1652.423 -1738.571)" fill="url(#linear-gradient-45)"/>
          <path id="Path_2781" data-name="Path 2781" d="M1114.061,2266.212l15.088.187-5.281-4.97a3.941,3.941,0,0,0-4.831-.453,11.411,11.411,0,0,0-2.683,2.391s-9.412-3.44-13.974-11.135a46.472,46.472,0,0,0-4.522,8.558A47.08,47.08,0,0,0,1114.061,2266.212Z" transform="translate(-1069.048 -2172.114)" fill="url(#linear-gradient-46)"/>
          <g id="Group_57159" data-name="Group 57159" transform="translate(45.01 61.639)">
            <path id="Path_2782" data-name="Path 2782" d="M1223.432,2351.264c.029,0,.059,0,.088,0l38.3-.041a1.7,1.7,0,1,0,0-3.392l-38.3.042a1.7,1.7,0,0,0-.084,3.39Z" transform="translate(-1221.804 -2316.859)" fill="#002158"/>
            <path id="Path_2783" data-name="Path 2783" d="M1444.595,2110.855h-31.9a6.083,6.083,0,0,0-5.5,3.449l-14.745,30.936h39.637a3.694,3.694,0,0,0,3.436-2.312l11.434-28.627A2.523,2.523,0,0,0,1444.595,2110.855Z" transform="translate(-1370.152 -2110.855)" fill="#002158"/>
            <ellipse id="Ellipse_662" data-name="Ellipse 662" cx="4.046" cy="2.51" rx="4.046" ry="2.51" transform="matrix(0.313, -0.95, 0.95, 0.313, 50.714, 19.68)" fill="#053687"/>
          </g>
        </g>
        <g id="Group_57161" data-name="Group 57161" transform="translate(196.391 254.931)">
          <path id="Path_2784" data-name="Path 2784" d="M1968.848,2844.734l1.3,40.369a13.136,13.136,0,0,0,13.079,12.684l96.671.569a9.476,9.476,0,0,0,9.449-8.065c1.512-10.195,3.438-28.436,1.269-45.557Z" transform="translate(-1966.71 -2787.324)" fill="#002158"/>
          <path id="Path_2785" data-name="Path 2785" d="M2095.7,2894.129a.289.289,0,0,1-.01-.577,8.71,8.71,0,0,0,1.658-.221.289.289,0,0,1,.131.563,9.415,9.415,0,0,1-1.768.236Zm-4.038-.016h0l-1.731-.01a.289.289,0,0,1,0-.577h0l1.731.01a.288.288,0,0,1,0,.577Zm-5.769-.034h0l-1.731-.01a.289.289,0,0,1,0-.577h0l1.73.01a.288.288,0,0,1,0,.577Zm-5.769-.034h0l-1.731-.011a.288.288,0,0,1,0-.577h0l1.73.01a.289.289,0,0,1,0,.577Zm-5.77-.034h0l-1.73-.01a.288.288,0,0,1-.287-.29.3.3,0,0,1,.29-.287l1.731.01a.289.289,0,0,1,0,.577Zm-5.77-.034h0l-1.73-.01a.289.289,0,0,1,0-.577h0l1.731.01a.289.289,0,0,1,0,.577Zm-5.769-.035h0l-1.731-.01a.288.288,0,1,1,0-.576h0l1.731.01a.288.288,0,0,1,0,.577Zm-5.77-.034h0l-1.731-.011a.288.288,0,0,1,0-.576h0l1.731.01a.288.288,0,0,1,0,.577Zm-5.769-.034h0l-1.731-.01a.288.288,0,0,1,0-.577h0l1.731.01a.289.289,0,0,1,0,.577Zm-5.769-.035h0l-1.731-.01a.289.289,0,0,1,0-.577h0l1.731.01a.288.288,0,0,1,0,.577Zm-5.77-.033h0l-1.731-.01a.289.289,0,0,1,0-.577h0l1.731.01a.289.289,0,0,1,0,.578Zm-5.769-.034h0l-1.731-.01a.289.289,0,0,1,0-.577h0l1.731.011a.288.288,0,0,1,0,.577Zm-5.77-.034h0l-1.731-.01a.289.289,0,0,1,0-.577h0l1.731.01a.289.289,0,0,1,0,.577Zm-5.77-.034h0l-1.731-.01a.289.289,0,0,1,0-.577h0l1.731.01a.288.288,0,0,1,0,.577Zm-5.769-.034h0l-1.731-.01a.288.288,0,0,1-.287-.29.318.318,0,0,1,.29-.287l1.731.01a.289.289,0,0,1,0,.577Zm-5.77-.034h0l-1.731-.011a.288.288,0,0,1,0-.576h0l1.731.01a.289.289,0,0,1,0,.577Zm-5.77-.034h0l-1.731-.01a.289.289,0,0,1,0-.577h0l1.731.01a.288.288,0,0,1,0,.577Zm-5.7-.645a.278.278,0,0,1-.09-.015,12.764,12.764,0,0,1-1.637-.67.288.288,0,1,1,.255-.517,12.3,12.3,0,0,0,1.563.64.288.288,0,0,1-.091.562Zm101.6-.807a.289.289,0,0,1-.181-.514,8.739,8.739,0,0,0,1.2-1.165.289.289,0,1,1,.44.374,9.437,9.437,0,0,1-1.279,1.242A.291.291,0,0,1,2101.02,2892.153Zm-106.47-2.18a.288.288,0,0,1-.2-.083,12.931,12.931,0,0,1-1.17-1.328.288.288,0,0,1,.458-.351,12.319,12.319,0,0,0,1.117,1.268.289.289,0,0,1-.2.494Zm109.556-2.576a.31.31,0,0,1-.073-.008.288.288,0,0,1-.207-.352,8.666,8.666,0,0,0,.183-.907l.113-.766a.288.288,0,1,1,.571.083l-.113.768a9.14,9.14,0,0,1-.2.966A.287.287,0,0,1,2104.106,2887.4Zm-112.595-2.268a.288.288,0,0,1-.273-.2,12.591,12.591,0,0,1-.451-1.71.289.289,0,0,1,.567-.108,12.02,12.02,0,0,0,.43,1.633.288.288,0,0,1-.179.366A.3.3,0,0,1,1991.511,2885.128Zm113.434-3.438a.227.227,0,0,1-.036,0,.288.288,0,0,1-.251-.321q.1-.838.206-1.716a.288.288,0,1,1,.573.066c-.068.587-.137,1.162-.206,1.721A.288.288,0,0,1,2104.945,2881.69Zm-114.156-2.255a.288.288,0,0,1-.288-.279l-.056-1.73a.288.288,0,0,1,.279-.3.3.3,0,0,1,.3.279l.056,1.73a.288.288,0,0,1-.279.3Zm114.786-3.48h-.028a.288.288,0,0,1-.26-.315q.081-.847.157-1.721a.294.294,0,0,1,.313-.263.289.289,0,0,1,.262.313q-.076.876-.158,1.726A.288.288,0,0,1,2105.575,2875.955Zm-114.972-2.287a.288.288,0,0,1-.288-.28l-.055-1.729a.289.289,0,0,1,.279-.3.293.293,0,0,1,.3.28l.056,1.729a.288.288,0,0,1-.279.3Zm115.438-3.465h-.02a.289.289,0,0,1-.269-.308q.056-.853.106-1.725a.289.289,0,0,1,.576.033q-.049.873-.106,1.731A.289.289,0,0,1,2106.042,2870.2Zm-115.623-2.3a.288.288,0,0,1-.288-.28l-.055-1.729a.288.288,0,1,1,.576-.018l.055,1.729a.288.288,0,0,1-.279.3Zm115.913-3.461h-.01a.289.289,0,0,1-.279-.3q.029-.858.05-1.727a.31.31,0,0,1,.3-.282.289.289,0,0,1,.282.3q-.021.872-.05,1.733A.289.289,0,0,1,2106.331,2864.44Zm-116.1-2.3a.289.289,0,0,1-.288-.279l-.055-1.731a.289.289,0,0,1,.279-.3.3.3,0,0,1,.3.28l.055,1.73a.288.288,0,0,1-.279.3Zm116.2-3.465a.289.289,0,0,1-.289-.288q0-.86-.012-1.728a.288.288,0,0,1,.285-.292.3.3,0,0,1,.292.285q.011.869.012,1.734a.289.289,0,0,1-.288.289Zm-116.38-2.3a.289.289,0,0,1-.288-.279l-.056-1.731a.288.288,0,0,1,.279-.3.305.305,0,0,1,.3.28l.056,1.73a.289.289,0,0,1-.279.3Zm116.258-3.465a.288.288,0,0,1-.288-.276q-.036-.861-.083-1.725a.288.288,0,1,1,.575-.031q.048.866.084,1.732a.289.289,0,0,1-.276.3Zm-116.444-2.3a.289.289,0,0,1-.288-.279l-.055-1.729a.288.288,0,0,1,.279-.3.294.294,0,0,1,.3.279l.055,1.729a.288.288,0,0,1-.279.3Zm116.073-3.456a.288.288,0,0,1-.287-.263q-.077-.86-.166-1.718a.289.289,0,0,1,.574-.06q.089.862.166,1.728a.288.288,0,0,1-.262.313Zm-116.259-2.311a.289.289,0,0,1-.288-.279l-.055-1.729a.288.288,0,0,1,.279-.3.306.306,0,0,1,.3.279l.055,1.73a.288.288,0,0,1-.279.3Zm114.121-1.73h-1.731a.288.288,0,1,1,0-.577h1.731a.288.288,0,0,1,0,.577Zm-5.77,0H2096.3a.288.288,0,1,1,0-.577h1.731a.288.288,0,1,1,0,.577Zm-5.77,0h-1.731a.288.288,0,1,1,0-.577h1.731a.288.288,0,1,1,0,.577Zm-5.77,0h-1.731a.288.288,0,1,1,0-.577h1.731a.288.288,0,1,1,0,.577Zm-5.77,0h-1.731a.288.288,0,0,1,0-.577h1.731a.288.288,0,1,1,0,.577Zm-5.769,0h-1.731a.288.288,0,1,1,0-.577h1.731a.288.288,0,1,1,0,.577Zm-5.77,0h-1.731a.288.288,0,1,1,0-.577h1.731a.288.288,0,1,1,0,.577Zm-5.77,0h-1.731a.288.288,0,1,1,0-.577h1.731a.288.288,0,1,1,0,.577Zm-5.77,0h-1.731a.288.288,0,1,1,0-.577h1.731a.288.288,0,1,1,0,.577Zm-5.77,0h-1.73a.288.288,0,1,1,0-.577h1.73a.288.288,0,1,1,0,.577Zm-5.769,0h-1.731a.288.288,0,1,1,0-.577h1.731a.288.288,0,1,1,0,.577Zm-5.769,0H2038.6a.288.288,0,1,1,0-.577h1.731a.288.288,0,0,1,0,.577Zm-5.77,0h-1.731a.288.288,0,1,1,0-.577h1.731a.288.288,0,1,1,0,.577Zm-5.77,0h-1.731a.288.288,0,1,1,0-.577h1.731a.288.288,0,1,1,0,.577Zm-5.769,0h-1.731a.288.288,0,1,1,0-.577h1.731a.288.288,0,1,1,0,.577Zm-5.77,0h-1.731a.288.288,0,1,1,0-.577h1.731a.288.288,0,1,1,0,.577Zm-5.769,0h-1.731a.288.288,0,1,1,0-.577h1.731a.288.288,0,0,1,0,.577Zm-5.77,0h-1.73a.288.288,0,1,1,0-.577h1.73a.288.288,0,1,1,0,.577Zm-5.769,0h-1.731a.288.288,0,1,1,0-.577h1.731a.288.288,0,1,1,0,.577Zm-5.769,0h-1.731a.288.288,0,1,1,0-.577h1.731a.288.288,0,1,1,0,.577Z" transform="translate(-1984.518 -2785.406)" fill="#fff"/>
          <path id="Path_2786" data-name="Path 2786" d="M2185.611,2587.094l.291-3.114a2.4,2.4,0,0,1,1.816-1.4c3.012-.479,10.481-1.322,14.077,1.365l.538,3.618Z" transform="translate(-2155.142 -2558.99)" fill="#002158"/>
          <path id="Path_2787" data-name="Path 2787" d="M2234.18,2520.606a4.321,4.321,0,0,1-2.084,0,1.883,1.883,0,0,1-1.436-1.824v-9.749h4.961v9.741A1.89,1.89,0,0,1,2234.18,2520.606Z" transform="translate(-2194.303 -2495.498)" fill="#002158"/>
          <path id="Path_2788" data-name="Path 2788" d="M2553.272,2587.094l.291-3.114a2.393,2.393,0,0,1,1.815-1.4c3.012-.479,10.48-1.322,14.077,1.365l.538,3.618Z" transform="translate(-2474.749 -2558.99)" fill="#002158"/>
          <path id="Path_2789" data-name="Path 2789" d="M2601.842,2513.774a4.323,4.323,0,0,1-2.084,0,1.882,1.882,0,0,1-1.436-1.824v-10.776h4.961v10.769A1.89,1.89,0,0,1,2601.842,2513.774Z" transform="translate(-2513.911 -2488.667)" fill="#002158"/>
          <path id="Path_2790" data-name="Path 2790" d="M2209.657,2421.409l53.355-1.766a2.572,2.572,0,0,0,2.458-2.111,21.739,21.739,0,0,0,.166-6.763,6.155,6.155,0,0,0-5.965-5.209c-9.954-.237-35.293-.23-49.258,5.294a4.879,4.879,0,0,0-2.947,3.385,11.826,11.826,0,0,0-.127,5.418A2.3,2.3,0,0,0,2209.657,2421.409Z" transform="translate(-2173.803 -2405.486)" fill="#002158"/>
          <path id="Path_2791" data-name="Path 2791" d="M2215.63,2439.01a.577.577,0,0,1-.574-.519,12.918,12.918,0,0,1,.33-4.145,4.794,4.794,0,0,1,3.264-3.318,58.986,58.986,0,0,1,13.38-2.5.577.577,0,0,1,.032,1.154,57.788,57.788,0,0,0-13.087,2.452,3.63,3.63,0,0,0-2.475,2.512,11.827,11.827,0,0,0-.3,3.727.577.577,0,0,1-.516.632Z" transform="translate(-2180.701 -2425.518)" fill="#91b3fa"/>
          <path id="Path_2792" data-name="Path 2792" d="M1958.2,2609.353c17.238-.22,91.806-1,113.466,1.61a4.409,4.409,0,0,1,3.791,3.415c1.28,5.786,3.855,19.228,3.55,32.552a3.861,3.861,0,0,1-3.162,3.682l-49.444,9.354h-17.563l-52.683-10.472a4.119,4.119,0,0,1-3.322-3.824c-.343-6.7-.878-22.432.935-32.556A4.559,4.559,0,0,1,1958.2,2609.353Z" transform="translate(-1952.489 -2582.462)" fill="#002158"/>
          <path id="Path_2793" data-name="Path 2793" d="M2035.691,2682.41a.281.281,0,0,1-.057-.005l-1.7-.337a.289.289,0,0,1,.113-.566l1.682.335.039,0h1.731a.288.288,0,0,1,0,.577h-1.731l-.04,0Zm13.349,0h-1.731a.288.288,0,1,1,0-.577h1.731a.288.288,0,1,1,0,.577Zm-5.769,0h-1.731a.288.288,0,1,1,0-.577h1.731a.288.288,0,0,1,0,.577Zm9.8-.12a.288.288,0,0,1-.054-.572l1.7-.322a.288.288,0,0,1,.107.567l-1.7.322A.315.315,0,0,1,2053.067,2682.291Zm-23.035-1a.266.266,0,0,1-.057-.006l-1.7-.337a.288.288,0,0,1,.113-.566l1.7.338a.288.288,0,0,1-.056.571Zm28.7-.068a.288.288,0,0,1-.053-.572l1.7-.322a.288.288,0,0,1,.107.567l-1.7.322A.3.3,0,0,1,2058.736,2681.218Zm-34.363-1.057a.284.284,0,0,1-.057-.006l-1.7-.337a.289.289,0,0,1,.113-.566l1.7.338a.288.288,0,0,1-.056.571Zm40.032-.015a.289.289,0,0,1-.054-.572l1.7-.322a.29.29,0,0,1,.337.23.287.287,0,0,1-.23.337l-1.7.322A.282.282,0,0,1,2064.405,2680.146Zm5.668-1.073a.289.289,0,0,1-.053-.572l1.7-.322a.288.288,0,0,1,.107.567l-1.7.322A.334.334,0,0,1,2070.074,2679.073Zm-51.36-.038a.265.265,0,0,1-.057-.006l-1.7-.337a.288.288,0,0,1,.113-.566l1.7.338a.288.288,0,0,1-.056.571Zm57.029-1.035a.288.288,0,0,1-.053-.572l1.7-.322a.288.288,0,0,1,.107.567l-1.7.322A.336.336,0,0,1,2075.743,2678Zm-62.687-.09a.277.277,0,0,1-.056-.006l-1.7-.337a.288.288,0,0,1,.112-.566l1.7.337a.289.289,0,0,1-.056.572Zm68.357-.983a.288.288,0,0,1-.053-.572l1.7-.322a.288.288,0,0,1,.107.567l-1.7.322A.327.327,0,0,1,2081.412,2676.928Zm-74.015-.142a.284.284,0,0,1-.057-.005l-1.7-.337a.288.288,0,1,1,.113-.566l1.7.337a.288.288,0,0,1-.056.571Zm79.684-.93a.288.288,0,0,1-.053-.572l1.7-.322a.288.288,0,0,1,.107.567l-1.7.322A.308.308,0,0,1,2087.081,2675.856Zm-85.343-.194a.283.283,0,0,1-.057-.006l-1.7-.338a.288.288,0,1,1,.113-.565l1.7.337a.288.288,0,0,1-.056.571Zm91.011-.879a.288.288,0,0,1-.053-.572l1.7-.322a.288.288,0,1,1,.107.567l-1.7.322A.29.29,0,0,1,2092.749,2674.783Zm-96.67-.247a.279.279,0,0,1-.057-.005l-1.7-.337a.289.289,0,0,1,.113-.566l1.7.338a.288.288,0,0,1-.056.571Zm102.34-.825a.288.288,0,0,1-.053-.572l1.7-.322a.288.288,0,1,1,.107.566l-1.7.322A.306.306,0,0,1,2098.419,2673.711Zm-108-.3a.28.28,0,0,1-.057-.006l-1.7-.338a.288.288,0,1,1,.113-.565l1.7.337a.289.289,0,0,1-.056.572Zm-5.659-1.125a.269.269,0,0,1-.057-.006l-1.466-.292-.034-.686a.288.288,0,0,1,.274-.3.275.275,0,0,1,.3.274l.011.235,1.026.2a.288.288,0,0,1-.056.571Zm116.435-2.053a.288.288,0,0,1-.289-.285q-.011-.864-.036-1.725a.289.289,0,0,1,.28-.3.3.3,0,0,1,.3.28q.025.866.036,1.735a.288.288,0,0,1-.285.292Zm-117.87-2.691a.288.288,0,0,1-.288-.279c-.019-.556-.037-1.135-.053-1.732a.289.289,0,0,1,.281-.3.3.3,0,0,1,.3.281c.016.6.034,1.174.052,1.729a.289.289,0,0,1-.278.3Zm117.643-3.072a.288.288,0,0,1-.288-.27q-.056-.868-.124-1.723a.289.289,0,0,1,.265-.31.285.285,0,0,1,.31.265q.067.86.124,1.732a.289.289,0,0,1-.269.307Zm-117.775-2.7a.288.288,0,0,1-.288-.285c-.006-.569-.011-1.148-.014-1.733a.288.288,0,0,1,.287-.29h0a.289.289,0,0,1,.289.288q0,.876.014,1.729a.289.289,0,0,1-.285.292Zm117.275-3.054a.288.288,0,0,1-.287-.257q-.094-.87-.2-1.717a.289.289,0,0,1,.252-.32.285.285,0,0,1,.321.252q.1.85.2,1.723a.288.288,0,0,1-.256.318ZM1983.2,2656h0a.289.289,0,0,1-.284-.293q.013-.864.035-1.733a.294.294,0,0,1,.3-.281.288.288,0,0,1,.281.3c-.015.577-.026,1.154-.035,1.728A.289.289,0,0,1,1983.2,2656ZM2099.737,2653a.288.288,0,0,1-.285-.247q-.129-.875-.261-1.709a.288.288,0,1,1,.57-.09q.132.837.262,1.716a.289.289,0,0,1-.244.327Zm-116.347-2.76h-.015a.287.287,0,0,1-.273-.3q.046-.871.1-1.732a.284.284,0,0,1,.307-.269.289.289,0,0,1,.269.307q-.057.856-.1,1.724A.289.289,0,0,1,1983.39,2650.236ZM2098.8,2647.3a.288.288,0,0,1-.283-.236q-.164-.894-.321-1.7a.289.289,0,1,1,.566-.111q.157.807.322,1.705a.289.289,0,0,1-.232.335A.346.346,0,0,1,2098.8,2647.3Zm-114.954-2.816-.032,0a.288.288,0,0,1-.255-.318c.065-.587.135-1.164.211-1.726a.283.283,0,0,1,.324-.247.288.288,0,0,1,.247.324q-.113.837-.209,1.711A.289.289,0,0,1,1983.842,2644.484Zm113.565-2.61h-.033q-.8-.093-1.716-.184a.289.289,0,0,1-.259-.316.292.292,0,0,1,.315-.259q.92.091,1.726.186a.288.288,0,0,1-.034.575Zm-5.746-.519h-.021q-.832-.06-1.724-.117a.288.288,0,0,1,.036-.576q.9.057,1.73.117a.288.288,0,0,1-.021.576Zm-5.759-.344h-.015q-.844-.043-1.728-.083a.288.288,0,1,1,.026-.576q.885.041,1.73.083a.288.288,0,0,1-.014.576Zm-5.764-.252h-.011l-1.729-.062a.289.289,0,0,1-.278-.3.3.3,0,0,1,.3-.279l1.731.063a.289.289,0,0,1-.011.577Zm-5.767-.192h-.009l-1.729-.049a.289.289,0,0,1-.281-.3.28.28,0,0,1,.3-.281l1.731.049a.289.289,0,0,1-.008.577Zm-5.768-.15h-.007l-1.73-.038a.288.288,0,0,1,.006-.577h.006l1.731.038a.288.288,0,0,1-.006.577Zm-5.769-.116h-.005l-1.73-.03a.288.288,0,0,1,0-.577h0l1.731.03a.288.288,0,0,1-.005.577Zm-76.748,0a.288.288,0,0,1,0-.576l1.732-.021h0a.288.288,0,0,1,0,.577l-1.732.021Zm5.772-.066a.289.289,0,0,1,0-.577l1.732-.017h0a.288.288,0,0,1,0,.577l-1.732.018Zm65.206-.024h0l-1.731-.023a.288.288,0,0,1,0-.577h0l1.73.022a.289.289,0,0,1,0,.577Zm-59.434-.032a.288.288,0,0,1,0-.577l1.732-.016h0a.289.289,0,0,1,0,.577l-1.732.015Zm53.665-.037h0l-1.73-.016a.288.288,0,0,1,0-.577h0l1.732.016a.288.288,0,0,1,0,.576Zm-47.894-.01a.288.288,0,0,1,0-.577l1.731-.012h0a.288.288,0,0,1,0,.576l-1.731.013Zm42.125-.039h0l-1.731-.011a.289.289,0,0,1,0-.577h0l1.731.011a.289.289,0,0,1,0,.577Zm-36.353,0a.289.289,0,0,1,0-.577l1.732-.009h0a.288.288,0,0,1,0,.577l-1.731.01Zm5.771-.029a.288.288,0,0,1,0-.577l1.731-.007h0a.288.288,0,0,1,0,.577l-1.731.007Zm24.812,0h0l-1.731-.007a.288.288,0,0,1,0-.577h0l1.731.007a.288.288,0,0,1,0,.577Zm-19.041-.015a.288.288,0,0,1,0-.577l1.732,0a.288.288,0,0,1,0,.577l-1.731,0Zm13.27,0h0l-1.731,0a.289.289,0,0,1,0-.577h0l1.731,0a.288.288,0,0,1,0,.577Zm-7.5-.005a.289.289,0,0,1,0-.577h1.725a.291.291,0,0,1,.291.289.286.286,0,0,1-.286.289h-1.731Z" transform="translate(-1978.918 -2608.878)" fill="#fff"/>
          <path id="Path_2794" data-name="Path 2794" d="M2364.721,2903.693h-15.387a3.975,3.975,0,0,1-3.954-3.493l-1.778-14.806a3.97,3.97,0,0,1,3.954-4.434h18.485a3.971,3.971,0,0,1,3.966,4.314l-1.32,14.806A3.974,3.974,0,0,1,2364.721,2903.693Z" transform="translate(-2292.459 -2818.816)" fill="url(#linear-gradient-47)"/>
          <path id="Path_2795" data-name="Path 2795" d="M2380.071,2913.572h-13.029a3.366,3.366,0,0,1-3.348-2.958l-1.5-12.537a3.361,3.361,0,0,1,3.348-3.754h15.652a3.362,3.362,0,0,1,3.358,3.652l-1.118,12.537A3.365,3.365,0,0,1,2380.071,2913.572Z" transform="translate(-2308.62 -2830.432)" fill="#002158"/>
        </g>
      </g>
    </g>
    <line id="Line_101" data-name="Line 101" x2="925" transform="translate(174 557.5)" fill="none" stroke="#2b1656" stroke-miterlimit="10" stroke-width="0.879"/>
  </g>
</svg>
