<svg xmlns="http://www.w3.org/2000/svg" width="47.316" height="31" viewBox="0 0 47.316 31">
  <g id="saudi-arabia" transform="translate(0 -88.276)">
    <path id="Path_1214" data-name="Path 1214" d="M43.772,119.276H3.544A3.544,3.544,0,0,1,0,115.732V91.82a3.544,3.544,0,0,1,3.544-3.544H43.772a3.544,3.544,0,0,1,3.544,3.544v23.913A3.544,3.544,0,0,1,43.772,119.276Z" transform="translate(0)" fill="#73af00"/>
    <g id="Group_55301" data-name="Group 55301" transform="translate(9.355 94.802)">
      <path id="Path_1215" data-name="Path 1215" d="M102.544,169.415c.08.515.392.677.663.656a.666.666,0,0,0,.6-.625v-1.769a.161.161,0,0,1,.322,0v1.776a.643.643,0,0,0,.882.6l.161-.064c.015,1.485-.076,2.789-.077,2.813a.322.322,0,0,0,.3.344h.023a.322.322,0,0,0,.32-.3c.007-.1.107-1.533.077-3.116l.1-.039a.323.323,0,0,1,.263.011.919.919,0,0,0,1.06-.172l.058-.058a.96.96,0,0,0,.233-.987l-.274-.821a.322.322,0,0,0,.238-.6l-.643-.322a.322.322,0,0,0-.449.389l.517,1.552a.32.32,0,0,1-.078.329l-.058.058a.276.276,0,0,1-.318.051.961.961,0,0,0-.668-.067,11.091,11.091,0,0,0-.393-2.771.322.322,0,0,0-.61.2,11.056,11.056,0,0,1,.368,2.807l-.385.154v-1.776a.8.8,0,1,0-1.608,0v1.557l-.328-1.62a.322.322,0,1,0-.63.128Z" transform="translate(-102.109 -165.406)" fill="#f5f5f5"/>
      <path id="Path_1216" data-name="Path 1216" d="M109.482,163.559a.321.321,0,0,0,.322-.322v-.322a.322.322,0,1,0-.643,0v.322A.322.322,0,0,0,109.482,163.559Z" transform="translate(-108.427 -162.252)" fill="#f5f5f5"/>
      <path id="Path_1217" data-name="Path 1217" d="M144.279,163.237h.322a.322.322,0,1,0,0-.643h-.322a.322.322,0,1,0,0,.643Z" transform="translate(-140.008 -162.252)" fill="#f5f5f5"/>
      <path id="Path_1218" data-name="Path 1218" d="M107.443,214.835l-1.608.965a.322.322,0,1,0,.331.551l1.608-.965a.322.322,0,1,0-.331-.551Z" transform="translate(-105.267 -209.624)" fill="#f5f5f5"/>
      <path id="Path_1219" data-name="Path 1219" d="M121.183,171.189l.008-.005a.734.734,0,0,0,.148.3.632.632,0,0,0,.548.213.887.887,0,0,0,.669-.352.589.589,0,0,0,.068.04.609.609,0,0,0,.566-.018,1.221,1.221,0,0,0,.576-1.132.329.329,0,0,0-.335-.3.323.323,0,0,0-.308.334s.007.386-.226.527a.783.783,0,0,1-.1-.271.322.322,0,0,0-.639.053c0,.047-.011.459-.329.494a.785.785,0,0,1,0-.421.322.322,0,0,0-.494-.34l-.179.122c-.085-1.865-.282-4.038-.284-4.066a.322.322,0,1,0-.641.059c0,.03.23,2.544.3,4.464l-.049.048a.829.829,0,0,0-.7-.553,1.174,1.174,0,0,0-1.133.717.761.761,0,0,0,.246.959,1.072,1.072,0,0,0,.959.044,2.689,2.689,0,0,1-.523.991,1.349,1.349,0,0,1-1.027.524.845.845,0,0,1-.625-.266,1.836,1.836,0,0,1-.34-1.151.321.321,0,0,0-.3-.338.315.315,0,0,0-.339.3,2.466,2.466,0,0,0,.5,1.616,1.475,1.475,0,0,0,1.077.478h.065a1.959,1.959,0,0,0,1.476-.748,3.326,3.326,0,0,0,.736-1.648,3.644,3.644,0,0,1-1.543,2.887,1.606,1.606,0,0,1-1.611.118,1.379,1.379,0,0,1-.708-1.36.322.322,0,1,0-.638-.08,2.019,2.019,0,0,0,1.061,2.016,2.186,2.186,0,0,0,.974.232,2.38,2.38,0,0,0,1.261-.38,4.275,4.275,0,0,0,1.847-3.436C121.193,171.653,121.189,171.427,121.183,171.189Zm-1.939.331c-.057-.038-.013-.16,0-.184a.547.547,0,0,1,.449-.316h.026c.041,0,.15.014.2.257,0,.026.009.052.013.079C119.567,171.568,119.326,171.575,119.243,171.52Z" transform="translate(-114.671 -165.409)" fill="#f5f5f5"/>
      <path id="Path_1220" data-name="Path 1220" d="M102.442,243.964a.322.322,0,0,0-.44.114.659.659,0,0,1-.054.076l-.01-.026a2.163,2.163,0,0,1,.01-1.091.322.322,0,0,0-.621-.166,2.769,2.769,0,0,0,.009,1.483c.148.393.374.492.538.506l.043,0a.845.845,0,0,0,.641-.459A.321.321,0,0,0,102.442,243.964Z" transform="translate(-101.225 -234.895)" fill="#f5f5f5"/>
      <path id="Path_1221" data-name="Path 1221" d="M175.451,165.488a.319.319,0,0,0,.2-.069l1.621-1.273a.309.309,0,0,0,.053-.062.805.805,0,1,0-.924-.071l-1.147.9a.321.321,0,0,0,.2.574Zm1.46-2.251a.161.161,0,1,1-.161.161A.161.161,0,0,1,176.911,163.237Z" transform="translate(-168.299 -162.252)" fill="#f5f5f5"/>
      <path id="Path_1222" data-name="Path 1222" d="M185.624,190.448a.321.321,0,0,0-.407.2.983.983,0,0,0,.125.948.649.649,0,0,0,.48.183,1.412,1.412,0,0,0,.444-.082.322.322,0,1,0-.2-.61,1.115,1.115,0,0,1-.263.056.616.616,0,0,1,.027-.294A.321.321,0,0,0,185.624,190.448Z" transform="translate(-177.393 -187.517)" fill="#f5f5f5"/>
      <path id="Path_1223" data-name="Path 1223" d="M227.847,163.721a.322.322,0,0,0,.4-.219l.188-.643a.322.322,0,1,0-.617-.18l-.188.643A.322.322,0,0,0,227.847,163.721Z" transform="translate(-215.935 -162.119)" fill="#f5f5f5"/>
      <path id="Path_1224" data-name="Path 1224" d="M206.164,160.461a.322.322,0,1,0,.325-.555c-.065-.038-.056-.144-.054-.165a.253.253,0,0,1,.148-.215.322.322,0,0,0-.191-.614.883.883,0,0,0-.6.756A.793.793,0,0,0,206.164,160.461Z" transform="translate(-196.126 -158.897)" fill="#f5f5f5"/>
      <path id="Path_1225" data-name="Path 1225" d="M179.076,232.189a.322.322,0,0,0-.06.637.6.6,0,0,1,.06.327.322.322,0,0,0,.643,0C179.719,232.2,179.1,232.189,179.076,232.189Z" transform="translate(-171.589 -225.416)" fill="#f5f5f5"/>
      <path id="Path_1226" data-name="Path 1226" d="M235.063,208.749a.743.743,0,0,0,.121.01,1.1,1.1,0,0,0,.761-.38.322.322,0,0,0-.455-.455c-.192.192-.3.2-.322.191-.061-.009-.117-.089-.129-.111a.322.322,0,0,0-.573.291A.869.869,0,0,0,235.063,208.749Z" transform="translate(-222.121 -203.308)" fill="#f5f5f5"/>
      <path id="Path_1227" data-name="Path 1227" d="M294.217,191.047l-.006-.014a.322.322,0,0,0-.609.206.72.72,0,0,0,.523.5.54.54,0,0,0,.071,0,.787.787,0,0,0,.622-.429.322.322,0,0,0-.535-.357A.973.973,0,0,1,294.217,191.047Z" transform="translate(-275.809 -187.865)" fill="#f5f5f5"/>
      <path id="Path_1228" data-name="Path 1228" d="M208.313,174.427c0-1.371-.06-2.658-.144-3.785a16.283,16.283,0,0,1,1.129,2.29.322.322,0,0,0,.3.209.325.325,0,0,0,.113-.02.322.322,0,0,0,.188-.414,21.3,21.3,0,0,0-1.86-3.525c-.176-1.732-.373-2.832-.376-2.851a.322.322,0,0,0-.633.115c0,.014.1.58.225,1.534-.247-.367-.476-.7-.669-.97l.016.005a.321.321,0,1,0,.2-.61l-.965-.322a.32.32,0,0,0-.363.117.323.323,0,0,0-.047.1.7.7,0,0,0-.671-.161.547.547,0,0,0-.307.572,2.906,2.906,0,0,0,.222.911c.189.536.308.931.107,1.119a.352.352,0,0,1-.33.116c-.2-.05-.395-.314-.525-.707a.3.3,0,0,0-.026-.045,5.468,5.468,0,0,0-.1-1.779.322.322,0,0,0-.631.126,3.061,3.061,0,0,1-.168,2.292.577.577,0,0,1-.481.218.185.185,0,0,1-.154-.072,3.1,3.1,0,0,1-.171-1.813.322.322,0,0,0-.318-.367c-.553,0-.763.629-.948,1.185-.081.244-.233.7-.338.745-.195,0-.32-.572-.322-.965a.322.322,0,0,0-.322-.321h0a.321.321,0,0,0-.321.321c0,.742.253,1.608.965,1.608.53,0,.745-.578.925-1.115a2.016,2.016,0,0,0,.365,1.143.825.825,0,0,0,.64.294,1.223,1.223,0,0,0,.978-.453,1.476,1.476,0,0,0,.119-.177,1.2,1.2,0,0,0,.674.506.927.927,0,0,0,.227.029,1.02,1.02,0,0,0,.7-.3.943.943,0,0,0,.107-.13.867.867,0,0,0,.238.036,1.3,1.3,0,0,0,.667-.2.322.322,0,0,0-.345-.542.683.683,0,0,1-.364.1,3.319,3.319,0,0,0-.244-1.057,4.473,4.473,0,0,1-.166-.538c.027.022.052.046.076.068a.321.321,0,0,0,.455,0,.309.309,0,0,0,.047-.07c.333.459,1.019,1.424,1.724,2.536.135,1.367.253,3.111.253,5.024a.322.322,0,0,0,.643,0Z" transform="translate(-190.536 -165.403)" fill="#f5f5f5"/>
      <path id="Path_1229" data-name="Path 1229" d="M293.908,167.361a.322.322,0,0,0,.643,0,3.278,3.278,0,0,0-.356-1.109.322.322,0,0,0-.575.288A2.855,2.855,0,0,1,293.908,167.361Z" transform="translate(-275.809 -165.412)" fill="#f5f5f5"/>
      <path id="Path_1230" data-name="Path 1230" d="M264.022,250.267a.321.321,0,0,0-.432.142.923.923,0,0,1-.133.191,1.8,1.8,0,0,1,.085-.595.322.322,0,0,0-.535-.322l-.643.643a.322.322,0,0,0,.455.455l.016-.016a.665.665,0,0,0,.172.338.588.588,0,0,0,.418.184.57.57,0,0,0,.088-.007,1.047,1.047,0,0,0,.652-.582A.321.321,0,0,0,264.022,250.267Z" transform="translate(-247.387 -241.208)" fill="#f5f5f5"/>
      <path id="Path_1231" data-name="Path 1231" d="M175.464,206.621H173.2q.03-.12.062-.229c.9-.188,1.441-.48,1.6-.869a.719.719,0,0,0-.121-.722.8.8,0,0,0-.813-.347c-.457.093-.864.585-1.156,1.373a3.7,3.7,0,0,0-1.857.8,4.983,4.983,0,0,0-.667-2.138.322.322,0,0,0-.535.357,4.644,4.644,0,0,1,.589,2.394,2.545,2.545,0,0,1-1.929,2.573c-.361,0-.519-.429-.589-.792a3.693,3.693,0,0,0,1.544-1.7,2.557,2.557,0,0,0-.214-1.743l-.024-.056.02.019a.321.321,0,1,0,.455-.455c-.188-.188-.553-.484-.885-.345a.547.547,0,0,0-.307.572,1.368,1.368,0,0,0,.15.517,1.944,1.944,0,0,1,.181,1.335,2.721,2.721,0,0,1-1.053,1.161.316.316,0,0,0-.243-.118h0a.321.321,0,0,0-.321.321c0,.058,0,.12.006.183a16.91,16.91,0,0,1-2.069,1.132.322.322,0,0,0,.133.614.317.317,0,0,0,.133-.029,18.526,18.526,0,0,0,1.921-1.028,1.251,1.251,0,0,0,1.162,1.057,2.732,2.732,0,0,0,2.152-1.573,1.872,1.872,0,0,0,.215.307,3.625,3.625,0,0,0,2.457.944.322.322,0,0,0,.023-.642.688.688,0,0,1-.4-.2.551.551,0,0,1-.105-.422c.033-.4,1.311-.693,2.438-.71a.322.322,0,0,0,.3-.214l.322-.9a.322.322,0,0,0-.3-.429Zm-1.412-1.536a.117.117,0,0,1,.025,0c.031,0,.079.015.144.1.012.016.051.072.042.1-.037.091-.259.241-.722.378C173.744,205.262,173.943,205.107,174.052,205.085Zm-1.942,4.227a1.969,1.969,0,0,1-.89-.541,1.367,1.367,0,0,1-.285-1.132A.944.944,0,0,1,171,207.5c.453-.042,1.663.137,1.746.483a1.08,1.08,0,0,0-.68.839A1.355,1.355,0,0,0,172.11,209.312Z" transform="translate(-158.953 -200.149)" fill="#f5f5f5"/>
      <path id="Path_1232" data-name="Path 1232" d="M292.663,167.255l-.322-.965a.322.322,0,0,0-.625.134c.222,2.219.642,6.546.642,7.043,0,.446-.793,1.323-2.073,1.963a.322.322,0,0,0,.288.575c1.17-.585,2.429-1.629,2.429-2.539,0-.475-.329-3.894-.517-5.814A.322.322,0,0,0,292.663,167.255Z" transform="translate(-272.652 -165.407)" fill="#f5f5f5"/>
      <path id="Path_1233" data-name="Path 1233" d="M336.4,194.8a.322.322,0,0,0,.539-.307,1.623,1.623,0,0,1-.046-.624.326.326,0,0,0,.334-.276.322.322,0,0,0-.273-.364.58.58,0,0,0-.53.179.736.736,0,0,0-.162.345l-.372-.372a.322.322,0,0,0-.455.455Z" transform="translate(-313.71 -190.048)" fill="#f5f5f5"/>
      <path id="Path_1234" data-name="Path 1234" d="M341.469,213.324l-1.206.864a.322.322,0,1,0,.375.523l1.206-.864a.322.322,0,1,0-.375-.523Z" transform="translate(-318.051 -208.239)" fill="#f5f5f5"/>
      <path id="Path_1235" data-name="Path 1235" d="M352.81,225.786a.322.322,0,0,0,.028.426.892.892,0,0,1,.065.463.322.322,0,0,0,.31.333h.012a.322.322,0,0,0,.321-.31c.023-.656-.191-.9-.285-.969A.322.322,0,0,0,352.81,225.786Z" transform="translate(-329.499 -219.492)" fill="#f5f5f5"/>
      <path id="Path_1236" data-name="Path 1236" d="M327.191,174.076a.321.321,0,0,0,.322-.322c0-.474-.024-1-.064-1.555a11.729,11.729,0,0,1,.754,1.4.321.321,0,0,0,.3.195.317.317,0,0,0,.127-.026.321.321,0,0,0,.169-.422,17.682,17.682,0,0,0-1.471-2.537c-.126-1.18-.291-2.337-.419-3.166a.311.311,0,0,0,.2-.05.317.317,0,0,0,.142-.291.311.311,0,0,0,.036.092,1.17,1.17,0,0,1,.117.787.322.322,0,0,0,.25.38.34.34,0,0,0,.065.007.322.322,0,0,0,.315-.257,1.823,1.823,0,0,0-.2-1.263.323.323,0,0,0-.444-.1.318.318,0,0,0-.144.291.315.315,0,0,0-.036-.093l-.543-.844a.322.322,0,0,0-.587.23c0,.025.25,1.436.468,3.137-.247-.348-.493-.689-.732-1.013-.039-.487-.078-.936-.112-1.308a.326.326,0,0,0,.052-.021.322.322,0,0,0,.144-.431l-.322-.643a.322.322,0,0,0-.608.176c.038.384.078.809.117,1.255-.2-.268-.392-.514-.553-.721a.322.322,0,0,0-.066-.532l-.643-.322a.322.322,0,0,0-.395.489c.017.022.809,1.014,1.756,2.3a25.854,25.854,0,0,1,.119,4.8c-.028.085-.078.185-.124.188-.194.027-.658-.408-.891-.873a.448.448,0,0,0-.431-.291c-.346.021-.48.4-.726,1.092a4.529,4.529,0,0,1-.639,1.361,3.652,3.652,0,0,1-.4-1.266.32.32,0,0,0,.621-.108c0-.48-.335-4.132-.523-6.133a.321.321,0,0,0,.185-.4l-.322-.965a.322.322,0,0,0-.625.132c.219,2.294.628,6.725.641,7.337l0-.016a.322.322,0,1,0-.637.091c.094.657.334,1.787.887,1.972a.537.537,0,0,0,.171.028.632.632,0,0,0,.453-.21,4.636,4.636,0,0,0,.8-1.607c.047-.133.1-.291.156-.426.295.431.81.967,1.331.925a.789.789,0,0,0,.688-.626,18.111,18.111,0,0,0-.012-4.015c.271.38.542.769.8,1.153.1.963.172,1.928.172,2.72A.321.321,0,0,0,327.191,174.076Z" transform="translate(-301.073 -165.413)" fill="#f5f5f5"/>
      <path id="Path_1237" data-name="Path 1237" d="M383.848,172.776c-.228-1.7-.545-3.663-.746-4.87a.316.316,0,0,0,.269-.057.321.321,0,0,0,.061-.451l-.583-.764a.322.322,0,0,0-.572.25c.006.033.579,3.334.934,5.976a3.014,3.014,0,0,1-.529,2.413,1.423,1.423,0,0,1-1.18.44.322.322,0,1,0-.04.642c.054,0,.108.005.161.005a2.03,2.03,0,0,0,1.53-.648A3.591,3.591,0,0,0,383.848,172.776Z" transform="translate(-355.289 -165.805)" fill="#f5f5f5"/>
      <path id="Path_1238" data-name="Path 1238" d="M371.1,256.235a.326.326,0,0,0,.016.452.135.135,0,0,1,.038.067.151.151,0,0,1-.049.072.322.322,0,1,0,.455.455.729.729,0,0,0,.237-.549.765.765,0,0,0-.252-.524A.319.319,0,0,0,371.1,256.235Z" transform="translate(-346.081 -247.144)" fill="#f5f5f5"/>
      <path id="Path_1239" data-name="Path 1239" d="M163.895,327.263h-2.251v-.322a.322.322,0,1,0-.643,0v.322H143.957a4.489,4.489,0,0,0,2.894.965H161v.643a.322.322,0,0,0,.322.322h2.573a.965.965,0,1,0,0-1.93Zm0,1.286h-2.251v-.322h2.573l-.058-.173a.312.312,0,0,1,.058.173A.322.322,0,0,1,163.895,328.549Z" transform="translate(-140.008 -311.12)" fill="#f5f5f5"/>
    </g>
  </g>
</svg>
