<svg xmlns="http://www.w3.org/2000/svg" width="47.532" height="58.609" viewBox="0 0 47.532 58.609">
  <g id="search" transform="matrix(0.966, 0.259, -0.259, 0.966, 11.353, 0)" opacity="0.2">
    <path id="Path_2923" data-name="Path 2923" d="M21.97,31.939a9.97,9.97,0,1,1,9.97-9.97A9.981,9.981,0,0,1,21.97,31.939Zm0-17.945a7.976,7.976,0,1,0,7.976,7.976A7.984,7.984,0,0,0,21.97,13.994Z" transform="translate(11.927 11.927)" fill="#002158"/>
    <path id="Path_2924" data-name="Path 2924" d="M27.047,28.042a1,1,0,0,1-.706-.291l-6.117-6.117a1,1,0,0,1,1.41-1.41l6.117,6.117a1,1,0,0,1-.7,1.7Z" transform="translate(19.81 19.811)" fill="#002158"/>
    <path id="Path_2925" data-name="Path 2925" d="M32.9,19.939a1,1,0,0,1-1-1V9.97H4.985a4.985,4.985,0,0,1,0-9.97H28.912a1,1,0,0,1,1,1V7.976H32.9a1,1,0,0,1,1,1v9.97A1,1,0,0,1,32.9,19.939ZM4.985,1.994a2.991,2.991,0,0,0,0,5.982h22.93V1.994Z" fill="#002158"/>
    <path id="Path_2926" data-name="Path 2926" d="M22.93,41.878H4.985A4.992,4.992,0,0,1,0,36.894V3A1,1,0,0,1,1.994,3v33.9a3,3,0,0,0,2.991,2.991H22.93a1,1,0,1,1,0,1.994Z" transform="translate(0 1.988)" fill="#002158"/>
  </g>
</svg>
