<svg xmlns="http://www.w3.org/2000/svg" width="59.93" height="59.93" viewBox="0 0 59.93 59.93">
  <g id="settings" transform="matrix(0.966, -0.259, 0.259, 0.966, 0, 12.665)" opacity="0.2">
    <g id="Group_57251" data-name="Group 57251" transform="translate(0 0)">
      <path id="Path_2927" data-name="Path 2927" d="M26.75,48.933H22.183a3.054,3.054,0,0,1-3.03-2.691l-.487-3.825a19.267,19.267,0,0,1-2.8-1.16l-3.046,2.367a3.041,3.041,0,0,1-4.047-.257L5.56,40.155a3.033,3.033,0,0,1-.249-4.035l2.367-3.048a18.824,18.824,0,0,1-1.16-2.8l-3.833-.487A3.06,3.06,0,0,1,0,26.75V22.183a3.054,3.054,0,0,1,2.691-3.03l3.825-.487a19.267,19.267,0,0,1,1.16-2.8L5.311,12.818A3.04,3.04,0,0,1,5.57,8.769L8.781,5.558a3.035,3.035,0,0,1,4.035-.249l3.046,2.369a19.2,19.2,0,0,1,2.8-1.16l.487-3.833A3.053,3.053,0,0,1,22.183,0H26.75a3.054,3.054,0,0,1,3.03,2.691l.487,3.825a19.2,19.2,0,0,1,2.8,1.16l3.046-2.367a3.039,3.039,0,0,1,4.047.259l3.211,3.211a3.033,3.033,0,0,1,.249,4.035l-2.367,3.048a18.823,18.823,0,0,1,1.16,2.8l3.833.487a3.057,3.057,0,0,1,2.683,3.032V26.75a3.054,3.054,0,0,1-2.691,3.03l-3.825.487a19.268,19.268,0,0,1-1.16,2.8l2.367,3.046a3.037,3.037,0,0,1-.259,4.047l-3.211,3.211a3.031,3.031,0,0,1-4.035.249L33.07,41.254a18.823,18.823,0,0,1-2.8,1.16l-.487,3.833a3.057,3.057,0,0,1-3.032,2.685ZM15.76,39.024a1.034,1.034,0,0,1,.5.128,17.113,17.113,0,0,0,3.617,1.5,1.018,1.018,0,0,1,.73.85l.571,4.485a1.031,1.031,0,0,0,1.007.905H26.75a1.027,1.027,0,0,0,1.005-.9l.573-4.494a1.018,1.018,0,0,1,.73-.85,17.113,17.113,0,0,0,3.617-1.5,1.017,1.017,0,0,1,1.121.086l3.568,2.773a1,1,0,0,0,1.335-.069l3.232-3.232a1.008,1.008,0,0,0,.08-1.346L39.238,33.8a1.018,1.018,0,0,1-.086-1.121,17.113,17.113,0,0,0,1.5-3.617,1.018,1.018,0,0,1,.85-.73l4.485-.571a1.034,1.034,0,0,0,.905-1.009V22.183a1.027,1.027,0,0,0-.9-1.005L41.505,20.6a1.018,1.018,0,0,1-.85-.73,17.113,17.113,0,0,0-1.5-3.617,1.014,1.014,0,0,1,.086-1.121l2.773-3.568a1,1,0,0,0-.067-1.333L38.714,7a1,1,0,0,0-1.346-.08L33.8,9.7a1.021,1.021,0,0,1-1.123.086,17.042,17.042,0,0,0-3.617-1.5,1.018,1.018,0,0,1-.73-.85l-.571-4.485a1.034,1.034,0,0,0-1.009-.907H22.183a1.027,1.027,0,0,0-1.005.9L20.6,7.428a1.023,1.023,0,0,1-.73.852,17.037,17.037,0,0,0-3.617,1.5,1.021,1.021,0,0,1-1.123-.084L11.566,6.922a1,1,0,0,0-1.333.067L7,10.223a1.008,1.008,0,0,0-.08,1.346l2.773,3.568a1.018,1.018,0,0,1,.086,1.121,17.007,17.007,0,0,0-1.5,3.617,1.018,1.018,0,0,1-.85.73l-4.485.571a1.031,1.031,0,0,0-.905,1.007V26.75a1.027,1.027,0,0,0,.9,1.005l4.494.573a1.018,1.018,0,0,1,.85.73,17.113,17.113,0,0,0,1.5,3.617A1.014,1.014,0,0,1,9.693,33.8L6.92,37.364A1,1,0,0,0,6.987,38.7l3.232,3.232a1.008,1.008,0,0,0,1.346.08l3.568-2.773a1.05,1.05,0,0,1,.628-.212Z" transform="translate(0 0)" fill="#002158"/>
    </g>
    <g id="Group_57252" data-name="Group 57252" transform="translate(14.272 14.272)">
      <path id="Path_2928" data-name="Path 2928" d="M17.194,27.389A10.194,10.194,0,1,1,27.389,17.194,10.206,10.206,0,0,1,17.194,27.389Zm0-18.35a8.155,8.155,0,1,0,8.155,8.155A8.164,8.164,0,0,0,17.194,9.039Z" transform="translate(-7 -7)" fill="#002158"/>
    </g>
  </g>
</svg>
