<svg xmlns="http://www.w3.org/2000/svg" width="85" height="122.387" viewBox="0 0 85 122.387">
  <g id="skill" transform="translate(-78.204)">
    <path id="Path_1002" data-name="Path 1002" d="M187.958,74.672a4.427,4.427,0,0,0-4.422-4.422h-.3a.852.852,0,0,1-.815-.646,26.512,26.512,0,0,0-2.109-5.284.855.855,0,0,1,.132-1.013l.151-.151a4.427,4.427,0,0,0,0-6.254l-3.534-3.534a4.42,4.42,0,0,0-6.254,0l-.033.033a.853.853,0,0,1-1.031.122,26.5,26.5,0,0,0-5.446-2.286.833.833,0,0,1-.585-.807,4.427,4.427,0,0,0-4.422-4.422h-5a4.429,4.429,0,0,0-4.422,4.432.829.829,0,0,1-.584.8,26.511,26.511,0,0,0-5.446,2.286.854.854,0,0,1-1.033-.124l-.031-.031a4.421,4.421,0,0,0-6.253,0L132.992,56.9a4.42,4.42,0,0,0,0,6.254l.151.151a.856.856,0,0,1,.131,1.013,26.479,26.479,0,0,0-2.109,5.284.853.853,0,0,1-.815.646h-.3a4.427,4.427,0,0,0-4.422,4.422v5a4.427,4.427,0,0,0,4.422,4.422h.533a.856.856,0,0,1,.808.619,26.513,26.513,0,0,0,2.186,5.067.819.819,0,0,1-.153.974l-.435.435a4.42,4.42,0,0,0,0,6.254l3.534,3.534a4.419,4.419,0,0,0,6.253,0l.553-.553a.821.821,0,0,1,.957-.161,26.511,26.511,0,0,0,5,2.043.836.836,0,0,1,.581.81v.8a4.427,4.427,0,0,0,4.422,4.422h5a4.427,4.427,0,0,0,4.422-4.422v-.8a.837.837,0,0,1,.581-.81,26.513,26.513,0,0,0,5-2.043.822.822,0,0,1,.958.161l.553.553a4.42,4.42,0,0,0,6.254,0l3.534-3.534a4.427,4.427,0,0,0,0-6.254l-.435-.435a.82.82,0,0,1-.153-.974A26.511,26.511,0,0,0,182.2,84.71a.856.856,0,0,1,.808-.619h.533a4.427,4.427,0,0,0,4.422-4.422v-5Zm-3.585,5a.838.838,0,0,1-.837.837H183a4.425,4.425,0,0,0-4.23,3.135,22.894,22.894,0,0,1-1.89,4.381,4.417,4.417,0,0,0,.744,5.265l.435.435a.838.838,0,0,1,0,1.183l-3.534,3.534a.837.837,0,0,1-1.184,0l-.553-.553a4.431,4.431,0,0,0-5.18-.79,22.927,22.927,0,0,1-4.325,1.766,4.441,4.441,0,0,0-3.157,4.25v.8a.838.838,0,0,1-.837.837h-5a.838.838,0,0,1-.837-.837v-.8a4.441,4.441,0,0,0-3.157-4.25,22.919,22.919,0,0,1-4.325-1.766,4.325,4.325,0,0,0-2.037-.505,4.45,4.45,0,0,0-3.142,1.294l-.553.553a.837.837,0,0,1-1.183,0L135.526,94.9a.837.837,0,0,1,0-1.183l.435-.435a4.417,4.417,0,0,0,.744-5.264,22.934,22.934,0,0,1-1.89-4.381,4.425,4.425,0,0,0-4.23-3.135h-.533a.838.838,0,0,1-.837-.837v-5a.838.838,0,0,1,.837-.837h.3a4.459,4.459,0,0,0,4.268-3.268A22.909,22.909,0,0,1,136.441,66a4.422,4.422,0,0,0-.764-5.228l-.151-.151a.837.837,0,0,1,0-1.183L139.06,55.9a.837.837,0,0,1,1.185,0l.031.031a4.463,4.463,0,0,0,5.313.717,22.91,22.91,0,0,1,4.709-1.977,4.437,4.437,0,0,0,3.16-4.247.838.838,0,0,1,.837-.837h5a.84.84,0,0,1,.837.847,4.434,4.434,0,0,0,3.161,4.237A22.906,22.906,0,0,1,168,56.653a4.464,4.464,0,0,0,5.313-.717l.033-.033a.837.837,0,0,1,1.183,0l3.534,3.534a.838.838,0,0,1,0,1.183l-.151.151A4.422,4.422,0,0,0,177.147,66a22.9,22.9,0,0,1,1.823,4.568,4.459,4.459,0,0,0,4.269,3.268h.3a.838.838,0,0,1,.837.837v5Z" transform="translate(-36.09 -35.01)" fill="#42b39a"/>
    <path id="Path_1003" data-name="Path 1003" d="M196.312,96.26a18.749,18.749,0,1,0,18.749,18.749A18.771,18.771,0,0,0,196.312,96.26Zm0,33.914a15.117,15.117,0,0,1-10.832-4.567,12.883,12.883,0,0,1,7.092-5.36,8.033,8.033,0,0,0,7.479,0,12.882,12.882,0,0,1,7.093,5.36A15.118,15.118,0,0,1,196.312,130.174Zm-4.474-17.062a4.474,4.474,0,1,1,4.474,4.474A4.479,4.479,0,0,1,191.839,113.111Zm17.584,9.5a16.469,16.469,0,0,0-6.386-5.069,8.059,8.059,0,1,0-13.448,0,16.468,16.468,0,0,0-6.387,5.069,15.164,15.164,0,1,1,26.22,0Z" transform="translate(-75.608 -73.25)" fill="#fc8e0b"/>
    <path id="Path_1004" data-name="Path 1004" d="M199.384,12.339a42.407,42.407,0,0,0-56.462-2.994,1.793,1.793,0,1,0,2.244,2.8A38.881,38.881,0,0,1,208.356,42.5a38.488,38.488,0,0,1-8.522,24.3,1.793,1.793,0,1,0,2.8,2.241,42.5,42.5,0,0,0-3.248-56.707Z" transform="translate(-48.738 0)" fill="#42b39a"/>
    <path id="Path_1005" data-name="Path 1005" d="M148.18,120.163a1.793,1.793,0,0,0-2.506.386,55.552,55.552,0,0,0-6.161,10.743H101.921a54.717,54.717,0,0,0-9.916-15.3,38.816,38.816,0,0,1-1.283-51.016,1.793,1.793,0,1,0-2.763-2.285,42.4,42.4,0,0,0,1.4,55.723,51.144,51.144,0,0,1,9.007,13.716,6.184,6.184,0,0,0-1.253,9.757,6.181,6.181,0,0,0,0,8.8,6.189,6.189,0,0,0,4.352,10.592h.114v.5A7.826,7.826,0,0,0,109.4,169.6h22.607a7.826,7.826,0,0,0,7.817-7.817v-.5h.114a6.189,6.189,0,0,0,4.352-10.592,6.181,6.181,0,0,0,0-8.8,6.184,6.184,0,0,0-1.235-9.747,51.987,51.987,0,0,1,5.509-9.468,1.793,1.793,0,0,0-.386-2.506ZM136.24,161.778a4.237,4.237,0,0,1-4.232,4.232H109.4a4.237,4.237,0,0,1-4.232-4.232v-.5H136.24v.5Zm-23.382-9.3h27.081a2.607,2.607,0,1,1,0,5.214h-38.47a2.607,2.607,0,0,1,0-5.214h3.008a1.793,1.793,0,0,0,0-3.585h-3.008a2.607,2.607,0,0,1,0-5.214h38.47a2.607,2.607,0,1,1,0,5.214H112.858a1.793,1.793,0,0,0,0,3.585Zm27.081-12.385h-38.47a2.606,2.606,0,0,1-.48-5.168c.038-.005.077-.01.116-.018a2.621,2.621,0,0,1,.365-.029h38.47a2.587,2.587,0,0,1,.382.031c.04.008.08.013.12.018a2.607,2.607,0,0,1-.5,5.165Z" transform="translate(0 -47.208)" fill="#42b39a"/>
  </g>
</svg>
