<svg id="social-care" xmlns="http://www.w3.org/2000/svg" width="124.18" height="119.331" viewBox="0 0 124.18 119.331">
  <path id="Path_2807" data-name="Path 2807" d="M52.182,179.146v-4.852c0-.019,0-.038,0-.057a48.472,48.472,0,0,0-1.257-11.683c-2.456-9.2-7.781-14.276-17.8-16.981a3.841,3.841,0,0,1-.88-.253c-.208-.119-.353-.448-.473-.644l-6.315-10.25a8.33,8.33,0,0,0-5.2-3.768l-1.515-19.553a8.391,8.391,0,0,0-8.174-8.017h-.018a8.317,8.317,0,0,0-8.189,8.022l-.866,12.88a2.425,2.425,0,1,0,4.84.325l.866-12.88a3.523,3.523,0,0,1,3.35-3.5h.007a3.564,3.564,0,0,1,3.349,3.542L15.4,130.936a8.412,8.412,0,0,0-4.261,12.292l10.237,16.62a2.425,2.425,0,0,0,4.13-2.544L15.274,140.686a3.546,3.546,0,0,1,3.845-5.31,3.514,3.514,0,0,1,2.2,1.591l6.316,10.251a5.566,5.566,0,0,0,4.06,3l.16.043c9.628,2.6,12.713,7.3,14.383,13.548a44.606,44.606,0,0,1,1.094,10.518v4.529H25.4v-.365c0-7.5-7.4-13.817-12.289-18-.733-.627-1.425-1.218-1.982-1.723l-.094-.085c-4.535-4.113-6.412-5.816-6.159-12.711a2.425,2.425,0,1,0-4.848-.177c-.335,9.15,2.88,12.067,7.748,16.482l.1.086c.61.552,1.328,1.166,2.088,1.816,4.217,3.6,10.59,9.051,10.59,14.312v.66a6.1,6.1,0,0,0-4.221,5.795v8.812a6.1,6.1,0,0,0,6.09,6.089h27.9a6.1,6.1,0,0,0,6.09-6.089v-8.812a6.1,6.1,0,0,0-4.221-5.794Zm-.629,14.606a1.24,1.24,0,0,1-1.239,1.238h-27.9a1.255,1.255,0,0,1-1.239-1.238v-8.812a1.255,1.255,0,0,1,1.239-1.238h27.9a1.255,1.255,0,0,1,1.239,1.238Z" transform="translate(0 -80.511)" fill="#42b39a"/>
  <path id="Path_2808" data-name="Path 2808" d="M335.825,145.792c0-.025,0-.049,0-.074L333.5,111.111a8.317,8.317,0,0,0-8.189-8.022h-.018a8.391,8.391,0,0,0-8.174,8.018L315.6,130.659a8.326,8.326,0,0,0-5.2,3.764l-6.32,10.258c-.12.2-.264.523-.471.641a3.867,3.867,0,0,1-.878.252c-10.025,2.706-15.35,7.784-17.807,16.983a48.473,48.473,0,0,0-1.257,11.681c0,.019,0,.038,0,.057v4.852a6.1,6.1,0,0,0-4.221,5.795v8.812a6.1,6.1,0,0,0,6.09,6.089h27.9a6.1,6.1,0,0,0,6.09-6.089v-8.812a6.1,6.1,0,0,0-4.221-5.795v-.66c0-5.261,6.373-10.707,10.59-14.312.76-.65,1.478-1.263,2.09-1.817l.093-.085C332.945,157.858,336.16,154.942,335.825,145.792Zm-21.15,47.961a1.255,1.255,0,0,1-1.239,1.238h-27.9a1.255,1.255,0,0,1-1.239-1.238v-8.812a1.255,1.255,0,0,1,1.239-1.238h27.9a1.255,1.255,0,0,1,1.239,1.238Zm10.144-35.072-.092.083c-.559.506-1.251,1.1-1.984,1.724-4.894,4.182-12.289,10.5-12.289,18v.365H288.519v-4.529a44.611,44.611,0,0,1,1.093-10.517c1.67-6.253,4.755-10.951,14.386-13.55l.157-.042a5.562,5.562,0,0,0,4.058-2.992l6.321-10.26a3.511,3.511,0,0,1,2.2-1.586,3.592,3.592,0,0,1,1.011-.094h.038a3.554,3.554,0,0,1,2.8,5.4L310.339,157.3a2.425,2.425,0,0,0,4.13,2.544l10.236-16.618a8.411,8.411,0,0,0-2.751-11.558,8.434,8.434,0,0,0-1.51-.735l1.507-19.453a3.565,3.565,0,0,1,3.349-3.544h.007a3.523,3.523,0,0,1,3.35,3.5l2.321,34.569C331.223,152.87,329.345,154.574,324.819,158.68Z" transform="translate(-211.669 -80.511)" fill="#42b39a"/>
  <path id="Path_2809" data-name="Path 2809" d="M115.846,59.016h10.707a21.652,21.652,0,0,0-.413,4.194v3.835a2.425,2.425,0,0,0,2.425,2.425h38.872a2.425,2.425,0,0,0,2.425-2.425V63.21a21.633,21.633,0,0,0-.413-4.194h10.714a2.425,2.425,0,0,0,2.425-2.425V52.755a21.922,21.922,0,0,0-9.944-18.3A15.141,15.141,0,1,0,148,16.9a15.144,15.144,0,1,0-24.645,17.553,21.923,21.923,0,0,0-9.937,18.3v3.835A2.425,2.425,0,0,0,115.846,59.016Zm49.166,5.6H130.991v-1.41a17.07,17.07,0,0,1,8.822-14.891,15.088,15.088,0,0,0,16.377,0,17.07,17.07,0,0,1,8.822,14.891v1.41Zm12.726-11.864v1.41h-9.852a22.011,22.011,0,0,0-7.962-9.256,15.12,15.12,0,0,0,2.508-4.729,15.044,15.044,0,0,0,6.479-2.316A17.072,17.072,0,0,1,177.739,52.755ZM160.721,14.849a10.289,10.289,0,0,1,2.414,20.292A15.164,15.164,0,0,0,151.37,20.828,10.289,10.289,0,0,1,160.721,14.849ZM148,25.3a10.293,10.293,0,1,1-10.294,10.29A10.3,10.3,0,0,1,148,25.3ZM135.283,14.849a10.283,10.283,0,0,1,9.353,5.978A15.164,15.164,0,0,0,132.869,35.14a10.289,10.289,0,0,1,2.414-20.291ZM118.272,52.755a17.07,17.07,0,0,1,8.821-14.891,15.044,15.044,0,0,0,6.479,2.316,15.121,15.121,0,0,0,2.508,4.729,22.01,22.01,0,0,0-7.962,9.256h-9.845Z" transform="translate(-85.912 -9.998)" fill="#fc8e0b"/>
  <path id="Path_2810" data-name="Path 2810" d="M5.521,229.574A2.429,2.429,0,1,0,3.1,227.141v.014a2.42,2.42,0,0,0,2.425,2.418Z" transform="translate(-2.345 -172.638)" fill="#42b39a"/>
</svg>
