<svg xmlns="http://www.w3.org/2000/svg" width="193.35" height="191.575" viewBox="0 0 193.35 191.575">
  <g id="theatre" transform="translate(0.001 -2.352)">
    <path id="Path_3537" data-name="Path 3537" d="M394.162,276.672a19,19,0,0,0,13.481-5.575,2.832,2.832,0,0,0-4-4,13.416,13.416,0,0,1-18.952,0,2.832,2.832,0,1,0-4,4A19,19,0,0,0,394.162,276.672Z" transform="translate(-236.441 -164.273)" fill="#3ebfab"/>
    <path id="Path_3538" data-name="Path 3538" d="M299.8,324.216a31.5,31.5,0,0,0-31.46,31.46v.077a4.415,4.415,0,0,0,8.36,1.959,25.8,25.8,0,0,1,46.2,0,4.38,4.38,0,0,0,3.929,2.435,4.481,4.481,0,0,0,1.02-.118,4.393,4.393,0,0,0,3.411-4.282v-.07a31.5,31.5,0,0,0-31.46-31.461Zm0,13.518a31.259,31.259,0,0,0-25.261,12.7,25.8,25.8,0,0,1,50.522,0A31.258,31.258,0,0,0,299.8,337.734Z" transform="translate(-167.029 -200.346)" fill="#faa220"/>
    <path id="Path_3539" data-name="Path 3539" d="M61.28,122.384a13.416,13.416,0,0,1,18.952,0,2.831,2.831,0,0,0,4-4,19.086,19.086,0,0,0-26.961,0,2.832,2.832,0,1,0,4,4Z" transform="translate(-35.136 -68.752)" fill="#3ebfab"/>
    <path id="Path_3540" data-name="Path 3540" d="M216.414,118.38a19.087,19.087,0,0,0-26.962,0,2.831,2.831,0,1,0,4,4,13.4,13.4,0,0,1,18.953,0,2.832,2.832,0,0,0,4-4Z" transform="translate(-117.41 -68.752)" fill="#3ebfab"/>
    <path id="Path_3541" data-name="Path 3541" d="M99.711,235.571a36.875,36.875,0,0,0,36.833-36.833v-.051l-2.831.009,2.831-.048a4.713,4.713,0,0,0-8.922-2.091,31.169,31.169,0,0,1-55.822,0,4.713,4.713,0,0,0-8.922,2.1v.083a36.875,36.875,0,0,0,36.834,36.833Zm0-16.055a36.6,36.6,0,0,0,30.919-16.81,31.173,31.173,0,0,1-61.837,0,36.6,36.6,0,0,0,30.919,16.81Z" transform="translate(-39.138 -119.268)" fill="#faa220"/>
    <path id="Path_3542" data-name="Path 3542" d="M13.4,16.835a4.264,4.264,0,0,1,2.728-2.421,157.574,157.574,0,0,1,88.9,0,4.265,4.265,0,0,1,2.728,2.421,96.187,96.187,0,0,1,3.961,11.084,2.832,2.832,0,1,0,5.44-1.574,101.939,101.939,0,0,0-4.2-11.739,9.909,9.909,0,0,0-6.34-5.626,163.229,163.229,0,0,0-92.086,0A9.91,9.91,0,0,0,8.19,14.606,100.919,100.919,0,0,0,10.975,100.2a2.831,2.831,0,1,0,5.05-2.562,95.273,95.273,0,0,1-2.628-80.8Z" transform="translate(0 0)" fill="#3ebfab"/>
    <path id="Path_3543" data-name="Path 3543" d="M212.983,123.16a9.91,9.91,0,0,0-6.34-5.626,163.971,163.971,0,0,0-28.623-5.685,2.832,2.832,0,1,0-.6,5.631,158.254,158.254,0,0,1,27.632,5.488,4.266,4.266,0,0,1,2.729,2.421A95.469,95.469,0,0,1,181.622,235.9a32.49,32.49,0,0,1-42.041,0,94.986,94.986,0,0,1-30.047-46.213,38.806,38.806,0,0,0,3.546-2.653,101.233,101.233,0,0,0,17.978-19.831,19.073,19.073,0,0,0,18.073-5.02,2.832,2.832,0,1,0-4-4,13.433,13.433,0,0,1-10.729,3.86,100.886,100.886,0,0,0,8.392-17.5,101.407,101.407,0,0,0,5.9-27.512,158.792,158.792,0,0,1,16.308-.39,2.832,2.832,0,0,0,.157-5.661c-5.383-.15-10.823-.028-16.212.356a100.781,100.781,0,0,0-1.27-17.665,2.832,2.832,0,0,0-5.591.9,95.486,95.486,0,0,1-32.653,88.135,32.947,32.947,0,0,1-4.635,3.273c-.033.019-.066.038-.1.059a32.48,32.48,0,0,1-37.309-3.332A95.467,95.467,0,0,1,49.89,163.25a2.832,2.832,0,0,0-4.692,3.172A101.122,101.122,0,0,0,63.73,187.039a38.125,38.125,0,0,0,40.745,5.5,100.608,100.608,0,0,0,31.453,47.689,38.138,38.138,0,0,0,49.349,0A101.131,101.131,0,0,0,212.983,123.16Z" transform="translate(-27.832 -55.362)" fill="#3ebfab"/>
  </g>
</svg>
