<svg xmlns="http://www.w3.org/2000/svg" width="160.932" height="12.067" viewBox="0 0 160.932 12.067">
  <path id="underline" d="M766,730.258c2.774,0,2.774,10.067,5.548,10.067s2.775-10.067,5.549-10.067,2.774,10.067,5.548,10.067,2.774-10.067,5.549-10.067,2.774,10.067,5.549,10.067,2.773-10.067,5.546-10.067,2.774,10.067,5.548,10.067,2.773-10.067,5.546-10.067,2.774,10.067,5.548,10.067,2.773-10.067,5.547-10.067,2.773,10.067,5.547,10.067,2.774-10.067,5.548-10.067,2.774,10.067,5.549,10.067,2.774-10.067,5.548-10.067,2.775,10.067,5.549,10.067,2.775-10.067,5.55-10.067,2.775,10.067,5.549,10.067,2.775-10.067,5.55-10.067,2.775,10.067,5.55,10.067,2.775-10.067,5.551-10.067,2.775,10.067,5.551,10.067,2.775-10.067,5.549-10.067,2.775,10.067,5.549,10.067,2.775-10.067,5.549-10.067,2.775,10.067,5.551,10.067,2.777-10.067,5.553-10.067,2.775,10.067,5.551,10.067,2.778-10.067,5.555-10.067,2.777,10.067,5.555,10.067" transform="translate(-766 -729.258)" fill="none" stroke="#42b39a" stroke-miterlimit="10" stroke-width="2"/>
</svg>
