<svg xmlns="http://www.w3.org/2000/svg" width="47.316" height="31" viewBox="0 0 47.316 31">
  <g id="united-states" transform="translate(0 -88.275)">
    <path id="Path_1159" data-name="Path 1159" d="M43.772,88.276H3.544A3.544,3.544,0,0,0,0,91.82v23.913a3.544,3.544,0,0,0,3.544,3.544H43.772a3.544,3.544,0,0,0,3.544-3.544V91.82A3.544,3.544,0,0,0,43.772,88.276Z" transform="translate(0 -0.001)" fill="#f5f5f5"/>
    <g id="Group_55295" data-name="Group 55295" transform="translate(0 88.275)">
      <path id="Path_1160" data-name="Path 1160" d="M2.109,90.661H49.035a3.544,3.544,0,0,0-3.349-2.385H5.458A3.544,3.544,0,0,0,2.109,90.661Z" transform="translate(-1.914 -88.276)" fill="#ff4b55"/>
      <rect id="Rectangle_755" data-name="Rectangle 755" width="47.316" height="2.385" transform="translate(0 9.538)" fill="#ff4b55"/>
      <rect id="Rectangle_756" data-name="Rectangle 756" width="47.316" height="2.385" transform="translate(0 4.769)" fill="#ff4b55"/>
      <path id="Path_1161" data-name="Path 1161" d="M0,244.667a.816.816,0,0,0,.816.816h46.5V243.1H0Z" transform="translate(0 -228.79)" fill="#ff4b55"/>
      <rect id="Rectangle_757" data-name="Rectangle 757" width="47.316" height="2.385" transform="translate(0 23.847)" fill="#ff4b55"/>
      <path id="Path_1162" data-name="Path 1162" d="M49.035,397.92H2.109A3.544,3.544,0,0,0,5.458,400.3H45.686A3.544,3.544,0,0,0,49.035,397.92Z" transform="translate(-1.914 -369.305)" fill="#ff4b55"/>
      <rect id="Rectangle_758" data-name="Rectangle 758" width="47.316" height="2.385" transform="translate(0 19.077)" fill="#ff4b55"/>
    </g>
    <path id="Path_1163" data-name="Path 1163" d="M.816,104.967H21.21a.816.816,0,0,0,.816-.816V89.091a.816.816,0,0,0-.816-.816H3.544A3.544,3.544,0,0,0,0,91.819v12.333A.816.816,0,0,0,.816,104.967Z" fill="#41479b"/>
    <g id="Group_55296" data-name="Group 55296" transform="translate(1.317 90.095)">
      <path id="Path_1164" data-name="Path 1164" d="M15.226,108.02l.181.542.571,0a.077.077,0,0,1,.045.139l-.459.339.172.544a.077.077,0,0,1-.118.086l-.464-.332-.464.332a.077.077,0,0,1-.118-.086l.172-.544-.459-.339a.077.077,0,0,1,.045-.139l.571,0,.181-.542A.077.077,0,0,1,15.226,108.02Z" transform="translate(-14.253 -107.968)" fill="#f5f5f5"/>
      <path id="Path_1165" data-name="Path 1165" d="M15.226,138.675l.181.542.571,0a.077.077,0,0,1,.045.139l-.459.339.172.544a.077.077,0,0,1-.118.086L15.153,140l-.464.332a.077.077,0,0,1-.118-.086l.172-.544-.459-.339a.077.077,0,0,1,.045-.139l.571,0,.181-.542A.077.077,0,0,1,15.226,138.675Z" transform="translate(-14.253 -135.79)" fill="#f5f5f5"/>
      <path id="Path_1166" data-name="Path 1166" d="M15.226,169.329l.181.542.571,0a.077.077,0,0,1,.045.139l-.459.339.172.544a.077.077,0,0,1-.118.086l-.464-.332-.464.332a.077.077,0,0,1-.118-.086l.172-.544-.459-.339a.077.077,0,0,1,.045-.139l.571,0,.181-.542A.077.077,0,0,1,15.226,169.329Z" transform="translate(-14.253 -163.611)" fill="#f5f5f5"/>
      <path id="Path_1167" data-name="Path 1167" d="M15.226,199.983l.181.542.571,0a.077.077,0,0,1,.045.139l-.459.339.172.544a.077.077,0,0,1-.118.086l-.464-.332-.464.332a.077.077,0,0,1-.118-.086l.172-.544-.459-.339a.077.077,0,0,1,.045-.139l.571,0,.181-.542A.077.077,0,0,1,15.226,199.983Z" transform="translate(-14.253 -191.432)" fill="#f5f5f5"/>
      <path id="Path_1168" data-name="Path 1168" d="M15.226,230.638l.181.542.571,0a.077.077,0,0,1,.045.139l-.459.339.172.544a.077.077,0,0,1-.118.086l-.464-.332-.464.332a.077.077,0,0,1-.118-.086l.172-.544-.459-.339a.077.077,0,0,1,.045-.139l.571,0,.181-.542A.077.077,0,0,1,15.226,230.638Z" transform="translate(-14.253 -219.254)" fill="#f5f5f5"/>
      <path id="Path_1169" data-name="Path 1169" d="M39.019,123.05l.181.542.571,0a.077.077,0,0,1,.045.139l-.459.339.172.544a.077.077,0,0,1-.118.086l-.464-.332-.464.332a.077.077,0,0,1-.118-.086l.172-.544-.459-.339a.077.077,0,0,1,.045-.139l.571,0,.181-.542A.077.077,0,0,1,39.019,123.05Z" transform="translate(-35.847 -121.609)" fill="#f5f5f5"/>
      <path id="Path_1170" data-name="Path 1170" d="M39.019,153.7l.181.542.571,0a.077.077,0,0,1,.045.139l-.459.339.172.544a.077.077,0,0,1-.118.086l-.464-.332-.464.332a.077.077,0,0,1-.118-.086l.172-.544-.459-.339a.077.077,0,0,1,.045-.139l.571,0,.181-.542A.077.077,0,0,1,39.019,153.7Z" transform="translate(-35.847 -149.43)" fill="#f5f5f5"/>
      <path id="Path_1171" data-name="Path 1171" d="M39.019,184.358l.181.542.571,0a.077.077,0,0,1,.045.139l-.459.339.172.544a.077.077,0,0,1-.118.086l-.464-.332-.464.332a.077.077,0,0,1-.118-.086l.172-.544-.459-.339a.077.077,0,0,1,.045-.139l.571,0,.181-.542A.077.077,0,0,1,39.019,184.358Z" transform="translate(-35.847 -177.251)" fill="#f5f5f5"/>
      <path id="Path_1172" data-name="Path 1172" d="M39.019,215.013l.181.542.571,0a.077.077,0,0,1,.045.139l-.459.339.172.544a.077.077,0,0,1-.118.086l-.464-.332-.464.332a.077.077,0,0,1-.118-.086l.172-.544-.459-.339a.077.077,0,0,1,.045-.139l.571,0,.181-.542A.077.077,0,0,1,39.019,215.013Z" transform="translate(-35.847 -205.073)" fill="#f5f5f5"/>
      <path id="Path_1173" data-name="Path 1173" d="M62.812,108.02l.181.542.571,0a.077.077,0,0,1,.045.139l-.459.339.172.544a.077.077,0,0,1-.118.086l-.464-.332-.464.332a.077.077,0,0,1-.118-.086l.172-.544-.459-.339a.077.077,0,0,1,.045-.139l.571,0,.181-.542A.077.077,0,0,1,62.812,108.02Z" transform="translate(-57.441 -107.968)" fill="#f5f5f5"/>
      <path id="Path_1174" data-name="Path 1174" d="M62.812,138.675l.181.542.571,0a.077.077,0,0,1,.045.139l-.459.339.172.544a.077.077,0,0,1-.118.086L62.739,140l-.464.332a.077.077,0,0,1-.118-.086l.172-.544-.459-.339a.077.077,0,0,1,.045-.139l.571,0,.181-.542A.077.077,0,0,1,62.812,138.675Z" transform="translate(-57.441 -135.79)" fill="#f5f5f5"/>
      <path id="Path_1175" data-name="Path 1175" d="M62.812,169.329l.181.542.571,0a.077.077,0,0,1,.045.139l-.459.339.172.544a.077.077,0,0,1-.118.086l-.464-.332-.464.332a.077.077,0,0,1-.118-.086l.172-.544-.459-.339a.077.077,0,0,1,.045-.139l.571,0,.181-.542A.077.077,0,0,1,62.812,169.329Z" transform="translate(-57.441 -163.611)" fill="#f5f5f5"/>
      <path id="Path_1176" data-name="Path 1176" d="M62.812,199.983l.181.542.571,0a.077.077,0,0,1,.045.139l-.459.339.172.544a.077.077,0,0,1-.118.086l-.464-.332-.464.332a.077.077,0,0,1-.118-.086l.172-.544-.459-.339a.077.077,0,0,1,.045-.139l.571,0,.181-.542A.077.077,0,0,1,62.812,199.983Z" transform="translate(-57.441 -191.432)" fill="#f5f5f5"/>
      <path id="Path_1177" data-name="Path 1177" d="M62.812,230.638l.181.542.571,0a.077.077,0,0,1,.045.139l-.459.339.172.544a.077.077,0,0,1-.118.086l-.464-.332-.464.332a.077.077,0,0,1-.118-.086l.172-.544-.459-.339a.077.077,0,0,1,.045-.139l.571,0,.181-.542A.077.077,0,0,1,62.812,230.638Z" transform="translate(-57.441 -219.254)" fill="#f5f5f5"/>
      <path id="Path_1178" data-name="Path 1178" d="M86.606,123.05l.181.542.571,0a.077.077,0,0,1,.045.139l-.459.339.172.544A.077.077,0,0,1,87,124.7l-.464-.332-.464.332a.077.077,0,0,1-.118-.086l.172-.544-.459-.339a.077.077,0,0,1,.045-.139l.571,0,.181-.542A.077.077,0,0,1,86.606,123.05Z" transform="translate(-79.036 -121.609)" fill="#f5f5f5"/>
      <path id="Path_1179" data-name="Path 1179" d="M86.606,153.7l.181.542.571,0a.077.077,0,0,1,.045.139l-.459.339.172.544a.077.077,0,0,1-.118.086l-.464-.332-.464.332a.077.077,0,0,1-.118-.086l.172-.544-.459-.339a.077.077,0,0,1,.045-.139l.571,0,.181-.542A.077.077,0,0,1,86.606,153.7Z" transform="translate(-79.036 -149.43)" fill="#f5f5f5"/>
      <path id="Path_1180" data-name="Path 1180" d="M86.606,184.358l.181.542.571,0a.077.077,0,0,1,.045.139l-.459.339.172.544a.077.077,0,0,1-.118.086l-.464-.332-.464.332a.077.077,0,0,1-.118-.086l.172-.544-.459-.339a.077.077,0,0,1,.045-.139l.571,0,.181-.542A.077.077,0,0,1,86.606,184.358Z" transform="translate(-79.036 -177.251)" fill="#f5f5f5"/>
      <path id="Path_1181" data-name="Path 1181" d="M86.606,215.013l.181.542.571,0a.077.077,0,0,1,.045.139l-.459.339.172.544a.077.077,0,0,1-.118.086l-.464-.332-.464.332a.077.077,0,0,1-.118-.086l.172-.544-.459-.339a.077.077,0,0,1,.045-.139l.571,0,.181-.542A.077.077,0,0,1,86.606,215.013Z" transform="translate(-79.036 -205.073)" fill="#f5f5f5"/>
      <path id="Path_1182" data-name="Path 1182" d="M110.4,108.02l.181.542.571,0a.077.077,0,0,1,.045.139l-.459.339.172.544a.077.077,0,0,1-.118.086l-.464-.332-.464.332a.077.077,0,0,1-.118-.086l.172-.544-.459-.339a.077.077,0,0,1,.045-.139l.571,0,.181-.542A.077.077,0,0,1,110.4,108.02Z" transform="translate(-100.63 -107.968)" fill="#f5f5f5"/>
      <path id="Path_1183" data-name="Path 1183" d="M110.4,138.675l.181.542.571,0a.077.077,0,0,1,.045.139l-.459.339.172.544a.077.077,0,0,1-.118.086l-.464-.332-.464.332a.077.077,0,0,1-.118-.086l.172-.544-.459-.339a.077.077,0,0,1,.045-.139l.571,0,.181-.542A.077.077,0,0,1,110.4,138.675Z" transform="translate(-100.63 -135.79)" fill="#f5f5f5"/>
      <path id="Path_1184" data-name="Path 1184" d="M110.4,169.329l.181.542.571,0a.077.077,0,0,1,.045.139l-.459.339.172.544a.077.077,0,0,1-.118.086l-.464-.332-.464.332a.077.077,0,0,1-.118-.086l.172-.544-.459-.339a.077.077,0,0,1,.045-.139l.571,0,.181-.542A.077.077,0,0,1,110.4,169.329Z" transform="translate(-100.63 -163.611)" fill="#f5f5f5"/>
      <path id="Path_1185" data-name="Path 1185" d="M110.4,199.983l.181.542.571,0a.077.077,0,0,1,.045.139l-.459.339.172.544a.077.077,0,0,1-.118.086l-.464-.332-.464.332a.077.077,0,0,1-.118-.086l.172-.544-.459-.339a.077.077,0,0,1,.045-.139l.571,0,.181-.542A.077.077,0,0,1,110.4,199.983Z" transform="translate(-100.63 -191.432)" fill="#f5f5f5"/>
      <path id="Path_1186" data-name="Path 1186" d="M110.4,230.638l.181.542.571,0a.077.077,0,0,1,.045.139l-.459.339.172.544a.077.077,0,0,1-.118.086l-.464-.332-.464.332a.077.077,0,0,1-.118-.086l.172-.544-.459-.339a.077.077,0,0,1,.045-.139l.571,0,.181-.542A.077.077,0,0,1,110.4,230.638Z" transform="translate(-100.63 -219.254)" fill="#f5f5f5"/>
      <path id="Path_1187" data-name="Path 1187" d="M134.192,123.05l.181.542.571,0a.077.077,0,0,1,.045.139l-.459.339.172.544a.077.077,0,0,1-.118.086l-.464-.332-.464.332a.077.077,0,0,1-.118-.086l.172-.544-.459-.339a.077.077,0,0,1,.045-.139l.571,0,.181-.542A.077.077,0,0,1,134.192,123.05Z" transform="translate(-122.225 -121.609)" fill="#f5f5f5"/>
      <path id="Path_1188" data-name="Path 1188" d="M134.192,153.7l.181.542.571,0a.077.077,0,0,1,.045.139l-.459.339.172.544a.077.077,0,0,1-.118.086l-.464-.332-.464.332a.077.077,0,0,1-.118-.086l.172-.544-.459-.339a.077.077,0,0,1,.045-.139l.571,0,.181-.542A.077.077,0,0,1,134.192,153.7Z" transform="translate(-122.225 -149.43)" fill="#f5f5f5"/>
      <path id="Path_1189" data-name="Path 1189" d="M134.192,184.358l.181.542.571,0a.077.077,0,0,1,.045.139l-.459.339.172.544a.077.077,0,0,1-.118.086l-.464-.332-.464.332a.077.077,0,0,1-.118-.086l.172-.544-.459-.339a.077.077,0,0,1,.045-.139l.571,0,.181-.542A.077.077,0,0,1,134.192,184.358Z" transform="translate(-122.225 -177.251)" fill="#f5f5f5"/>
      <path id="Path_1190" data-name="Path 1190" d="M134.192,215.013l.181.542.571,0a.077.077,0,0,1,.045.139l-.459.339.172.544a.077.077,0,0,1-.118.086l-.464-.332-.464.332a.077.077,0,0,1-.118-.086l.172-.544-.459-.339a.077.077,0,0,1,.045-.139l.571,0,.181-.542A.077.077,0,0,1,134.192,215.013Z" transform="translate(-122.225 -205.073)" fill="#f5f5f5"/>
      <path id="Path_1191" data-name="Path 1191" d="M157.986,108.02l.181.542.571,0a.077.077,0,0,1,.045.139l-.459.339.172.544a.077.077,0,0,1-.118.086l-.464-.332-.464.332a.077.077,0,0,1-.118-.086l.172-.544-.459-.339a.077.077,0,0,1,.045-.139l.571,0,.181-.542A.077.077,0,0,1,157.986,108.02Z" transform="translate(-143.82 -107.968)" fill="#f5f5f5"/>
      <path id="Path_1192" data-name="Path 1192" d="M157.986,138.675l.181.542.571,0a.077.077,0,0,1,.045.139l-.459.339.172.544a.077.077,0,0,1-.118.086l-.464-.332-.464.332a.077.077,0,0,1-.118-.086l.172-.544-.459-.339a.077.077,0,0,1,.045-.139l.571,0,.181-.542A.077.077,0,0,1,157.986,138.675Z" transform="translate(-143.82 -135.79)" fill="#f5f5f5"/>
      <path id="Path_1193" data-name="Path 1193" d="M157.986,169.329l.181.542.571,0a.077.077,0,0,1,.045.139l-.459.339.172.544a.077.077,0,0,1-.118.086l-.464-.332-.464.332a.077.077,0,0,1-.118-.086l.172-.544-.459-.339a.077.077,0,0,1,.045-.139l.571,0,.181-.542A.077.077,0,0,1,157.986,169.329Z" transform="translate(-143.82 -163.611)" fill="#f5f5f5"/>
      <path id="Path_1194" data-name="Path 1194" d="M157.986,199.983l.181.542.571,0a.077.077,0,0,1,.045.139l-.459.339.172.544a.077.077,0,0,1-.118.086l-.464-.332-.464.332a.077.077,0,0,1-.118-.086l.172-.544-.459-.339a.077.077,0,0,1,.045-.139l.571,0,.181-.542A.077.077,0,0,1,157.986,199.983Z" transform="translate(-143.82 -191.432)" fill="#f5f5f5"/>
      <path id="Path_1195" data-name="Path 1195" d="M157.986,230.638l.181.542.571,0a.077.077,0,0,1,.045.139l-.459.339.172.544a.077.077,0,0,1-.118.086l-.464-.332-.464.332a.077.077,0,0,1-.118-.086l.172-.544-.459-.339a.077.077,0,0,1,.045-.139l.571,0,.181-.542A.077.077,0,0,1,157.986,230.638Z" transform="translate(-143.82 -219.254)" fill="#f5f5f5"/>
      <path id="Path_1196" data-name="Path 1196" d="M181.779,123.05l.181.542.571,0a.077.077,0,0,1,.045.139l-.459.339.172.544a.077.077,0,0,1-.118.086l-.464-.332-.464.332a.077.077,0,0,1-.118-.086l.172-.544-.459-.339a.077.077,0,0,1,.045-.139l.571,0,.181-.542A.077.077,0,0,1,181.779,123.05Z" transform="translate(-165.414 -121.609)" fill="#f5f5f5"/>
      <path id="Path_1197" data-name="Path 1197" d="M181.779,153.7l.181.542.571,0a.077.077,0,0,1,.045.139l-.459.339.172.544a.077.077,0,0,1-.118.086l-.464-.332-.464.332a.077.077,0,0,1-.118-.086l.172-.544-.459-.339a.077.077,0,0,1,.045-.139l.571,0,.181-.542A.077.077,0,0,1,181.779,153.7Z" transform="translate(-165.414 -149.43)" fill="#f5f5f5"/>
      <path id="Path_1198" data-name="Path 1198" d="M181.779,184.358l.181.542.571,0a.077.077,0,0,1,.045.139l-.459.339.172.544a.077.077,0,0,1-.118.086l-.464-.332-.464.332a.077.077,0,0,1-.118-.086l.172-.544-.459-.339a.077.077,0,0,1,.045-.139l.571,0,.181-.542A.077.077,0,0,1,181.779,184.358Z" transform="translate(-165.414 -177.251)" fill="#f5f5f5"/>
      <path id="Path_1199" data-name="Path 1199" d="M181.779,215.013l.181.542.571,0a.077.077,0,0,1,.045.139l-.459.339.172.544a.077.077,0,0,1-.118.086l-.464-.332-.464.332a.077.077,0,0,1-.118-.086l.172-.544-.459-.339a.077.077,0,0,1,.045-.139l.571,0,.181-.542A.077.077,0,0,1,181.779,215.013Z" transform="translate(-165.414 -205.073)" fill="#f5f5f5"/>
      <path id="Path_1200" data-name="Path 1200" d="M205.573,108.02l.181.542.571,0a.077.077,0,0,1,.045.139l-.459.339.172.544a.077.077,0,0,1-.118.086l-.464-.332-.464.332a.077.077,0,0,1-.118-.086l.172-.544-.459-.339a.077.077,0,0,1,.045-.139l.571,0,.181-.542A.077.077,0,0,1,205.573,108.02Z" transform="translate(-187.009 -107.968)" fill="#f5f5f5"/>
      <path id="Path_1201" data-name="Path 1201" d="M205.573,138.675l.181.542.571,0a.077.077,0,0,1,.045.139l-.459.339.172.544a.077.077,0,0,1-.118.086L205.5,140l-.464.332a.077.077,0,0,1-.118-.086l.172-.544-.459-.339a.077.077,0,0,1,.045-.139l.571,0,.181-.542A.077.077,0,0,1,205.573,138.675Z" transform="translate(-187.009 -135.79)" fill="#f5f5f5"/>
      <path id="Path_1202" data-name="Path 1202" d="M205.573,169.329l.181.542.571,0a.077.077,0,0,1,.045.139l-.459.339.172.544a.077.077,0,0,1-.118.086l-.464-.332-.464.332a.077.077,0,0,1-.118-.086l.172-.544-.459-.339a.077.077,0,0,1,.045-.139l.571,0,.181-.542A.077.077,0,0,1,205.573,169.329Z" transform="translate(-187.009 -163.611)" fill="#f5f5f5"/>
      <path id="Path_1203" data-name="Path 1203" d="M205.573,199.983l.181.542.571,0a.077.077,0,0,1,.045.139l-.459.339.172.544a.077.077,0,0,1-.118.086l-.464-.332-.464.332a.077.077,0,0,1-.118-.086l.172-.544-.459-.339a.077.077,0,0,1,.045-.139l.571,0,.181-.542A.077.077,0,0,1,205.573,199.983Z" transform="translate(-187.009 -191.432)" fill="#f5f5f5"/>
      <path id="Path_1204" data-name="Path 1204" d="M205.573,230.638l.181.542.571,0a.077.077,0,0,1,.045.139l-.459.339.172.544a.077.077,0,0,1-.118.086l-.464-.332-.464.332a.077.077,0,0,1-.118-.086l.172-.544-.459-.339a.077.077,0,0,1,.045-.139l.571,0,.181-.542A.077.077,0,0,1,205.573,230.638Z" transform="translate(-187.009 -219.254)" fill="#f5f5f5"/>
    </g>
  </g>
</svg>
