<svg xmlns="http://www.w3.org/2000/svg" width="125.262" height="122.387" viewBox="0 0 125.262 122.387">
  <g id="united" transform="translate(0 0)">
    <path id="Path_1017" data-name="Path 1017" d="M203.556,447.773l-.368,1.8.355-1.8a1.835,1.835,0,1,0-.709,3.6l.033.007a1.871,1.871,0,0,0,.347.033,1.836,1.836,0,0,0,.342-3.638Zm0,0" transform="translate(-152.092 -338.196)" fill="#fc8e0b"/>
    <path id="Path_1018" data-name="Path 1018" d="M262.6,450.266l.183,1.825-.188-1.824a1.835,1.835,0,0,0,.185,3.66c.063,0,.127,0,.19-.01l.051-.006a1.835,1.835,0,0,0-.42-3.646Zm0,0" transform="translate(-197.107 -340.099)" fill="#fc8e0b"/>
    <path id="Path_1019" data-name="Path 1019" d="M233.032,451.233h-.027a1.825,1.825,0,0,0-1.9,1.752,1.845,1.845,0,0,0,1.762,1.915c.029,0,.056,0,.085,0a1.835,1.835,0,0,0,.081-3.668Zm0,0" transform="translate(-174.562 -340.835)" fill="#fc8e0b"/>
    <path id="Path_1020" data-name="Path 1020" d="M175.042,439.906l-.023-.009a1.824,1.824,0,0,0-2.336,1.111,1.841,1.841,0,1,0,2.359-1.1Zm0,0" transform="translate(-130.355 -332.194)" fill="#fc8e0b"/>
    <path id="Path_1021" data-name="Path 1021" d="M291.736,444.863l.452,1.779-.458-1.777a1.835,1.835,0,1,0,.915,3.553l.049-.012a1.835,1.835,0,0,0-.959-3.543Zm0,0" transform="translate(-219.317 -335.98)" fill="#fc8e0b"/>
    <path id="Path_1022" data-name="Path 1022" d="M319.7,435.108l.727,1.684-.733-1.682a1.835,1.835,0,1,0,1.465,3.365l.045-.02a1.835,1.835,0,0,0-1.5-3.347Zm0,0" transform="translate(-240.646 -328.54)" fill="#fc8e0b"/>
    <path id="Path_1023" data-name="Path 1023" d="M148.32,82.361a1.836,1.836,0,1,0-.857-3.456l-.022.011a1.832,1.832,0,0,0,.879,3.444Zm0,0" transform="translate(-110.642 -59.437)" fill="#fc8e0b"/>
    <path id="Path_1024" data-name="Path 1024" d="M64.219,166.717a1.835,1.835,0,0,0,2.478-.773l.032-.064a1.835,1.835,0,1,0-2.511.837Zm0,0" transform="translate(-47.766 -123.298)" fill="#fc8e0b"/>
    <path id="Path_1025" data-name="Path 1025" d="M52.844,194.579a1.832,1.832,0,0,0,2.326-1.15l.024-.073a1.835,1.835,0,1,0-2.35,1.222Zm0,0" transform="translate(-38.973 -144.258)" fill="#fc8e0b"/>
    <path id="Path_1026" data-name="Path 1026" d="M79.718,140.932a1.833,1.833,0,0,0,2.563-.4l.024-.032a1.835,1.835,0,0,0-2.986-2.134l1.478,1.088-1.484-1.08a1.835,1.835,0,0,0,.4,2.563Zm0,0" transform="translate(-59.645 -103.933)" fill="#fc8e0b"/>
    <path id="Path_1027" data-name="Path 1027" d="M122.88,98.509a1.843,1.843,0,1,0-1.063-3.334l-.046.033a1.837,1.837,0,0,0,1.109,3.3Zm0,0" transform="translate(-91.431 -71.622)" fill="#fc8e0b"/>
    <path id="Path_1028" data-name="Path 1028" d="M49.725,312.02a1.835,1.835,0,1,0-.024-.08Zm0,0" transform="translate(-37.493 -233.871)" fill="#fc8e0b"/>
    <path id="Path_1029" data-name="Path 1029" d="M100.225,118.291a1.841,1.841,0,1,0-1.282-3.146l-.031.031a1.833,1.833,0,0,0,1.312,3.116Zm0,0" transform="translate(-74.319 -86.568)" fill="#fc8e0b"/>
    <path id="Path_1030" data-name="Path 1030" d="M47,281.792a1.835,1.835,0,0,0-3.642.454l.011.074A1.835,1.835,0,0,0,47,281.792Zm0,0" transform="translate(-32.744 -211.643)" fill="#fc8e0b"/>
    <path id="Path_1031" data-name="Path 1031" d="M43.371,253.842h.055a1.835,1.835,0,0,0,1.833-1.781l0-.078a1.835,1.835,0,1,0-1.89,1.859Zm0,0" transform="translate(-31.416 -188.949)" fill="#fc8e0b"/>
    <path id="Path_1032" data-name="Path 1032" d="M45.844,223.85a1.893,1.893,0,0,0,.326.029,1.837,1.837,0,0,0,1.8-1.512c0-.027.009-.054.012-.08a1.835,1.835,0,1,0-2.143,1.563Zm0,0" transform="translate(-33.486 -166.315)" fill="#fc8e0b"/>
    <path id="Path_1033" data-name="Path 1033" d="M403.254,144.652a1.835,1.835,0,0,0,3.021-2.083l-1.525,1.021,1.52-1.029a1.835,1.835,0,0,0-3.038,2.059Zm0,0" transform="translate(-304.341 -107.073)" fill="#fc8e0b"/>
    <path id="Path_1034" data-name="Path 1034" d="M437.57,229.034a1.834,1.834,0,0,0-1.618,2.029l.01.079a1.836,1.836,0,0,0,1.815,1.575,1.876,1.876,0,0,0,.262-.018,1.848,1.848,0,0,0-.468-3.665Zm0,0" transform="translate(-329.287 -172.991)" fill="#fc8e0b"/>
    <path id="Path_1035" data-name="Path 1035" d="M429.714,200.639l.008.024a1.835,1.835,0,0,0,1.759,1.318,1.807,1.807,0,0,0,.518-.076,1.835,1.835,0,0,0,1.243-2.278l-.008-.024a1.835,1.835,0,1,0-3.521,1.036Zm0,0" transform="translate(-324.527 -149.774)" fill="#fc8e0b"/>
    <path id="Path_1036" data-name="Path 1036" d="M418.733,171.625a1.845,1.845,0,0,0,1.655,1.03,1.834,1.834,0,0,0,1.643-2.639l-1.663.775,1.661-.779a1.835,1.835,0,0,0-3.323,1.558Zm0,0" transform="translate(-316.138 -127.621)" fill="#fc8e0b"/>
    <path id="Path_1037" data-name="Path 1037" d="M383.736,120.488a1.847,1.847,0,1,0-.055-.058Zm0,0" transform="translate(-289.445 -88.64)" fill="#fc8e0b"/>
    <path id="Path_1038" data-name="Path 1038" d="M439.206,260.385a1.846,1.846,0,0,0-.157,3.689l.1,0a1.835,1.835,0,0,0,1.83-1.734l0-.076A1.832,1.832,0,0,0,439.206,260.385Zm0,0" transform="translate(-330.326 -196.68)" fill="#fc8e0b"/>
    <path id="Path_1039" data-name="Path 1039" d="M334.506,82.714l.044.024a1.828,1.828,0,0,0,2.471-.754,1.841,1.841,0,0,0-.745-2.484l-.888,1.606.882-1.609a1.835,1.835,0,1,0-1.764,3.218Zm0,0" transform="translate(-251.949 -59.876)" fill="#fc8e0b"/>
    <path id="Path_1040" data-name="Path 1040" d="M360.6,99.637l.029.022a1.835,1.835,0,0,0,2.218-2.924l-.012-.009a1.835,1.835,0,1,0-2.234,2.911Zm0,0" transform="translate(-271.836 -72.774)" fill="#fc8e0b"/>
    <path id="Path_1041" data-name="Path 1041" d="M124.129,91.483l-8.613-8.629a3.875,3.875,0,0,0-5.487,0l-.2.2-.566-.566a7.406,7.406,0,0,1-1.606-2.4,1.788,1.788,0,0,0-.131-.34,7.42,7.42,0,0,1-.427-2.492V74.812a1.848,1.848,0,1,0-.011-3.262,10.345,10.345,0,0,0-3.032-6.9L95.7,56.279a9.915,9.915,0,0,0-12.678-1.138l-.887-.892V33.263a10.419,10.419,0,0,0-2.585-6.871A7.4,7.4,0,0,1,77.71,21.5V19.966h.126a3.884,3.884,0,0,0,3.879-3.88V3.88A3.884,3.884,0,0,0,77.837,0H43.561a3.884,3.884,0,0,0-3.879,3.88V16.086a3.884,3.884,0,0,0,3.879,3.88h.283v.8a7.362,7.362,0,0,1-2.166,5.236l-3.7,3.706a10.352,10.352,0,0,0-3.044,7.362V48.913A9.894,9.894,0,0,0,36,53.385a9.853,9.853,0,0,0-6.438,2.894L21.206,64.65a10.354,10.354,0,0,0-3.044,7.362v5.241A7.361,7.361,0,0,1,16,82.488l-.559.56-.007.006-.2-.2a3.875,3.875,0,0,0-5.487,0L1.132,91.483a3.89,3.89,0,0,0,0,5.487l2.95,2.954a1.835,1.835,0,1,0,2.6-2.593L3.73,94.377a.213.213,0,0,1,0-.3l8.614-8.629a.206.206,0,0,1,.291,0l1.5,1.5h0l20.449,20.484,2.291,2.3a.213.213,0,0,1,0,.3l-8.613,8.629a.206.206,0,0,1-.292,0L11.874,102.536a1.835,1.835,0,1,0-2.6,2.593L25.371,121.25a3.875,3.875,0,0,0,5.487,0l8.613-8.629a3.889,3.889,0,0,0,0-5.487l-.094-.094,1.087-1.089a7.373,7.373,0,0,1,4.747-2.152,10.383,10.383,0,0,0,6.681-3.029L59.8,92.84a6.283,6.283,0,0,0,4.541-4.786,6.256,6.256,0,0,0,8.94-5.661V78.036a6.254,6.254,0,0,0,8.847-5.7V59.452l5.644,5.672a1.835,1.835,0,0,0,2.6-2.589l-4.706-4.729A6.25,6.25,0,0,1,93.1,58.873l8.356,8.37a6.708,6.708,0,0,1,1.972,4.769v5.241a11.009,11.009,0,0,0,3.237,7.829l.57.571-2.662,2.666-16.1,16.125-.9-.9-.028-.027-.158-.159a11.048,11.048,0,0,0-7.105-3.221,6.729,6.729,0,0,1-4.327-1.964l-6.029-6a1.835,1.835,0,1,0-2.588,2.6l6.026,5.992a10.383,10.383,0,0,0,6.682,3.029,7.377,7.377,0,0,1,4.746,2.151l.089.089a1.766,1.766,0,0,0,.152.153l.846.847-.094.095a3.889,3.889,0,0,0,0,5.487L94.4,121.25a3.876,3.876,0,0,0,5.487,0l24.238-24.28a3.889,3.889,0,0,0,0-5.487Zm-15.8-18.246-.034-.006-.334-.068ZM49.294,98.178a6.716,6.716,0,0,1-4.321,1.96,11.048,11.048,0,0,0-7.106,3.221l-1.083,1.085-.975-.977-.037-.037L18.026,85.652l.57-.571a11.009,11.009,0,0,0,3.237-7.829V72.011A6.7,6.7,0,0,1,23.8,67.242l8.356-8.37A6.248,6.248,0,0,1,39.6,57.812l-4.713,4.721a1.835,1.835,0,0,0,2.6,2.593l5.63-5.64V82.393a6.257,6.257,0,0,0,8.975,5.645,6.288,6.288,0,0,0,3.11,4.225Zm29.17-25.844a2.589,2.589,0,1,1-5.178,0V51.866a1.835,1.835,0,0,0-3.67,0V82.394a2.587,2.587,0,0,1-5.14.429V51.845a1.854,1.854,0,0,0-3.708.021V82.393a6.291,6.291,0,0,0,.038.688v3.7a2.588,2.588,0,1,1-5.177,0V51.822a1.835,1.835,0,0,0-3.671,0v30.57a2.588,2.588,0,1,1-5.177,0V48.261a1.835,1.835,0,1,0-3.67,0v6.313a1.8,1.8,0,0,0-.442.211,6.279,6.279,0,0,1-4.066-5.873V37.074a6.708,6.708,0,0,1,1.972-4.769l3.7-3.706a11.006,11.006,0,0,0,3.238-7.829v-.8H51.2a1.835,1.835,0,0,0,0-3.67H43.561a.21.21,0,0,1-.209-.21V3.88a.21.21,0,0,1,.209-.21H77.836a.21.21,0,0,1,.21.21V16.086a.21.21,0,0,1-.21.21H59.817a1.835,1.835,0,1,0,0,3.67H74.041V21.5a11.08,11.08,0,0,0,2.749,7.308,6.746,6.746,0,0,1,1.675,4.451Zm43.067,22.044-24.238,24.28a.2.2,0,0,1-.146.061.2.2,0,0,1-.146-.061l-8.613-8.629a.213.213,0,0,1,0-.3l1.387-1.39h0l14.07-14.094,8.78-8.8a.2.2,0,0,1,.291,0l8.614,8.629a.213.213,0,0,1,0,.3Zm0,0" transform="translate(0)" fill="#42b39a"/>
    <path id="Path_1042" data-name="Path 1042" d="M195.77,32.8a1.957,1.957,0,1,0,1.954,1.957A1.958,1.958,0,0,0,195.77,32.8Zm0,0" transform="translate(-146.399 -24.779)" fill="#42b39a"/>
    <path id="Path_1043" data-name="Path 1043" d="M457.368,374.688a1.957,1.957,0,1,0,1.953,1.957A1.958,1.958,0,0,0,457.368,374.688Zm0,0" transform="translate(-343.996 -283.019)" fill="#42b39a"/>
    <path id="Path_1044" data-name="Path 1044" d="M112.919,445.16a1.954,1.954,0,1,0-1.953,1.957A1.958,1.958,0,0,0,112.919,445.16Zm0,0" transform="translate(-82.342 -334.772)" fill="#42b39a"/>
  </g>
</svg>
