<svg xmlns="http://www.w3.org/2000/svg" width="47.316" height="31" viewBox="0 0 47.316 31">
  <g id="united-kingdom" transform="translate(0 -88.275)">
    <path id="Path_1205" data-name="Path 1205" d="M43.772,88.276H3.544A3.544,3.544,0,0,0,0,91.82v23.913a3.544,3.544,0,0,0,3.544,3.544H43.772a3.544,3.544,0,0,0,3.544-3.544V91.82A3.544,3.544,0,0,0,43.772,88.276Z" transform="translate(0 -0.001)" fill="#41479b"/>
    <path id="Path_1206" data-name="Path 1206" d="M47.266,91.233a3.544,3.544,0,0,0-3.495-2.958H42.85l-15.113,9.9v-9.9H19.579v9.9l-15.113-9.9H3.544A3.544,3.544,0,0,0,.049,91.233L12.966,99.7H0v8.158H12.966L.049,116.317a3.544,3.544,0,0,0,3.495,2.958h.922l15.113-9.9v9.9h8.158v-9.9l15.113,9.9h.922a3.544,3.544,0,0,0,3.495-2.958l-12.917-8.463H47.316V99.7H34.349Z" fill="#f5f5f5"/>
    <g id="Group_55298" data-name="Group 55298" transform="translate(0 88.275)">
      <path id="Path_1207" data-name="Path 1207" d="M26.105,88.276H21.21v13.053H0v4.895H21.21v13.053h4.895V106.223h21.21v-4.895H26.105Z" transform="translate(0 -88.276)" fill="#ff4b55"/>
      <path id="Path_1208" data-name="Path 1208" d="M10.663,311.331l17.243-11.193h-3L9.224,310.319A3.548,3.548,0,0,0,10.663,311.331Z" transform="translate(-8.372 -280.559)" fill="#ff4b55"/>
      <path id="Path_1209" data-name="Path 1209" d="M316.957,300.138h-3l16.7,10.841a3.559,3.559,0,0,0,1.135-1.208Z" transform="translate(-284.946 -280.559)" fill="#ff4b55"/>
      <path id="Path_1210" data-name="Path 1210" d="M4.049,97.1l14.576,9.462h3L5.1,95.842A3.558,3.558,0,0,0,4.049,97.1Z" transform="translate(-3.675 -95.143)" fill="#ff4b55"/>
      <path id="Path_1211" data-name="Path 1211" d="M303.135,101.831l15.713-10.2a3.549,3.549,0,0,0-1.451-1l-17.259,11.2Z" transform="translate(-272.401 -90.41)" fill="#ff4b55"/>
    </g>
  </g>
</svg>
