<svg id="working" xmlns="http://www.w3.org/2000/svg" width="54.204" height="53.121" viewBox="0 0 54.204 53.121">
  <path id="Path_1047" data-name="Path 1047" d="M420.62,49.022l2.954,2.058a.794.794,0,0,0,.908-1.3l-2.614-1.821V44.314a.794.794,0,0,0-1.588,0V48.37A.8.8,0,0,0,420.62,49.022Z" transform="translate(-375.786 -39.454)" fill="#112459"/>
  <path id="Path_1048" data-name="Path 1048" d="M52.789,184.645A2.706,2.706,0,0,0,53,183.608v-.441a.794.794,0,0,0-1.588,0v.441a1.12,1.12,0,0,1-.291.754H33.43a1.119,1.119,0,0,1-.291-.754v-5.365a4.269,4.269,0,0,0,2.7.961h.45v.672a.794.794,0,0,0,1.588,0V179.2H46.67v.672a.794.794,0,0,0,1.588,0V179.2h.45a4.269,4.269,0,0,0,2.7-.961v1.212a.794.794,0,1,0,1.588,0v-5.367a2.726,2.726,0,0,0-2.723-2.723H46.519v-1.01a2.4,2.4,0,0,0-2.4-2.4H40.43a2.4,2.4,0,0,0-2.4,2.4v1.01h-1.7V155.387a3.422,3.422,0,0,0-3.418-3.418H3.418A3.422,3.422,0,0,0,0,155.387V174.6a3.422,3.422,0,0,0,3.418,3.418H14.681l-.73,3.18H12.9a2.567,2.567,0,0,0-2.5,3.163H2.59a2.59,2.59,0,1,0,0,5.181H51.614a2.59,2.59,0,0,0,1.175-4.9ZM23.429,181.2H22.375l-.73-3.18h9.906v5.588a2.7,2.7,0,0,0,.109.754H25.924a2.567,2.567,0,0,0-2.5-3.163Zm27.981-7.111v.826a2.705,2.705,0,0,1-2.7,2.7h-.45v-.672a.794.794,0,0,0-1.588,0v.672H37.879v-.672a.794.794,0,1,0-1.588,0v.672h-.45a2.705,2.705,0,0,1-2.7-2.7v-.826a1.14,1.14,0,0,1,1.135-1.135h16a1.137,1.137,0,0,1,1.135,1.135Zm-11.792-3.733a.814.814,0,0,1,.813-.813h3.688a.814.814,0,0,1,.813.813v1.01H39.618ZM1.588,174.6v-.993H5.214a.794.794,0,1,0,0-1.588H1.588V155.387a1.832,1.832,0,0,1,1.83-1.83h29.49a1.832,1.832,0,0,1,1.83,1.83v15.978h-.464a2.711,2.711,0,0,0-1.769.655H8.926a.794.794,0,1,0,0,1.588H31.594a2.729,2.729,0,0,0-.043.48v2.343H3.418a1.832,1.832,0,0,1-1.83-1.83ZM16.31,178.02h3.706l.73,3.18H15.58Zm-4.391,5.746a.979.979,0,0,1,.978-.978H23.429a.979.979,0,0,1,.978.978.969.969,0,0,1-.205.6H12.125a.969.969,0,0,1-.205-.6Zm39.694,4.19H2.59a1,1,0,0,1,0-2H51.614a1,1,0,1,1,0,2Z" transform="translate(0 -136.422)" fill="#112459"/>
  <path id="Path_1049" data-name="Path 1049" d="M352.477,22.947a8.916,8.916,0,1,0-8.916-8.916A8.926,8.926,0,0,0,352.477,22.947Zm0-16.244a7.328,7.328,0,1,1-7.328,7.328A7.336,7.336,0,0,1,352.477,6.7Z" transform="translate(-307.189 -5.115)" fill="#112459"/>
</svg>
